<?xml version="1.0" encoding="utf-8"?>
<!-- Generator: Adobe Illustrator 26.3.1, SVG Export Plug-In . SVG Version: 6.00 Build 0)  -->
<svg version="1.1" id="Layer_1" xmlns="http://www.w3.org/2000/svg" xmlns:xlink="http://www.w3.org/1999/xlink" x="0px" y="0px"
	 viewBox="0 0 1080 1080" style="enable-background:new 0 0 1080 1080;" xml:space="preserve">
<g id="1">
    <animate id='frame_0' attributeName='display' values='inline;none;none'
               dur='0.45s' fill='freeze' begin="0s" repeatCount="indefinite"/>
	<path d="M939.5,759.8c-0.2-0.5-1.3-0.6-2.3-1c-7.1,6.5-16.9,9.9-24.1,16.9c0,0,0.1,0.1-0.1,0.1c0,0.4-0.3,0.6-0.5,0.9
		c-0.1-0.1-0.2-0.2-0.3-0.3c0.3-0.2,0.5-0.5,0.8-0.7c0,0,0,0,0,0c0.7-2.4,1.3-5,2.7-6.9c3-4,5-8.6,7.4-12.9c0.8-1.6,1.5-3.2,0.7-5
		c-4.1-2.8-8.5-5.1-13-7.5c-1.6,1.7-3.3,3-4.3,4.6c-3.2,5.1-6.4,10.3-9.3,15.6c-1.9,3.5-2.9,7.6-5.3,10.7c-3.5,4.5-6.7,9.2-9.3,14.6
		c-0.2-0.7-0.4-1-0.4-1.3c0-0.5,0.1-1,0-1.5c-1.8-5.2-1.4-10.2,1-15.3c1-2.2,1.1-4.9,2.1-7.1c1.6-3.6,1.7-7.6,2.8-11.3
		c0.6-2,0.3-4.7-0.5-6.7c-1.4-3.2-1.8-6.6-2.6-9.9c-5.6-0.5-10.3,2.8-15.1,3.2c-3.2,2.1-2.8,5.4-3.3,7.9c-0.9,4.8-2.4,9.3-3.8,13.9
		c-1.2,4.1-3.1,8.1-2.4,12.5c0.2,1.5,0.7,3,1,4.6c0.4,2.7,0.2,5.6,1.2,8c0.8,2,0.6,3.7,0.9,5.9c-2.4-1.5-4.3-2.8-6.3-3.8
		c-2.6-1.3-4.9-2.9-6.9-5c-4-4.1-8.5-7.4-12.9-11c-6.7-5.5-14.7-9.1-20.9-15.3c1-2.2,2-4.5,3.1-6.6c1.5-2.8,3.2-5.5,5.6-7.7
		c3.7-3.4,7.3-6.9,10.6-10.6c2.8-3.1,5.6-6.2,7.9-9.7c2.1-3.2,4.5-6.3,7-9.1c6.6-7.1,14.2-13.4,20.1-21.2c1.2-1.6,3.3-2.1,4.3-4.1
		c1-1.8,2.9-3.2,4.5-4.6c0.9-0.9,2.1-1.5,3-2.4c3.8-3.5,7.9-6.7,11-11.1c3-4.3,4-9.6,7.8-13.3c-0.5-2.6,2.3-4.1,1.9-7.7
		c-0.4-0.3-1.3-1.3-2.5-1.8c-4.7-2.2-8.8-5.2-13.2-8c-7.9-4.9-15.6-10.1-22.8-16.1c-2.9-2.4-6.1-4.4-9.3-6.4
		c-3.4-2.1-7.3-3.4-11.1-4.6c-2.6-0.9-5.3-1.8-7.6-3.3c-3-1.8-5.6-4.1-8.4-6.3c-3.4-2.7-6.7-5.5-10.1-8.1c-2-1.5-4-3.6-6.3-4.1
		c-4.4-1-7.7-3.9-11.8-5.3c-1.4-0.5-2.7-1.7-3.9-2.7c-4.3-3.6-8.4-7.6-13-10.9c-6.5-4.7-13.3-8.9-19.9-13.4
		c-6.6-4.5-13.3-8.9-19.8-13.6c-5.3-3.8-10.4-7.8-15.7-11.6c-1.6-1.2-3.6-2-5.1-3.2c-2.5-2.1-4.9-4.3-7.3-6.4
		c-5.1-4.7-10.2-9.5-15.9-13.6c-3.3-2.4-6.5-5.1-9.9-7.4c-5.7-3.8-11.2-7.7-16.5-12c-2.4-1.9-4.4-4.5-7.1-5.8
		c-2.1-1-2.8-3.7-5.6-3.4c0.3-1.1,0.3-1.9,0.6-2.7c0.8-2.2,2.1-4.2,2.5-6.4c1-5.5,2.4-10.9,2.1-16.6c-0.1-2.4-0.7-4.7-1-7.1
		c-0.6-6.3,0.8-12.8-1.1-19.1c0.4-9.2-0.6-18.4-0.9-27.6c-0.2-6-0.8-11.8-2-17.7c-1-4.7-2.6-9.3-3.8-13.9c-1.1-4.2-2.8-8.2-4.2-12.3
		c-1.9-5.4-5.1-10.2-6.1-15.9c-3.4-3.5-4.6-8.6-8.1-12.2c-1.6-1.7-2.5-4-4-5.8c-1.8-2.3-3.4-4.8-5.7-6.6c-5.1-4.1-10.9-7.2-16.9-9.7
		c-8.7-3.5-17.6-6.5-26.4-9.7c-2.4-0.9-3.9-1.6-4.1-4.3c0-0.8-0.4-1.5-0.6-2.2c-0.7-2.5-1.2-5.1-2.2-7.6c-0.7-1.9-1.9-3.6-3.2-5.2
		c-1.2-1.5-2.5-3-4-4.3c-5.8-5-10.2-11.3-15.2-17.1c-1.8-2.1-3.5-4.5-4.9-6.9c-2.9-4.8-7.4-7.6-12.2-10.2c-3.8-2.1-7.7-4.1-11.2-6.9
		c-3.1-2.5-6.3-4.9-9.4-7.4c-2.9-2.3-6.1-4.2-8.6-6.8c-3.3-3.4-7.1-6-10.9-8.7c-1.2-0.9-2.7-1.4-4.3-1.8c-3.4-0.9-6.9-1.5-10.3-2.7
		c-2.1-0.8-4.4-1.9-6.6-2c-2.4-0.1-4.7-0.8-7.1-1.1c-3.4-0.4-6.7,0.2-10.1-0.9c-2.7-0.8-5.9,0-8.9-0.2c-3-0.2-6-0.6-9.1-1
		c-6.9-0.7-13.7,1.2-20.6,1c-2.2-0.1-4.7-0.7-6.4,0.2c-2.6,1.3-5,0.5-7.7,0.8c10.2-14,20.8-27.2,28.1-42.8
		c-3.9-4.4-9.1-6.6-14.4-9.7c-4.3,6.3-8.3,12.3-12.6,18.5c0,1,0,2.3,0,3.3c-0.8,1.3-1.3,2.5-2,3.5c-0.5,0.8-1,1.7-1.7,2.2
		c-1.7,1.3-3.8,2.3-5.4,3.7c-1.8,1.6-3.4,3.5-4.6,5.6c-2.4,4.1-5.5,7.5-8.9,10.8c-0.8,0.8-2,1.5-2.3,2.5c-1,2.9-3.2,3.2-5.6,3.4
		c-3.2,0.3-6.6,0.2-9.5,1.2c-1.9,0.7-3.8,0.4-5.6,1c-3.5,1.2-7,2-10.7,1.8c-2.9-0.2-5.8,0.6-8.6-0.9c-1.3-0.7-3.3-0.1-4.9-0.1
		s-3.3,0-5,0s-3.4-0.3-5,0.1c-1.5,0.3-2.8-0.5-4.3-0.5c-2.1-0.1-4,0.9-6.1,0.5c-1.3-0.2-2.7,0-4,0c-1.3,0-2.7,0.1-4,0
		c-1.3-0.1-2.5-0.6-3.8-0.5c-1.1,0.1-2-0.4-3-0.4c-3.9-0.4-7.8,0.6-11.6-1.1c-4.9,0.7-9.7-1.2-14.6-1.1c-3.4,0.1-6.8-0.3-10-1.1
		c-1.2-0.3-2.3-0.8-3.6-0.8c-1.3,0-2.7,0-4,0c-1.3,0-2.8-0.3-4,0.1c-1.3,0.4-2-0.7-3.3-0.6c-1.5,0.1-2.9,0.7-4.5,0.7
		c-1.8-0.1-3.8,0.3-5.6,0.9c-3.3,1.1-7.4,0.9-9.8,4.8c0.9,2.3-0.7,4.6-1.3,7c-0.6,2.6-1.9,5.1-1.6,7.8c0.1,1.2,0.7,2.4,1,3.6
		c0.7,3.2,1.2,6.5,2,9.6c1.8,6.4,1.9,6.4,0.9,11.2c-0.6,2.9-1.4,5.7-2,8.2c-4.9,2.7-7.2,6.6-8.5,11.8c-1.2,0.5-2.6,1.2-4,1.7
		c-4.4,1.8-9.1,3.1-13.2,5.4c-6.6,3.8-14,5.7-20.6,9.4c-2.7-0.2-4.7,1.7-7,2.4c-4.4,1.3-8.4,3.8-12.4,5.6c-0.5,2.8-1.1,5.1-1.2,7.5
		c-0.3,4.7,0.7,9.2,1.8,13.7c0.4,1.5,1.3,3,1.1,4.5c-0.2,1.7,0.6,3.1,1,4.6c0.9,3.5,1.6,7.1,2,10.6c0.5,3.8,0.1,7.7,0.8,11.6
		c0.9,4.5,0.1,9.3,1.1,14c0.8,4.3,0.8,8.7,1.1,13c0,0.3-0.1,0.8,0.1,1c1.9,1.8,0.7,4.1,0.9,6.1c0.2,2.2,1.2,4.2,1.2,6.6
		c-0.1,3.3-0.1,7,1.1,10c0.9,2.3,0.3,4.4,1,6.6c1.3,3.5,1.9,7.2,2.6,10.9c0.8,3.8,1.8,7.6,2.7,11.4c0.8,3.5,1.7,6.9,2.5,10.2
		c-2.5,2.9-5.8,4.4-8.4,6.7c-3.5,3.1-7,6.3-9.8,10.3c-3.7,5.2-6.8,10.7-11.1,15.5c-2.9,3.3-5.5,7-7.7,10.8
		c-3.9,6.9-8.5,13.4-12.5,20.3c-1.3,2.4-3.4,4.6-2.3,8c4.1,2.6,8.2,5.2,12.1,7.7c1-0.4,2-0.5,2.3-1c3.1-4.5,6.2-9.1,9.2-13.7
		c4-6.1,7.5-12.4,12.4-17.9c1.4-1.5,2.7-3.2,3.6-5c4.1-8.4,11.1-13.9,18.6-19.2c1.1,4.3,2.2,8.5,3.4,12.7c0.9,3.3,1.8,6.6,3,9.7
		c1.7,4.3,3.2,8.8,5.6,12.6c2.7,4.2,4.5,8.8,6.2,13.4c1.7,4.6,3.6,9.2,5.7,13.6c2.3,4.7,4.8,9.4,7.4,13.9c2,3.5,4.1,7.1,6.7,10.2
		c3.9,4.5,8.2,8.5,12,13c3.4,4.1,7.5,7.6,11.2,11.4c0.8,0.8,1.5,2,2.5,2.4c3.1,1.2,5.3,3.7,6.8,6.2c3,5,7.2,8.7,11.1,12.8
		c3.2,3.4,7.2,5.8,11.2,7.9c3.6,1.9,7.4,3.6,11.7,4.3c4.2,0.7,8,3.1,12.2,4.2c2,0.5,4.4-0.3,5.6,0.7c2,1.7,4.7-0.4,6.3,1.9
		c2.3,0,4.7,0,7,0c1.4,0,2.9,0,4.6,0c-0.9,10.3,0.9,20.1-1.1,30c-0.6,3-0.1,6.3-0.1,9.5c0,3.5,0.3,7-0.1,10.5
		c-0.3,3.3,1.4,6.4,1,9.6c-0.4,3.5,1.3,6.5,2.1,9.6c1.2,5.1,2.9,10.1,6.1,14.4c1.5,2.1,3.5,3.8,4.7,6c1.7,3.2,4,5.8,6.6,8.3
		c3.5,3.4,6.7,7.2,10.9,9.9c4.4,2.9,8.2,7,14,7.1c1.5,1.9,3.9,0.7,5.8,1.9c1.6,1,4,0.9,6,1.1c2.2,0.2,4.3,0,6.5,0
		c7.8,0,15.6,0.1,23.5,0c3.7-0.1,7.3,0.1,11.1-0.7c3.8-0.8,7.8-1.3,11.6-2c4.3-0.7,7.7-2.5,11.1-4.8c2.2-1.5,4.3-3.2,6.6-4.5
		c2.4-1.4,5-2.4,7.5-3.6c1.1-0.5,2.3-0.9,3.5-1.3c6.7-2.1,13.6-3.5,20.4-5c1.5-0.3,3-0.7,4.3-1.1c1.6,1.6,3.4,2.8,4.4,4.5
		c1.9,3.5,4.9,5.9,7.3,8.9c3.1,3.9,6.3,7.7,9.5,11.6c5.6,6.9,9.6,14.6,14,22.2c1,1.7,1.4,3.8,2.5,5.4c4.5,6,6.9,13.3,11.8,19.1
		c2.4,6.8,7.8,11.7,11.1,17.9c2.7,4.9,6.5,9.1,9.3,14.1c3.6,6.3,6.5,13,10.4,19.2c3,4.8,5.4,10,7.6,15.3c1.3,3,3.4,5.5,4.6,8.6
		c1.8,4.4,3.2,9,5.4,13.3c2.6,5,5.3,9.8,8.3,14.6c3.9,6.2,8.4,12.1,11.7,18.6c2.2,4.4,6.5,7.1,8.6,11.4c1.7,3.5,4.7,6.2,5.2,10.1
		c2.3,2.3,4.4,4.4,6.7,6.7c0,0.9,0,2.1,0,3.2c4.4,2.5,8.8,4.9,13,7.2c3.2-1.1,4.4-3.9,5.8-6.4c1.9-3.3,3.4-6.9,5.2-10.3
		c1-1.8,1.8-4,3.4-5c1.8-1,3-2.5,4.4-3.7c3.5-2.9,6-6.9,10.2-9.2c1.5-0.8,2.8-2.1,4.2-3.1c1.4-1.1,2.8-2.1,4.2-3.2
		c1.4-1,2.8-2,4.2-3.1c1.4-1,2.8-2.7,4.3-2.8c2.3-0.3,1.2-3.6,3.6-3.2c2.2-2.6,5.1-4.5,6.8-7.7c1.9-3.4,4.2-6.6,6.7-9.7
		c3.3-4.2,6.1-8.7,10.2-12.3c1.5-1.4,2.3-3.7,4-4.8c4.4-2.9,8.2-6.5,12.5-9.6c4.1-2.9,8.3-5.5,12.7-8.3c4.6,6.9,10.5,12,16.8,16.9
		c-1.7,0.6-3.2,1.5-4.7,1.4c-1.7-0.1-3.7-0.4-5-1.1c-2-1.2-3.7-0.5-5-0.7c-2.7,1.4-1,3.9-2.5,5.5c-1.1,1.2-0.4,3.8-1.2,5.4
		c-1,1.9-0.9,3.7-0.8,5.7c3.4,1,6.8,2.3,10.2,2.9c3.5,0.7,6.8,1.3,9.8,3.9c-1,0.6-1.7,1.2-2.4,1.3c-2.4,0.2-4.8,0.6-7.1,0.9
		c-5.4,0.5-10.4,2.7-15.7,3.3c-2.8,0.3-4.9,3.1-4.9,6c-0.1,3.3-0.1,6.7,0,10c0,1,0.7,2,1,2.9c3.8,0,7.1-0.2,10.4,0.1
		c3.2,0.3,6.3-0.4,9-1.3c3.3-1.1,6.7-1.5,9.9-2.5c3.5-1.1,7.3-0.9,11-1.3c0.7-0.1,1.5,0.2,2-0.1c3.4-2.1,7-0.3,10.5-0.7
		c-11.9,4.6-23.6,9.4-33,18.7c1.5,4.9,2.7,10,4,14.9c4.7,0.5,8-2.1,11.8-2.7c3.6-0.5,6.5-2.1,8.7-4.4c3.8-3.9,8.6-6.1,13.3-7.7
		c10.1-3.3,20-7.3,30.2-10.3c2.3-0.7,5.3-0.8,6.8-3.4c-1.7-1.9-0.5-4.1-1-6.5c2.5-0.5,3.8-2.1,4.1-3.9c-0.8-1.5-1.5-2.5-1.9-3.7
		c-0.9-2.2-1.7-4.4-4.2-5.4c-0.7-0.3-1.3-1-1.9-1.5c-7.7-7.7-15.3-15.6-23.6-22.6c-2.3-1.9-4.2-4.3-6.4-6.3c-4-3.7-8.6-6.5-13-9.5
		c-4.3-2.9-9.5-4.3-13-8.5c-4.5-1.8-6.1-6.4-9.3-9.6c1.8-1.8,3-3.8,4.9-4.6c2.1-1,3.5-2.5,4.7-4.1c4.8-6.4,10.2-12.2,16-17.8
		c1.4-1.4,2.6-3.4,4.3-4.1c1.9-0.7,2.7-2.3,4.1-3.4c1.6-1.1,3.2-2.2,4.5-3.5c2-2,3.8-4.3,5.9-6.6c2.4,2,4.5,3.9,6.8,5.6
		c1.3,1,2.9,1.9,4.4,2.7c5.6,3.1,10.6,6.9,15.3,11.1c3.7,3.2,6.8,7.1,10.9,9.9c3,2,5.7,4.5,9,5.9c2.8,1.2,5.3,2.5,7.6,4.6
		c1.7,1.5,4,2.4,6,3.5c4,2.1,8,4.1,12,6.1c4.1-2.5,6-6.9,9.3-10.1c2,2,3.9,4.1,5.9,6.1c1.1-1.7,3-0.9,4.3-2.1c2.9-2.7,6.2-5,9.3-7.5
		c1.4-1.1,2.8-2.1,4.2-3.2c1.5-1.2,2.3-3.2,4.5-3.5c3.1-3.6,7.2-6.2,9.6-10.5c0.9-1.6,2.1-3.4,3.6-4.2c7.5-4,13.4-9.9,19.2-15.8
		C946,767.1,941.4,764.4,939.5,759.8z M308.7,226.6c3.7,0,7.3,0,11.9,0c-9,5.5-13.6,14.2-20.7,20.5
		C302.8,240.2,305.7,233.4,308.7,226.6z M295.3,248.4c1,0,2,0,3.5,0c-1.9,3.1-4.1,5.5-6.7,8.4c-0.6-3.7-1.1-6.8-1.6-9.9
		C293.3,246.5,293.3,246.5,295.3,248.4z M288.1,225.4c0.2,0,0.3,0,0.5,0c0,0.7,0,1.3,0,2c-0.2,0-0.3,0-0.5,0
		C288.1,226.7,288.1,226.1,288.1,225.4z M289.3,261.1c-1.6,2.3-2.7,3.9-4,5.7c-2.2-1.6-3.9-2.7-5.7-4.1
		C282.7,262.2,285.6,261.7,289.3,261.1z M268.6,223.1c0,2.5,0,4.4,0,6.2c-0.1,0-0.3,0-0.4,0c-0.3-1.6-0.6-3.1-1-4.9
		C267.4,224.3,267.9,223.9,268.6,223.1z M267,237.5c0.2,0,0.3,0,0.5-0.1c0.1,0.8,0.3,1.6,0.3,2.5c0,4.1,0,8.3,0,12.4
		c0,0.9,0.4,1.8,0.8,3c-0.6,0-1.1-0.1-1.6-0.1C267,249.3,267,243.4,267,237.5z M246,270.9c2.2-1.3,4-2.5,6-3.7
		c6.3,4.6,12.7,9,19.9,12c-1.7,4.1-5.1,6.2-8.1,8.7c0.5-1.2,0.9-2.4,1.5-3.6c1-1.8,2.1-3.6,1.2-6.2c-4.5-1.8-8.7-5.4-14.2-6.1
		c-1.5,1.7-2.8,3.3-4.1,4.8c-0.9-0.9-2-2.1-3.4-3.5C245.1,272.8,245.6,271.9,246,270.9z M240.7,310.3c0.6-0.2,2.2-0.8,3.7-1.3
		c0.2,0.2,0.3,0.4,0.5,0.7c-3.2,4.9-6.5,9.8-9.7,14.8c-0.1,0-0.2-0.1-0.3-0.1c0,0,0,0,0,0c0.2-1.7,0.7-3.4,1.4-4.9
		C237.6,316.6,238.9,313.9,240.7,310.3z M231.8,284.5c1,1.9,2,3.6,3.2,5.9c-3.8-1.1-7.7-0.5-11.1-2.5
		C226.5,286.8,229,285.7,231.8,284.5z M233.8,325.4c-0.9,2.3-2.1,4.1-3.4,6c-0.5-0.6-0.9-1.1-1.4-1.8c0.3-1.2,0.7-2.6,1.2-4.2
		C231.2,325.4,232.3,325.4,233.8,325.4z M226.9,335.4c-0.3,3.2-2.5,4.8-4.5,6.8c-4.2,0-8.2,0-12.6,0c0.7-2.8,1.6-5.2,2.8-7.6
		C217.5,335.9,222.1,334.9,226.9,335.4z M220.5,306.2c1.2,2.6-0.8,4.6-1.3,6.8C219.4,310.9,217.8,308.4,220.5,306.2z M218.2,314.3
		c0.1,0,0.2,0,0.3,0c0,0.3,0,0.7,0,1c-0.1,0-0.2,0-0.3,0C218.2,315,218.2,314.6,218.2,314.3z M212.9,293.4c0,0.7,0,1.1,0,1.6
		c-1,0-2,0-3.7,0C210.9,294.3,211.8,293.9,212.9,293.4z M201.6,297.6c1.4,3-1.5,6-0.7,9.1c-1.8,2.5-0.6,5.9-2.9,9.1
		c-3.7-4.1-5.9-8.8-9.2-13.2C193.1,300.9,197.3,299.3,201.6,297.6z M192.5,343.4c-0.5-1-0.9-1.9-1.4-2.7c0.1-0.1,0.3-0.3,0.5-0.6
		c-0.3-1.1-0.6-2.2-0.8-3.2c0.7-0.7,1.1-1.1,1.9-1.9c0.1,2.3,0.3,4.3,0.4,6.2c1.8,0.6,3.3,1,5.2,1.7
		C196.1,343.7,194.2,342.9,192.5,343.4z M194.3,377.1c-0.6-5.4-1.1-9.9-1.6-14.4c4.8-1.4,9.4-1.9,14.2-1.3
		C202.7,366.5,199.3,371.9,194.3,377.1z M203.9,415.5c-0.4,0.8-1.3,1.3-2.4,2.4c-1.4-6.1-2.6-11.5-3.8-17c1.8-1.8,3.3-3.2,4.7-4.7
		c2.9-3.1,5.6-6.4,8.5-9.4c2.8-2.9,4.8-6.5,7.5-9.3c4.5-4.7,7.4-10.5,11.8-15.2c2.2-2.4,4.3-4.8,6.5-7.2c2.5-2.8,5-5.5,7.3-8.5
		c2.1-2.7,3.9-5.7,5.8-8.6c3.3-5,6.6-9.9,9.9-14.9c0.7-1,1.5-2,2.1-3.1c1.2-2.4,2.7-4.6,4.6-6.6c9.7-10,19.5-19.8,28.9-30
		c3.3-3.6,6.7-7.2,9.9-10.9c2-2.2,3.2-5,5.3-7.3c1.9-2.1,3.2-4.7,5-6.9c2.5-3,5-6,7.8-8.7c2.4-2.3,5.4-4,7.8-6.3
		c5.3-4.8,10.9-9.4,14.1-15.6c5.9-0.8,11.5-1.6,17.8-2.5c-1,1.6-1.8,2.8-2.5,4c-1.9,2.9-3.8,5.8-5.6,8.7c-0.3,0.5-0.4,1.2-0.8,1.7
		c-2.8,3.5-5.5,7.1-8.5,10.5c-3.9,4.4-8.1,8.6-11.9,13.1c-1.4,1.6-2.3,3.7-3.6,5.5c-3.9,5.1-7.5,10.3-11.8,15.2
		c-4,4.5-8.5,8.7-12.5,13.2c-2.8,3.2-5.3,6.8-7.9,10.2c-0.7,0.9-1.3,1.8-2.1,2.6c-2.9,3-5.9,5.8-8.8,8.9c-3.4,3.6-6.5,7.4-9.1,11.7
		c-0.5,0.8-1.1,1.6-1.8,2.2c-5.7,5.7-10.6,12.1-15.7,18.4c-3.7,4.6-8.2,8.9-13.1,12.6c-3.6,2.7-7,5.9-9.4,9.9
		c-1.3,2.1-3.4,3.6-5.2,5.4c-3.4,3.3-6,7.1-9,10.7c-3.3,4-6.2,8.2-9.6,12.1C210.2,406,206.7,410.5,203.9,415.5z M334.5,587
		c-3.4,0-6.6-1.7-10.1-1c-2.1-1.8-4.9-0.6-7.2-1.9c-2-1.1-4.2-1.8-6.4-2.5c-2.1-0.7-4-1.5-6.3-1.7c-2.2-0.1-10.7-4.8-12.7-6.5
		c-2.4-2-4.8-3.9-7-6c-3.4-3.4-6.2-7.3-8.9-11.3c-0.6-0.9-1.2-2-2.1-2.6c-6.6-4.3-12.3-9.8-17.4-15.7c-3.5-4.1-7.7-7.7-11-11.9
		c-5-6.4-9-13.4-12.5-20.7c-3.1-6.4-5.8-12.9-8.2-19.6c-1.7-4.9-4.3-9.6-7-14c-3-4.9-4.1-10.3-5.7-15.6c-1-3.3-1-6.9-2.2-10.1
		c-0.7-1.8-0.6-3.4-0.8-4.8c2.1-2.9,4.4-5.5,5.8-8.4c1.2-2.3,3.4-3.7,4.4-6.2c1-2.5,3.3-4,4.9-6c2.7-3.3,5.3-6.8,7.8-10.2
		c1.4-1.9,2.7-3.9,4.2-5.7c1.4-1.8,3.5-2.9,4.2-5.2c2.7-0.3,3.1-3,4.5-4.5c1.5-1.6,3-3.1,4.6-4.6c1.6-1.6,3.3-3.3,4.9-4.9
		c2.7-2.6,5.5-5.1,8.3-7.5c4.9-4.2,8.7-9.4,12.2-14.8c1.4-2.2,3.5-4,5.5-5.7c4.5-3.8,7.3-9.1,11.1-13.4c1-1.1,1.9-2.6,3-3.7
		c2.5-2.6,5.1-5.2,7.8-7.8c3.7-3.6,6.1-8.2,9.5-12c2.5-2.8,3.8-6.6,7.6-8.4c1.7-0.8,3.3-2.5,4.1-4.2c0.6-1.3,1.4-2.2,2.3-3
		c6.3-5.8,10.7-13.2,15.8-20c1.9-2.5,3.5-5.3,5.7-7.6c4.1-4.2,8.8-8,12-13c3.9-6.1,8.9-11.4,12.4-17.8c2.7-5,5.9-9.8,10.2-13.8
		c2-1.8,3.9-3.8,5.4-6.2c1-1.7,3-2.7,4.4-3.9c4,0,7.7,0.1,11.3,0c2.9-0.1,5.7-0.8,8.6-0.9c2.8-0.2,5.9,0.6,8.4-0.2
		c4.9-1.5,9.8-1.2,14.6-0.7c5.4,0.6,10.8,0.2,16.1,1c3.7,0.6,7.5,0.2,11.1,1c2.5,0.5,5.2,1,7.7,1.7c4.2,1.2,8.3,2.7,12.7,3.3
		c2.6,0.3,5.2,2,7.4,3.6c3.4,2.5,6.3,5.6,9.5,8.4c6.9,5.9,14.2,11.4,21.6,16.6c0.9,0.6,2,0.7,3,1.2c7.6,3.7,7.7,4.3,14.1,11.7
		c3.6,4.2,6.4,8.9,10.4,12.8c2.4,2.3,4.4,5.1,6.8,7.6c2.3,2.4,4.7,4.7,7.1,7.1c1.2,6,2,12,3.8,17.9c0.7,2.4,1.1,4.9,1.6,7.4
		c0.9,4.9,0.7,10.1,2.7,14.8c0.1,0.3,0.2,0.6,0.1,0.9c-0.1,5.2,1.7,10.3,1,15.6c-0.6,4.3,1.3,8.3,1.1,12.6c-0.2,4.3-0.2,8.7,0,13
		c0.1,1.7,1.3,3.2,0.9,5.1c-0.3,1.6-0.8,3.2-1,4.8c-0.2,1.8,0.1,3.7-0.1,5.5c-0.1,0.7-0.7,1.4-0.9,2.1c-1.1,4.1-1.9,8.3-2.2,12.6
		c-0.4,4.5-0.2,9.1-0.9,13.6c-0.7,4.2-1.7,8.6-5.2,11.8c-2.6,2.4-5.1,5.1-7,8.1c-1.7,2.7-2.9,5.8-4.1,8.8c-1.8,4.5-2.4,9.3-4.6,13.6
		c-0.1,0.3,0,0.7,0,1.6c-3.2,2.4-6.4,5.3-10.1,7.5c-4,2.3-6.6,5.7-8.8,9.4c-1.8,3-4,5.9-4.9,9.4c-0.4,1.5-0.9,3-1.3,4.5
		c-1.4,4.6-2.9,9.3-6.8,12.7c-1.4,1.2-2.7,2.5-3.9,3.9c-6.1,7-13.7,11.9-22,15.6c-2.2,0.9-3.9,2.2-5.4,3.8c-5,5.5-11,9.7-17.7,12.7
		c-4.1,1.8-7.3,4.8-11,7.2c-5.3,3.4-10.5,6.9-15.5,10.7c-4.3,3.3-8.8,6.3-13,9.7c-2,1.6-4.5,2.6-6.8,2.8c-7.2,0.8-14,3.1-20.9,5.2
		c-3.4,1-6.6,2.1-10.2,1.9c-2.3-0.1-4.7,0-7,0c-1.2,0-2.5-0.4-3.5,0.1c-3.2,1.3-6.7,1.4-10,2.3c-2.9,0.8-5.8,1.7-8.8,1.7
		C351.5,586.9,343,586.9,334.5,587z M610.4,491.5c-2.3,2.1,0.2,5.5-2,7.7c-0.3,4-0.7,8-1,12.1c-0.2,1.9-0.3,3.7-0.8,5.6
		c-0.6,2.8,0.3,6,0.5,8.8c6.6,2.5,11.1,4.7,33.2,4.6c-0.7,2.7-1.3,5.4-2,8c-0.7,2.7-0.6,5.6-1.9,8.2c-0.3,0.5-0.1,1.3-0.1,2
		c-0.1,1.9,0.1,3.7-0.9,5.6c-0.8,1.6,0.2,3.6-0.9,5.6c-0.9,1.8-0.3,4.3-1,6.5c-0.9,2.8-0.6,6-1.2,9c-1.1,5.7-2,11.3-2.1,17.2
		c0,1.8-0.9,3.6-0.9,5.6c-0.1,1.9,0.4,3.7-0.8,5.7c-0.9,1.5,0.2,4-0.2,5.9c-1.1,4.9-1.9,9.9-3.1,14.7c-0.4,1.7,0,4-1,5
		c-1.5,1.7,0.2,4.1-1.9,5.3c0.5,1.9-0.5,3.4-1,5.1c-1.3,4.4-1.6,8.9-2.9,13.3c-1,3.5-0.9,7.3-1.4,11.4c-1.7-3.1-2.9-5.9-2.8-9.1
		c0.3-9.2-2-17.8-4.6-26.5c-1.5-4.9-2.7-9.9-3.6-15.1c-0.5-3.2-0.7-6.5-1.7-9.7c-1-3.1-1.5-6.4-2.3-9.6c-0.5-2.3-1.3-4.5-1.8-6.7
		c-0.5-2.2-0.6-4.4-1-6.6c-0.4-2.2-1.4-4.3-1.1-6.5c-2.1-1.6,0.2-4.6-1.9-6.2c-0.2-0.1,0-0.6,0-1c-0.3-4.4-0.5-8.7-1.1-13.1
		c-0.5-3.7-1.5-7.3-2.3-11c-0.5-2.1-1.3-4.2-1.6-6.3c-0.7-4.5-2.5-8.6-4-12.8c-2-5.3-4.2-10.6-5.9-16c-1-3-2.4-5.7-4-8.3
		c-3.2-5.4-6.7-10.6-10.5-15.6c-0.8-1.1-1.2-2.5-1.9-4c0.6-0.7,1.1-1.2,1.9-2.1c2.9,0.4,6,0.9,9.1,1.4c0.9,0.2,1.8,0.7,2.7,0.7
		c10.7,0.5,21.3,0.9,32.2,1.3C612.7,484.6,609.7,488,610.4,491.5z M514.4,606.3c-0.4-4.2-0.7-8.5-1.9-12.6c-1.2-4-2.2-8.1-4-11.6
		c-5.8-0.8-10.7,1.4-15.5,3.1c-5.5,2-11,3.9-16.2,6.7c-0.2,0.1-0.6-0.1-1.1-0.2c-0.8-4.1,0.4-8.3-1.1-12.4
		c-1.4-3.8-2.1-7.8-3.1-11.6c3.5-2.4,7-4.8,11.3-7.8c0.6-0.2,2,0.1,3.5,1c2.5,1.5,5.2,2.7,7.8,4c6.7,3.4,13.9,5.9,20.8,8.7
		c4.7,1.9,9,5,14.2,5.5c1.5,2,3.9,0.4,5.9,1.5c2.3,1.3,5.6,1.2,8.4,1.2c2.8,0,5.3,0.9,7.9,1.6c3.8,1,7.6,1.9,11.4,2.7
		c4.6,1,9.1,0.5,13.6,0.8c1,0.1,2,0.6,2.9,0.9c0.1,4.9,1.8,9,3,13.2c1.1,4,1.4,8.3,2,12.6c-3.2,0.4-6.4,0.8-9.5,1.4
		c-1.5,0.3-2.5-1.2-4.3-0.2c-1.1,0.6-3.2,0.8-4.5-0.7c-3,1.8-6.3,0.6-9.5,0.8c-3.1,0.2-6.4-0.5-9.4,0.2c-2.9,0.7-5.9,0.2-8.5,1
		c-2.9,1-5.9,0.2-8.6,0.9c-4.5,1.2-9.4,1.1-13.8,2.9c-0.4,0.2-0.9-0.1-1.7-0.1C514.5,615.2,514.8,610.7,514.4,606.3z M561.3,533
		c-1.3-0.7-2.5-1.4-3.8-2.1c-2.1,1.8-4.8,0.3-6.9,1.2c-2.3,1-4.4,0.7-6.6,0.9c-1.1,1.9-2,3.6-0.6,6c0.7,1.2,0,3.3,0.2,4.9
		c0.2,2.2-0.5,4.4,0.8,6.6c1,1.6-0.5,4.1,1,6.1c0.6,0.8,0.1,2.6,0.1,4.3c-5.9-0.7-11.7-1.4-16.5-2c-5.3-2.3-9.6-4.2-14-6
		c-4.5-1.8-9.1-3.6-14.6-5.7c3.9-1.8,5.5-5.4,9.5-5.3c3.8-2.5,7.9-4.4,11.5-7.2c5.2-4.1,9.6-8.9,14.3-13.5c1.9-1.8,5-8.9,5.8-11.5
		c1-3.1,1.1-6.5,3.7-8.9c0.1-3.2,3.2-4.9,3.6-8.1c1.9,0.9,2.7,2.2,3.7,3.5c8.5,10.7,12.1,23.5,16.3,36.6
		C566.1,533.3,563.7,532.9,561.3,533z M570,535.9c0.8,1.7,0.3,3.3,0.6,6C568,538.6,568,538.6,570,535.9z M710.3,833.1
		c-5.1,5-9.1,10.7-13,16.6c-4.2,6.2-8.9,12-14.6,16.9c-3,2.5-6.4,4.5-9.7,6.8c-2.3,1.6-4.7,3.2-6.9,5c-2.3,1.8-4.5,3.7-6.6,5.6
		c-3.1,3-6.1,6.1-9.2,9.1c-2.8,2.7-4.8,5.8-6.3,9.4c-3.1-3.8-6.7-7.2-9.1-11.2c-2.4-4-5.1-7.8-7.5-11.8c-3.4-5.6-7.2-10.9-10-16.8
		c-1.1-2.4-3-4.4-3.4-7.1c-0.4-2.6-1.8-4.9-2.7-7.4c-1.5-4.3-4-8.3-6.2-12.4c-1-1.9-2.1-3.8-3.4-5.6c-1.2-1.8-2-4.1-2.7-6.3
		c-1.1-3.2-3-6.1-4.9-9c-2.1-3.1-3.7-6.5-5.4-9.8c-3-5.7-6.4-11.1-10.3-16.2c-2.9-3.8-5.2-8.1-7.9-12.2c-2.8-4.3-5.8-8.5-8.4-13
		c-2.2-3.9-4.4-7.8-6.5-11.8c-5.6-10.6-11.7-20.9-18.3-30.9c-1.6-2.4-3.5-4.7-5.6-6.6c-5.4-5-9.8-10.9-14.3-16.6
		c-2.9-3.8-5.7-8.1-6.8-13.1c-1.1-4.6-3.9-8.4-6.7-12.2c-5.2-6.9-11.4-12.9-17.8-18.5c-4.1-3.6-7.8-7.5-11.8-11.1
		c-1.7-1.5-3.5-2.8-5.2-4.3c-1.7-1.5-2.9-3.5-5.2-4.2c-0.7-0.2-1.5-0.5-2.4-0.8c-3.4,4-7.8,7-10.5,11.6c4.1,6.4,9.7,11.5,15.4,16.4
		c5.3,4.5,9.9,9.6,15,14.3c2.5,2.3,4,5.3,5.9,8.6c-1.3,0.1-2.2,0.4-3.1,0.3c-5.8-0.2-11.3,1-16.8,2.9c-2.1,0.7-4.4,0.7-6.5,1.2
		c-1.7,0.3-3.4,0.7-4.9,1.4c-3.8,1.7-7.4,3.7-11.3,5.3c-2.3,0.9-4.4,2.5-6.2,4.2c-3.4,3.3-7.7,4.1-11.9,5c-3.3,0.8-6.9,0.4-10,1.2
		c-4.4,1-8.8,1-13.1,0.7c-5.3-0.4-10.7-0.8-15.7-2.9c-1.6-0.7-3.2-1.3-4.5-2.3c-5.4-4.1-11-8.1-15.4-13.4c-2.2-2.7-4-5.8-6.5-8.3
		c-2.7-2.6-4.4-5.8-5.9-9.1c-2.5-5.6-4.6-11.3-4.5-17.6c0.1-3.8-0.2-7.7,0.1-11.5c0.5-5.7,1.2-11.3,1-17.1c-0.2-5.8,0-11.6,0-17.4
		c5.8-0.8,11.4-1.1,16.8-2.3c2.9-0.6,5.8-1.3,8.7-1.7c3.1-0.5,6.3-0.2,9.5-0.1c4.8,0.1,9.4-1.4,14-2.5c7.4-1.8,14.6-4.1,21.8-6.5
		c5.3,0.2,10.1-2.4,15.2-3.1c2.3-0.3,4.9-1.5,6.6-3.2c3-3,6.7-4.9,10.3-7.8c0.4,1.2,1,2.3,1,3.5c0.1,3.3,0.1,6.7,0,10
		c0,0.9-0.3,1.9-0.6,2.7c-0.5,1.7-0.6,3.3,0.2,5.1c1.1,2.5,2,5.3,2.3,8c0.3,3,1.9,5.2,3.3,7.6c6.5,0.9,12.3-1.2,18-3.6
		c4.9-2.1,9.7-4.7,14.8-7.2c0,6.2,0,12.3,0,18.4c0,1-0.3,2.1,0.1,3c1.5,3.5,1.8,7.2,3,10.7c0.5,1.4,2.1,2.5,3.4,4
		c4.3-0.8,8.8-1.6,13.3-2.5c0.8-0.1,1.5-0.6,2.2-0.7c5.9-0.3,11.6-2.7,17.6-2c2.9-1.6,6.1-0.5,9.1-1.1c9.8-2,19.7-0.3,29.6-1
		c4.7-0.3,9.4-1,13.9-2.6c1-0.4,2.2-0.3,3.6-0.4c0.7,3,2.1,5.9,2,8.7c-0.2,5,1.2,9.7,1.1,14.6c0,2.6,1,4.9,2.1,7.1
		c3.5,7.3,7.3,14.4,12.1,20.9c2,2.7,4,5.5,7,7.6c4.3,2.9,6.7,7.8,9.8,11.8c0.5,0.6,0.7,1.4,1.3,2c4.9,5.3,10.1,10.4,14.7,15.9
		c3.5,4.1,7,8.2,10.1,12.8c1.7,2.5,4,4.6,6,7c4.2,5.1,8.9,9.7,13.3,14.5c2.3,2.5,4.5,5.1,6.7,7.7c2.1,2.4,4.3,4.9,6.5,7.2
		c4.5,4.7,7.8,10.2,11.8,15.2c4.9,6.3,9.1,13.2,13.6,19.8c1.9,2.9,3.9,5.7,5.8,8.4c-0.5,0.8-0.7,1.2-1.1,1.7
		c2.6,3.1,5.2,6.2,7.8,9.3C716.8,827,713.5,830,710.3,833.1z M804.2,738.4c-2.7,4.9-4.7,10.1-7.8,14.8c-2.7,4.1-6.1,7.5-9.8,10.3
		c-5.6,4.2-10.7,8.6-15,14.1c-4.1,5.3-8.6,10.5-13.8,14.7c-7.6,6.2-13.8,13.8-21.2,20.3c-0.4,0-1.1,0-1.8,0
		c-2.1-5.2-5.1-9.9-8.4-14.4c-0.4-0.5-0.3-1.3-0.7-1.7c-5.1-4.5-7.8-10.8-11.9-16.1c-3.3-4.2-6.2-8.7-9.2-13.1
		c-3.2-4.6-6.5-9.1-10.2-13.3c-5-5.8-10.1-11.5-15.2-17.2c-5.7-6.3-11.2-12.7-16.9-19c-4.6-5.1-8.5-10.8-13-16.1
		c-2.1-2.5-4.3-4.8-6.5-7.2c-2.7-3-5.5-6-8.2-9.1c-0.2-4.7,1.5-8.9,2.7-13.9c-1.2-3-1.1-6.9-0.3-10.7c0.2-0.8,0.6-1.5,0.5-2.3
		c-0.5-4.9,1.1-9.5,2.3-14.1c1-3.9,1.6-7.9,2.7-11.8c0.8-2.7,1.2-5.5,2.1-8.1c0.8-2.7,0.8-5.5,1.8-8.2c0.9-2.5,0.8-5.3,1.1-8
		c0.3-1.9,0.7-3.7,1-5.6c0.3-1.9-0.6-3.9,1-5.6c0.2-0.2,0-0.6,0-1c0.3-5,0.6-10,1-15.1c0.1-1.7,0.6-3.4,1-5.1c0.3-1.5-0.7-3.4,1-4.6
		c-0.4-2.8,0.8-5.4,0.9-8.1c0.1-2.9,1.8-5.6,1.1-8.6c2.1-5.8,2-12,3.8-17.9c1.1-3.5,1.9-7.3,2.2-11.1c0.3-4,0.1-8,0.1-12.3
		c-0.8-0.8-1.6-1.6-2-2c-7.9-1.9-15.5-3-23.3-2.5c-1.9,2.4-5.3-0.5-7.5,2.5c0.2-4.8-0.9-9.1,0.8-13.4c0.7-1.8-0.1-4,1-6.1
		c0.9-1.6-0.3-3.6,0.9-5.6c0.8-1.4,0.3-3.6,1.1-5.5c0.5-1.3,0.1-3,0.1-4.5c0-3.2,0-6.3,0-9.7c-1.8-2.3-3.9-3.8-7.2-3.7
		c-1.2,0-2.4-0.7-3.6-0.9c-1.2-0.2-2.5,0.3-3.7-0.8c-0.7-0.6-2.2-0.2-3.4-0.2c-6.5,0-13-0.3-19.5,0.1c-6.9,0.4-13.6-1.6-20.7-1
		c1-3.9,2.2-7.2,5.2-9.7c2.2-1.9,4.4-3.9,5.7-6.6c2-4.2,4.5-8.3,4.2-13.2c-0.4-5.7,1.7-11.3,1.1-17.1c-0.1-0.8,0.7-1.7,0.9-2.6
		c0.8-3.4,2.7-6.5,2-10.2c1.9-4.8,1.5-9.8,0.8-14.5c-1-7.4,0-14.8-1-22.1c-0.7-4.9-0.5-9.7-0.8-14.6c-0.1-1.5-0.6-3.1-1-4.6
		c-0.3-1.4,0.1-2.7-0.7-4.2c-1-2,0.3-4.8-1.3-6.9c0.3-3.9-1.6-7.6-1.1-11.6c0.2-1.1-0.6-2.4-1-4c5.2,1.9,10.2,3.6,15.1,5.6
		c5.6,2.3,10,6,13.3,11.2c1.9,3,3.9,6.1,6,9c2.6,3.6,4.4,7.4,5.8,11.6c0.8,2.4,2,4.9,3.2,7.1c2.9,5.2,4.1,11,6,16.5
		c1.6,4.6,2.7,9.6,3.8,14.4c0.9,3.8,0.5,7.4,0.8,11.1c0.3,3.4,0.8,6.7,0.9,10.1c0.2,3.5-0.6,7.2,0.2,10.4c1.5,5.9-0.1,11.8,1,17.6
		c1.6,8.9,0.6,17.7,0.8,26.6c0.1,3.1-0.9,6.1-1.5,9.8c0.2,0.1,1,0.7,2.1,1.5c-1.1,2.1-2.1,4-3.2,6c1.1,2.3,3.4,3.8,5.5,5.8
		c3.9,3.7,8.3,6.6,12.4,10c6.6,5.5,13.5,10.6,20.6,15.4c3.7,2.5,7.1,5.4,10.7,8c5.2,3.8,9.2,8.9,14.1,13c6,4.9,12.4,9.3,18.7,13.8
		c4.2,3,8.7,5.7,12.8,8.9c4.7,3.7,9.9,6.8,14.8,10.2c7.3,5,14.7,9.7,21.7,15.2c5,4,9.9,8.1,15,12c5.2,4,11,7,16.9,9.7
		c3.8,1.7,7,4.1,10.3,6.6c5.3,4,10.8,7.9,16,12c3.5,2.8,7.8,3.8,11.7,5.4c5.3,2.3,10.7,4.2,15.1,8.2c3.5,3.2,7.6,5.7,11.4,8.5
		c2,1.5,4,3.2,6.3,4.1c1.6,0.6,2.2,1.9,3.3,2.5c-3.3,2.7-7.2,5-9.9,8.3c-8.1,9.7-17.7,17.8-26.2,27.1c-2.9,3.1-5.2,6.8-7.8,10.2
		c-1.4,1.9-2.7,3.9-4.3,5.7c-4.9,5.3-9.6,10.8-14.9,15.8C810.3,727.7,807.2,733,804.2,738.4z"/>
	<path d="M913,775.6C913,775.6,913,775.6,913,775.6C913,775.6,913,775.7,913,775.6C913,775.7,913,775.7,913,775.6z"/>
	<path d="M762.1,176.6C762.1,176.6,762.1,176.6,762.1,176.6c0.1,0.1,0.2,0.1,0.3,0.2C762.3,176.4,762.2,176.5,762.1,176.6z"/>
	<path d="M683.3,243.3c0.5,1.2,0.7,1.8,1,2.3c2.6,5.1,5.6,9.7,10.6,13c8.4,5.6,17.1,10.1,25.9,11.6c1.9,1.8,3.1,3,4.5,4.2
		c-0.6,1-1.4,2.2-2.1,3.4c-2.4,4-5.4,7.6-7.1,12c-2.5,6.4-4.1,12.7-1.8,19.4c1.8,5.2,4.1,10.4,8.5,13.9c3.1,2.5,6.9,4.2,10.3,6.5
		c3.4,2.4,7.3,2.2,10.7,1.4c4.6-1.1,9-3.2,13.3-5.2c2.5-1.1,4.8-2.8,7.3-4.2c5.1-2.8,10.5-7.9,14-13c2.4-3.5,4.9-6.9,7.3-10.4
		c2.4,0,4.7,0,7.1,0c2.4-2.9,3.2-6.4,3.6-9.8c0.9,0.3,1.6,0.6,2.3,0.9c0.9,0.3,1.8,0.5,2.7,0.7c4.7,1.1,8.8,3.7,13.2,5.4
		c7.8,3,9.9,4,16.4,3.8c1.9-0.1,3.7-0.6,5.4-1c4.4-3.5,8.6-6.9,12.5-10c2.8-12.6,2.2-10.4,0.2-22.9c-5.5-7.3-10.7-14.3-17.8-18.9
		c-0.8-4.6,0.3-7.9,3.6-10.4c0.5-0.4,5.9-10.7,6.2-11.4c1.4-3.6,2.2-7.3,2-11.2c-0.2-4-0.1-8-0.8-12.1c-0.6-3.1-1.4-6.1-2.7-8.9
		c-2.6-5.9-6.7-10.8-11.3-15.3c-2.6-2.5-5.9-3.4-9.4-3.7c-2-0.2-3.6,0.6-4.8,1.7c-4.5,4-9.8,7.1-13.4,12.2
		c-3.1,4.4-8.1,6.6-12.8,9.4c-0.5-0.7-1-1.4-1.7-2.5c0.7-4.2-1.1-8.8-2.1-13.4c-1-4.5-2.7-8.8-4.3-13.2c-1.6-4.3-3.4-8.6-5-12.9
		c-0.2,0.2-0.4,0.4-0.6,0.6c-0.5-1.1-1-2.2-1.3-3c-5.2,1.8-9.9,3.4-14.6,5c-0.6,7,3.2,12.7,4.1,19.4c0.2-0.2,0.5,0.1,0.8,0.3
		c-0.1,0.1-0.2,0.2-0.3,0.3c-0.2-0.3-0.5-0.5-0.7-0.8c-3.1-2.4-5.8-4.7-8.5-7.2c-1.7-1.6-3.3-3.1-6.1-2.9c-3.4,3.6-7,7.4-10.7,11.4
		c3,3.2,5.8,6.2,8.6,9.2c1.7,1.8,3.5,3.6,5.3,5.3c1.3,1.2,2.1,2.8,2.6,4.4c0.3,1,0.4,2.2,1,3c1.8,2.4,5,3.4,6.3,6.3
		c0.1,0.3,0.9,0.2,1.3,0.4c0.1,0,0.2,0.2,0.2,0.2c0,3.9,0,7.7,0,11.6c-1.9-1.4-3.9-2.5-5.3-4c-3-3.3-6.7-5.5-10.2-8.1
		c-5.4-4.1-11.5-6.2-18.2-6.7c-4.5-0.3-9-0.2-13.5,0c-3.3,0.1-6.5,1.1-9.5,2.4c-3.6,1.7-6.3,4.7-8.7,7.7c-3.2,4-6.2,8.4-8.8,12.8
		c-2.7,4.4-4.7,9.2-4.6,14.6C683.4,239.3,683.3,241.7,683.3,243.3z M798.8,213.2c3.6-1.6,6.8-3.9,9.8-6.5c2.5-2.1,5-4.2,7.2-6.5
		c0.7-0.8,1.2-1.8,2.5-3.8c0.5,1.4,0.8,2.2,1.2,3c0.2-0.2,0.4-0.3,0.6-0.5c0,2.3-0.7,5,0.2,6.9c1.1,2.3,0.8,4.5,0.7,6.7
		c0,2.2-0.8,4.3-1.2,6.6c-2.6,6.1-6.1,11.9-10.7,16.4c0,4,0.1,7.5,0,11c-0.2,3.8,1.4,6.7,3.9,9.4c2.6,2.9,5.1,6,7.8,8.7
		c2.3,2.3,5,4.2,7.2,6c0,2.2,0,4,0,6.3c-5.1-2-10-3.8-14.8-5.9c-3-1.3-5.9-2.6-9-3.6c-2.7-0.9-5.6-0.8-8.2-1.9
		c-0.6-0.2-1-0.7-1.5-1.1c-0.8-3.9-1.5-7.8-2.5-11.5c-0.9-3.2-1.8-6.4-1.8-9.7c0-2.3,0-4.7,0-7c0-2.8,0.2-5.7,0-8.5
		c-0.2-2.5-0.8-5-1.1-7.2C791.7,216.7,795.1,214.9,798.8,213.2z M714.4,222.4c1.9-0.2,3.7-0.8,5.6-0.9c2-0.2,4.2-0.6,5.9,0.1
		c3.2,1.3,6.4,0.6,9.7,0.9c9.8,7,19.8,14,29.6,21c0,3-0.1,5.6,0,8.2c0.1,2.2,0.7,4.4,0.9,6.6c0.2,2.1,0,4,0.9,6.1
		c0.7,1.8,0.3,4,1,6.1c1.1,3.2,1,6.9,2.3,10c0.9,2.2,0.5,4.1,0.9,6c-2.1,2.9-4.3,5.6-6.3,8.5c-2,2.9-5.4,4-8.1,5.8
		c-2.8,1.8-5.6,3.7-9.1,4.6c-3.1,0.8-5.8,2.8-9.2,2.8c-3.5-4.8-2-10.2-2.4-15.2c3-4.4,5.9-9,9.1-13.2c1.6-2.1,2.4-4.5,2.8-6.8
		c0.5-2.9-0.8-6-2.8-8.2c-2.5-2.8-5-5.5-8.3-7.5c-3.2-1.9-6.1-4.4-9.5-6.1c-3.8-1.9-7.8-2.8-11.8-3.9c-1.5-0.4-3-0.8-5.5-1.6
		c-0.9-1.4-2.4-3.6-3.8-5.8c0-3,0-6,0-9C706.2,227.3,709.9,222.9,714.4,222.4z"/>
	<path d="M833.7,508c-2.3-7.6-1.3-15-1.6-23.2c-5.6-0.7-10.9-1.4-16.4-2.1c-7.5,9.1-11.4,19.8-15,30.4c-3.5,10.4-4.3,21.4-3.4,31.8
		c1,1.3,1.7,2.2,2,2.6c5.2,0.5,9.9,1,14.6,1.4c0.5-1.4,1.2-2.6,1.2-3.7c0.2-3.4,0.2-6.7,0.9-10.1c0.5-2.7,0.6-5.5,1.6-8.2
		c2.5,1.7,3,5.5,6.6,5.8c2.6,0.1,5.3-0.1,7.8,0.6c2.8,0.9,5.2,0.4,8.3-0.7c-0.4,3.5-0.9,6.6-1.1,9.8c-0.2,3.3,0,6.6,0,9.9
		c0.5,0.5,1,1,1.5,1.5c2.4,0.1,4.7,0.2,7.1,0.9c2.5,0.7,5.3,0.1,7.9,0.1c0.4-0.9,0.9-1.7,1.1-2.1c0.5-3.5,1.2-6.7,1.3-9.9
		c0.2-3.2,1.7-6,2.6-8.9c0.9-2.9,2.2-5.8,3.5-8.5c1.4-2.8,3.1-5.4,4.8-8.6c0.4-4.4,0.9-9.4,1.3-14.1c-0.6-0.6-0.9-1.2-1.4-1.3
		c-4-1.4-8.2-1.7-12.2-1.4c-0.6-0.5-1.1-0.9-1.5-1.1c-7,3.5-13.7,6.9-20.5,10.3C834.2,508.6,833.8,508.1,833.7,508z"/>
	<path d="M245.8,611.9c-0.2-1.2-0.6-2.4-1-3.6c-1.2-4.5-2.3-9-3.6-13.5c-1-3.2-2.4-6.4-3.1-9.6c-0.8-3.4-2.3-6.4-3.4-9.6
		c-1.7-5.2-3.3-10.6-6.1-15.4c-0.6-1.1-1.5-2.1-1.7-3.3c-0.4-2.6-1.8-4.3-3.9-6.1c-4.5,1.2-9.2,2.4-14.2,3.7
		c-0.5,0.9-1.2,2.1-1.9,3.3c0,1.7,0,3.3,0,5c0,1.7-0.1,3.5-0.1,5.8c-2.5-2.5-4.4-4.6-6.5-6.7c-5,1.4-10.1,2.8-15.6,4.4
		c0.3,2.2,0.1,4.2,0.8,5.7c1,1.8-0.7,4.1,1.3,5.5c0,3.3,2.2,6.4,2,9.6c-0.2,3.7,1.6,7,1.1,10.6c-0.3,2.3,0.4,4.5,1.1,6.5
		c0.4,1.2,0.8,2.3,1,3.6c0.5,2.4,1.5,4.7,2.3,7c0.7,0.3,1.5,0.7,1.7,0.8c2.9-0.7,5.3-1.1,7.7-1.9c2.5-0.8,4.9-1.8,7.4-2.8
		c-0.5-4-1-7.7-1.5-11.6c4-1.2,7.8-2.3,11.7-3.5c1,2.8,3.1,4.8,2.5,7.8c1.9,1,0.8,3,1.3,4.4c1.8,4.6,3.1,9.4,4.7,14
		c0.3,0.8,1,1.5,1.5,2.2c5.3-1.5,10.4-3,15.4-4.4c0-1.6,0.5-3.3-0.1-4.1C245.8,614.3,246,613.1,245.8,611.9z"/>
	<path d="M428.2,755.1c-0.5-0.6-1.3-1.6-1.7-2c-5.4-0.5-10-1-14.3-1.4c-9.6,9.3-12.5,20.7-12.7,33.3c-0.7-0.7-1.2-1-1.4-1.4
		c-2-5.8-4.6-11.2-8.5-16c-3.1-3.9-6.1-8-11.2-10c-2.1,1.4-4.4,2.8-6.5,4.4c-2.3,1.7-4.4,3.6-6.9,5.7c1.4,2.1,2.6,3.9,3.9,5.7
		c3.3,4.7,7.9,8.6,8.2,15.1c0.1,3,1.3,5.9,1.5,8.8c0.3,4.3,0.1,8.6,0,13c0,1.2-0.6,2.4-1,4.1c3.7,3.4,5.6,8.8,9.6,12.3
		c0.5-0.1,0.9-0.2,1.1-0.3c3.4-1.7,6-4.8,9.3-6.6c2.6-1.4,2.5-3.9,4-5.6c-1.8-0.9,0.1-1.8,0.1-2.7c-0.1-1.2,0-2.3,0-3.5
		c0-2.8,0-5.5,0-9.2c4.8,2.5,9.4,1.7,14.1,1.9c0.3-2.2,0.6-4.1,0.9-5.9c0.3-2,1-4.1,0.9-6.1c-0.1-6,2.5-10.9,6-15.5
		c1.4-2,3.7-3.7,3.1-6.7c1.9-2.5,0.6-5.4,1-8.1C427.8,757.4,428,756.3,428.2,755.1z"/>
	<path d="M368.4,432.9c1.4-0.6,2.8-1.3,4.3-1.8c1.7-0.5,3.5,0.6,5.3-0.6c0.9-0.7,2.6-0.3,3.6-0.8c4.9-2.5,9.8-4.9,14.2-8.8
		c1.1,0.4,2.2,1,3.4,1.2c2,0.3,3.7,1.6,5.6,2.3c3,1.1,6,1.6,9,2.3c5.2,1.3,9.6,4.2,14.3,6.3c7.2,3.2,14.8,5.3,22.5,7.3
		c3.4,0.9,7,1.4,10.3,2.8c2.8,1.2,5.8,2,8.6,3.4c1.7,0.8,2.8,0.7,4.5,0c4.6-2,8.6-5.1,12.8-7.7c-0.1-2.8-0.5-5.5-0.8-8.2
		c-0.3-3.5-1.2-6.8-2.2-10.1c-2.7-8.7-6.2-17.1-10-25.3c-1.2-2.5-2.6-4.9-4-7.3c-2.9-4.9-5.5-10.1-8.7-14.9
		c-2.1-3.2-3.6-6.8-5.4-10.2c0.5-1.1,0.6-2.4,1.3-3c2.5-2.4,3.5-5.6,4.5-8.7c1.3-4,2.6-8.1,2.4-12.5c-0.1-3.2-0.7-6.5,0.9-9.6
		c0.2-0.4,0.2-1.1,0-1.5c-1.9-3.9-0.8-8.1-0.9-12.1c-0.1-2.9-0.9-5.6-1.8-8.3c-1.6-5.1-4.9-9.1-8.2-13.1c-4.2-5.1-10.6-7.1-16.4-9.7
		c-0.7-0.3-1.4-0.6-2.1-0.9c-4.5-2.1-9.1-3.5-14.2-3.1c-1.8,0.1-3.5,0-5.8,0c2.1-4.3,3.9-8,5.7-11.8c0.7-1.5,1.6-3.2,1.7-4.8
		c0.1-2.8,1.3-5.1,2.2-8.1c-4.3-3.2-8.7-6.5-13.3-9.9c-1.5,2-3.4,3-4.1,5.2c-0.5,1.4-1.7,2.7-2.8,3.8c-2,2.1-2.7,4.9-4.1,7.3
		c-1.3,2.2-0.7,4.3-1.3,6.4c-0.8,2.6-2.7,4.5-3.6,7c-1.3,3.8-3.1,7.4-4.9,10.9c-1.1,2.2-2.3,4.6-4.1,6.2c-4.3,4-7.7,8.8-11.1,13.5
		c-2.2,2.9-4.2,6.1-5.9,9.5c-1.5,2.9-2,6.1-4.3,8.8c-2.7,3.2-4.9,6.7-7.9,9.7c-3.8,3.9-7.5,7.8-10.9,12c-2.2,2.8-4.4,5.7-5.7,9.1
		c-0.5,1.3-1.4,2.4-2,3.7c-1.1,2.3-2.2,4.9-4.4,6.1c-5.3,2.9-9.8,6.6-13.9,11c-0.2,0.2-0.4,0.5-0.7,0.7
		c-6.8,4.9-13.3,10.3-19.3,16.2c-2.5,2.5-5.2,5-8.1,7c-5.1,3.6-10.5,6.7-15.7,10.2c-3.5,2.4-7.2,4.5-10.3,7.9
		c2.7,4.4,5.3,8.6,8,12.9c2,0.3,4.3,0.3,5.9-1c4.6-3.6,10-5.7,14.8-9c7-4.8,14.2-9.4,20-15.7c0.2-0.2,0.6-0.2,1.2-0.4
		c0.5,0.5,1.2,0.9,1.6,1.6c2.7,5.1,5.9,9.7,10.4,13.7c4.5,4,9.6,6.9,14.2,10.7c1,0.8,2.6,0.9,4,1.1c1.5,0.2,3.3-0.5,4.4,0.1
		c4.1,2.3,8.7-0.6,12.6,1.7C364.8,432.3,366.8,433.7,368.4,432.9z M459.6,413.5c0.5,1.8,1.1,3.5,1.7,5.5c-1,0-2.3,0.2-3.4,0
		c-3.3-0.8-6.5-2.2-9.8-2.7c-3-0.5-5.7-1.6-8.4-2.7c-4.7-1.8-9.2-4.3-13.8-6.4c-3.4-1.5-6.9-2.9-10.7-3.1c-1.5-0.1-2.9-0.9-4.6-1.4
		c0.5-4.2,3.8-7.4,4.1-11.7c0.3-4.2,0.9-8.3,1.4-12.8c1.1,0,2.4-0.1,3.7,0c1.8,0.1,3.4-0.3,5.1-1c1.6-0.6,3.4-0.7,5.1-1.1
		c1.5-0.3,3-0.7,4.6-1c1.9-0.4,3.7-0.7,5.5-1c4.2,6.9,8.3,13.8,11.9,21C454.9,401.1,457.9,407,459.6,413.5z M385.5,328
		c1.3-2.1,2.5-4.2,3.3-6.6c0.8-2.5,2.1-4.8,4-6.8c4.3-4.7,8.2-9.8,12.6-15.1c3.9,0,8.3,0,12.7,0c2.2,1.1,4.4,2.2,6.8,3.4
		c-5.9,3.9-12.7,6.6-15.2,15c0,2.5,0,6.2,0,9.5c1.2,2.4,2.5,4.1,4.8,5.3c1.7,0.9,2.5,3.2,4.1,4.4c2.6,2.1,5.5,3.7,9.2,3.1
		c1.1-0.2,2.3,0,3.6,0c4.5-3,9-6.1,13.9-9.4c-0.7,5.8-2.8,10.6-5.7,15c-2.5,3.9-7,7.2-11.7,9.9c-3.1,1.8-6.6,2-9.9,2.5
		c-2.4,0.3-4.6,0.9-6.8,1.9c-1.4-1.1-2-2.8-2.8-4.6c-1.6-3.7-4.2-6.9-6.2-10.4c-2.8-5.1-7.9-7.6-12.4-10.8c-1.5-1.1-3.1-2.1-5.1-3.4
		C384.8,330,385,328.9,385.5,328z M352.9,411.1c-2.2,0-4.3-0.8-7.1-1.3c-2.8-2.3-4.3-6.2-6.7-9.5c-2.4-3.3-3.2-7-4.1-10.9
		c6.1-5.7,12.4-11.8,18.8-17.7c2.4-2.2,4.3-4.7,5.9-7.5c0.3-0.5,0.7-1.1,1.1-1.5c4.8-5,9.6-9.9,14.4-15c2.2,1.6,5.3,2.7,6.2,6.5
		c-2,0.9-4.3,2.4-6.8,3c-4.6,1.1-7.9,3.7-10.2,7.7c-0.6,1.1-2.9,8.4-2.8,9.8c0.2,2.9,1.2,5.4,2.8,7.8c0.8,1.3,1.4,2.8,2.2,4.1
		c2.2,3.8,5.2,6.8,10.5,8.5c4.6,0.6,9.5-0.6,14.3-2.9c0.6,2.5,0.1,4.6-1.8,6.5c-2.3,2.2-4.3,4.9-7.6,5.7c-0.7,0.2-1.5,0.5-2,1.1
		c-2.9,3-6.8,3-10.4,3.8c-1.4,0.3-2.8,0.5-4.1,1C361.4,411.8,357.1,411.1,352.9,411.1z"/>
	<path d="M711.8,702.9c-1.7-0.8-3.6-1.2-5.1-2.2c-4.3-3-8.7-2.2-13-0.8c-1.6,3.1-2.9,6-4.5,8.9c-1.5,2.7-2.5,5.5-1.9,8.4
		c2.1,3,4.9,4.9,8,6.3c2.9,1.4,5.8,2.9,8.8,4.3c2.2,0,4.5,0,6.7,0c3.9-3.1,4.4-8,6.8-11.8c0.9-1.4,1.2-3.2,1.8-4.8
		c-0.9-1.8-1.8-3.6-2.8-5.5C714.8,704.5,713.4,703.6,711.8,702.9z"/>
	<path d="M750.3,676.2c0-2.5-1.3-4.2-2.9-5.8c-2.9-2.9-5.8-5.8-8.9-8.9c-2.2,0.4-4.4,0.9-7.1,1.4c-2.4,4.6-8.8,5.9-11.1,11.8
		c0,2.2-0.4,5,1.7,7.3c3.3,3.6,6.4,7.3,9.4,10.7c1.2,0.1,1.9,0,2.5,0.2c0.4,0.1,0.7,0.6,1.2,1c6.5-3,10.5-8.2,15.1-12.6
		c0.2-1.4-0.5-3,1-4C750.9,676.9,750.3,676.6,750.3,676.2z"/>
</g>
<g id="2">
    <animate id='frame_1' attributeName='display' values='none;inline;none'
               dur='0.45s' fill='freeze' begin="0s" repeatCount="indefinite"/>
	<path d="M933.7,759.8c-1.1,0.3-2,0.3-2.6,0.7c-3,2.2-5.9,4.3-8.7,6.7c-3.5,2.9-6.8,6-10.2,9c-0.3,0.2-0.5,0.5-0.8,0.7
		c-0.1-0.1-0.2-0.2-0.3-0.3c0.3-0.2,0.5-0.5,0.8-0.7c0.1,0.1,0.1,0.1,0.3,0.3c3.9-8.3,6.5-16.8,7.8-24.6c-1.2-1.8-1.8-2.8-2-3
		c-4.9-1.5-9.1-2.7-13.1-3.9c-1.1,1.1-2,2-2.9,2.9c0,0.9,0.4,2.1-0.1,2.8c-2.7,4-3.5,9-6.6,12.8c-1.2,1.4-2.2,3.1-2.8,4.8
		c-1.7,4.8-4.2,9.3-6.6,13.8c-0.4,0.8-0.9,1.5-2,3.1c0-2.5,0-3.9,0-5.4c0.3-9.9,0.6-19.7,1-29.6c0.1-2.2,0.8-4.3,1.2-6.3
		c-2.7-2.1-5.8-0.9-8.2-1.8c-3-1.2-5.8-0.4-8.6-0.9c-0.9,2-2.2,3.8-2.4,5.6c-0.4,5.8-2.2,11.3-2.1,17.2c0.1,6.5,0,13,0,19.5
		c0,0.9-0.1,1.9-0.2,3.1c-4.5-1.9-9-3.1-12.7-5.5c-5.2-3.4-11.3-5.9-14.5-11.8c-0.2-0.4-0.6-0.9-1.1-1c-3.8-1.7-6.9-4.8-11-6.1
		c-1.7-0.6-3.1-2.1-4.5-3.1c5.7-6.1,11.3-11.9,16.5-18c3-3.4,4.7-7.5,2.3-12.3c3.3-3.5,6.5-7.2,9.9-10.7c2.3-2.3,4.9-4.2,7.3-6.4
		c6-5.4,10.2-12.5,16.5-17.6c0.7-0.6,0.9-1.6,1.5-2.4c1.1-1.5,2.3-3.1,3.5-4.5c1-1.1,2.5-2,3.1-3.2c2.1-4.6,7-6.1,10-9.6
		c3.2-0.8,5-3.4,6.4-4.7c2-5.4,6.8-8.1,7-12.6c1.4-2.4,4.3-3.1,3.7-6.7c-2.8-1.9-6.1-3.7-9-6.1c-3-2.4-6.9-3.1-9.6-5.9
		c-4.2-0.6-6.1-4.4-9.2-6.6c-9.2-6.6-18.6-12.8-28.5-18.2c-2.4-1.3-4.6-2.8-6.6-4.6c-2.3-2-4.8-3.7-7.2-5.6c-5-3.8-10.6-6.5-15.8-10
		c-4.1-2.7-8.4-5.4-12.9-7.4c-1.5-0.7-3.7-0.8-4.7-1.9c-2.8-3.1-6.4-4.8-9.5-7.3c-4.1-3.3-8.3-6.3-12.6-9.4c-2.8-2-6-3.4-8.8-5.2
		c-3.5-2.3-6.7-5-9.8-7.7c-5.6-5-11.9-8.8-18.4-12.3c-4.5-2.4-8.4-5.2-11.8-8.9c-1.9-2.1-3.9-4.1-6-6c-0.8-0.7-1.8-1.3-2.7-1.9
		c-5.2-3.5-10.3-7.3-15.7-10.4c-3.2-1.8-6-4.6-9.4-4.9c-11.7-9.6-23-18.9-34.6-28.5c0.2-0.9,0.5-2.1,0.7-3.3
		c0.9-4.5,2.5-8.9,2.4-13.5c-0.1-2.9-0.2-5.7-0.8-8.6c-0.8-4.3-1.5-8.8-2.2-13.1c-0.3-1.5-0.8-3-1-4.6c-0.4-4.2,0.2-8.4-0.8-12.6
		c-0.9-3.7-0.6-7.7-1-11.6c-0.9-7.5,0.2-15-1-22.6c-0.7-4.7-1-9.4-3.1-13.8c-0.6-1.2-1-2.7-1-4.1c0-3.1-1.3-5.8-2.6-8.5
		c-1-2.1-2.7-4-0.6-6.5c0.5-0.6,0.5-2.2,0-2.9c-1.4-1.9-1.1-4.2-1.9-6.2c-1.7-4.3-2.7-9-5.8-12.6c-3.5-3.9-6.9-7.8-10.6-11.6
		c-6.3-6.4-12.7-12.7-18.6-18.7c-11.1-2.6-21.1-8.1-32.6-7.4c-0.7-1.7-1.7-3.4-1.9-5.2c-0.3-2.8-3-5.6-0.3-8.2
		c-2.5-4.8-4.7-9.4-7.2-13.9c-0.8-1.5-1.8-3.1-3-4.2c-7.8-7.4-14.5-15.8-23.2-22.3c-0.9-0.7-1.9-1.5-2.4-2.5c-1.9-3.8-5.4-6.1-8.2-9
		c-1.4-1.4-3.5-2.7-5.6-0.9c-4.8-2.4-9.5-4.8-14.4-7.2c0-1,0-2.1,0-3c-6.2-6-13.9-8.7-21.5-11.5c-4.2-1.6-8.5-2.8-12.6-4.6
		c-6.1-2.7-12.6-3.6-19.2-4.4c-4-0.4-8.2,0.9-12.1-1c-5.6,0.7-11-1.2-16.6-1c-1.7,0.1-3.4,1-5.1,0.9c-3.7-0.2-7.4,0.4-11.2-0.5
		c-3.7-0.8-7.8-0.5-11.8-0.6c1.3-1,2.4-1.8,3.4-2.7c1-0.9,1.7-2.2,2.9-2.8c3.3-1.7,5.5-4.3,7.3-7.4c1.3-2.2,2.6-4.4,4.3-6.2
		c5.7-6.2,9.3-13.7,13.5-21.3c-2.6-1.6-4.9-3.1-7.4-4.4c-2.5-1.3-4.2-4.4-8-4c-3.6,5-7.4,10-10.9,15c-2,2.8-3.8,5.6-6.5,7.8
		c-1.1,0.9-2.3,1.7-3.5,2.5c-1.3,0.9-2.6,1.8-3.8,2.8c-1.8,1.7-3.9,3.3-5.2,5.3c-2.5,4.2-5.5,8-8,12.2c-1.3,2.3-3,3-5.3,3.2
		c-2,0.1-4.2-0.5-5.9,0.2c-1.6,0.7-3.1,0.7-4.6,0.9c-1.7,0.2-3.4,0.7-5.1,1c-1.5,0.3-3.1-0.3-4.7,0.9c-1.3,0.9-3.5-0.6-5.1,1.1
		c-0.5,0.5-2.4,0.5-2.8,0c-1.3-1.4-2.8-0.9-4.2-0.9c-7,0.4-14.1-1-21.1,0.9c-3.7,1-7.3-0.8-11.1-0.9c-4-0.1-8,0-12,0
		c-1.5,0-3.4,0.6-4.4-0.1c-2.2-1.4-4.5-0.4-6.6-0.9c-2.3-0.5-4.6-1.2-7.1-1c-3.5,0.3-7-0.1-10.6,0.9c-3.5,0.9-7.4-0.5-11,1.1
		c-0.4,0.2-1.1,0.2-1.5,0c-1.9-1.5-4.1-0.8-6.1-1c-2-0.2-4-0.8-6.1-0.9c-2.8-0.2-5.6,0-7.6,0c-1.4,1.4-2.1,2.4-3.1,3
		c-1.7,1.1-2.4,2.5-3.2,4.4c-0.8,1.9-0.3,4-1.6,5.9c-1,1.5-0.7,4-1.2,6c-0.5,2.2-0.8,4.4-1.2,6.5c-0.8,3.4-1.8,6.7-1.7,10.3
		c0.1,2.8,0.8,6-0.2,8.4c-1.2,3.2-1.5,6.6-2.7,9.9c-1.2,3.4-1.5,7-2.2,10.3c-4.5,1.9-8.9,3.5-13,5.5c-3.2,1.6-6.9,2.3-9.6,4.4
		c-5.3,4.1-11.4,6.2-17.5,8.5c-6,2.2-11.6,5-17.3,7.9c-0.2-0.2-0.6-0.5-0.9-0.8c-0.8,0.8-1.6,1.6-2.1,2.2c-0.5,3.2-1.1,6-1.3,8.9
		c-0.2,3.2,0,6.3,0,9.5c0,2.5,0.1,5,0,7.5c-0.1,2.6,0.9,5,1.2,7.6c0.5,4,1.4,8.1,2,12.1c0.6,0.6,1.2,1.2,1.2,1.2
		c1.3,2.8,0,5.2,1.3,7.7c1.1,2.1-0.4,5.1,1.2,7.5c-0.2,5.5,1.2,10.8,1.9,16.2c0.5,3.8,2.5,7.2,2,11.2c1.6,2.5,1.1,5.5,2,8.2
		c1,2.8,2.5,5.5,2,8.7c1.8,1.5,0.3,3.8,1.3,5.4c1.3,2,0.3,4.2,0.7,6.2c0.3,1.9,0.9,3.7,0.9,5.6c0,2.6,1,4.9,1.6,7.4
		c0.8,3.8,1.9,7.6,2.7,11.1c-2.3,2.7-4.1,5.1-6.2,7.4c-2.3,2.5-4.8,4.7-6.1,8c-0.6,1.4-1.7,2.7-2.7,3.9c-4.6,5.3-9.1,10.6-13.8,15.8
		c-2,2.1-3.6,4.5-4.9,7c-3.8,7.3-7.9,14.3-13.5,20.4c-1.6,1.8-2.3,3.8-1.9,6c3.6,3.2,7.2,6.4,11,9.8c1.5-1.1,3.3-2.1,4.7-3.6
		c4.1-4.6,8-9.4,12.1-13.9c1.3-1.5,2.5-2.9,3.1-4.7c0.9-2.8,2.6-5.3,4.1-7.8c1.4-2.4,2.6-5.1,4.5-7.1c6-6.3,12-12.7,17-20.3
		c3.1,10,4.3,20.3,8.2,30c1.2,0.9,2.3,1.9,2.9,2.4c1.5,4.8,2.7,8.9,4,13.1c1.4,4.6,3.3,9,5.1,13.4c2,5,4.4,9.5,7.3,14
		c0.1,0.2,0.5,0.3,1,0.6c1-0.4,2.2-0.8,2.9-1c1.4,1.6,3,2.8,3.9,4.5c1.8,3.2,4,6,6,9c2,3.1,3.8,6.5,6.1,9.5c1.9,2.4,3.4,5.3,5.8,7
		c5.5,4,9.6,9.5,14.7,13.9c3.8,3.3,7.7,6.4,11.5,9.6c1,0.8,2.2,1.3,3.1,2.2c3.2,3.4,7.3,5.6,11.1,8.3c3.7,2.6,7.6,4.8,11,6.9
		c2.1,0.4,3.9-0.6,5.2,1c3.9-0.1,7.2,2.3,11.1,2.3c1.9,0,4.1,0.4,6,1c3.2,1,6.5,1.4,9.7,1.8c2.9,0.3,6-0.3,8.3,1.5
		c-0.5,2.4-1.2,4.6-1.5,6.9c-0.5,2.7-0.8,5.4-1.2,8.1c-0.9,6.5-1.1,9.7,0.1,16.2c0.3,1.7,0.1,3.7-0.4,5.3c-0.7,2-0.9,4.1-0.2,5.7
		c0.7,1.5,0.7,2.8,0.6,4.2c-0.2,2.9-0.8,5.7-0.9,8.6c-0.2,3.5,0,7,0,10.5c0,1.3-0.1,2.7,0,4c0.1,1.1,0.6,2.1,1,3.1
		c0.5,1.2,0.7,2.4,1.1,3.5c1,3,1.7,6.4,3.8,8.9c3.6,4.2,7.5,8.3,11.3,12.3c1.9,2.1,4,4,6,6c3.9,3.9,5.9,5.1,12.4,7.4
		c0.6,0.2,1.1,0.6,1.7,0.8c5.7,2.9,11.2,6.3,18,6c4.5,2.3,9.5,1.7,14.3,2.9c3.7,0.9,7.6-0.2,11.4-1.3c6.5-1.8,12.8-4,19.6-4.6
		c1.7-0.2,3.4-0.7,5-1.2c1.6-0.5,3.8-1.2,3.7-3.4c2.9-0.8,5.6-1.6,8.3-2.3c4.1-1.1,8.1-2.2,12.1-3.4c4.5-1.4,8.8-3.7,13.1-5.6
		c1.8-0.8,3.4-1.7,4.7-3.1c1.1-1.1,2.4-2.4,3.8-2.8c3.4-0.9,6.3-3.7,9.6-3.2c3.6,3.8,6.8,7.3,10.1,10.7c2.7,2.8,4.9,5.9,7.2,9
		c5,7.1,9.2,14.8,15,21.3c1.4,1.5,2.7,3.2,3.5,5c2,4.4,5,8.2,7.3,12.5c2.6,4.9,5.6,9.7,8.3,14.6c0.4,0.7,0.6,1.4,1.1,2.1
		c4.1,6.1,8.5,12.1,12.2,18.4c2.1,3.5,5.6,6.5,5.4,11.2c0,0.2,0.6,0.4,0.7,0.7c2.4,6.4,6.7,11.7,11.1,16.9c1.7,2,2.9,4.2,3.9,6.4
		c1.2,2.8,1.6,6,2.3,8.9c0.8,0.8,1.6,1.4,2.2,2.2c1.3,1.6,3.2,3.2,3.4,5c0.5,4.3,3,7.5,4.8,11.1c2.1,4.2,5.1,7.9,7.3,12
		c3.3,6,6.6,11.8,11.3,16.8c0.4,0.4,0.4,1.2,0.8,1.7c4.4,7.2,8.5,14.5,13.3,21.5c2.8,4.1,6,8,7.2,13c0.4,1.5,1.2,2.9,2.1,4.1
		c2.2,3,4.5,5.8,6.8,8.8c1,0,2.1,0,2.8,0c3.6-2.7,6.9-5.1,10.7-7.9c0.2-3.1,2.9-5.4,5.4-7.9c4-4.1,7.8-8.4,11.7-12.7
		c0.4-0.4,0.6-1.1,0.9-1.6c2-2.5,3.7-5.4,6.2-7.3c1.8-1.4,3.4-2.9,5.1-4.4c0.8-0.7,1.3-1.8,2.2-2c3-0.8,4.4-3.1,6.3-5.2
		c4.8-5.1,9.9-10.2,15.5-14.5c5.3-4.1,10-8.7,14.1-13.7c3.4-4.1,6.7-8.3,10.4-12.1c1.2-1.3,2.3-2.7,3.3-4c1.9-2.5,4.1-5.1,7.2-6.8
		c6.1,11.9,16.1,19.1,28.5,25.3c-2,0-3,0.2-3.9,0c-3.2-1-6.3-2.2-9.7-2c-2.2-2.2-5.2-0.5-7.8-1.7c-2.3-1.1-5.5-0.2-8.7-0.2
		c-1,5.3-2,10.4-3,15.8c3.5,1.1,6.6,2.4,9.9,3.2c3.5,0.9,7.1,1.3,10.6,2.1c0.9,0.2,1.7,0.9,3.1,1.6c-6.3,0.7-24.3,8.8-27.5,12.2
		c1.1,4.8,4.7,12.8,6.8,15.2c3-1.9,6.9-1.7,9.7-4.1c3.1,0.2,5.4-3.1,8.7-2c1.3-1.4,3-0.8,4.6-1c1.5-0.2,3.1-0.6,4.6-1
		c1.4-0.3,2.9-0.8,4.3-1.1c-6.8,5.6-14.5,9.6-20.7,15.6c0,1.1,0,2.1,0,2.7c2.6,3.8,5,7.3,7.2,10.6c2.3,0.8,4-0.3,5.6-1.2
		c6.4-3.5,12.5-7.6,18.7-11.6c2.7-1.8,5.5-3.7,8.5-4.9c5-2,10.3-2.6,15.4-3.2c3.7-2.3,7.3-4.6,10.9-6.8c0.4,0.3,0.7,0.6,1,0.9
		c4.7-3.1,9.8-5.5,13.9-9.8c-2.5-2.9-5.2-5.4-7-8.4c-1.7-3-4.1-4.6-7.1-5.9c-10-4.3-17.4-12.1-24.8-19.8c-2.5-5.2-7.8-7.7-11.6-11.6
		c-1.8-1.8-4.1-2.9-6.1-4.5c-3.1-2.5-6.9-3.7-10-6c-4.3-3.1-8.7-6-10.9-11.2c0.3-0.4,0.4-0.7,0.7-0.9c3.1-2.1,6.1-4.2,7.7-7.7
		c0.4-0.9,1.2-1.7,2.1-2.1c4-1.7,6.8-4.9,9.7-7.8c2.4-2.4,4.9-4.9,7.2-7.2c0.5,0.3,1.1,0.8,1.2,0.7c2.4-1.6,4.9-3,6.9-5
		c2.2-2.1,3.9-4.8,6.1-6.9c2.2-2.1,4.7-3.9,7.4-6c2.7,1.6,5.8,3.1,8.4,5.2c2.8,2.2,5.1,4.9,8.1,7.1c5.8,4.3,11.9,8.1,18.1,11.8
		c4,2.4,8.6,3.5,12.6,5.8c1.8,1,3,2,3.9,3.9c0.7,1.6,1.8,3.3,3.2,4.1c5.9,3.3,11.5,7.3,18.2,9.2c2.2-2,2.2-5.8,5.8-7.2
		c1,1.2,2.1,2.5,3.4,4.1c1,0,2.4,0,3.8,0c0.7-0.7,1.2-1.4,1.9-1.8c4.3-3.2,8.6-6.3,12.2-10.3c0.2-0.2,0.4-0.5,0.7-0.7
		c3.5-2.1,6.6-4.6,9.4-7.4c2.8-2.8,5.7-5.6,8.5-8.5c1.9-2,3.2-4.7,5.4-6.2c3.6-2.4,6.2-5.8,9.2-8.4c0-1.6,0-2.9,0-4.3
		C938.4,767.5,935.7,763.9,933.7,759.8z M613.5,510.6c1.9,3.4,0.4,7.1,0.9,10.6c-1.8,2-0.7,4.3-1.1,6.6c1.7,0.8,3.2,1.7,4.9,2.1
		c3.8,0.8,7.9,1.1,11.6,2.2c2.9,0.9,5.7,0.7,8.6,0.9c1.9,0.2,3.7,0.8,5.9,1.3c-0.3,3.7,0.9,7.7-1,11.6c-0.1,0.3,0,0.7,0,1
		c-0.3,5-0.6,10.1-1,15.1c-0.1,1.7-0.7,3.4-0.9,5.1c-0.2,1.6,0.4,3.3-1,4.6c-0.1,0.1,0,0.3,0,0.5c0.7,3.8-1.1,7.2-2,10.7
		c-0.9,3.5-1.8,6.9-2.8,10.4c-0.6,2.3-0.2,4.7-1.1,7.1c-0.8,2.3-0.9,5.1-1,7.5c-0.3,5.8-2.2,11-3.9,16.5c-1.4,4.6-2.6,9.3-3.4,14.1
		c-0.7,4.4-2.2,8.8-3.1,13.2c-0.7,3.2-1.3,6.5-1.8,9.7c-0.3,1.8-0.6,3.7-1,5.9c-2.3-1.8-2.6-3.8-3.1-6c-0.9-3.5-0.4-7.2-1-10.6
		c-0.5-2.7-0.7-5.4-0.9-8.1c-0.2-2.7-0.5-5.5-1.2-8c-0.9-3.6-0.2-7.6-2.6-10.9c-0.4-0.6-0.2-1.6-0.2-2.4c-0.3-6.7-1.9-13-4.4-19.2
		c-1.2-3-2.2-6.2-2.5-9.4c-0.4-3.2-2.1-5.9-2.3-9.1c-0.2-2.9-1.2-6-2.5-8.9c-0.9-1.9-0.8-4.3-1.3-6.5c-0.7-2.7-1.5-5.4-2.3-8
		c-0.9-3-1.6-6-2.9-8.8c-1.4-2.9-0.8-6.2-2.7-8.9c-0.4-0.6-0.1-1.6-0.1-2.5c0-3.2-1.1-6.2-1.7-9.3c-0.5-2.1-1-4.3-1.2-6.5
		c-0.3-3.8-2.1-7.3-2.4-11c-0.1-0.9-0.7-1.8-0.6-2.7c0.1-2.3-0.6-4.4-1.5-6.4c-2.1-4.2-3.9-8.4-5-13c-0.9-3.7-2-7.5-4.5-10.6
		c-0.2-0.3-0.1-0.9,0-1.4c2.2-0.1,4.4,0.1,6.5-0.1c2.3-0.2,4.4,0.6,6.6,1c2.2,0.4,4.6-0.9,6.6,1c0.3,0.2,1,0,1.5,0
		c6.5,0.3,12.9,1.7,19.9,0.8c-0.6,4.4-0.2,8.3-0.9,12.4C612.7,499.5,613.5,505.1,613.5,510.6z M515.4,586.2
		c-5.5-1.2-5.4-0.9-11.9,0.7c-7.3,1.9-14.2,5-21.9,7.1c0.1-5-2-9.6-2.2-14.5c-0.2-4.9-2.6-9.6-1.7-15.2c2.2-1.8,4.7-3.9,7.6-6.3
		c1.4,1.2,2.8,2.7,4.6,3.8c4.5,2.7,9,5.6,13.8,7.7c4.5,2,9.4,2.9,14.1,4.6c3.7,1.3,7.6,1.5,11.3,2.8c2,0.7,4.5-0.4,6.5,1.1
		c4.6-0.3,8.4,2.1,12.6,3.2c4.2,1.2,8.3,2.7,12.8,2.8c1.4,0,2.8,0.5,4.1,1c3.5,1.2,7,0.9,10.6,1c1.8,0,3.6,0,5.7,0
		c1.6,3.6,2.3,7.4,3.2,11.2c0.8,3.5,3.1,6.7,3.3,10.8c-1.5,0.3-3.6,0.7-5.8,1.1c-0.3,0.1-0.8-0.1-1,0c-3.5,3.1-7.7,1.6-11.7,2
		c-2,0.2-4,0.7-6.1,1c-1.9,0.2-3.9-0.6-5.6,1c-4.4-0.7-8.4,1.4-12.6,2.2c-4.1,0.8-8.3,1-12.3,2.7c-1.9,0.8-4.4,0-6.6,1
		c-1.6,0.7-3.6,0.6-5.8,0.9C521.1,608.3,519.2,597.1,515.4,586.2z M543.6,548.6c-0.3,3-0.1,6-0.1,9.2c-2.2-0.6-4.3-1.4-6.5-1.7
		c-7.4-1.3-14.7-2.9-21.9-4.8c-4.7-1.2-9.1-2.8-13.9-4.8c0.7-0.9,1.1-1.8,1.8-2.4c2.1-1.6,4.5-3,6.5-4.6c2.8-2.2,5.4-4.7,8.1-7
		c0.5-0.5,1.5-0.4,2.6-0.7c4.2-3.9,8.4-8.4,11.7-13.7c0.4-0.7,1.1-1.2,1.7-1.8c6.1-5.4,10.7-12.3,16.2-18.3c0.8-0.9,1.7-2,2.1-3.1
		c0.8-2.4,2.6-3.4,5.1-4.1c1.5,4.8,3.6,9.1,5.2,13.6c1.5,4.3,2.3,9.1,3.2,13.6c0.9,4.8,2.4,9.6,2,14.9c-7.3-0.4-14.4-1.9-21.6-0.9
		c-1.8,2.4-0.5,5.7-1.5,8.2C543.1,543.2,543.8,545.9,543.6,548.6z M572.6,478.4c0.1-0.1,0.2-0.2,0.3-0.3c0.2,0.3,0.5,0.5,0.7,0.8
		c0,0-0.1,0.1-0.1,0.1c0,0,0,0,0,0C573.1,478.9,572.8,478.6,572.6,478.4z M318.2,221.7c3.4,0.5,6.8,0.9,11.1,1.5
		c-2,1.6-3.5,2.7-4.9,3.9c-2.2-1.6-4.4-3.1-6.5-4.6C318,222.2,318.1,221.9,318.2,221.7z M276.4,275.2c1.3,0,3.2,0,5.8,0
		c-3.5,2.8-4.7,7.2-9.9,9.4C273.9,280.9,275.1,278.3,276.4,275.2z M254.9,240.8c2,2.8,3.9,5.3,5.9,8.1c-2.9,0-5.6,0-9.2,0
		C253,246.1,251.7,242.6,254.9,240.8z M246,277.2c-0.4-1.4-1.1-2.8-1.1-4.1c0-1.2,0.8-2.3,1.3-3.8c3.5,0,7.4,0,11.2,0
		c-1.7,2.1-1.7,2-3.5,1.4c-1.2-0.4-2.4-0.6-3.5-0.9c-3.3,2.8-1.9,7.2-4.1,10.1c-0.8,0-1.6,0-2.8,0C244.6,278.8,245.3,278,246,277.2z
		 M236.8,283c-0.4,0.7-0.8,1.2-0.9,1.8c-0.2,0.7-0.2,1.5-0.3,3.2c-0.7-2.2-1-3.5-1.5-5C235.1,283,235.7,283,236.8,283z M241,323.4
		c-1.5,1.9-2.8,3.8-4.3,5.7c-2.8-1.8-2.3-4.8-3.9-7.2C235.8,322.4,238.3,322.9,241,323.4z M226.1,340.2c1.2,0,2.4,0,3.9,0
		c-1.5,2.2-2.8,4.2-4.2,6.3C224,344,225.4,342.2,226.1,340.2z M217.9,291.5c0,0.7,0,1.3,0,2.2c-1,0-2,0-3.1,0
		C215.6,292.2,215.6,292.1,217.9,291.5z M216.7,355.4c-1.4,0.5-2.1,0.8-2.5,0.9C214,355.2,214,355.2,216.7,355.4z M209.5,330.9
		c0.6-3.6,1.1-6.7,1.7-10.7c1.3,5.1,2.3,9.3,3.4,13.6c-2,0-4.1,0-6.3,0c0,0-0.2-0.2-0.2-0.2C208.6,332.6,209.2,331.5,209.5,330.9z
		 M204.2,333c0.1,0,0.2,0,0.3,0c0,0.3,0,0.7,0,1c-0.1,0-0.2,0-0.3,0C204.2,333.7,204.2,333.3,204.2,333z M190.4,302.9
		c0.7-1.5,2.6-0.7,4.4-0.9c-0.5,1.5-0.8,2.8-1.5,5C192,305.1,191.2,304.1,190.4,302.9z M194.6,377.5c1.3-4-1.7-7-0.4-10.4
		c2.7,1.7,5.7,0.4,8.7,1.1C200.3,371.2,197.8,374,194.6,377.5z M204.3,418.1c-0.2-0.6-0.3-1.2-0.5-1.8c-0.3,0.2-0.6,0.4-0.9,0.5
		c0-3.1,0.3-6.3-0.1-9.4c-0.3-2.7-1.4-5.4-2.1-8c2.5-0.6,4.5-1.5,5.1-2.9c1.6-3.9,4.6-6.5,7.5-9.4c2.9-3,5.6-6.3,8.9-8.7
		c4.9-3.7,8.7-8.5,13.3-12.4c3.8-3.2,5.7-7.6,8.3-11.6c0.9-1.4,1.7-3,2.5-4.4c2.3-4.3,5.6-8,8.1-12.1c0.9-1.4,1.8-2.6,2.9-3.8
		c2.8-3.1,5.4-6.6,8.6-9.4c3.3-2.9,6-6.1,9-9.2c1.8-1.8,3.7-3.8,4.8-6c1.7-3.4,4.3-6,6.9-8.6c2.1-2.1,4.7-3.9,6.2-6.4
		c1.4-2.3,4.8-2.7,5-5.8c5.4-3.4,7.4-9.5,10.9-14.4c0.3-0.4,0.4-0.9,0.7-1.2c3.3-3.6,6.6-7.3,9.9-10.9c2.9-3.1,6-6,8.6-9.4
		c2.2-2.9,5.2-5.6,8.4-7.4c7.7-4.4,12.1-11.4,16.4-18.6c0.5-0.9,0.8-2,1.3-3.3c2.6-0.5,5.2-1,7.6-1.5c2.4-0.5,4.6-0.6,7.5-0.8
		c-1.4,3-2.5,5.5-3.8,7.9c-0.6,1.1-1.9,1.8-1.6,3.4c0.1,0.4-0.6,1.2-1.1,1.5c-5.4,3.1-7.9,8.7-11.8,13.1c-4.7,5.1-9,10.5-13.1,16.1
		c-3.7,5-7.8,9.6-11.1,14.9c-1.5,2.4-3.7,4.5-5.6,6.7c-1.6,1.8-3.6,3.2-4.7,5.6c-0.6,1.2-1.9,2.5-3.2,3c-4.3,1.9-6.9,5.4-9.8,8.9
		c-6.1,7.5-11.4,15.5-16.6,23.6c-1.5,2.3-3.9,4.1-5.9,6c-6.6,6.2-11.7,13.7-16.8,21.1c-1.6,2.4-3.6,4.5-5.3,6.7
		c-3.7,5-8,9.6-12.6,13.7c-3.5,3.2-7.2,6.2-10.4,9.7c-6.2,6.5-11.8,13.6-17.1,20.9c-2.2,3-4.2,6.3-7.9,8.3
		C208.3,413.2,206.7,415.8,204.3,418.1z M353.9,587c-4.3,0.1-8.7,0.3-13-0.1c-4.7-0.4-9.3-1.1-14.1-1c-1.1,0-2.1-1.2-3.6-1
		c-1.3,0.2-2.7,0-3.5,0c-4.9-2.9-9-6.4-14.6-7.1c-4.9-0.6-10.9-4.1-14.7-7.8c-1.4-1.4-2.9-2.8-4.2-4.3c-2.2-2.4-4.9-4.1-7.5-5.9
		c-2.6-1.8-5.1-3.9-7.5-6.1c-2.3-2.1-4.4-4.6-6.8-6.7c-4.1-3.7-6.8-8.4-9.7-13c-2.7-4.3-5.1-8.8-8.6-12.4c-1.1-1.1-1.8-2.6-2.9-3.8
		c-1.3-1.5-2.7-3-4.3-4.2c-1.5-1.1-3.2-1.8-4.6-2.6c-0.6-1.5-1.2-2.6-1.6-3.7c-0.4-1-0.7-2-1-3.1c-1.1-3.7-2-7.5-3.3-11.1
		c-1.8-4.9-3.7-9.8-6.3-14.4c-2.3-4.1-3.2-8.7-4.5-13.2c-1.8-6.3-3.3-12.6-5-18.9c-0.6-2.1-2.4-3.8-2.1-5.1
		c3.1-4.5,5.6-8.1,8.2-11.8c0.4-0.5,0.6-1.3,1.1-1.5c3.7-1.8,6-5,8.7-7.9c3.3-3.5,6.2-7.3,9.1-11.2c3.8-5,7.7-9.7,12.6-13.8
		c5-4.1,10-8.6,13.6-14.2c0.4-0.7,1.2-1.2,1.7-1.8c6.9-7.6,13.7-15.2,19.1-24.1c1.3-2.2,3.2-4.1,4.9-6c6.2-6.8,12.3-13.8,18-21
		c-0.6-1.9,1.5-1.2,2.1-2c2.2-2.8,4.6-5.4,6.9-8.2c0.7-0.8,1.2-1.9,1.9-2.7c4.3-4.2,8.2-8.7,11.7-13.6c1.9-2.8,4.6-5,6.7-7.7
		c3-3.9,5.7-8.1,8.9-11.8c3.1-3.7,5.9-7.6,9-11.4c4.8-5.8,10-11.2,13.9-17.7c0.8-1.4,2.1-2.7,3.5-3.5c4.9-2.7,6.6-7.8,9.3-12.1
		c2.1-3.3,3.3-7,5.6-10.2c2.2-3.1,4.7-5.6,8.1-7.6c4.3,0,8.8,0,13.3,0c3.9,0,7.6,1.4,11.6,1.1c3.1-0.2,6.1-0.9,9.1-1
		c5.4-0.2,10.6,1.5,16.1,0.9c3.4,1.8,7.1,1.1,10.6,0.9c4.8-0.2,9.2,0.8,13.5,2.5c1.7,0.7,3.6,1,4.6,0.3c2-1.4,3.9-0.3,5.5-0.8
		c6.1,3.2,12.9,4,18.8,8.2c0.1,0.6,0.2,1.5,0.4,2.6c6.7,4.8,14.3,8.5,21.8,12.2c2.9,1.4,5.9,2.7,8.7,4.3c1.5,0.8,2.9,1.9,4.2,3.2
		c5.9,5.8,11.7,11.9,17.7,17.6c3.2,3,5.4,6.6,7.4,10.5c0.7,1.2,1.4,2.6,2.5,3.4c3.3,2.4,3.7,6.3,4.3,9.7c0.7,3.9,1.9,7.6,2.7,11.4
		c0.1,0.4,0.4,0.9,0.4,1.3c0.4,3.9,0.4,7.8,1.1,11.6c0.9,5.4,2.2,10.7,3.5,16.1c0.9,3.6,1.6,7.3,3.4,10.6c0.2,0.4,0.2,1.1,0,1.5
		c-1.8,3.1-0.8,6.4-0.9,9.6c-0.4,6.9-0.8,13.7-1,20.6c-0.2,6.8,0.2,13.7-0.1,20.5c-0.2,3.7-1.1,7.5-2.3,11c-0.4,1.3-0.4,2.5-0.6,3.7
		c-0.3,1.2-0.7,2.4-1,3.6c-1.1,5.8-1.8,11.7-4.6,17.1c-1.1,2.2-1.3,4.8-2.5,6.9c-1,1.7-0.8,3.4-1,6c-3.7,5.8-7.8,12.2-11.9,18.7
		c-1.8,2.9-4.4,5.4-5.9,8.6c-1.9,4-5.1,6.9-8,10.2c-5.6,6.4-11.3,12.7-16.9,19c-3,3.4-6.2,6.8-8.3,11c-0.5,1-1.9,1.7-2.9,2.5
		c-3.7,2.6-7.6,5.1-11.2,7.8c-5,3.8-10.8,6.7-15.4,11.1c-0.5,0.5-1.4,0.7-2.2,1.1c0,0.9,0,1.7,0,2.4c-2.6,2.1-5.6,3.2-8,5.4
		c-2.5,2.4-5.6,4.3-8.2,6.6c-3,2.7-5.5,5.8-9.4,7.5c-1.2,0.5-2.1,2.1-2.7,2.7c-8.6,2-16.4,4.5-24,7.6c-3.6,1.5-6.6,4-10.5,4.8
		c-3.3,0.7-6.6,1.7-9.8,2.8c-4.1,1.3-8.4,2.3-11.8,4.7c-4.9,0.4-9.6,0.6-14.2,1.4c-2,0.4-4,0.8-6.1,0.9c-2,0.1-4.1,0.6-6.1,1
		c-2,0.3-4.2,0.3-6,1.1C360,587.4,356.9,586.9,353.9,587z M727.4,822.4c-5.8,5.7-10.8,11.9-15.6,18.5c-2.1,2.8-4.5,5.5-7.9,7.3
		c-1.8,1-3.1,3-4.6,4.5c-4.3,4.2-8.2,8.8-13.6,11.7c-1.8,1-3.3,2.5-4.9,3.9c-2.5,2.3-4.9,4.7-7.6,6.8c-2.8,2.2-5.1,5.1-7.1,8
		c-3.5,5.1-7.7,9.7-12.1,14c-1.3,1.3-2.6,2.6-4,4c-4.1-3.8-6.9-8.6-9.3-13.4c-2.9-5.7-6.5-11.1-10.3-16.2c-2.6-3.4-4.8-6.9-6.9-10.6
		c-3.9-6.9-8-13.7-12.2-20.4c-0.7-1.1-1.9-1.8-2.7-2.6c0.4-5.8-2.2-10.7-3.6-15.8c-0.7-2.7-2.5-4.6-3.8-6.9
		c-2.5-4.3-6.9-6.8-9.4-11.1c-0.7-1.2-0.9-2.3-1.4-3.5c-2-5.8-5.2-10.9-8.8-15.8c-2-2.8-4.3-5.5-6.3-8.4c-1.5-2.2-2.7-4.5-3.9-6.9
		c-3.8-7.3-8.4-14.1-11.9-21.6c-1.5-3.2-3.9-6-5.9-9.1c-2.1-3.1-4.1-6.3-6.2-9.4c-3.1-4.5-6.3-9.1-9.5-13.5c-2-2.8-4.3-5.5-6.3-8.4
		c-1.1-1.5-1.8-3.3-2.9-4.8c-2.4-3.2-4.7-6.5-7.4-9.4c-5.6-6.2-11.5-12.3-17.3-18.6c-0.2-0.7-0.2-1.7-0.7-2.5
		c-3-4.4-6.1-8.7-10.2-12.3c-2.1-1.9-4.1-3.9-6-6c-2.5-2.7-4.8-5.8-7.5-8.4c-4.1-4-8.4-7.8-12.3-11.5c-0.9,0-1.4,0-2.2,0
		c-3.3,3.5-6.8,7.3-10.3,11c-0.2,0.2,0,0.6,0,1.2c2.9,3.3,5.9,6.7,8.8,10.1c1.5,1.7,2.8,3.5,4.2,5.2c1.4,1.7,3.1,3.2,4.4,5.1
		c1.1,1.8,3,3.2,5,4.5c2.9,1.8,5,4.8,7.5,7.3c0,0.7,0,1.3,0,1.9c-3.2,1.5-6.4,3-9.6,4.6c-4.4,2.2-8.8,4.5-13.3,6.5
		c-4.4,1.9-9,3.3-13.6,4.7c-5.1,1.6-10.8,1.7-15.1,5.7c-1.3,1.2-3.7,1.4-5.7,1.9c-5.1,1.2-10.2,2.4-15.3,4
		c-3.9,1.3-8.2-0.3-12.1-2.8c-3.4,0.1-7.2,0-10.7-2c-3.3,0.5-6.1-1.2-9.1-2.1c-1.3-0.4-2.7-1-3.7-1.9c-4.6-4.2-9.2-8.4-13.7-12.7
		c-1.3-1.3-2.2-3-3.4-4.7c2-2.4,1.1-4.3,0.1-6.6c-2.4-5.7-4.5-11.6-3.6-18c0.2-1.4,0.9-2.7,0.9-4.1c-0.1-1.9,0.7-3.8-0.8-5.7
		c-0.6-0.8-0.6-3,0-3.8c1.6-2-0.1-4.4,1-6.1c1.3-1.9,0.4-3.8,0.8-5.7c0.3-1.8-0.7-3.4-0.9-5.1c-0.7-4.5,0.1-9.1,1.4-13.4
		c0.6-2.1-0.5-4.6,1.5-6.4c0.5-0.4,0.7-1,1.3-1.9c3.8,0.8,7.3-1.6,11.3-1c2-1.6,4.7-0.3,6.8-1.8c0.3-0.2,0.9-0.3,1.4-0.2
		c4.1,0.7,8-0.8,12.1-1.2c3.8-0.3,8-0.9,10.4-4.7c0.5,0,1-0.2,1.5-0.1c6.4,0.7,12.3-1.3,18.1-3.4c5.1-1.8,10.1-3.8,14.8-6.5
		c3.3-1.9,7.1-2.9,10.8-4.3c1.5,0.7,3.1,1.5,4.6,2.2c2-1.5,4.1-2.9,6.5-4.7c0.8,4.4,2.5,8,2.5,12.1c0,1.7,1,3.2,1,5.1
		c0,1.7,0.6,3.4,0.9,5.1c0.3,1.7-0.4,3.5,0.9,5.2c0.6,0.7,0,2.3,0.1,3.4c0.2,1.9,0.5,3.7,0.8,5.3c3.1,1.5,5.7,2.1,9,0.7
		c2.2-1,5.2-0.2,7.3-0.2c1.1-1.2,1.8-2.6,2.8-2.9c4.8-1.3,9.3-3.4,13.9-5.1c0.6-0.2,1.3,0,2,0c0.5,5.7,0.3,11.3,1.5,16.6
		c1.2,5.1,1.2,10.6,4.2,15.5c2.6-0.5,5.6,0.8,8.4-1c0.9-0.5,2.3,0,3.4-0.1c7.4-0.4,14.8-1.5,21.9-3.8c0.4-0.1,1-0.3,1.4-0.2
		c2.6,0.5,5.1-0.6,7.6-1c1.7-0.3,3.4-0.7,5.1-1c1.9-0.3,3.9-0.3,5.5-1.1c1.7-0.8,3.7-0.3,5.1-1c2.6-1.3,5.1-1,7.6-0.8
		c5.1,0.4,10-1.1,15.1-1.1c1.6,0,3.2-0.8,5.3-1.3c0,1.2,0,1.8,0,2.4c-0.4,4.6,1.8,9,1,13.6c1.5,2.7,0.5,5.8,1.1,8.6
		c1.1,4.7,1,9.7,3.9,13.9c0.4,0.5,1,1.1,1,1.6c-0.2,4.3,2.9,6.9,5.1,9.9c3.8,5.1,7.2,10.5,11.4,15.2c3.3,3.8,6.7,7.6,11.1,10.4
		c2.8,1.8,4.8,4.8,6.4,7.8c3.5,6.3,7.5,12.2,12.7,17.2c1.6,1.5,3.5,2.8,5.2,4.3c1.6,1.3,3.1,2.8,4.8,4c2.4,1.8,4.6,4.3,6,6.9
		c1.7,3.2,4.6,5.3,6.6,8.2c4.4,6.4,10.3,11.5,15.8,17c2.4,2.4,4.2,5.2,6.1,8c2.4,3.6,5.7,6.6,8,10.2c3,4.7,8,7.7,10.7,12.6
		c0.4,0.7,1.1,1.4,1.1,2c-0.1,2.7,1.4,4.5,3.2,6.2c4.2,4.1,8.2,8.5,13,12c0.6,0.4,1.3,0.6,2.3,1C728.1,821.4,727.8,822,727.4,822.4z
		 M816.4,736.3c-4.3,4.1-8.2,8.5-12,13c-1.3,1.5-2.3,3-2.2,5.1c-4.9,4.5-9.9,9.1-15,13.8c-1-0.4-2.2-0.8-3.5-1.2
		c-3.6,3.6-7.3,7.2-10.8,10.9c-1.7,1.8-3.2,4-4.7,6.1c-2.3,3.2-5,5.9-8.4,7.9c-4.1,2.5-7.9,5.2-10.7,9.3c-1.7,2.5-4.5,4.3-7.2,6.7
		c-2-1.3-3.7-3.8-5.9-5.6c-2.1-1.7-4.3-3.2-6.7-5c0-0.6,0-1.6,0-2.4c-0.7-1.9-2.3-2.8-3.3-4.4c-2.2-3.7-5.1-7-8-10.2
		c-4.4-4.7-8.4-9.7-12-15c-1.7-2.5-3.8-4.8-6-7c-3.8-3.8-7.2-7.8-10.3-12.2c-2-2.9-4.8-5.3-7-8.1c-5.7-7.6-13-13.6-19.5-20.4
		c-0.8-0.9-2.2-1.3-3.1-2.2c-2.5-2.3-4.5-4.9-6.1-7.9c-2-3.6-4.4-6.9-7-10.1c-4-4.8-8.3-9.3-12.4-14c1.7-6,4.4-11.8,5.8-18.2
		c1-4.6,2-9,1.7-13.7c-0.1-1.4,0.8-2.4,1-3.6c1-4.6,2.3-9.1,3.2-13.7c0.7-3.4,1.5-6.9,2.7-10.3c1.1-3.1,1.4-6.5,2.3-9.6
		c1.3-4.7,1-9.7,2.8-14.3c-0.7-3.3,1-6.3,1-9.6c0.1-2.9,1.4-5.4,3-8.3c0.3-1.3-0.2-3.2,0.9-5.1c0.9-1.5-0.8-3.9,1.1-5.5
		c0.1-0.1,0-0.3,0-0.5c-0.7-4.1,1.2-8,1.1-12.1c-0.1-2.5,0.6-5.1,0.9-7.6c0.3-2.4-0.6-4.8,0.9-7.1c0.5-0.8,0-2.3,0.1-3.4
		c0.3-3.3-0.4-6.5,0.4-9.8c0.7-3,0.5-6.2,0.8-9.4c-1.4-1.1-2.8-2.2-4.3-3.4c0-0.4,0-1.1,0-1.7c-0.9-0.5-1.7-0.9-2.8-1.4
		c-1.7-0.5-3.7,0.6-5.9-0.9c-1.5-1-4.1,0.6-6-1.1c-0.5-0.4-1.8-0.4-2.4,0c-2.6,1.7-5.4,0.5-8,1c-1.4-0.7-1.9-1.7-1.9-3.2
		c0.1-3,0.1-6,0-9c-0.1-1.9,0.6-3.9-0.9-5.6c-0.4-0.5-0.4-1.9,0-2.4c1.6-2.1,0.9-4.4,0.9-6.6c0.1-4.7,1.7-9.3,1-14.1
		c1.7-1.9,1-3.8-0.5-5.9c-1.4-0.4-3.4-1-5.3-1.6c-0.6-0.2-1.1-0.7-1.7-0.7c-5.8,0-11.3-2.6-17.1-2c-3.4-1.8-7-0.7-10.6-1
		c-2.5-0.2-5,0.3-7.6-0.8c-2.1-0.9-4.6,0-7.1-1c-2-0.8-4.5-0.2-6.8-0.2c2.5-6.9,5.1-13.4,7.3-20.1c1.1-3.4,1.6-7,2.5-10.5
		c1.2-4.6,1.7-9.3,2.6-13.9c0.9-4.2,1.3-8.3,3.3-12.2c0.1-0.3,0-0.7,0-1c0-0.3,0-0.7,0-1c0-10.5-0.7-21.1,0.2-31.5
		c0.9-10.4,0.4-20.7,0.9-30.9c-1.1-1.6-2-3-3-4.4c0.1-5.5-2.9-10.6-1.9-16.3c3,1.3,6.2,2.1,9.2,3.4c3,1.3,6.6,0.9,9.6,1.3
		c6.5,6.7,12.8,13.1,19,19.8c1.3,1.4,2,3.5,2.5,5.4c0.9,3.5,3.1,6.6,2.5,10.1c2.5,4.4,4.1,8.7,5,13.3c0.3,1.5,0.9,2.9,1.4,4.4
		c1.4,4.2,2.6,8.4,2.6,12.9c0,2.3,0.2,4.7,0,7c-0.3,3.5,0.5,6.6,2.1,9.7c0.3,0.6,0.9,1,0.9,1.6c0.4,4,0.7,8.1,1,12.1
		c0.4,4.9,0.2,9.8,1.2,14.5c0.5,2.6,0.6,5.1,0.9,7.6c0.2,1.9,0.6,3.7,1,5.6c0.4,1.9-0.9,4,1,5.6c0.2,3.9-0.1,7.7-1.4,11.4
		c-1.1,2.9-1.2,6.1-2.5,9c-0.5,1.1-0.5,2.9,0,3.9c1.7,3.2,0.9,6.2-0.3,9.3c1.6,1.8,2.8,3.6,4.7,5.1c2.1,1.6,3.8,3.8,5.7,5.6
		c1.8,1.6,3.7,3.2,5.4,4.8c4.9,4.3,10.2,8,14.9,12.5c4.6,4.3,9.4,8.6,15.2,11.3c4.4,2.1,8.3,4.8,12.4,7.5c6.1,4,11.6,8.6,16.9,13.7
		c3.3,3.2,7.6,5.5,11.7,7.8c4.1,2.3,8,5,11.7,7.9c4.4,3.5,8.8,7,13.1,10.8c4.2,3.7,9,6.7,14.1,9.3c0.8,0.4,1.7,0.7,2.9,1.1
		c3.1,2.4,6.5,5.1,10,7.6c3.3,2.4,6.7,4.8,10,7.2c3.6,2.6,6.7,5.8,11.6,5.9c0.8,0,1.8,0.6,2.5,1.2c4.6,4.1,10.2,6.6,15.4,9.8
		c2.3,1.4,4.4,3.2,6.4,5.1c3.3,3.2,7.2,5.6,11.3,7.8c7.4,4,14.5,8.5,21.5,13.1c3.7,2.5,7,5.6,10.5,8.4c1.5,1.2,2.9,2.8,4.6,3.4
		c1.6,0.5,2.2,1.8,3.6,2.7c-3.6,2.3-6.4,5.2-8.9,8.6c-2.5,3.4-6.1,5.9-8.4,9.5c-1.7,2.6-2.7,5.6-4.7,8.1c-3.2,4.2-7,7.7-10.9,11.2
		c-0.7,0.6-1.6,1-2.3,1.7c-5.5,5.5-11.1,10.8-15.9,16.9c-2.1,2.7-4,5.6-6.3,8.8c0.7,1,1.4,2.1,2.1,3.2c0,0-0.2,0.3-0.3,0.5
		c-2.4,3.4-5.7,6.1-7.4,9.9C817.7,734.8,817.1,735.6,816.4,736.3z"/>
	<path d="M708.3,249.7c-1.9,4.9-0.6,9.5-0.9,13c1,2.6,1.7,4.3,2.3,5.9c2.6,4,6.8,5.8,10.7,8.5c0.7,0,1.7,0,2.4,0
		c2.3,1.1,1.2,3.1,1.9,5c4.4,0.8,9,1.6,13.8,2.4c-2.1,4-4.1,8-6.1,11.8c1.5,2,2.9,4.1,1.8,6.2c-0.8,1.5-0.5,2.8-0.8,4.2
		c-0.3,1.4-0.8,2.7-1,4.1c-0.7,8.1,1.6,15.3,6.2,22.3c1.3,0,2.5,0,3.7,0c0.6,4.4,4.1,5.7,6.8,8c1.9,0,3.9-0.4,5.8,0.1
		c8.2,1.9,14.9,0.8,21.6-3.9c0.6-0.4,1.3-1.2,2-1.2c2.9,0.2,4.8-1.4,6.4-3.2c1.3,0,2.2,0,2.8,0c1.7-1.6,3.2-3,3.9-3.6
		c2.7-6.6,6-12,7-18.3c1.6,0,3,0,4.3,0c0.9-0.9,1.6-1.5,2.1-2c4.2,2.5,8.1,4.9,12,7.1c2.1,1.2,4.8,1.6,6.7,3.1
		c4,3.3,8.4,4.3,13.2,3.8c6.7-4.1,10.5-10.5,15.4-16.5c0.7-5-2.1-13.1-4.7-18.7c-2.6-5.6-6-10.7-8-16.7c-1.7-5-2-10.1-3.1-15.2
		c-0.8-3.7-0.2-7.7-1-11.6c-1.2-6.4,0.1-13,2.2-19c2-5.7,2.8-11.4,2.7-17.4c0-2.4-0.3-4.8-1.1-7.1c-1.5-4.4-3.3-8.6-7.1-11.5
		c-2.2-1.7-4.2-3.5-6.3-5.3c-1.7-1.4-3.4-2.8-4.9-4c-2.6,0-4.8-0.1-6.9,0c-0.9,0-1.9,0.2-2.7,0.6c-3.4,1.6-6.5,3.7-8.6,6.8
		c-0.9,1.3-2,2.5-2.9,3.7c-3.3,4.4-6.9,8.6-7.5,14.4c0,0.2-0.8,0.4-1.4,0.7c-1.5-4.7-2.2-9.4-4.4-13.7c-0.5-1.1-0.6-3.1,0-3.9
		c1.4-1.7,0.9-3.5,0.8-5.2c-0.3-5.1,1.8-10,1.1-15.1c0-0.2-0.1-0.4,0-0.5c2-4.2,0.7-8.6,0.9-13c-3,0.3-5.4-0.3-8-0.8
		c-2.5-0.5-5.1,0.3-7.5-1.4c-0.7,1.3-1.1,2.3-1.8,3.2c-1.1,1.4,0,3.1-0.7,4.2c-1.6,2.4-0.1,5.3-1.2,7.5c-1.3,2.6-0.4,5.2-0.7,7.7
		c-0.1,0.5-0.1,0.9-0.1,1.4c-0.5,0.5-1,0.9-1.5,1.3c-3.1-7-8-15-10.9-17.8c-4.6,2.3-9.1,4.7-13.5,6.9c0,3.8,0,3.7,1.7,7.2
		c2.1,4.3,3.9,8.7,6.3,12.9c2.7,4.7,4.7,9.9,8.5,14c1,1,2.3,2.3,2.3,3.5c0,1.9,0.9,3.4,1.1,5.1c0.1,1.1,0,2.2,0,4.2
		c-4.3-3.8-7.9-6.9-11.3-9.9c-2.9,0-5.4,0-7.9,0c-2.6,0-5.1-0.5-7.6-0.8c-3.4-0.5-7-0.4-10.6,0.7c-3.1,0.9-6.1,2.1-7.4,4.8
		c-1.6,3.2-4.2,3.9-6.8,4.7c-5.1,10.4-7.6,21-6.1,32C706.7,247.1,707.6,248.5,708.3,249.7z M794.2,235c2.1,0.5,3.8,0.9,5.7,1.3
		c4.9-9.5,7.9-19.6,11.7-29.8c0.9-0.9,2.2-2.2,3.7-3.7c2.6,1.3,2.5,4.1,2.8,6.4c0.7,5-0.9,9.8-2.2,14.5c-1.2,4.4-2.9,8.7-2.7,13.4
		c0.1,3.8-0.1,7.7,0.1,11.5c0.1,2.6-0.6,5.1,0.7,7.7c1.1,2.3-0.7,5.2,1.3,7.5c-0.2,4.7,1.6,8.9,2.9,13.3c1,3.3,2.5,6.4,4.3,9.2
		c2.4,3.9,4.3,7.9,6,12.4c-2.8,0.9-4.8-0.3-7-1.8c-3.7-2.6-7.1-5.8-11.2-7.8c-3-1.5-3.8-4.5-4.9-7.2c-1.5-3.6-2.3-7.4-4.2-10.8
		c-1.3-2.4,0.1-5.2-1.9-7.2c0.4-5-2.4-9.6-2-14.7c-1.8-3.4-0.9-7.4-2.9-10.8C793.8,237.5,794.2,236.2,794.2,235z M725.2,234.2
		c0.2-1.7-0.3-3.6,1-5.1c0.2-0.3,0-1,0-1.6c1.7-1.7,3.5-3.4,5.9-5.6c3.6,0.4,7.9,0.8,13,1.4c7.4,6,15.3,12.6,22.8,18.8
		c0.5,4.2,0.6,8,1.4,11.6c0.7,3.3,2,6.5,2.9,9.8c0.9,3.4,2.1,6.8,3.4,10.6c1,1,2.2,2.2,3.3,3.3c2,4.7,1,9.3,1.3,13.8
		c0.2,3.4-0.6,6.7,0.8,10.1c0.6,1.3-0.1,3.6-0.9,5c-2,3.4-2.5,7.3-4.3,10.9c-1.6,0-3.2,0-4.9,0c-3.4,0-6.5,1-9.2,3
		c-1.6,1.2-3.2,2.6-4.9,1.9c-1-3.1-1.5-5.7-2.6-8.1c-2.2-4.7-2.8-9.4-1-14.3c0.2-0.6,0-1.3,0-2c4.8-5.3,12-15.1,13.1-20
		c-0.9-0.8-1.9-1.7-3.1-2.6c-1.1-0.8-2.3-1.5-3.8-2.5c0-0.4,0-1.1,0-1.9c-1-0.9-1.9-1.7-2.8-2.5c-2.9,0.1-5.7-1.7-8.8-1.1
		c-2.8-2.3-6.1-0.1-9.7-1.5c-0.2-0.5-0.7-1.6-1.5-3.3c-1.2-0.8-2.9-2.1-4.9-3.1c-2.1-1.1-2.9-3.2-4.6-4.7c1-4.7-1.6-8.9-2.3-13.4
		c-0.1-0.6-0.6-1.2-0.5-1.8C724.5,237.6,725,235.9,725.2,234.2z"/>
	<path d="M823.9,478.2c-6.8,0-13.2,0-19.8,0c0.5,6.7,0,13-4.8,18.3c-0.5,5.3,0.1,10.3-0.9,15.4c-0.9,4.7-0.1,9.7-1.1,14.6
		c-0.9,4.5,1.6,9,0.9,13.6c1.7,2.4,0.4,5.7,2.8,8.2c4.8-0.5,10-1,15.4-1.5c0.3-1.9,0.8-3.8,0.8-5.6c-0.1-3.4-0.8-6.7-0.9-10.1
		c-0.1-7,0-14,0-21c0-2.6,0-5.2,0-8.3c3.5,2.6,4.6,6.1,5.9,9.3c1.6,4,2.9,8.1,5.1,11.9c1.5,2.5,3,5.1,5.4,5.9
		c4.4-0.6,7.3-3.7,11.7-3.9c-0.3,1.3-0.3,2.3-0.7,3c-1.8,3.3-1,7.1-2.4,10.5c-0.6,1.3,0.9,2.5,0.9,3.6c-0.2,4.7,1.4,9.1,2.1,12.7
		c1.1,1.6,1.8,2.5,2.3,3.1c3.8-0.3,7.2-0.4,10.5-0.9c1.8-0.3,3.4-1.3,5.2-2c0-1.1,0.1-1.9,0-2.7c-1.2-6.1-1-6.1,0.9-12.8
		c0.7-2.4,1.6-4.9,1.1-7.6c-0.3-1.6-0.5-3.5,0-5c1.7-5,2.1-10,1.9-15.2c-0.1-2.1,0.5-3.8,2-5.3c0-2.6,0.3-5.3-0.1-7.9
		c-0.4-2.6-1.5-5-2.4-7.7c-3.9,0.9-6-2.7-8.9-3.7c-7,3.4-12.5,8.7-18.6,12.9C833.2,492.6,828.5,485.2,823.9,478.2z"/>
	<path d="M248.9,603.1c-2-1.7-0.8-4.2-1.5-6.4c-1.4-4-4.1-7.3-5.5-12.7c0-2.4-1-4.4-3-7.8c-1-1.7-2.9-2.3-3.9-3.8
		c-3.5-5.2-6.6-10.7-10.6-15.6c-1.1-1.3-2-2.8-3.1-4.5c-5.7,2.1-10,5.7-14.4,9c0.4,2.2,0.7,4.1,1.1,5.9c0.3,1.8,0.7,3.6,1.1,5.7
		c-2.8-0.8-5.3-1.2-7.5-2.2c-2.2-1-4.6-2.2-5.1-5.2c-2.3,0.6-4.3,1-5.8,1.4c-1.8,1.5-3.2,2.9-4.9,3.8c-2.3,1.3-4.3,2.7-6.1,5.1
		c1.1,2.8,2.3,5.8,3.6,8.8c0.8,1.8,1.3,4,2.5,5.4c2.9,3.2,4.8,7.1,6.4,10.9c2.6,5.7,5.6,11.2,8.3,17.2c4.9-1.9,9.6-3.8,14.3-5.7
		c0.4-1.4,1.3-3,1-4.1c-1.2-3.6-2.9-7.1-4.5-10.6c-0.2-0.5-0.3-1.1-0.5-1.7c2.8,0.4,5.3,0.7,6.8,0.9c2.4-1.5,4-2.4,5.9-3.5
		c0.6,1.1,1.1,1.9,1.4,2.8c0.7,2.4,1.2,4.8,2.1,7.1c1,2.4,2.5,4.6,3.8,7c0.1,2.1-0.4,4.6,0.6,6.2c1.3,2-1,5,2.5,6.3
		c4.7,0.4,9.8-0.1,15.2-1.3c0.3-1.7,1-3.6,0.7-5.4C249.2,611.9,248.6,607.5,248.9,603.1z"/>
	<path d="M409.5,751c-0.9,0.5-1.9,1-2.8,1.6c0.1,3.1-0.8,5.9-1.8,8.8c-1.2,3.7-2.9,7.4-3,11.2c-0.1,4.3-1.3,8.3-1.2,12.6
		c0.1,4.3,0,8.6,0,12.8c-1.1-2.4-1.5-4.8-2-7.2c-0.4-2-0.6-4.2-1.6-5.8c-5.2-8-10.7-15.7-17.8-21.8c-5.5-1.2-10.1,2.2-15.1,1.9
		c-1.5,2.2-1.4,2.1-0.9,3.9c1.1,3.7,2.8,7.4,2.5,11.7c5.4,4.2,9.1,10,13.4,15.3c0.8,0.9,1.5,2.2,1.6,3.3c0.1,5.1,2.6,9.7,3.2,14.7
		c0.3,2.8,2,5.5,3.1,8.4c5.4-1.6,10.9-1.8,15.8-4.5c-0.5-2.7,0.3-5.1-0.9-7.7c-1.1-2.5-0.8-5.6-1.1-8.5c0-0.2,0.4-0.4,0.6-0.7
		c0.2,0.6,0.4,1.2,0.7,1.8c5.1,0.3,10.2,2,15.4,1c0.3-0.3,1-0.7,1-1c0.1-2.7,1.5-5.2,1.3-8c-0.2-3.5-0.1-7,0-10.5
		c0-1.2,0.1-2.4,0.7-3.7c1.5-3,2.7-6.3,3.1-9.7c0.8-5.4,0.9-11,1.3-15.7c-1.2-1.5-1.9-2.4-2.4-3C417.8,751.5,413.5,753,409.5,751z"
		/>
	<path d="M368.2,431.9c3-0.8,6-1.7,8.9-2.6c2.8-0.9,5.8-1.4,8.4-2.7c2.8-1.4,5.4-3.1,8.1-4.7c2.6-1.6,5.3-3.1,7.6-4.5
		c3.6,2.2,7.2,4.4,10.9,6.5c5.8,3.4,12.2,5.1,18.6,6.9c3.9,1.1,7.9,1.7,11.7,3c4,1.3,8,2.4,11.8,4c2.4,1,5,1.7,7.6,2
		c3.1,0.3,5.7,1.5,7.9,2.7c3.3,0.5,6.3,1,8.7,1.3c4.3-3,8.2-5.7,12.1-8.4c0-2.1,0-4.1,0-5.8c-1.7-3.1-3.1-6.1-3-9.6
		c0-4-1.8-7.5-3.4-11.1c-0.9-2.1-2.4-4-3.6-6c-2.1-3.9-4-8-6.4-11.8c-0.9-1.5-2.2-2.8-2.6-4.4c-1.3-5.4-4.1-10-7.2-14.5
		c-2.7-3.9-5.2-8-7.8-11.9c2.5-2.5,4.7-4.7,7-6.9c0-1,0-2,0-2c1.1-2.8,1.8-4.6,2.5-6.5c1.4-3.9,3-7.9,3.4-12
		c0.6-5.3-0.2-10.7,0.9-16.1c0.9-4.1-1.8-7.8-3.7-11.4c-1-1.7-2.7-2.4-3.9-3.8c-1.2-1.5-2.4-3-3.5-4.5c-0.3-0.4-0.7-1-1.1-1
		c-2-0.3-3-2-4.1-3.3c-2.3-2.5-5.2-4.3-8.1-5.8c-3.7-2-7.7-3.2-11-6c-0.7-0.6-1.7-0.9-2.6-1c-3.1-0.5-6.3-0.9-9.6-1.3
		c-0.4-0.5-0.9-1.1-1.3-1.6c0.9-1.7,1.6-3.1,2.3-4.3c-0.5-0.7-0.8-1.2-1.4-1.9c3.6-4.6,5.3-10.1,7.5-15.7c-4.5-2.7-8.9-5.4-13.7-8.3
		c-1.9-0.1-2.7,1.6-3.5,3.5c-0.9,2.1-1.7,4.4-3.2,6.2c-3.2,4-3.9,9.2-6.8,13.2c-0.3,5.4-4.7,9-6.2,13.9
		c-5.7,7.7-10.8,15.8-15.9,23.9c-1.8,2.9-4.3,5.6-5.5,8.7c-0.7,1.9-1.7,3.4-3,4.8c-4.2,4.2-7.4,9.1-10.5,14.1
		c-2.2,3.6-4.6,7.3-9.1,8.8c-1.1,0.4-2,1.6-2.8,2.6c-0.7,0.8-1.2,1.8-1.9,2.7c-1.4,1.8-3.1,3.3-4.1,5.3c-1.1,2.1-2.8,3.8-4.1,5.8
		c-4.4,6.7-9.8,12.5-16.6,17c-6.6,4.4-13,9-18.2,15.1c-0.6,0.7-1.9,1.5-1.9,2.2c0.1,3.5-2.8,4.1-4.9,5.2c-2.5,1.4-5.6,1.9-8,3.5
		c-6.6,4.4-13.1,8.9-18,15.1c3.1,4.2,6.2,8.4,9.6,12.9c1.6-0.8,3.2-1.4,4.6-2.3c3-2,5.7-4.4,9-6c1.5-0.7,3.2-1.1,4.7-1.8
		c6.7-3.1,12.6-7.4,17.7-12.7c1.7-1.8,3.2-3.6,3.2-6.2c0-0.2,0.8-0.4,1.2-0.6c4,5.9,5.1,13.4,11.2,18c0.7,0.1,1.6,0,2.2,0.4
		c2,1.2,4,2.5,5.9,3.9c4.2,3.1,8.7,5.4,15.1,6c0.4,0.6,1.1,1.8,1.9,3.1C361.8,432.8,365.1,432.7,368.2,431.9z M457.3,400.2
		c1.8,3.1,3,6.4,5.2,9.4c1.8,2.5,3.1,5.6,1.8,9.4c-1.4,0-2.8,0.4-4-0.1c-3.4-1.4-7.2-1.8-10.5-3.4c-4.7-2.2-9.6-3.3-14.5-4.6
		c-5.9-1.6-12.1-2.5-17.6-5.5c-1.2-0.6-2.6-0.9-4-1.4c2.9-4.8,4.6-9.3,4.1-14.6c-0.2-3,0-6,0-9.2c6.1-1.7,12.3-2.9,18.3-5.2
		c0.5,0.4,1,0.7,1.8,1.3c1.2-1.1,2.3-2.2,3.6-3.3c1.3,0.3,1.7,1.4,2.5,2.4c2.8,3.7,5.2,7.4,6,12c0.3,1.7,1.7,3.3,2.7,4.8
		C454,394.9,455.7,397.5,457.3,400.2z M390.8,327.3c0.5-1.1,0.8-2.4,1.3-4.3c7.4-7.9,11.8-18.7,18.7-27.8c1.8,0.3,3.4,0.5,5.1,0.8
		c1.5,0.3,3.1,1,4.6,0.9c4.8-0.3,8.7,1.5,12.1,4.6c0.7,0.6,2.7,0.1,1.8,2.2c-3,0-6.1,0-9,0c-0.6,0.5-0.9,1.1-1.3,1.2
		c-2.9,0.6-4.4,2.5-5.6,5c-0.9,2-2.3,3.8-3.9,6.2c0,3.8,0,8.5,0,13.4c0.8,0.7,1.8,1.6,2.8,2.4c-0.5,3.7,2.4,5.2,4.8,5.8
		c4.1,0.9,8.1,2,12.2,3.1c2,0.5,4,0,5.9-1.2c3.9-2.5,6.9-5.5,8.2-10c0.1-0.3,0.4-0.4,0.6-0.7c0.3,0,0.6,0.1,1.4,0.1
		c-3.3,4.3-2.5,9.5-4.5,14.9c-4.6,4.5-11.4,7.9-15.2,13.3c-5.5,1.4-10.1,2.6-14.8,3.8c-1.5-3.2-3.4-6.3-4.4-9.6c-1.6-5-5-8.4-9.3-11
		c-1.4-0.8-2.7-1.8-3.8-2.9c-2.8-2.9-6.5-4.5-9.6-7C389.6,329.6,390.3,328.5,390.8,327.3z M349.9,407c-0.6,0-1.1-0.6-1.6-0.9
		c-1.3-0.8-2.7-1.6-4.3-2.5c-1.9-3.9-4.1-8.1-6.4-12.9c2.7-2.7,5.6-5.6,8.5-8.5c3-2.9,5.1-6.6,7.9-9.6c3.1-3.4,5.2-7.7,9.6-10.1
		c2.2-1.2,4.1-3.5,5.5-6.1c1.4-2.6,3.9-4.7,5.9-7.1c0.9-1.1,1.7-2.2,2.6-3.3c4.1,2.8,8.1,5.7,12.7,8.9c-2.8,0-4.9,0-6.5,0
		c-1.4,0.8-2.3,1.8-3.3,1.9c-3.8,0.2-6,3.3-8.9,5.1c-2.7,1.7-3.2,4.7-2.8,7.2c-3,5.3-2.6,10,0.2,14.7c1.5,2.6,3.3,4.4,6.2,5.3
		c2,0.7,3.7,2.3,5.6,3.4c1.7,1,3.6,1.9,5.5,2.4c1.1,0.3,2.4,0.5,3.7-0.5c1.6-1.1,3.5-1.7,6.2-3c-1.3,3.2-2.1,5.6-3.9,7.6
		c-4.6,4.9-10.1,8.6-16.3,11.2c-2,0.8-4.2,1.1-6.3,1.7c-1.9,0.5-3.8,1.2-6.2,1.9c-1.5-0.9-3.7-1.9-5.5-3.3
		C355.5,408.8,353.1,407.1,349.9,407z"/>
	<path d="M714.8,699c-2.9,0-5.9-0.2-8.9,0c-3,0.2-6,0.8-9.4,1.3c-0.5,0.5-1.3,1.4-2.1,2.1c-2.1,1.9-3.2,4.2-3.1,7.2
		c0.2,3.3-0.4,6.7,0.2,9.9c0.7,3.9,0.4,8.7,5.7,10.4c3,0,6.2,0.2,9.3,0c3.2-0.2,6.3-0.8,10-1.3c1.1-1.1,2.4-2.5,3.8-3.8
		c0-3.3-0.1-6,0-8.6c0.1-3.9-0.8-7.5-1.9-11.2C717.7,702.5,716.5,700.7,714.8,699z"/>
	<path d="M735.2,663.1c-3.8,1.8-6.9,4-9.4,7.7c-2.3,3.4-5.3,6.3-6.4,10.2c1,3.9,3.3,6.6,6.9,8.6c2.5,1.4,4.5,3.6,6.7,5.4
		c3,0,6,0,9.1,0c4.4-5.2,8.7-10.4,11.4-17.1C750.7,672.8,744.1,667.5,735.2,663.1z"/>
</g>
<g id="3">
        <animate id='frame_2' attributeName='display' values='none;none;inline'
               dur='0.45s' fill='freeze' begin="0s" repeatCount="indefinite"/>
			<path d="M766.7,897.6c-4.5,0-8.6,2.2-12.9,2.8c-4.3,0.6-8.4,2.4-13.1,2.6c-2-5.2-3.1-10.3-4.1-15.4c2.8-2.7,6.2-3.5,9.4-4.6
				c3.1-1.1,6.5-1.3,9.5-2.4c2.2-0.9,4.6-0.8,6.8-1.5c5.9-2,12.4-1.9,18.3-4c2.5-0.9,5.3-0.8,8.1-1.2c-0.2-0.4-0.4-0.8-0.5-0.8
				c-13.8-0.4-27.7-0.7-41.5-1c-2.2,0-4.3,0-6.9,0c0-3-0.1-6,0-8.9c0.2-2.7-1.1-5.6,0.9-7.6c9.8-2.2,19.4-1.2,29.3-1.5
				c-0.5-1-0.7-1.7-1.1-2.2c-2.3-2.4-4.5-4.9-7.1-7c-2.1-1.8-4.7-3.1-7-4.6c-2.6-1.7-5.3-3.3-8.4-5.1c-0.6,1.2-1,2.7-1.9,3.8
				c-3.9,5-8.1,9.7-13.2,13.5c-2.5,1.9-4.8,4.3-6.6,7.1c-1.9,3-4.7,5.7-7.6,7.8c-3.4,2.4-6,5.5-9,8.2c-3.1,2.8-5.6,6.4-9.5,8.5
				c-0.6,0.3-1.1,0.8-1.4,1.4c-1.5,2.5-3.6,4.2-5.9,6c-8.4,6.7-15.7,14.6-23.3,22.2c-3.3,3.3-6.5,6.7-9.9,9.9
				c-2.8,2.7-5.8,5.2-8.9,7.9c-0.8-0.4-2-0.5-2.5-1.1c-2.5-3.9-6-7.1-8.8-11.2c0.3-0.8,0.6-1.8,1.2-3.4c-1.9-2.5-3.9-5.6-6.3-8.3
				c-3.3-3.7-6-7.7-8.1-12.2c-2.6-5.6-6.3-10.4-9.6-15.5c-1.1-1.7-2.1-3.5-3.2-5.2c-1.7-2.5-3.6-4.8-5.3-7.3
				c-3.1-4.6-6-9.3-7.9-14.7c-1.3-3.7-4.1-7-6.2-10.4c-3.2-5.2-6.3-10.4-9.4-15.6c-1-1.7-2.1-3.5-3-5.3c-1.9-3.9-3.5-7.9-5.1-11.9
				c-0.9-2.4-1.4-5.3-4.6-6.7c-2.2-0.9-3.8-3.4-5.1-5.8c-1.5-2.7-3.3-5.3-4.9-8c-3.9-6.6-8.3-12.8-11.7-19.6
				c-1.4-2.9-3.4-5.7-5.3-8.3c-2.4-3.3-3.7-7.2-6.2-10.5c-1.4-1.8-2.8-3.8-4.1-5.7c-4.2-5.7-9-10.9-13.2-16.6c-3-4-5.7-8.1-7.9-12.7
				c-2.6-5.3-5.8-10.4-9.8-15c-1.5-1.7-2.7-3.6-4.3-5.7c-2.8,2.1-5.4,4-8,5.9c-4.9,3.7-10.1,6.7-15.7,9.2c-1.5,0.7-3.1,1.9-4.7,1.9
				c-2.6-0.1-4.7,1.1-6.6,2.2c-5.7,3.3-12,4.8-18.1,6.9c-6.6,2.3-13.4,3.6-20,5.9c-0.3,0.1-0.6,0.1-1,0.1
				c-5.5,0.3-11.1,1.2-16.6,0.9c-6.3-0.3-12.5-1.6-18.6-3.2c-1-0.3-2.1-0.6-3.2-0.7c-3.1-0.3-9.3-2.6-12.2-4.4
				c-2.6-1.6-5.4-3-8.1-4.6c-1.2-0.7-2.1-1.9-3-3c-2.2-2.7-4.4-5.4-6.6-8.2c-1,0.5-1.6,0.9-2.7,1.5c-0.8-0.8-2.3-1.6-2.6-2.7
				c-1.3-5.6-6.1-9.9-6.2-16c-1.9-2.3-1.4-5.4-2.7-7.9c-0.1-0.3-0.3-0.6-0.2-0.9c0.4-3.8-0.8-7.4-0.9-11.1c-0.1-3.3-0.2-6.6-1.3-9.5
				c-0.9-2.6-0.7-5.1-0.9-7.8c0.5-0.5,1.2-1,2.1-1.7c-0.5-1.6,0.8-3.4-0.8-5c-0.2-0.2-0.3-0.6-0.3-0.9c0-6.8,0-13.7,0-20.5
				c1.8-3.9,0.7-8.1,1-12.1c0.1-1,0-2,0-3.3c-2.1,0-4.1,0.1-6,0c-2.4-0.2-4.9,0.8-7.2-0.6c-1.9-1.2-4.3,0.2-6.5-1.2
				c-1.3-0.8-3.6-0.2-5.1-0.2c-1.7-0.7-3-1.5-4.5-2c-4.2-1.4-8.4-3-12.4-5c-3-1.5-6.3-2.5-9.3-4.1c-4.9-2.6-10.2-4.9-14.5-8.3
				c-7.5-5.9-15.7-11.1-21.8-18.6c-2.7-3.4-5.1-7.2-7.6-10.9c-1.5-2.2-2.9-4.2-5-5.9c-4.3-3.5-7.8-7.7-11.1-12.3
				c-3.4-4.8-6.6-9.6-9.9-15.1c0.1-1.7-0.4-3.9-1.7-6.1c-3.2-5.6-5.3-11.8-7.5-17.9c-1-2.7-2.4-5.3-3.6-8c-1.6-3.4-2-7.2-3.3-10.6
				c-0.2-0.4,0-1,0-1.7c-0.8-0.5-1.6-1.2-2.9-2.1c-1.8-3.6-3.4-7.7-4-12.6c-0.6,0.8-1,1.7-1.7,2.3c-4.6,4.5-8.1,10-12,15
				c-1.7,2.1-3.7,4-5.4,6.3c-2.9,3.8-6.4,7-9.4,10.7c-1.8,2.2-3,4.8-4.6,7.1c-2.9,4.2-5.4,8.8-10,12.1c-4.3-2.8-8.7-5.7-13.4-8.8
				c0.5-1.2,0.9-2.2,1.5-3.1c2.3-4.2,4.3-8.6,7.1-12.5c2.5-3.5,4-7.5,7.1-10.6c3-3,5.9-6.1,8.5-9.5c4-5.2,9-9.6,12.5-15.3
				c1.4-2.3,3.5-4.2,5.2-6.3c2-2.3,4.2-4.6,6-7c1.5-2.1,2.1-4.2,0.7-7c-2.1-4-3.4-8.4-3.3-13.2c0.1-4.5-1-9.1-2.1-13.5
				c-1.1-4.3-2.2-8.5-2.7-12.9c-0.3-3-1.8-5.6-2.6-8.4c-1-3.6-2-7.2-2.6-11c-0.6-3.6-0.3-7.1-0.9-10.6c-0.8-4.7-2.1-9.3-1.9-14.2
				c-1.9-2.8-0.2-6.2-1.3-8.9c-1.3-3.1-0.3-6.2-0.6-9.2c-0.2-2.1-1.6-3.9-1.1-6.1c0.5-2.1-0.9-3.9-1.4-5.9c-0.5-1.9-1.1-3.9-1.8-5.8
				c-1.7-4.6-2.6-9.5-4.7-14c-0.4-0.8-0.1-1.9-0.1-2.3c2.1-1.8,3.8-3.3,5.3-4.6c4.8-1.9,9.8-2.4,13.5-6.5c1.8-2.1,4.5-3.4,7-4.8
				c3.1-1.8,6.3-3.4,9.4-5c4.4-2.3,9-3.9,13.7-5.5c6.2-2,12.4-4,18.8-6.1c0-1,0-2.5,0-3.8c0.8-0.7,1.4-1.2,1.9-1.7
				c0.1-0.4,0.3-0.7,0.3-1c0-2.2,0-4.3,0-6.5c0.1-4.8,1.4-9.4,2.2-14.1c0.3-2,1.3-3.8,1.7-5.8c0.5-2,0.4-4.2,1.1-6
				c1.3-3.3,1-6.7,0.9-10.1c-0.1-3,0.6-5.6,1.5-8.4c0.6-1.8,0.6-3.8,0.8-5.6c3.3-1.8,6.9-1.4,10.4-1.4c12,0,24,0.1,36,0
				c6.9-0.1,13.7-1.5,20.6-0.9c1.4,0.1,2.8-0.4,4.2,0.8c0.8,0.7,2.7,0.6,3.8,0.2c5.1-1.8,10.4-0.7,15.6-0.9c6-0.2,12-0.1,18,0
				c4.6,0,9-1.7,13.6-1c1.7,0.3,3.6-0.7,5.1,1c0.3,0.3,1.4,0.3,1.9,0c2.6-1.3,5.6-0.3,8-1.1c3.7-1.3,7.4-0.5,11.1-0.8
				c0.6-0.1,1.3,0,2,0c1.1-1.9,1.9-3.7,3.1-5.3c2.9-4.1,6-8,9.5-11.6c2.1-2.2,4.8-3.9,6.1-7c0.4-0.8,1.3-1.9,2.1-2
				c1.9-0.3,3-1.8,3.7-3c1.7-3.1,4.5-5.1,6.8-7.7c3.5-3.9,6.9-7.8,10.3-11.6c1.3,0.6,2.5,0.8,3.3,1.5c3.1,3,6.2,6.1,9.3,9.2
				c0.4,3.6-2.8,5.5-4.2,8.2c-0.4,0.8-1.4,1.4-2.1,2.1c-4.2,4.6-8.7,9-12.6,13.8c-1.9,2.3-3.7,4.6-6.3,6.3c-2.7,1.8-4.4,4.6-6.3,8.2
				c1.8-0.5,2.9-1.1,4-1.1c4.3-0.1,8.8-0.7,12.9,0.1c3.9,0.8,7.7,0.5,11.6,0.8c1.7,0.1,3.4,0.6,5.1,1c1.9,0.4,3.7-0.5,5.7,0.9
				c1.2,0.9,3.5-0.4,5,1.1c6.1-0.2,11.9,2.9,18.2,2.1c1.6-0.2,3.4,0.6,5.1,0.9c1.5,0.3,3.3-0.7,4.6,1c2.3-0.4,4.4,0.7,6.6,1
				c2.4,0.4,4.3,1.7,6.3,3c0.4,0.3,0.5,1.1,1,2c2.7-0.8,4.3,2.5,7.2,2.1c4.6,2.5,9.6,4.1,14.5,6c2,0.8,4.2,2.2,5.2,4
				c1.1,2,2.8,2.9,4.4,4.1c5.7,4.2,11.9,7.9,17.2,12.5c4.5,4,9.2,8,12.5,13.2c0.9,1.5,2.4,2.7,3.5,4c3.3,4,5.6,8.8,9.1,12.8
				c1.8,2,3,4.7,3.9,7.4c1.5,4.5,4.2,8.3,5.9,12.8c-0.8,2.2-0.8,2.2,0.3,8c4.8,0.7,9.6,1.5,14.4,2.3c0.4,0.1,0.9,0.7,1,0.6
				c3-2,5.3,0.3,7.9,1.2c7.9,3,15.4,7,23,10.9c1.8,1,3.8,1.6,5.1,3.3c1.1,1.5,2.9,2,4,3.7c1.3,2.1,3.4,3.6,4.7,4.9
				c0.8,1.7,1.2,2.9,1.9,3.9c3.2,4.5,6.6,8.8,8.8,13.8c3.2,7.1,5.8,14.3,7.1,22.1c0.6,3.6,1.1,7.4,2.8,10.8c0.1,0.1,0,0.3,0.1,0.5
				c0.3,3.7,0.6,7.4,1,11.1c0.3,2.5,0.8,5,0.9,7.6c0.2,2.7-0.6,5.5,0.2,8c1.4,4.4,0.5,8.8,0.9,13.1c0.3,4.2,0.8,8.4,1,12.6
				c0.1,1.4,0.4,2.8-0.7,4.2c-0.7,0.8-0.7,2.9-0.1,3.8c1.3,1.9,0.9,3.8,0.8,5.7c-0.2,3.9,1.5,7.6,1.1,11.6c-0.3,4-0.1,8-0.1,12
				c0,4,0,8,0,11.9c-0.4,0.6-0.8,1.1-1.1,1.5c0.3,0.5,0.3,0.8,0.5,1c4.6,4.7,10.2,8.1,15.5,12.1c5.5,4.2,11.5,7.5,16.3,12.6
				c1.1,1.1,2.6,1.8,3.8,2.9c1.1,1.1,1.7,2.7,2.9,3.7c1.6,1.4,3.6,2.6,5.4,3.7c3.8,2.4,7.7,4.7,11.6,7c0.4,0.2,0.9,0.3,1.2,0.6
				c4.6,5.3,11.2,7.9,16.5,12.2c0.6,0.5,1.6,0.9,2.3,1.5c5.4,5.3,11.7,9.3,17.9,13.5c9.7,6.5,19.7,12.7,29.6,19.1
				c2.7,3.5,7.3,4.8,10,8.6c1.5,2.1,4.6,3.1,7.1,4.3c8.3,4.1,14.8,8.9,20.1,13.1c5.5,4.4,11,9,17.7,11.6c5,2,10.1,3.9,14.8,6.4
				c3.4,1.8,6.6,4.3,9.9,6.4c3.6,2.3,6.1,5.9,9.5,8.4c8.1,5.9,14.8,13.6,23.9,18.2c0.8,0.4,1.4,1.4,2.2,2c0.6,0.5,1.3,0.8,2.2,1.4
				c0.3,1.5,0,2.8-1.1,4.6c-3.7,6.5-8.8,11.8-13.4,17.5c-4.3,5.3-9.5,9.6-13.8,14.7c-3.1,3.6-5.6,7.6-8.4,11.5
				c-0.4,0.5-0.4,1.2-0.8,1.6c-3.5,3.9-7.1,7.7-10.6,11.6c-1.7,1.9-3.3,3.9-5,5.9c-1.6,2-4.2,3.2-5,5.9c-0.1,0.4-0.7,0.7-1,1.1
				c-3.8,4.1-7.7,8.1-11.2,12.4c-1.6,2-3.7,3.4-5.2,5.2c-4.1,4.9-9,9.2-12,15c6.3,4,13,7.5,18.2,13.3c4.3,4.8,10.3,7,16.1,9.2
				c3.9,1.5,7.8,3.1,11.4,6.3c0-1.1-0.1-1.9,0-2.7c0.3-2-0.6-4.1,0.8-6.2c1.1-1.6-0.7-4.2,1.1-6c0.4-0.4,0.1-1.6,0.1-2.4
				c0-2.8,0-5.7,0-8.5c0-4.7-0.4-9.4,1.5-14.4c2.6,0,5.5-0.2,8.4,0c2.7,0.2,5.6-1.1,8,1.2c0.4,3.4,0.9,6.8,1.1,10.1
				c0.2,3.5-0.3,7,0.1,10.5c0.4,3.4-1.4,6.6-1,10.3c0.7-0.6,1.1-0.8,1.3-1.1c3.1-5.7,6.3-11.4,9.1-17.2c1.5-3.2,2.3-6.7,3.5-10
				c0.9-2.3,1.9-4.5,2.9-6.9c5.7,0.3,10.4,3.2,15.7,4.3c1.5,1.9-0.7,3.7-0.8,5.7c-0.1,1.9-0.2,4-1.1,5.5c-1.3,2.4-1.1,5.2-2.3,7.6
				c-1.1,2.2-1.8,4.6-2.5,6.9c-0.2,0.6,0,1.4,0,2.1c0,0-0.1-0.1-0.1-0.1c-0.3,0.2-0.5,0.5-0.8,0.7c0.1,0.1,0.2,0.2,0.3,0.3
				c0.2-0.3,0.5-0.5,0.6-0.9c1.6-1,3.9-1.3,4.3-3.9c2.9-2.3,4.9-5.6,8.3-7.5c2.6-1.5,4.7-3.9,7.1-5.9c0.6-0.5,1.4-0.7,2.4-1.1
				c3.8,4.2,6.9,8.7,10.1,13.4c-4.5,4.9-8.8,9.9-13.4,14.4c-3.4,3.4-7.5,6.1-11.1,9.3c-1.8,1.6-2.9,3.9-4.7,5.5
				c-4.1,3.7-8.1,7.4-12.6,10.5c-3.5,2.4-6.7,5.3-10.3,7.5c-2.7,1.6-5.5,2.9-8.5,2.7c-0.7-1.2-1.3-2.1-1.8-3c-1.8,0-3.5,0-4.5,0
				c-2.5-1.5-4.6-2.6-6.5-3.9c-3.5-2.4-7.1-4.7-10.4-7.5c-3.2-2.7-6.9-4.3-10.7-5.5c-5.8-1.8-10.7-5-15.4-8.6c-2.4-1.9-4.7-4-7-6
				c-2.2-1.9-4.2-4.1-6.7-5.6c-4.3-2.7-8.5-5.8-13.6-7.2c-0.7,1-1.4,2.1-2.2,3c-2.9,3.3-5.9,6.5-8.8,9.9c-1.6,1.8-3,3.8-4.6,5.6
				c-2.5,2.7-5.6,4.8-8.6,6.8c-0.6,0.4-1,1.2-1.6,1.8c-1.8,2.1-3.4,4.6-5.6,6c-3,1.9-5.4,4.3-7.5,7c-1.6,2.1-3.2,3.8-5.4,5.1
				c-0.6,0.3-1,0.9-1.6,1.6c1.1,0.7,2.1,1.4,3.1,1.9c5.2,2.7,9.8,6.1,14.6,9.5c3.3,2.4,6.1,5.1,8.5,8.4c1,1.5,2.6,2.7,4.3,3.8
				c2.4,1.4,4.2,3.8,6.1,5.9c5.9,6.4,13.2,11.1,20.3,16c2.2,1.5,4.5,2.5,7,3.6c3.7,1.6,7,4.1,10.4,6.2c1.2,0.7,2.3,1.6,3.4,2.3
				c1.6,2.6-1.1,3.5-1.8,5.2c-0.7,1.9-2.4,3.3-3.6,5c-1.1,1.5-2.2,3.1-3.4,4.8c-0.7-0.4-1.2-0.7-1.8-1.1c-3.4,2.3-6.7,5.1-10.5,6.9
				c-4.1,2-8.4,3.8-12.8,5.3c-5.5,1.9-10.6,4.9-16.4,6.1c-1.7,1.9-4.2,0.6-6.3,1.6c-3.4,1.5-6.9,2.9-9.9,4.9c-1.7,1.1-3.6,1-5.1,2.3
				c-1.4,1.2-3.1,2.1-4.7,3c-0.4,0.2-1,0-1.9,0c-2.5-4.5-6.5-8.5-7.5-14c2.8-3.8,6.8-5.5,10.3-8C764.1,900,765.4,899,766.7,897.6
				c0-0.1,0,0.2,0,0.5c0.7-0.1,1.3-0.3,2-0.4c0-0.2-0.1-0.4-0.1-0.6C768,897.1,767.3,897.2,766.7,897.6z M261.3,258.2
				c0,0.3,0,0.6,0,0.9c1-0.1,2-0.3,2.9-0.4c0-0.2,0-0.4-0.1-0.7c-1,0-1.9,0.1-2.9,1.7c0-0.3,0-0.6,0-0.9c-0.7,0.1-1.3,0.3-2,0.4
				c0,0.2,0.1,0.4,0.1,0.6C260.1,259.9,260.7,259.8,261.3,258.2z M437.2,565c0.2,0.1,0.4,0.1,0.7,0.2c2-0.7,4.1-1.4,6.1-2.3
				c4.6-1.9,9.3-3.3,13.3-6.5c3.9-3.2,8.1-6,12.5-8.4c4.3-2.3,7.7-5.5,10.6-9.1c1.5-1.9,3.5-3,5.1-4.7c1.6-1.7,3.8-2.8,5.7-4.3
				c3-2.3,6.3-4.1,8.3-7.7c1.8-3.3,4.6-6.1,6.9-9.1c3.3-4.3,8.2-6.8,12.4-10c3.7-2.8,6.6-6.4,10-9.4c0.7-3.1,3.9-4.2,5.3-6.8
				c1.4-2.6,3.9-4.7,5.6-7.2c2-3,4.7-5.4,7.1-8.1c1-1.1,1.8-2.6,2.1-4.1c0.5-2,1.4-3.5,2.8-4.8c5.5-4.8,8.2-11.5,11.6-17.7
				c1.6-2.8,2.7-5.9,3.9-8.9c0.7-1.7,1.4-3.5,1.6-5.3c0.3-2.4-0.3-4.9,1.1-7.1c-0.1-6,2.3-11.6,2.1-17.7c0-2.4,1.1-5,0.9-7.6
				c2.4-1.9-0.4-5.3,2-7.2c0-2.8,0-5.7,0-8.5c0-1.5-0.5-3.3,0.2-4.4c1.5-2.6,1.1-5.3,0.6-7.7c-0.9-4.2-1.4-8.4-1.8-12.7
				c0-0.5,0.2-1.2,0-1.5c-1.8-2-0.6-4.4-1-6.6c-0.4-2.2-1.2-4.3-1-6.6c0.2-3.2,0.6-6.5-0.1-9.5c-1.1-4.8-2.1-9.6-1.9-13.2
				c-2.3-6.2-4.2-11.1-5.9-16c-1.2-3.4-1.7-7-3.1-10.2c-1.8-4.3-4.2-8.3-6.3-12.4c-2-3.8-4.4-7.3-7.4-10.4c-1.5-1.5-2.9-3-3.9-4.9
				c-2.3-4.2-5.9-7.5-9.6-10.5c-3.4-2.7-7-5.4-10.7-7.9c-3.8-2.5-7.7-5-11.2-8.1c-2.2-1.9-5-3.2-7.6-4.4c-2.8-1.3-5.9-1.9-8.7-3.1
				c-4.4-1.9-8.7-4-13-5.9c-1.4-0.6-3-0.9-4.6-1c-2.7-0.3-5.5,0.5-8.1-1c-4.6,0.6-8.6-2.5-13.2-2c-3.3-1.9-7.4-1.1-10.7-3
				c-5.1,0.4-10-0.7-15.1-0.9c-7.9-0.4-15.6,1.6-23.6,1c-3.3-0.2-6.6,0-9.5,0c-1.7,3.1-4.4,4.9-6.4,7.2c-2.1,2.4-4.2,4.9-6.3,7.4
				c0,0.5,0.2,1.1,0,1.5c-1.8,4.3-3.8,8.4-6.1,12.5c-1.4,2.5-3.2,4.7-4.9,7c-2.1,2.7-4.4,5.2-6.7,7.7c-2.4,2.6-4.9,5-7.4,7.4
				c-0.6,0.6-1.5,1.1-1.7,1.8c-1.8,6-6.7,9.7-10.4,14.1c-6.1,7.3-13,14-19.6,20.9c-1.8,1.9-3.7,3.6-5,5.9c-1.4,2.5-2.9,4.9-5.9,6.1
				c-0.9,0.4-1.4,1.7-2.1,2.6c-2.7,3.5-5.4,7.1-8.2,10.6c-4.7,6-10.2,11.2-15.5,16.6c-0.5,0.5-0.8,1.3-1.3,1.9
				c-3.6,4.9-7.2,9.7-10.9,14.7c-0.1,0.5-0.1,1.4-0.5,2c-1.4,2.3-2.7,4.7-4.6,6.6c-4.2,4.1-7.8,8.9-12.9,12.1c-1.5,1-3,2.3-3.8,3.9
				c-4.3,8.3-11.3,14.3-17.8,20.5c-1.8,1.7-3.8,3.5-5,5.4c-5.9,9.2-12.3,18.1-19.5,26.4c-1.2,1.4-2.1,3.2-1.7,5.3
				c0.2,1.1,0.8,2,0.9,3.1c0.2,1.3-0.3,2.8,0.1,4c1.3,3.8,1.4,7.7,2.2,11.7c2.4,1.7,3.2,4.4,4.3,7.1c1.9,4.9,4.4,9.5,6.2,14.4
				c1.5,4,3,8.1,4.9,12c0.9,1.9,1.8,3.9,2.5,6c1,3.4,2.6,6.6,2.9,10.3c3.4,4.1,5.9,9.2,10.3,12.1c4.2,2.8,6.9,6.6,9.5,10.5
				c2,3,3.6,6.3,5.9,9c3.3,3.7,6.8,7.3,11.4,9.8c5.3,2.9,9.1,7.5,12,12.5c3.6,1.9,6.8,4.2,10.4,5.2c3.5,1,6.3,3.4,9.8,4.2
				c3.5,0.8,6.9,2.2,9.7,4.1c3.1,2.1,6.6,2.4,9.8,2.7c5.8,0.6,11.6,0.3,17.5,0.1c5.9-0.2,11.6,1.8,17.6,1.1c1.1-0.1,2.5,0.2,3.4-0.2
				c3.4-1.8,7.3-1.4,10.9-2.7c2-0.7,4.4-0.9,6.6-1c2.3-0.1,4.4-0.6,6.6-1c4.6-0.9,9.3-1.5,13.7-3.1c4.5-1.6,9.3-2.4,13.4-5
				c1.1-0.7,2-1.6,3.2-2c4.7-1.5,9.5-2.8,14.7-4.3C434.8,567.7,436,566.4,437.2,565z M664.8,521.4c0,2.5,0.9,5.6-0.2,7.7
				c-1.3,2.5,0.5,5.3-1.7,7.3c-0.4,4.9-2.4,9.6-2.2,14.6c0.2,4.2,0,8.3,0.1,12.5c0.1,3.1-0.7,6.1-1.3,9c-0.7,3.9-1.6,7.7-1.8,11.7
				c-0.2,5.9,0.2,11.7-0.7,17.6c-0.8,5.5-1.2,11.1-2.1,16.7c-0.8,4.9-2.4,9.4-4.3,13.7c-1.7,3.9-3.1,7.6-2.9,11.8
				c0.2,3.6-1.2,6.7-3.1,9.7c-2,3.1-3.9,6.4-3.9,10.4c0,1.2-0.7,2.4-0.9,3.6c-0.2,1.2-0.4,2.4-0.7,3.7c-1.1,4.1-3.5,7.5-5.1,11.4
				c1,1.3,2,2.8,3.2,4c3,3.1,6.2,6.1,9.1,9.2c1.6,1.7,3.4,3.5,4.4,5.7c3.8,8.1,10.3,14.3,15.1,21.7c1.2,1.8,3,3.1,4.5,4.6
				c1.5,1.5,3.1,3.1,4.6,4.6c1.6,1.7,3.6,3.1,4.7,5.1c1.1,1.9,3.1,3,4.1,4.8c1,1.9,2.9,2.7,4.2,4.1c5.3,5.6,10.8,11.1,15.8,17
				c1.8,2.1,3.8,4.1,5.2,6.8c1.4,2.7,3.5,5.2,6,6.9c2.1,1.5,4,3.3,5.8,5.1c5.8,6,11.6,12.2,17.3,18.3c1.9,2,4.1,3.7,5.4,6.3
				c0.4,0.9,1.6,1.4,2.7,2.4c2.1-2.6,3.7-5.5,6.1-7.3c5.7-4.3,10.2-9.8,15.4-14.6c0.5-0.4,0.9-1.1,1.4-1.4c3.9-2.1,7.4-4.8,10-8.2
				c2.4-3.1,5.1-5.9,7.8-8.7c0.1-0.1,0.3-0.2,0.3-0.4c2.2-3.8,5.2-6.9,8.1-10.2c4.3-4.9,8.3-10.2,12.3-15.4c0.6-0.7,0.9-1.7,1.5-2.4
				c4.4-4.7,9.2-8.9,13.1-14c2.5-3.4,5.9-6,8.5-9.5c2.9-3.7,6.6-6.8,9.5-10.6c3.1-4,6.8-7.6,10.2-11.3c0.4-0.5,0.8-1,1.2-1.5
				c3.4-4.6,6.6-9.3,10.2-13.8c3.2-3.9,6.8-7.5,10.2-11.3c1.3-1.4,2.1-3.6,3.6-4.4c3.2-1.5,4.3-4.5,6.3-6.9c-3-2.3-5.9-4.3-8.5-6.5
				c-3.2-2.7-6.1-5.9-9.6-8.4c-2.4-1.7-4.4-3.8-6.6-5.7c-1.4-1.2-3-2.4-4.7-3.1c-5.2-2.1-10.2-4.2-15.2-6.7
				c-6.1-3.1-11.4-7.2-16.9-11.1c-3.4-2.4-6.8-4.7-10-7.3c-4.2-3.4-9.3-5.1-13.8-7.8c-5.2-3.1-10.2-6.4-14.6-10.4
				c-4.5-4.2-9.6-7.3-14.6-10.7c-4.6-3.3-9.8-5.6-14.1-9.6c-2.3-2.1-5-3.8-7.7-5.3c-5.9-3.4-11.7-6.8-16.8-11.3
				c-2-1.8-4.3-3.2-6.5-4.7c-3.8-2.8-7.7-5.6-11.5-8.4c-2.6-1.9-5.1-3.8-7.6-5.6c-3.5-2.5-7.6-4.3-10.1-8.1
				c-0.3-0.5-1.1-0.6-1.6-0.9c-2-1.6-4.2-3-6-4.8c-4.7-4.9-10.6-8.2-15.9-12.2c-3.9-3-7.9-6-11.6-9.4c-2.2-2-4.4-3.6-7.4-4
				c-0.7-1.4-1.6-2.6-1.8-3.9c-0.5-4.2-0.7-8.4-1.1-12.6c-0.6-5.6,0.7-11.1,1.1-16.6c0.5-7.4-1.2-14.7-1.1-22.1
				c0-5.4,0.5-10.7-0.7-16.1c-1-4.3-0.3-9-1-13.6c-1-5.9,0.4-12-1.1-18.1c-0.8-3.2-0.5-6.7-0.8-10.4c-0.7-0.6-1.8-1-2.3-1.8
				c-1.2-2-2.8-4.1-2.9-6.2c-0.1-2.8-1-5.4-1.2-8.1c-0.1-1.2-0.7-2.4-0.9-3.6c-0.8-4-1.6-7.9-3.5-11.6c-1.9-3.7-3.9-7.4-5.7-10.7
				c-3.5-1.5-6.3-3.1-8.7-5.6c-2.4-2.6-4.7-5.2-8.1-6.8c-4.8-2.3-9.6-4.3-14.9-5c-1.9-0.3-3.8-1.2-5.7-1.8c-0.3,0.9-0.8,1.9-1,2.9
				c-0.2,1.2-0.4,2.6,0,3.7c1.7,4.8,2.6,9.8,2.7,14.9c0.1,5,0.6,10.1,0.9,15.1c0,0.3,0.1,0.6,0.2,0.9c0.9,3.2,1.7,6.4,1.7,9.8
				c0,3.7,0.7,7.5-0.9,11.1c0.7,6.7-1,13.4-1.1,20.1c0,3-0.3,6.2-1.2,9c-1.2,3.7-1.9,7.4-1.8,11.3c0,1.3,0.3,2.9-0.3,3.8
				c-0.9,1.3-0.4,2.5-0.6,3.8c-0.3,1.2-0.8,2.4-1,3.6c-0.4,2.7-0.6,5.4-1.1,8.1c-0.2,1-0.9,2.7-1.5,2.7c-1.5,0.2-1.2,1-1.5,1.9
				c-2.1,5.7-3.8,11.6-7.1,17.4c1.4,0.3,2.4,0.8,3.5,0.8c5.2,0.1,10.4-0.3,15.6,1c2.4,0.6,4.8,1.3,7.3,1.6c4.2,0.6,8.1,2.7,12.5,2.4
				c0.6-0.1,1.3-0.1,1.9,0.1c4.6,1.5,9.5,2,14,3.1c0.5,2.3,1.1,4.4,1.4,6.6c0.3,2.9,0,5.7,0.9,8.6c0.7,2.5,0,5.3,0.2,8
				c0.2,2.7,1.2,5.3,1,8.1c-0.2,2.8,0.1,5.7-0.1,8.5c-0.1,1.6-0.7,3.2-1,4.8c4.6,0.4,8.8,0.8,13,1.2c0.2,0,0.4-0.1,0.5,0
				c1.2,1.7,3.1,0.7,4.6,1c1.5,0.3,3,0.7,4.6,1C659.4,518.4,662.2,519.3,664.8,521.4z M467.9,634c2.3-0.1,3.9,1.1,5.4,2.7
				c4,4.3,8,8.6,12,13c1.6,1.8,3.3,3.6,4.6,5.6c4.3,6.7,8.9,13.2,14.3,19c5.9,6.5,11.2,13.4,16.9,20c4.2,4.8,7.1,10.4,10.5,15.7
				c2.3,3.7,3.8,7.8,7,11.2c3.9,4.2,7.1,9.1,10.6,13.6c2,2.5,4.4,5,5.4,8.2c0.2,0.7,0.6,1.5,1.1,2.1c4.8,5.9,8.4,12.4,12,19
				c1,1.8,1.8,3.6,3.1,5.3c2.4,3.2,4.4,6.8,6.3,10.4c2.2,3.9,3.7,8.2,7.8,10.7c2.7,1.7,3.6,4.8,5.3,7.3c2,3.1,4.3,6.2,5.6,9.7
				c1.9,5.4,4.1,10.7,7.4,15.4c2.1,3.1,3.7,6.5,5.7,9.7c3,4.8,6.4,9.5,8.3,15c0.8,2.3,2,4.7,3.5,6.5c4.8,5.7,8,12.5,12.5,18.3
				c3.5,4.5,6,9.5,8.7,14.4c3.1,5.5,7.7,9.5,11.7,15.2c0.6-1,0.9-1.6,1.3-2.1c2.7-3.3,6.6-5.5,8.5-9.5c3.8-1.4,5.9-4.9,8.9-7.2
				c5.3-4.1,9.5-9.5,14.9-13.7c1.7-1.4,3.2-3.1,4.4-5.1c1.1-1.8,3.5-2.8,5.1-4.3c8.5-8.4,17-16.9,25.4-25.4c0.9-0.9,1.5-2,2.1-3.1
				c1.6-2.8,3.1-5.6,5.6-7.7c0.8-0.6,1.1-1.8,1.6-2.7c-5.6-6.1-11.4-11.5-16.6-17.5c-7.1-8.1-15.4-15.2-21.9-23.9
				c-4.5-6-10.2-11.2-15.4-16.6c-3.3-3.5-6.8-6.8-10.2-10.3c-0.7-0.7-1.6-1.3-2.1-2.1c-2.1-3.6-5.1-6.6-7.9-9.7
				c-1.4-1.7-4.1-2.5-5-4.4c-1.2-2.4-3.3-3.6-4.8-5.5c-1.7-2.2-3.5-4.2-5.3-6.3c-0.7-0.8-1.1-1.9-1.8-2.7c-2.8-3.1-5.1-6.5-7.3-10
				c-1.4-2.2-2.6-4.7-4.3-6.7c-2.8-3.4-6.1-6.4-8.9-9.8c-4.6-5.6-9.8-10.6-14.7-15.9c-0.1-0.1-0.2-0.2-0.4-0.4
				c-1.8-1.7-2.9-3.8-2.7-6.4c0.1-1.8,0.5-3.9-0.1-5.4c-0.8-2.1-1.1-4.1-0.8-6.1c0.3-2.2-1-4.1-1-6.1c0-2.6-1-4.9-1.7-7.3
				c-1.5-5.4-3.3-10.9-3.4-16.6c0-0.3-0.1-0.6-0.2-1c-0.6-0.5-1.1-1-1.8-1.5c-0.9,0.5-1.6,1-2.3,1.1c-7.2,1.2-14.2,3.7-21.6,3.2
				c-2.4-0.2-4.8,0.2-7.1,1c-2.6,1-5.3,1.9-8.2,2c-2.2,0.1-4.6,0.2-6.4,1.3c-3,1.8-6.6,0.8-9.4,2.6c-5.2-0.1-10.3,1.6-15.6,1
				c-1.9-0.2-3.7-0.1-5.6,0.9c-2.6,1.3-5.5,1.4-8.5,0.8c-1.3-2-2-4.2-2.2-6.6c-0.2-1.8-0.8-3.7-1.6-5.3c-1.2-2.3,0.7-3.9,0.7-6
				c0-2.7-0.6-5.5,0.9-8.1c0.3-0.6,0.1-1.6-0.1-2.4c-0.4-1.5-0.9-2.9-1.4-4.4c-1.7,0-3.6-0.5-4.9,0.1c-4.4,2-9.2,2.7-13.4,4.9
				c-2.6,1.3-5.4,1.5-7.9,0.5c-2.1-0.9-3.6-0.2-5.3,0.5c-0.9-0.5-1.9-1.1-2.7-1.5c-0.4-3.2-0.7-6.4-1.1-9.6
				c-0.1-0.4-0.7-0.7-0.8-1.2c-1.3-5.4-3.1-10.8-4.3-16.2c-0.8-3.5-0.5-7.2-2.6-10.7c-3.7,1.2-7.5,2.5-11.3,3.7
				c0.6,2.4-1.4,3.2-2.2,4.2c-2.7,0.8-5,1.8-7.5,2.3c-3.5,0.8-7,1.5-10.1,3.4c-3,1.8-6.3,2.6-9.5,3.6c-5.1,1.5-10.3,2.1-15.3,4
				c-4.1,1.6-8.2,3.2-12.7,3c-1.2,2-3.6,0.4-5.3,1.9c-1.2,1.1-3.6-0.1-5.6,0.8c-1.7,0.7-3.9,0.3-5.8,0.4c-0.5,0-1.2-0.1-1.4,0.2
				c-1.5,1.7-3.7,0-5,1.1c-1.7,1.4-3.8-0.1-5.1,1c-1.6,1.4-3.6,0-5.3,1.1c0,3.8,0.8,8-0.2,11.7c-1.2,4.1-0.5,8.1-0.7,12.1
				c-0.3,4.1-0.2,8.3,0,12.5c0.3,6.4-1.4,13.1,2,19.2c0,4.1,1.2,8,1.1,12.1c0,5,1.6,9.6,5.5,13.2c1.4,1.2,3.2,2.4,3.8,3.9
				c0.9,2.3,2.8,2.8,4.4,3.9c2.4,1.7,5.1,2.8,6.6,5.8c1.3,2.4,3.7,4.4,7.1,4.3c2.2-0.1,4.4,0.3,6.6,0.8c3.6,0.8,7.3,1.4,11,1.3
				c4-0.1,8.1-0.8,12.1,0.8c0.9,0.4,2.3,0.1,3.3-0.2c2.2-0.7,4.3-1.7,6.5-2.4c4.4-1.5,8.8-3,13.2-4.2c3.6-1,7.1-2.1,10.5-3.5
				c4.2-1.8,8-4.5,12.6-5.9c3.6-1.1,7.5-2.4,10.3-5.2c2-2,4.6-2.8,6.7-4.4c0.8-0.6,1.7-1.1,2.6-1.6c-1.9-4-4.9-6.8-7.1-10
				c-4.2-6.1-8.5-12-13.6-17.3c-1.9-2-3.7-4.1-5.3-6.3c-0.8-1.1-1-2.6-1.5-3.8C460.7,640.4,464.3,637.2,467.9,634z M643.9,535.3
				c-9.4-1.1-18.2-2.7-27.1-5.6c-0.6-3.6-1.5-7.3-1.8-11c-0.3-4.5-0.1-9-0.1-13.5c0-1-0.2-2.2,0.3-2.9c1.3-1.9,1.1-4.1,0.6-5.7
				c-1.1-3.2-0.6-6.4-1-9.6c-0.8-0.4-1.5-0.9-2.2-1.1c-2.6-0.6-5.2-1.2-7.8-1.7c-4.7-0.8-9.1-2.8-14-2.4c-3.5,0.2-7.1,0.5-10.6-0.9
				c-0.6-0.3-1.5,0.1-2.2,0.2c0,1-0.2,1.8,0,2.3c1.9,4.3,2.6,9,4,13.3c1.5,4.4,2.3,9,4.3,13.2c1.2,2.6,2.3,5.4,2.7,8.4
				c0.5,3.4,1.3,6.8,2.2,10.1c1,3.3,1.6,7,3.7,10c-0.3,3.9,2,7.2,2.3,11.1c0.3,3.4,1.7,6.7,1.7,10.2c0,0.8-0.4,2,0.1,2.4
				c1.4,1.6,0.2,3.8,1.1,5c1.4,1.9,0.5,3.8,0.9,5.7c0.2,0.8,0.5,1.5,0.7,2.2c0.5,1.8,0.7,3.7,1.3,5.4c1,2.8,1.3,5.9,3.9,7.8
				c0.3,1.8-0.2,3.4,0.9,5.2c1,1.6,0.9,4,1.1,6c0.4,3.2,0.2,6.5,1.1,9.5c1.6,5,1,10.4,2.9,15.3c-0.5,3.8,1.3,7.1,2.6,10.4
				c1.7,4.6,3,9.3,3.3,14.1c0.3,4,1.2,7.9,1.4,12c1.2-2.5,2.4-4.8,3.3-7.2c1.2-3.1,3.3-5.6,4.5-8.6c0.9-2.1,1.2-4.1,0.8-6.1
				c-0.4-2.4,1.3-4.3,1-6.6c-0.2-1.9,0.9-3.4,0.9-5.1c0-1.8,0.5-3.5,1.1-5.1c0.9-2.1,2.2-4.1,2.9-6.3c1.2-3.5,2.3-7.1,3-10.8
				c0.7-3.8,0.9-7.7,1-11.6c0.2-4.2,0-8.3,0-12.5c0-0.8-0.2-1.7,0-2.5c1.6-4.9,2.1-10,2-15.2c-0.1-3.7,0-7.3,0-11
				c0-1.6,0.1-3.1,0.9-4.6c0.8-1.5-0.2-3.4,0.6-5.2C643.4,540.5,643.4,537.9,643.9,535.3z M257.1,364.6c0.7-4.2,2.8-8,6.2-11.1
				c6.8-6.1,12.2-13.2,17.1-20.9c1.5-2.4,3.3-5,5.6-6.5c5.6-3.7,8.7-9.6,13.3-14.1c0.1-0.1-0.1-0.4,0-0.5
				c4.2-4.5,7.1-10.1,11.9-14.1c2.7-2.3,5.7-4.4,8-7.1c1.7-2.1,3.5-4.2,5.4-6.2c2.9-3.1,6-5.9,8.6-9.4c3.1-4.1,7.1-7.4,10-11.9
				c3.3-5.1,7.4-9.8,11.8-14.2c3.1-3.1,5.7-6.9,7-11c1.9-6.1,5.3-11,9.6-15.5c0.4-0.4,0.6-1,1-1.9c-5.2,0-9.9,0-15.3,0
				c-1.4,2-3.1,4.5-4.7,7c-3.1,4.7-6.2,9.4-9.3,14.1c-4.6,6.9-8.6,14.1-14.7,19.9c-2.3,2.2-4.9,4.2-6.6,6.8
				c-3.6,5.3-8,9.8-12.4,14.3c-2.7,2.8-5.9,5.1-7.8,8.7c-5.5,2.8-7.6,8.3-10.4,12.2c-2.1,1.4-4.1,2-4.9,3.3
				c-3.5,5.9-8,10.9-12.8,15.7c-4.5,4.5-8.9,8.9-13.2,13.2c-0.1,0.9,0.1,1.7-0.2,2.1c-2.8,3.2-5.2,6.8-8.5,9.4
				c-3.7,2.8-6.7,6.2-10.1,9.3c-2.1,2-4.2,3.9-4.4,7.2c0,1.1-1.3,2.1-2,3.1c-3.4,4.9-7.9,8.8-12,13c-1.2,1.3-2.4,2.5-3.3,4.1
				c-1.6,3-3.9,5.7-5.5,8.7c-1.2,2.2-2.2,4.8-4.3,6.1c-3.3,2.1-4.8,5.8-7.9,7.9c1.5,5.7,2.9,11.1,4.5,16.8c2.1-2.5,4.2-4.4,5.5-6.8
				c4.7-7.9,10.2-15.2,17.2-21.3c2.4-2.1,4.7-4.6,6.3-7.4c1.6-2.8,3.6-5.2,5.6-7.7C245.9,374.5,251.2,369.4,257.1,364.6z M525.2,620
				c4.2,0,8-0.1,11.8,0c3.9,0.1,7.5-1.1,11.1-2.1c3.8-1,7.6-1.6,11.3-2.7c4.6-1.3,9.4-2.4,14.2-3.2c2.6-0.4,5.3,0.1,8-0.1
				c2.7-0.2,5.3-0.8,7.4-1.1c2.5-0.9,2.4-2.9,1.8-4c-0.9-1.7-0.8-3.4-0.9-5.1c-0.1-0.7-0.6-1.4-0.8-2.1c-1.2-3.8-2.3-7.7-3.5-11.6
				c-2.8-0.3-5.5-0.5-8.2-0.8c-3-0.4-6-1-9-1.4c-3.4-0.4-6.7-1.4-10.2-2c-3.6-0.6-6.9-2.2-10.7-1.9c-1.9-2.4-5.3,0.4-7.2-2
				c-2.6,0.3-5.1-0.5-7.6-0.9c-5.6-0.9-10.8-2.7-16-4.8c-5.3-2.2-10.4-4.7-15.4-7.4c-5.1-2.7-10.9-3.6-15.4-7
				c-2.2,1.6-4.1,3.1-5.5,4.1c-1.5,4.8-0.2,9,0.7,13c0.7,3.3,1.2,6.7,2.7,9.8c1.2,2.5,1.8,5.3,2.6,7.9c9.2-4.2,19.2-6.2,29.7-7.6
				c1.3,0.6,3,1.5,4.5,2.2c0.5,1,1.3,1.9,1.2,2.6c-0.5,2.2,1.1,4,1.1,6.1c-0.1,2.3,0.9,4.5,0.8,6.6
				C523.8,609.7,524.9,614.6,525.2,620z M559.5,485.4c-2.1,2.4-4,4-5.3,5.9c-4.2,6.2-8.9,11.8-14.1,17.1c-2,2-3.3,4.6-5.2,6.8
				c-3.1,3.6-6.2,7.2-10.2,9.8c-2.6,1.7-5.4,3.4-7.7,5.5c-2,1.8-3.6,4.1-5,6.4c-1.6,2.5-3.7,4.4-6.2,5.8c-1.4,0.8-2.6,1.7-4.4,2.8
				c2.5,1.3,4.5,2.7,6.7,3.4c2.4,0.7,4.5,2,6.6,3.3c2.4,1.4,4.8,3.1,7.4,3.7c3.1,0.7,5.9,1.8,8.7,3.1c2.3,1,4.5,1.9,7.1,2.1
				c2.6,0.2,5.2,1.6,7.9,0.5c0.4-3.7-0.7-7.6,1.1-11.1c-0.7-4.8,1.6-9.3,1-13.6c0.6-1.2,1-2,1.5-3c7.7,0,15.5,0,23.1,0
				c0.8-1.5-0.4-2.5-0.6-3.7c-1.2-6.4-2.9-12.7-5-18.9c-1.6-4.8-3.1-9.7-4.3-14.7C562,493,560.2,489.6,559.5,485.4z M191.7,340.9
				c2.9-2.6,5.8-5.1,9-7.9c-0.5-1-1-2.1-1.5-3c-2.7,0-5,0-7.4,0c0.2,0.2,0.3,0.3,0.5,0.5c-0.8,0.3-1.6,0.7-2.3,1
				C192.5,334.7,190.7,338,191.7,340.9z M223.5,347.4c3.8-3.8,7.6-7.6,11.4-11.4c-4.6,0.4-8,4.1-12.7,5.4
				C222.6,343.6,223.1,345.7,223.5,347.4z M235.5,312.9c2.6,0.2,4.8,0.1,6.4-1.1c-2.8-2.8-5.6-5.6-8.5-8.5
				C232.9,306.6,235.2,309.4,235.5,312.9z M283.5,222.4c-3.2-0.5-6.1-0.9-9.3-1.3c0.5,3.5,1.7,6.3,3.2,9.9c1-2.1,1.5-3.6,2.3-4.8
				C280.7,224.9,282,223.8,283.5,222.4z M201.4,361.7c3,1.5,5.8,2.9,8.5,4.3c0.5-0.5,0.9-0.9,1.6-1.6c-4.1-0.8-3.6-5.2-5.8-7.5
				C203.2,357.6,202.7,359.9,201.4,361.7z M284.1,270.2c1.1,2.1,2,3.9,3.1,6.1c2.3-1.7,4.1-3.9,6-6.3c-1.7,1.8-2.5-1.5-4.3-0.3
				C287.8,270.4,285.9,270.1,284.1,270.2z M259.4,238c-0.8-2.9-1.7-5.9-2.6-8.9c0.3,3.7-2.8,7.1-1,10.8
				C257.5,240.3,258.7,239.8,259.4,238z M242,278.4c-0.7,2.2-1.2,3.6-1.7,5.2c1.6,1.1,3.2,2.2,4.9,3.4c-0.4-2.4-0.8-4.6-1.3-6.9
				C243.6,279.8,243,279.3,242,278.4z M190,312c1.3-2,0.2-3.2-1.6-4.2c-0.6,0.4-1,1-1.5,1.2c-0.6,0.2-1.3,0-1.9,0.1
				c-0.2,0-0.3,0.5-0.7,1c0.5,0.6,1.1,1.3,1.6,1.9C187.3,312,188.6,312,190,312z M580,565.1c-3-0.5-4.7,1.6-6.9,2.7
				c2.3,0,4.6,0.5,6.9,0C580,566.8,580,566.2,580,565.1z M211.9,293.8c-1.3,0.6-2.4,1.2-3.7,1.8c0.3,0.6,0.5,1.1,0.7,1.7
				c1.3-0.6,2.4-1.2,3.7-1.8C212.3,294.8,212.1,294.4,211.9,293.8z M233.2,286.4c-0.1-0.2-0.3-0.4-0.4-0.5c-1.1,0.5-2.2,1.1-3.4,1.6
				c0.5,0.5,0.9,0.9,1.2,1.3C231.5,288,232.4,287.2,233.2,286.4z M563.1,565.8c1.9,0,2.8,0,3.8,0c-0.5-1.1-0.9-2-1.4-2.9
				C564.8,563.7,564.3,564.4,563.1,565.8z M250.5,266.8c0.3,0,0.6,0,0.9,0c-0.1-0.9-0.2-1.8-0.4-2.7c-0.2,0-0.3,0-0.5,0
				C250.5,265,250.5,265.9,250.5,266.8z M216.6,319c0.2,0,0.3,0,0.5,0c0-0.7,0-1.3,0-2c-0.2,0-0.3,0-0.5,0
				C216.6,317.7,216.6,318.3,216.6,319z M197.3,380.2c-0.3,0-0.6,0.1-0.9,0.1c0.1,0.5,0.3,1.1,0.4,1.6c0.2,0,0.3-0.1,0.5-0.1
				C197.3,381.3,197.3,380.7,197.3,380.2z M308.5,254c0.2,0,0.3,0,0.5,0c0-0.7,0-1.3,0-2c-0.2,0-0.3,0-0.5,0
				C308.5,252.7,308.5,253.3,308.5,254z M294.5,250.2c0,0.3,0,0.6,0,0.9c0.6-0.1,1.1-0.2,1.7-0.4c0-0.2,0-0.3-0.1-0.5
				C295.6,250.2,295,250.2,294.5,250.2z M790.7,872.3c0,0.1,0,0.2,0,0.3c0.3,0,0.7,0,1,0c0-0.1,0-0.2,0-0.3
				C791.4,872.3,791,872.3,790.7,872.3z"/>
			<path d="M728.2,195.8c4.2-2,7.9-3.9,11.8-5.3c1.8-0.7,3.8-1.1,6-0.5c4.1,1.1,8,2.4,11.9,5.3c-3.3-9.7-6.4-19-9.5-28
				c1.7-2.5,3.8-2.8,6-3.4c2.1-0.5,4-1.7,6.4-2.8c0.7,0,2.1,0,3.5,0c2.9,3.4,4,7.8,6.1,12.8c0.6-6.7,0.1-12.6,0.4-18.4
				c0.8-0.8,1.5-1.5,2.3-2.3c4.7,0,9.4,0,14.7,0c0.3,0.9,0.8,1.9,0.9,2.9c0.4,4.7,0.8,9.4,1,14.1c0.2,4.8,0,9.6,0,14.8
				c1.2-0.7,2.1-1.3,3.1-2c1.1-0.7,2.2-1.2,3.6-1c1.3,0.2,2.7,0,4,0.1c1.2,0.1,2.5-0.4,3.7,0.7c0.5,0.5,1.9,0.2,2.8,0.3
				c4.8,0.4,9.4,1.3,13,4.7c0.3,0.3,0.9,0.3,1,0.3c3.9,4.8,3.2,10.5,2.4,15.6c-0.7,4.9-0.6,10.1-2.7,14.8c1.4,0.8-0.6,2.4,0.8,3.2
				c-1.3,0.8,0.6,2.3-0.6,3.2c1.4,1.2-0.7,2-0.4,3.3c1.6,5.4,0.5,11.1,1.2,16.5c0.8,5.7,1.5,11.4,2,17.2c0.4,3.9,0.3,7.8,0.9,11.6
				c0.8,4.7,1.3,9.5,3.8,13.9c1.6,2.8,2.7,5.9,3.1,9.2c0.1,0.7,0.6,1.4,1,2.1c1.9,3,1.7,6.6,3,9.8c0.2,0.6,0.3,1.6,0,1.9
				c-1.5,1.7-0.6,3.8-1,5.6c-0.8,3.4-0.8,6.8-1.9,10.2c-0.7,2.4-1.8,4.3-4.1,6.2c-4.9-0.7-10.1-1.5-15.3-2.3c-3.3-2.7-7-5-8.4-9.7
				c-0.3,0.2-0.6,0.5-0.9,0.7c-0.5,3.1-1,6.2-1.5,9.4c-2.7,3.6-6.4,6.4-10.8,8c-5,1.8-9.9,4.4-15.8,3.4c-4.6-4.6-7.9-10.4-10.3-16.9
				c-1.3-3.6-3.4-6.9-4.2-10.7c-0.5-2.4-1.6-4.7-1.7-7.3c-0.1-2-0.7-4.1-0.9-6.1c-0.2-1.9,0.4-3.8-0.9-5.6c-0.5-0.6-0.1-1.9-0.1-2.9
				c0-5.5,0-11,0-16.6c-1.2-1-2.4-2.1-3.9-3.5c-3.7-0.6-7.5-2.4-11-4.6c-2.9-1.8-4.6-5-6-8c-2.7-5.9-6.2-11.5-7.1-18
				c-1.4-0.9-0.7-2.4-1-3.6c-0.2-1.2-0.8-2.4-0.9-3.6c-0.6-5.1-2.6-9.9-2-15.2c-1.8-3-0.7-6.4-1-9.6c-0.1-0.8-0.4-1.9,0.1-2.4
				c1.5-1.8,0.5-4.1,1.3-6C726.9,199.4,727.5,197.6,728.2,195.8z M746.7,214.7c0,3.3-0.4,6.2,0.1,8.9c0.6,2.9,1,5.7,0.9,8.6
				c0,0.1,0.1,0.3,0.2,0.4c1.3,2.4,1.1,5.2,1.8,7.7c0.5,1.8,0.6,3.8,1.4,5.4c0.9,1.8,2.9,2.4,4.6,3.2c0.8,0.4,1.7,0.8,2.6,1
				c3.8,1,7.1,2.6,9.6,5.7c0.5,0.6,1.4,1,2.4,1.6c-0.3-5.6-0.6-10.7-0.9-16.2c-0.5-0.2-1.4-1-2.2-1c-1.3,0-2.3-0.9-2.3-1.5
				c-0.2-2.6-2.4-4.2-3-6.3c-1.5-4.5-3.5-8.3-6.9-11.7C752.9,218.6,750.5,216.4,746.7,214.7z M804.4,279.5c0.1-1.1,0.3-1.7,0.2-2.3
				c-0.2-3.9,0.3-7.7-0.8-11.6c-0.8-2.8,0.3-6.1-1.1-9c0.8-5.7-1.4-11.3-1-17c0.2-2.8,0-5.7,0-8.5c0-3.2,0.1-6.3,0-9.5
				c-0.1-3.1,1.7-5.9,1-9.1c-0.1-0.4,0.1-1,0.3-1.3c1.4-1.7,0.3-3.4,0.3-5.1c-4,7.5-3.8,15.9-6.2,24.2c-0.3,0.3-1,0.7-1.5,1.1
				c0,2.1,0,4,0,5.8c0,2.7-0.6,5.5,0.2,7.9c0.6,1.9,0.6,3.7,0.8,5.6c0.2,2,0.8,4,0.9,6.1c0.1,2.6,1,4.9,1.7,7.3
				C800.9,269.1,802.6,274,804.4,279.5z M780.1,278.2c0,12-1.8,24.1,2,36.1c1.2-3.1,2.7-5.9,3.4-8.8c0.4-1.7,1.1-3.4,1-5
				c0-1.6-1.2-3.1-1.6-4.8C783.3,289.9,781,284.2,780.1,278.2z"/>
			<path d="M837.6,520.6c-1.8,1.7-3.1,2.9-4.4,4.3c-1.4,0-2.9,0.7-3.8-0.6c-1.9,0.7-3.8,1.4-5.5,2c-3.3-2.3-4.4-5.8-7-8.9
				c0.3,2.4,0.3,4.3,0.9,6c1.7,4.6,0.6,9.4,1,14.1c0.1,1.7-0.6,3.6,0.7,4.9c-0.4,2.5-0.7,4.9-1.1,7.4c-5,0.5-10.1,1-15.6,1.5
				c-0.7-2.3-1.7-4.3-2-6.4c-0.3-2.3,0-4.7-0.1-7c-0.1-2.1-0.8-4.1-1.2-6c-0.7-3.2-0.1-6.6-0.9-9.6c-1.4-5-1.2-10.3-2.7-15.3
				c-1.1-3.8-0.8-8-1.2-12c-0.4-4.8-0.8-9.7-1.1-14.6c1.9-1.1,3.5-2.3,4.2-4.1c2.5-1.2,4.8,0.4,7.3-0.1c2.6-0.6,4.7-1.7,6.7-3.6
				c7.6,7.6,12.6,16.4,17.7,25.8c3.4-3,5.5-7,8.6-10.3c5.7,0,11.5,0,17.2,0c1.8,1.7,2.5,3.7,2.4,6.1c-0.1,5.8,0,11.7-0.1,17.5
				c0,1.2,0.2,2.4-0.7,3.7c-0.7,1-0.6,2.7,0.6,4c1.3,1.4,1.3,3.5,2,5.2c1,2.6,0.8,5.7,1.2,8.5c0.2,1.9,0.1,3.7,0.8,5.7
				c0.6,1.9,0.6,4.3-0.4,6.7c-0.9,1.9-0.4,4.5-0.3,6.8c0.1,2.5-0.4,4.8-2.6,6.8c-2.9-0.6-6,0.7-9.3-0.9c-1.6-0.8-3.9-0.1-6.1-0.1
				c0-1.8,0.1-3.5,0-5.1c-0.3-4.9-0.6-9.7-1-14.6c-0.1-1.4-0.7-2.7-1.2-4c-0.5-1.3-1.3-2.5-1.8-3.8
				C837.6,527.5,837.4,524.3,837.6,520.6c0,0.3,0,0.4,0.1,0.5c0.3-0.2,0.5-0.5,0.8-0.7c-0.1-0.1-0.2-0.2-0.3-0.3
				C838,520.4,837.8,520.6,837.6,520.6z"/>
			<path d="M244.4,607c1.9,4.4,4.8,7.9,5.2,12.5c-4.9,2.7-9.6,5.3-14.6,8.1c-3.2-6-7.4-10.9-9.6-17c-0.6-1.6-1.7-3-2.3-4.5
				c-0.5-1.5-0.6-3.1-0.8-4.2c-2.6-4.5-5-8.6-7.6-13.2c-0.4,0.6-0.9,1.1-1.2,1.7c-1.5,2.6-3,5.2-6.2,6.2c2.9,6.6,8.3,11.7,9.4,18.8
				c-4.2,3.2-11.8,7.2-15,7.8c-1.7-2.8-3.5-5.8-5.3-8.6c-1.9-3-3.7-6-6.3-8.4c-2.7-2.5-5.3-5.1-7.8-7.8c-1.9-2-3.8-4-5.2-6.3
				c-1.1-1.8-1.6-4-1.6-6.3c0-2.2,0.5-4,1.7-5.8c2.3-3.5,4.6-7.1,7-10.8c4.6-0.6,7.5,3.9,11.7,4.9c1.8,0,3.6,0,5.8,0
				c-1.8-3.8-0.9-7.7-1.2-12c6.5-2,13.1-2.2,19.3-3.1c4.6,6.5,7.4,13.5,11.6,19.6c2.1,3,3,6.9,5.2,9.8c2.3,3,3.6,6.6,5.8,9.7
				C244.2,600.6,244.7,604.1,244.4,607z"/>
			<path d="M398.7,803c-0.7-3.4-1.3-6.8-1.5-10.1c-0.2-3.5,0.6-7.2-0.2-10.4c-1-3.9-0.5-7.8-0.9-11.6c-0.2-2.5-0.2-5.3-1.3-7.4
				c-1-2.2-0.3-4.1-0.7-6c4.9-1.4,9.5-2.8,13.9-4.1c1.1,1.2,2.3,2.5,3.5,3.8c0.2-0.2,0.3-0.4,0.5-0.6c1,3.9,1.8,7.9,3.2,11.7
				c0.5,1.4,0.7,2.7,0.9,4.1c0.2,2.2,0.8,4.4,0.9,6.6c0.2,2.3,0.2,4.7,0,7c-0.1,1.5-0.8,3-0.9,4.6c-0.2,1.6-0.5,3.5,0.1,5
				c1.4,3.7,0.6,7.4,1,11.4c-5.5,0.5-11,1-16.4,1.5c-0.5-1-0.8-1.6-1.1-2.4c-1.7,3.7,0.8,7.3,0.5,10.8c-4.6,2.8-9,5.4-13.5,8.1
				c-1.5-0.5-2.5-1.8-3.3-3.2c-2-3.3-4-6.7-6.2-10.2c1.1-6.5-3.1-11.4-5.9-16.8c-2.8-5.5-8.5-8-13-11.6c-1.1-0.9-2.2-1.8-3.3-2.7
				c2-5.1,5.8-8.6,8.2-12.9c2.4-1,4.7-0.7,6.5,0.6c5,3.4,10.4,6,14.6,10.5c1.6,1.7,2.8,3.3,3,5.8c0.1,1.3,0.8,2.7,1.6,3.8
				c3.2,4.6,6.4,9.2,8.5,14.5C397.4,802.8,397.9,802.9,398.7,803c0-0.1-0.3,0-0.6,0c0.1,0.7,0.3,1.3,0.4,2c0.2,0,0.4-0.1,0.6-0.1
				C399.1,804.2,399,803.6,398.7,803z"/>
			<path d="M400.1,420.8c-4.7,4.4-11.2,5.5-15.8,8.7c-8.9,2.3-17.5,1.7-26,1.3c-6-0.3-12.1-1.7-16.9-6.1c-2.6-2.3-5.7-4.1-8.3-6.4
				c-3.7-3.3-6.6-7.3-7.9-12.2c-0.3-1-0.9-2-1.4-3c-2.9-0.3-4.3,2.2-6.5,3.4c-1.6,4.1-4.8,6.8-7.8,9.8c-1.4,1.3-3,2.4-4.5,3.6
				c-7,5.4-14,10.7-21.8,14.8c-0.5,0.3-1.2,0.4-2,0.7c-4-3.1-5.3-8.2-8.8-11.7c-0.3-0.3-0.1-1.3-0.2-2.5c4.2-3.2,8.7-6.6,13.1-10.1
				c2.5-2,5.1-3.9,7.5-6.1c0.8-0.7,1.3-1.8,1.8-2.7c1-2.3,2.8-4.1,4.6-5.5c4.9-3.8,9.8-7.5,15-10.9c1.4-0.9,2-2.2,3-3.2
				c2.5-2.4,5-4.9,7.4-7.4c4.5-4.8,9.2-9.4,13.3-14.5c2.4-3,5.5-5.3,8-8.1c4.5-5.1,9.7-9.6,13.6-15.3c0.6-0.8,1.4-1.4,2.1-2.1
				c6.2-6.5,11.7-13.5,16.6-21.1c2.9-4.5,6.4-8.7,9.5-13.1c1.8-2.5,3.7-5.1,5.3-7.8c0.8-1.3,1-2.9,1.6-5c3.3-4,7.2-8.3,8.5-14.3
				c0.1-0.3,0.3-0.5,0.5-0.8c2.1-3.6,3.6-7.5,5.4-11.3c2.3-4.8,5.5-9,9.6-12.6c0.5,0,1.2,0,1.7,0c3.6,3.1,7.1,6.2,10.7,9.3
				c0.3,3-0.4,5.6-1.8,8.2c-2,3.6-3.5,7.6-5.2,11.6c1.4,2.3,3.9,2.7,6.1,2.8c3.4,0.2,6.3,1.3,9.4,2.8c4.1,2,8.1,4.4,12.6,5.8
				c3.1,1,5.4,3.6,7,6.5c2,3.6,4.6,7,5.7,11.1c0.5,1.8,1.3,3.5,2.8,4.9c1.9,1.7,2.2,4.1,2.5,6.4c0.2,1.6,0.3,3,0.9,4.6
				c1.7,4.4,1.4,5.1,0.1,11.6c-0.6,3.3-0.8,6.7-1.1,9.3c-2,3.8-3.7,6.9-5.4,10.1c-1.7,3-2.5,6.4-5.5,8.5c1.4,3,2.6,5.8,4,8.6
				c1.1,2.1,2.2,4.2,3.5,6c3.2,4.3,6.5,10.7,8.5,16c1.8,4.9,3.6,9.9,6.1,14.5c2.9,5.3,4.6,11.1,6.9,16.7c0.6,1.4,1.1,2.9,1.9,5.2
				c0,1,0,3,0,5.2c-1.7,1.8-3.9,3.5-4,6.6c-0.1,1-1.5,2-2.6,3.2c-4.2-0.8-8.6-1-12.5-2.5c-4.2-1.7-8.7-2.2-12.9-3.8
				c-4.5-1.7-9-3.2-13.7-4.3c-6-1.5-11.8-3.9-18-4.9c-6.2-1-12.3-3-18.2-5.3C405.5,422.4,402.8,421.7,400.1,420.8z M443.5,307.2
				c-0.7-0.8-0.9-1.1-1-1.1c-0.5,0.1-0.9,0.3-1.4,0.4c0.6,0.2,1.2,0.3,1.2-0.2c-4-2.3-7-4.1-10.1-5.6c-1.6-0.8-3.5-1.4-5.3-1.6
				c-4.6-0.4-8.8-2-13.5-3.1c-1.6,2.7-3.2,5.6-5,8.4c-5.1,7.8-10.8,15.3-16.4,22.7c-1.2,1.5-3.6,3-2.7,5.2c4,2,7.5,3.9,11.2,5.5
				c3.6,1.5,6.4,4,9.3,6.4c1.7,1.3,2.7,3.1,3.5,5c1.7,4,3.6,7.9,5.2,11.6c4.6-1.5,8.1-4.2,12.9-4.7c3.5-0.4,6.6-2.7,9.4-4.9
				c0.6-0.5,1.3-1.2,1.4-1.9c0.9-3.9,3.4-7.1,5-11.4c-1,0.5-1.7,0.8-2.3,1.1c-3.1,1.3-6.1,2.7-9.6,2.2c-1.2-0.2-2.1-1.2-3.6-1
				c-1.8,0.3-3.7,0.2-5.5,0c-1.7-0.2-3.3-0.8-4.5-1.2c-2-3.4-3.7-6.5-5.6-9.7c0-1.8,0-3.8,0-5.8c0-3.3,0.9-6,2.9-8.8
				c3.1-4.3,3.6-5,10.4-7.5c1.3-0.5,2.4-1.3,4-2.2C435.8,305.2,438.4,305.6,443.5,307.2z M376.5,347c-2.9,3.3-5.8,6.8-8.9,10.1
				c-4.5,4.7-9.1,9.2-13.7,13.8c-0.8,0.8-1.8,1.5-2.4,2.5c-2.1,3.4-4.6,6.6-7.4,9.4c-2,2-3.9,3.9-5.8,5.8c1.6,4.5,3.6,8.2,7.2,10.9
				c1.3,1,2.8,1.7,3.8,2.9c2.8,3.3,6.5,4.9,10.4,6.3c5.3,1.9,10.7,1.9,16,0.2c2.9-0.9,5.6-2.6,8.3-4c5.4-2.7,7-4.5,10.4-11.7
				c-0.9,0.3-1.7,0.6-2.5,0.7c-2.3,0.4-4.9,0.3-7,1.2c-1.5,0.6-2.3,1-3.9,0.2c-1.4-0.7-3.3-0.7-4-2.3c-1.4-2.9-4-4.7-6.1-7
				c-2.1-2.2-3.8-4.4-1.7-7.6c0.3-0.5,0.2-1.3,0.1-1.9c-0.4-3.8,0.3-7.3,2.7-10.3c2.1-1.4,3.6-4,5.8-5c2.4-1.1,4.3-2.6,5.7-4
				c2.9-0.6,5.4-1.2,7.8-1.7C386.8,351.8,381.6,349.8,376.5,347z M413.1,405.6c3.8,1.2,7.4,2.9,11.1,3.3c6.5,0.7,12.4,3.1,18.6,4.5
				c5.2,1.2,10.2,3.5,15.3,5.1c2.2,0.7,4.4,1.1,7.1,1.7c-0.7-3.6-2.3-6.3-3.3-9.2c-1.8-5.4-3.5-11-7.1-15.5c-3.4-4.2-5.7-9-8.3-13.6
				c-1.7-3.1-2.6-6.6-3.9-9.8c-5,2.6-9.8,5.4-15.5,6c-1.8,0.2-3.4,1.3-5.1,1.9c0,2.5-0.2,4.7,0,6.8c0.2,1.7-0.4,3.2-1.1,4.6
				C418.6,396.2,415.8,400.8,413.1,405.6z"/>
			<path d="M748.8,688.2c-1.5,2.1-2.9,3.9-4.2,5.7c-2.1,0-4,0-5.7,0c-2.2,1.1-4.1,2.1-6,3.1c-2.8-0.6-4.3-4.1-7.7-2.9
				c-0.4-1.9-0.6-3.6-1.1-5.3c-0.5-1.5,0-3.5-2.2-3.9c-0.1-2.1-0.4-3.8,0.8-5.7c0.9-1.4,0.9-3.3,1.4-5.3c4.6-2.2,9.5-4.5,15.2-5.8
				c1.6,1.9,3.8,3.4,6.7,2.9c1.5,1.6,3,3.2,4.7,5C749,679.7,748.3,684,748.8,688.2z"/>
			<path d="M708.3,731.4c-5.6-3.2-11.6-6-16.4-10.6c0-1.7,0-3.3,0-5.4c3.2-3.7,5-8.9,9.6-12.4c2.8,0.2,6.2-0.8,8.8,2
				c1.6,0,3.3,0,4.9,0c1.2,1.3,3.1,2.1,2.5,4.7c1,0.8,2.2,1.8,3,2.4c0.6,3.7-1.7,5.8-3,9.4c0,0.4,0,1.8,0,3.3
				C713.4,725,712.1,729.2,708.3,731.4z"/>
		</g>
</svg>
