<svg width="113" height="105" viewBox="0 0 113 105" fill="none" xmlns="http://www.w3.org/2000/svg">
<path d="M55.2134 83.4578C55.1215 84.3573 55.0296 85.2261 54.9464 86.095C54.9289 86.2722 54.918 86.4583 54.9574 86.629C55.0974 87.2374 55.0427 87.8392 54.9836 88.4542C54.9508 88.7825 55.0449 89.1326 55.1259 89.4609C55.2375 89.9074 55.2222 90.3407 55.1522 90.7915C55.0996 91.1242 55.1477 91.4721 55.1587 91.8136C55.1631 91.9317 55.2134 92.0477 55.2134 92.1659C55.2134 92.6408 55.2025 93.1135 55.1981 93.5884C55.1981 93.8095 55.2222 94.0327 55.2047 94.2537C55.1828 94.5623 55.1303 94.8687 55.0931 95.1773C55.0712 95.3655 55.023 95.5559 55.0427 95.7397C55.1215 96.4204 55.2331 97.0988 55.3119 97.7794C55.3404 98.0136 55.3097 98.2543 55.3075 98.4907C55.3075 98.7139 55.3075 98.935 55.3119 99.1582C55.3141 99.3355 55.3272 99.5149 55.3272 99.6922C55.3294 100.198 55.3272 100.701 55.3272 101.27C55.6774 101.296 56.0275 101.349 56.3777 101.345C57.2531 101.334 57.96 102.08 57.9316 103.017C57.9053 103.885 57.1393 104.544 56.2661 104.439C55.8065 104.384 55.3513 104.303 54.8917 104.249C54.7866 104.236 54.6488 104.253 54.5656 104.312C54.0097 104.704 53.3882 104.798 52.7317 104.75C52.5391 104.737 52.3443 104.697 52.1517 104.697C51.9766 104.697 51.795 104.702 51.6286 104.752C51.1953 104.886 50.7773 104.881 50.3615 104.695C50.2543 104.647 50.1295 104.592 50.0223 104.605C49.4336 104.675 48.8274 104.597 48.2627 104.846C47.9717 104.975 47.6652 105.034 47.3435 104.98C46.6782 104.87 46.153 104.347 46.0655 103.71C45.967 102.99 46.2974 102.362 46.9321 102.04C47.7134 101.647 48.5341 101.502 49.4051 101.587C49.9698 101.642 50.5366 101.662 51.1012 101.71C51.2785 101.725 51.4514 101.784 51.6265 101.813C51.7796 101.839 51.9372 101.85 52.1145 101.87C52.1911 101.261 52.2655 100.703 52.329 100.145C52.3421 100.029 52.3093 99.9089 52.2983 99.7907C52.2852 99.6419 52.2392 99.4843 52.2699 99.3464C52.3552 98.9722 52.3202 98.6067 52.2655 98.2368C52.2173 97.8998 52.1539 97.5606 52.1561 97.2235C52.1561 96.764 52.1911 96.3022 52.2524 95.847C52.2874 95.5887 52.3115 95.3546 52.1955 95.1073C52.1276 94.9628 52.0883 94.7899 52.0883 94.6302C52.0883 94.1115 52.1145 93.5928 52.132 93.0741C52.1342 92.9997 52.1714 92.9188 52.1517 92.8531C51.9875 92.2841 52.1802 91.7282 52.1955 91.1657C52.1955 91.0913 52.202 91.0169 52.1933 90.9447C52.1298 90.4567 52.062 89.9708 51.9985 89.485C51.9875 89.3974 51.9722 89.299 51.9941 89.218C52.1035 88.8306 52.0467 88.4476 51.9723 88.069C51.876 87.5875 51.9504 87.1192 52.0292 86.6465C52.051 86.5152 52.086 86.3729 52.0598 86.2482C51.8803 85.3881 51.981 84.5236 51.9853 83.6154C51.6505 83.576 51.3157 83.5388 50.983 83.4994C50.6438 83.46 50.3046 83.4141 49.9654 83.3768C49.6108 83.3396 49.2563 83.3199 48.9018 83.2762C48.6807 83.2499 48.4641 83.1908 48.243 83.158C47.9498 83.112 47.6565 83.0551 47.3611 83.042C46.6476 83.0092 45.9298 83.0179 45.2163 82.9764C44.5641 82.937 43.912 82.8626 43.262 82.786C42.9994 82.7553 42.7411 82.6787 42.4763 82.624C42.3472 82.8319 42.3406 83.0289 42.3778 83.2652C42.4588 83.7949 42.496 84.331 42.5244 84.8672C42.5551 85.4778 42.5551 86.0884 42.5704 86.699C42.5726 86.7887 42.566 86.885 42.5989 86.9638C42.7674 87.3621 42.7696 87.7779 42.7542 88.1981C42.7323 88.824 42.7039 89.45 42.7149 90.0737C42.7192 90.3516 42.8308 90.6274 42.8658 90.9075C42.8965 91.157 42.8899 91.4109 42.8965 91.6625C42.8987 91.7654 42.8724 91.8748 42.9052 91.9667C43.0978 92.5423 43.0475 93.1135 42.8878 93.6847C42.8637 93.7657 42.8593 93.8598 42.8702 93.943C42.9424 94.5798 43.03 95.2123 43.0913 95.8492C43.1132 96.0833 43.0738 96.3241 43.0607 96.6173C43.3495 96.5648 43.6362 96.5232 43.9163 96.4554C44.3059 96.3613 44.6823 96.3656 45.0587 96.5123C45.1813 96.5604 45.3192 96.5714 45.4505 96.5867C46.3215 96.6896 46.9058 97.449 46.7614 98.2981C46.6082 99.1954 45.8357 99.7053 44.9449 99.4799C44.702 99.4186 44.481 99.4252 44.249 99.5215C43.6931 99.7513 43.111 99.7754 42.531 99.6637C41.8482 99.5324 41.172 99.4908 40.487 99.6287C40.4279 99.6397 40.3666 99.6419 40.3119 99.6637C39.303 100.077 38.2656 99.8935 37.2304 99.8191C37.086 99.8082 36.9328 99.8169 36.7927 99.8519C36.1406 100.02 35.5694 99.887 35.1251 99.3748C34.7049 98.8912 34.6217 98.3222 34.8712 97.74C35.136 97.1229 35.6372 96.8274 36.3069 96.7574C36.7862 96.7071 37.2545 96.7596 37.7316 96.7858C38.4691 96.823 39.2088 96.7902 40.012 96.7858C39.7735 95.9892 39.953 95.2648 40.0383 94.547C40.0996 94.0218 40.0712 93.5228 39.9967 93.0085C39.9289 92.5401 39.9223 92.0674 39.8129 91.5969C39.7429 91.2927 39.837 90.9469 39.8807 90.623C39.9092 90.4107 39.9114 90.2247 39.8107 90.0212C39.7144 89.8264 39.6684 89.5944 39.6509 89.3755C39.6203 88.9597 39.6334 88.5395 39.6138 88.1215C39.5875 87.616 39.5021 87.1104 39.5196 86.6071C39.5502 85.7207 39.3051 84.8628 39.3117 83.9831C39.3117 83.9524 39.3117 83.9218 39.3029 83.8933C39.1804 83.4447 39.0972 82.9939 39.292 82.4883C39.0272 82.4642 38.8106 82.392 38.6267 82.4402C37.9374 82.6196 37.329 82.3789 36.7184 82.1338C36.3594 81.9893 36.0027 81.8339 35.6525 81.6676C35.4381 81.567 35.2236 81.4553 35.0375 81.3131C34.8143 81.1424 34.5802 81.0527 34.2979 81.0373C33.6457 81.0045 33.0373 80.8491 32.5011 80.4377C32.3326 80.3086 32.094 80.2057 31.8861 80.2035C31.1333 80.1926 30.4855 79.9015 29.8967 79.4813C29.1045 78.9167 28.2773 78.4243 27.3843 78.0347C27.0167 77.8749 26.6315 77.7196 26.3208 77.4766C25.8174 77.0849 25.3862 76.6122 24.9836 76.1044C24.6465 75.6799 24.1891 75.3472 23.7667 74.9971C23.526 74.8001 23.2437 74.6535 22.9854 74.4762C22.876 74.4018 22.7644 74.3164 22.679 74.2158C22.1976 73.6314 21.7205 73.0405 21.2499 72.4474C21.1777 72.3555 21.1362 72.2395 21.0836 72.1323C21.0574 72.0798 21.0617 72.001 21.0224 71.966C20.3855 71.3838 20.2607 70.4712 19.6217 69.8694C19.2365 69.5061 18.8995 69.0596 18.6609 68.541C18.4705 68.1251 18.0744 67.7969 17.7418 67.4576C17.5098 67.2213 17.2778 66.998 17.1443 66.6851C17.1006 66.58 17.0021 66.4947 16.932 66.4006C16.8335 66.2693 16.7066 66.1511 16.6453 66.0023C16.2427 65.0262 15.5861 64.1771 15.2097 63.1922C14.8486 62.2468 14.47 61.297 14.2292 60.3187C14.0738 59.6819 13.8944 59.056 13.728 58.4235C13.6317 58.0536 13.6493 57.6531 13.6055 57.2701C13.5858 57.0972 13.5683 56.9134 13.4983 56.758C13.3385 56.4035 13.3013 56.0424 13.3626 55.6638C13.3757 55.5894 13.4107 55.5149 13.3998 55.4449C13.321 54.9022 13.2356 54.3616 13.1459 53.821C13.124 53.6897 13.0606 53.5606 13.0606 53.4293C13.0562 52.8362 13.0671 52.2409 13.0737 51.6479C13.0737 51.5581 13.1021 51.4662 13.089 51.3809C12.9971 50.7352 12.8702 50.094 12.8133 49.444C12.7542 48.7809 12.7191 48.109 12.7476 47.4437C12.7695 46.9513 12.8461 46.4633 12.7651 45.9709C12.7607 45.9424 12.752 45.9096 12.7585 45.8811C12.9555 44.8328 12.7082 43.7408 13.089 42.7078C13.159 42.5218 13.159 42.2898 13.1284 42.0906C13.0015 41.2415 12.9993 40.4033 13.1372 39.552C13.2116 39.0858 13.1656 38.6 13.1809 38.125C13.1962 37.7224 13.1897 37.3153 13.2531 36.9192C13.3626 36.2145 13.3385 35.4988 13.4895 34.7898C13.6471 34.0566 13.6055 33.2797 13.6733 32.5247C13.7193 32.006 13.8068 31.4895 13.8659 30.9708C13.8834 30.8132 13.8594 30.6491 13.8594 30.4872C13.8572 30.2223 13.8462 29.9553 13.8594 29.6905C13.8769 29.3338 13.9185 28.9771 13.9425 28.6204C13.9491 28.5175 13.925 28.4103 13.9382 28.3074C13.9885 27.9244 14.0957 27.5414 14.087 27.1606C14.0782 26.7951 13.9644 26.4406 13.9797 26.0576C14.0257 24.8846 14.192 23.7225 14.2511 22.5516C14.2555 22.4641 14.2511 22.3744 14.2511 22.2868C14.1942 22.2605 14.157 22.2277 14.1176 22.2255C13.553 22.1927 12.9883 22.1446 12.4215 22.1424C11.8437 22.1402 11.2682 22.1927 10.6904 22.2015C10.4387 22.2036 10.1849 22.1686 9.93755 22.1227C9.59615 22.0614 9.26786 22.0286 8.91989 22.1117C8.52377 22.208 8.12329 22.1774 7.73155 22.0242C7.56084 21.9585 7.3573 21.9673 7.16908 21.9498C7.10999 21.9432 7.04654 21.9717 6.99183 21.9607C6.30901 21.8294 5.63494 22.0045 4.9565 22.0198C4.79456 22.0242 4.61511 22.0198 4.47285 21.9542C3.90384 21.6959 3.28887 21.6915 2.69359 21.5712C2.15303 21.4617 1.62122 21.302 1.10035 21.1225C0.883691 21.0481 0.675773 20.8927 0.516012 20.7242C-0.000476282 20.1793 -0.160219 19.0894 0.179 18.4153C0.308122 18.1593 0.347517 17.9273 0.290616 17.645C0.170248 17.041 0.373774 16.4588 0.476634 15.8745C0.623264 15.0472 1.08067 14.3994 1.68689 13.8326C2.17711 13.373 2.71766 13.0666 3.37422 12.8762C4.10299 12.6639 4.83175 12.5676 5.57584 12.5479C5.98947 12.537 6.39654 12.5939 6.81236 12.4976C7.03121 12.4473 7.28507 12.5217 7.51705 12.5698C7.83001 12.6333 8.12985 12.6661 8.44062 12.5458C8.58944 12.4889 8.76232 12.4648 8.92427 12.467C9.55019 12.4757 10.1739 12.5217 10.7998 12.5151C11.5811 12.5064 12.3471 12.6267 13.1109 12.758C13.3297 12.7952 13.5508 12.8456 13.7631 12.9134C14.0782 13.0141 14.3868 13.0338 14.8136 12.9419C14.9558 12.1299 15.179 11.3333 15.1615 10.4929C15.1506 9.98958 15.1593 9.47309 15.2534 8.98286C15.3585 8.43355 15.4767 7.87329 15.6692 7.35242C15.899 6.7287 16.2295 6.1378 16.746 5.66946C16.9452 5.48781 17.0786 5.20769 17.1793 4.94725C17.5164 4.05872 18.0722 3.30368 18.7507 2.68215C19.3547 2.13064 20.0156 1.61197 20.8648 1.38874C21.622 1.18958 22.3749 0.940093 23.0445 0.489261C23.8171 -0.0316045 24.6881 -0.0731865 25.5854 0.0734436C26.0537 0.150041 26.5308 0.174116 27.0014 0.235394C27.2355 0.266034 27.4675 0.325123 27.6973 0.375459C27.8133 0.399532 27.9249 0.456434 28.0409 0.460811C28.866 0.49145 29.6845 0.585555 30.4504 0.894134C31.1092 1.16113 31.8161 1.3012 32.4311 1.69951C32.9388 2.02778 33.5121 2.2532 34.0461 2.54646C34.3066 2.68871 34.5736 2.84847 34.7727 3.06076C35.1163 3.42624 35.4425 3.80485 35.6788 4.271C36.0159 4.92974 36.4513 5.53596 36.8321 6.17282C36.9678 6.40042 37.0729 6.64772 37.1889 6.88846C37.4581 7.4531 37.7491 8.00679 37.9855 8.58455C38.2043 9.11855 38.3903 9.67006 38.5457 10.2259C38.6639 10.6527 38.7121 11.1013 38.7909 11.539C38.8106 11.6419 38.8543 11.7426 38.8565 11.8454C38.874 12.5764 38.9528 13.3008 39.071 14.0208C39.1192 14.3119 39.1695 14.603 39.2132 14.8962C39.2329 15.0275 39.2482 15.1632 39.2548 15.2967C39.2964 16.2794 39.3577 17.2598 39.3686 18.2424C39.3774 18.8662 39.3861 19.4943 39.1739 20.1049C39.1038 20.304 39.1104 20.5469 39.141 20.7614C39.2395 21.488 39.268 22.208 39.1126 22.9324C39.0754 23.1119 39.0929 23.3198 39.1476 23.4971C39.3183 24.0551 39.2986 24.5869 38.9988 25.0969C38.804 25.4251 38.9922 25.7359 39.1322 25.9766C39.4102 26.4494 39.5349 26.968 39.7319 27.4648C39.7603 27.5349 39.7625 27.6158 39.8019 27.6771C40.1412 28.2155 40.2944 28.8239 40.4892 29.4192C40.5307 29.5505 40.6402 29.6818 40.754 29.7649C41.0822 29.9991 41.2945 30.3011 41.4543 30.671C41.5418 30.8723 41.73 31.0846 41.927 31.1743C42.5507 31.461 42.9403 31.9797 43.3867 32.4634C43.7325 32.8376 44.1834 33.1177 44.5948 33.4307C44.7371 33.5379 44.9099 33.608 45.0412 33.724C45.4964 34.1288 45.9342 34.5556 46.3894 34.9605C46.6892 35.2275 46.9956 35.4879 47.3217 35.7221C47.6084 35.9278 47.8557 36.1576 47.9804 36.4902C48.0658 36.7178 48.2299 36.847 48.4312 36.9608C48.6763 37.1008 48.9302 37.2431 49.1338 37.4335C49.4927 37.7683 49.9128 37.9806 50.3527 38.1688C50.4906 38.2279 50.6394 38.2717 50.7576 38.357C51.2238 38.6984 51.6812 39.053 52.143 39.401C52.2502 39.4819 52.3552 39.5651 52.4669 39.6373C53.1365 40.0663 53.7427 40.5652 54.2023 41.224C54.2286 41.2612 54.2526 41.3028 54.2877 41.3268C54.6794 41.5938 55.0865 41.8411 55.4651 42.1235C56.0363 42.548 56.6754 42.815 57.3407 43.0448C57.6755 43.1608 58.0235 43.2877 58.3058 43.4913C58.8113 43.8568 59.2688 44.2857 59.7502 44.684C59.8947 44.8044 60.0369 44.9401 60.2032 45.0167C61.3434 45.5485 62.453 46.1219 63.289 47.1045C63.4575 47.3037 63.6851 47.3715 63.9302 47.4612C64.4292 47.6407 64.8932 47.9208 65.3659 48.1703C65.6023 48.2951 65.832 48.4373 66.0531 48.5905C66.4448 48.8597 66.8847 49.0895 67.1977 49.4331C67.561 49.8336 67.9746 50.0699 68.478 50.1794C68.9201 50.2778 69.2571 50.512 69.5722 50.8315C69.7736 51.0329 70.0581 51.1773 70.3316 51.2758C70.6862 51.4027 71.0363 51.5122 71.3099 51.7923C71.3777 51.8601 71.4893 51.8908 71.5856 51.9236C72.1371 52.1162 72.6799 52.3219 73.1483 52.683C73.2533 52.764 73.3758 52.8275 73.4918 52.8931C74.039 53.1951 74.5861 53.4949 75.1332 53.7948C75.212 53.8385 75.2842 53.8954 75.3674 53.9239C75.8817 54.1034 76.3654 54.32 76.7068 54.773C76.7637 54.8496 76.8775 54.8978 76.976 54.9262C77.6106 55.1057 78.1249 55.4843 78.6108 55.9089C78.6896 55.9767 78.7639 56.0577 78.8537 56.1036C79.8801 56.6223 80.7862 57.338 81.7819 57.9048C82.143 58.1105 82.5326 58.2703 82.9046 58.4563C83.4386 58.7211 83.9835 58.9684 84.4978 59.266C85.1653 59.6534 85.8766 59.892 86.6338 60.0189C87.2401 60.1218 87.739 60.4544 88.2249 60.798C88.6867 61.1241 89.109 61.5093 89.5861 61.8047C90.2164 62.1943 90.8839 62.5247 91.5383 62.8749C92.2321 63.2469 92.928 63.6168 93.6283 63.9801C93.9041 64.1245 94.1973 64.2383 94.4709 64.3872C94.6657 64.4944 94.8298 64.6542 95.0224 64.7614C95.3966 64.9737 95.7949 65.1444 96.1604 65.372C96.5762 65.6324 96.9592 65.9454 97.3707 66.2168C97.7952 66.4947 98.2307 66.7573 98.5481 67.1709C98.5984 67.2366 98.6881 67.2957 98.7691 67.3132C99.279 67.4161 99.662 67.7268 100.01 68.077C100.424 68.495 100.931 68.6613 101.496 68.7117C101.658 68.727 101.835 68.7292 101.977 68.797C102.54 69.0684 103.122 69.2938 103.593 69.7402C103.857 69.9919 104.175 70.2392 104.514 70.3552C105.232 70.6003 105.777 71.0796 106.346 71.537C106.405 71.583 106.455 71.6399 106.516 71.6836C106.939 71.9878 107.355 72.2986 107.786 72.5875C108.206 72.8676 108.628 73.1456 109.07 73.3885C109.758 73.7671 110.381 74.2201 110.9 74.811C111.058 74.9883 111.187 75.1896 111.331 75.38C111.421 75.4982 111.491 75.6405 111.603 75.7302C112.272 76.2598 112.371 76.9711 112.277 77.7524C112.237 78.0785 112.196 78.4024 112.152 78.7263C112.071 79.3215 111.745 79.7746 111.32 80.1707C111.222 80.2626 111.086 80.3283 111.023 80.4377C110.646 81.0855 110.005 81.2803 109.346 81.4444C108.957 81.5407 108.561 81.6129 108.169 81.6983C108.097 81.7136 108.029 81.7442 107.961 81.777C107.587 81.9609 107.226 82.1754 106.84 82.3264C106.569 82.4336 106.263 82.4533 105.974 82.5168C105.641 82.589 105.302 82.6415 104.978 82.7466C104.51 82.8976 104.061 83.1077 103.59 83.2499C103.323 83.3287 103.028 83.3593 102.75 83.3396C102.076 83.2959 101.457 83.5213 100.818 83.6614C100.297 83.7752 99.7627 83.843 99.2353 83.924C99.0296 83.9568 98.8216 83.9721 98.6159 83.994C98.4977 84.0071 98.373 84.0443 98.2614 84.0225C97.6158 83.8977 96.9877 84.1209 96.3465 84.1078C96.2327 84.1056 96.1167 84.1647 96.0029 84.1932C95.8453 84.2326 95.6877 84.2916 95.5258 84.3048C94.7685 84.3726 94.0113 84.4492 93.2519 84.482C92.8995 84.4974 92.545 84.4164 92.1905 84.3836C91.9716 84.3617 91.7506 84.3376 91.5295 84.3332C90.8752 84.3201 90.2186 84.307 89.5643 84.3092C89.1638 84.3092 88.7633 84.3529 88.3628 84.3442C88.0542 84.3376 87.7281 84.3354 87.4414 84.2369C86.938 84.064 86.4369 83.9809 85.9094 84.0268C85.7475 84.04 85.5702 84.0553 85.4192 84.0071C84.953 83.8583 84.4847 83.8539 84.0054 83.913C83.6006 83.9612 83.2023 83.913 82.8215 83.7467C82.7142 83.6986 82.5917 83.6614 82.4757 83.6657C81.9876 83.6811 81.4996 83.7204 81.0116 83.7401C80.6526 83.7555 80.2894 83.7927 79.9392 83.7467C79.3811 83.6745 78.8384 83.8167 78.2891 83.8102C77.7398 83.8014 77.1861 83.7795 76.6411 83.7073C76.2581 83.6548 75.8817 83.5935 75.49 83.5913C74.956 83.5891 74.422 83.5213 73.888 83.4819C73.8136 83.4753 73.7348 83.4469 73.6669 83.4644C72.936 83.6329 72.2094 83.4141 71.4872 83.4403C70.9269 83.46 70.371 83.3221 69.802 83.4688C69.4672 83.5563 69.0907 83.4797 68.7318 83.4819C68.6136 83.4819 68.4824 83.4622 68.3773 83.506C67.3772 83.9108 66.3486 83.7248 65.3265 83.6767C64.972 83.6592 64.6065 83.6154 64.2607 83.6723C63.6764 83.7664 63.1008 83.7226 62.5209 83.6811C62.418 83.6745 62.313 83.6854 62.2123 83.7051C61.7571 83.7992 61.3041 83.8824 60.8357 83.7905C60.735 83.7708 60.6256 83.7795 60.5249 83.7949C59.2271 83.9699 57.9469 83.9787 56.671 83.6023C56.2136 83.4688 55.708 83.5016 55.2222 83.4578H55.2134ZM36.1121 24.4053C36.1165 23.7969 36.2544 23.2257 36.1515 22.6129C36.0574 22.0504 36.1384 21.4552 36.1647 20.8752C36.1865 20.385 36.2631 19.8991 36.2785 19.4089C36.3025 18.5904 36.2784 17.7697 36.3113 16.9534C36.3441 16.1984 36.5257 15.4346 36.0727 14.7343C36.0574 14.7102 36.0487 14.6796 36.0443 14.6489C35.9567 13.9705 35.8254 13.292 35.8035 12.6114C35.7904 12.2394 35.8057 11.8717 35.7182 11.5062C35.6416 11.1889 35.5628 10.8715 35.4774 10.5542C35.3505 10.0815 35.2652 9.58689 35.0726 9.14262C34.7596 8.42261 34.3766 7.73104 34.0155 7.0329C33.9477 6.90378 33.8361 6.79654 33.7442 6.68274C33.661 6.57769 33.5297 6.48796 33.4946 6.36978C33.3283 5.79858 32.9257 5.44623 32.4376 5.16392C32.3873 5.13547 32.3501 5.08294 32.3063 5.04136C31.9627 4.72403 31.595 4.45265 31.107 4.39356C30.9626 4.37605 30.8247 4.30383 30.6846 4.25131C30.3651 4.12656 30.0499 3.99306 29.7282 3.87488C29.2971 3.71512 28.8638 3.55536 28.4239 3.41749C28.0825 3.31244 27.7345 3.22271 27.369 3.32995C27.0057 3.43499 26.649 3.3759 26.3273 3.20082C26.045 3.04763 25.7736 2.99948 25.4694 3.10234C25.3862 3.13079 25.2921 3.13736 25.2024 3.13079C24.548 3.07389 24.0491 3.47876 23.491 3.70418C23.2021 3.82017 22.9351 3.98869 22.6462 4.1003C22.2567 4.24912 21.8277 4.31696 21.4644 4.50955C21.1055 4.69995 20.74 4.95163 20.4993 5.26896C20.1798 5.69354 19.985 6.20783 19.7267 6.68055C19.6414 6.83594 19.556 7.00664 19.4247 7.12044C19.1534 7.35461 19.0089 7.65882 18.871 7.97396C18.8119 8.10965 18.7638 8.26503 18.6675 8.37008C18.3961 8.65897 18.2889 9.00037 18.2823 9.38336C18.278 9.57595 18.2824 9.77073 18.267 9.96113C18.2364 10.285 18.1948 10.6067 18.1488 10.9284C18.1335 11.0444 18.081 11.1582 18.0723 11.2742C18.035 11.7645 18.0153 12.2569 17.9759 12.7471C17.9562 12.9835 17.9059 13.2176 17.8753 13.454C17.8512 13.6269 17.8315 13.802 17.8206 13.977C17.7921 14.4366 17.8578 14.9247 17.7243 15.3514C17.536 15.9511 17.5908 16.5551 17.5251 17.1526C17.477 17.5968 17.4354 18.0433 17.4157 18.4897C17.4004 18.8421 17.4201 19.1988 17.4332 19.5512C17.4441 19.8335 17.4879 20.1158 17.4857 20.3981C17.4813 20.9343 17.477 21.4749 17.4266 22.0067C17.3741 22.5669 17.3566 23.1294 17.2516 23.6918C17.1006 24.4906 17.0896 25.3179 17.0174 26.132C16.9933 26.3968 16.9671 26.6616 16.9474 26.9264C16.9364 27.0709 16.9014 27.2307 16.9474 27.3598C17.21 28.1126 17.0677 28.8742 16.9867 29.6227C16.9233 30.207 16.7022 30.776 16.8686 31.3779C16.8905 31.461 16.8708 31.5573 16.8598 31.6449C16.8117 32.0279 16.7438 32.4065 16.711 32.7917C16.6453 33.562 16.5972 34.3346 16.5381 35.1049C16.5009 35.5951 16.4987 36.0941 16.4046 36.5734C16.2667 37.2693 16.2317 37.9675 16.2733 38.6656C16.3017 39.1646 16.282 39.6483 16.1704 40.1341C16.1442 40.2501 16.1135 40.3683 16.1135 40.4843C16.1223 41.3225 16.0895 42.1541 15.8728 42.9682C15.8509 43.0492 15.8684 43.1455 15.8881 43.2308C15.9756 43.6379 15.9341 44.0231 15.7831 44.4148C15.6955 44.6424 15.6758 44.905 15.6758 45.1524C15.6758 45.5222 15.724 45.8899 15.7393 46.2597C15.7502 46.4961 15.724 46.7346 15.7371 46.971C15.7634 47.4459 15.8925 47.9164 15.7634 48.3957C15.7415 48.4745 15.7918 48.5686 15.8006 48.6583C15.8465 49.072 15.9428 49.4878 15.9231 49.8992C15.8947 50.4879 15.9341 51.0591 16.0479 51.6325C16.096 51.8776 16.0851 52.1337 16.096 52.3876C16.1135 52.8165 16.1223 53.2455 16.142 53.6744C16.1573 54.0158 16.1792 54.355 16.2054 54.6964C16.223 54.9153 16.223 55.1429 16.2864 55.3486C16.4002 55.7141 16.4549 56.073 16.3674 56.4494C16.3455 56.5457 16.3346 56.6595 16.3608 56.7536C16.595 57.5371 16.8248 58.325 17.0852 59.0997C17.4244 60.1174 17.7899 61.1263 18.1467 62.1396C18.1904 62.2643 18.2539 62.3847 18.3086 62.5072C18.4793 62.8858 18.65 63.2645 18.8185 63.6453C18.8667 63.7525 18.8754 63.8969 18.9542 63.9692C19.2759 64.2602 19.3941 64.676 19.6327 65.0065C20.182 65.7637 20.6043 66.6151 21.2828 67.2782C21.4754 67.4664 21.6658 67.6546 21.8387 67.8581C22.3201 68.4228 22.6506 69.1034 23.1693 69.6396C23.189 69.6615 23.2065 69.6877 23.2152 69.7162C23.3597 70.1145 23.6442 70.4209 23.863 70.771C24.3992 71.6311 25.198 72.2461 25.8568 72.988C25.9137 73.0515 26.0034 73.0887 26.0844 73.1259C26.4236 73.2747 26.6906 73.5001 26.8832 73.8196C26.9423 73.9181 27.0342 73.9991 27.1239 74.0757C27.4653 74.3646 27.8308 74.6294 28.1547 74.9358C28.4304 75.1962 28.7018 75.4326 29.0826 75.5267C29.2205 75.5595 29.3409 75.6711 29.4678 75.7477C30.0696 76.1044 30.6693 76.4677 31.2755 76.8179C31.6476 77.0345 32.0393 77.2206 32.407 77.4438C32.7243 77.6364 33.0592 77.7502 33.4225 77.7305C34.0527 77.6977 34.5933 77.9384 35.0988 78.2667C35.4315 78.4833 35.7795 78.6212 36.1669 78.6912C36.3988 78.7328 36.6395 78.7941 36.8409 78.9079C37.6309 79.3631 38.4801 79.5119 39.3774 79.4638C39.7801 79.4419 40.1828 79.4485 40.5854 79.4507C41.091 79.455 41.5899 79.5141 42.1021 79.4682C42.9184 79.396 43.7019 79.5667 44.4329 79.9584C44.6977 80.1007 44.9778 80.1948 45.2907 80.1641C45.5884 80.1357 45.886 80.1182 46.1837 80.1116C46.9409 80.0941 47.7025 80.0372 48.4575 80.0853C49.4511 80.1466 50.4447 80.2714 51.4186 80.4968C51.5039 80.5165 51.5958 80.5143 51.6855 80.5143C52.4318 80.5143 53.1781 80.5121 53.9266 80.5099C54.1804 80.5099 54.4409 80.4661 54.6838 80.5187C55.0996 80.6062 55.4958 80.6281 55.9203 80.5405C56.1851 80.4858 56.4784 80.5712 56.7563 80.5996C56.8438 80.6084 56.9314 80.6456 57.0189 80.6522C57.717 80.6981 58.4174 80.7397 59.1155 80.7857C59.5007 80.8097 59.8881 80.8513 60.2733 80.8623C60.4921 80.8688 60.7197 80.8601 60.9298 80.801C61.3369 80.6872 61.733 80.5778 62.1598 80.6981C62.2823 80.7331 62.4245 80.6981 62.558 80.6981C63.1227 80.6916 63.6851 80.5821 64.2519 80.7134C64.4817 80.7682 64.7312 80.7944 64.9632 80.7616C66.0465 80.6106 67.1255 80.5208 68.2022 80.8185C68.281 80.8404 68.386 80.8251 68.4604 80.7878C68.9507 80.5362 69.4694 80.4333 70.0165 80.4552C70.1194 80.4596 70.2222 80.4224 70.3251 80.4049C71.0079 80.2954 71.6841 80.3086 72.367 80.4267C72.8484 80.5099 73.3386 80.5778 73.8267 80.5821C74.4044 80.5865 74.9844 80.4661 75.56 80.4836C76.6937 80.5208 77.7966 80.755 78.8646 81.1074C79.5474 80.7003 80.2784 80.5318 81.0575 80.6653C81.4514 80.7331 81.8323 80.8776 82.224 80.9585C82.4057 80.9958 82.6223 81.0133 82.7865 80.9454C83.2942 80.7353 83.8107 80.7638 84.3315 80.8163C84.9377 80.8776 85.544 80.9432 86.1502 81.0067C86.4303 81.0373 86.7126 81.0658 86.9928 81.0986C87.6865 81.1774 88.3803 81.3021 89.0762 81.3262C89.8181 81.3547 90.5622 81.2737 91.3063 81.2715C91.7528 81.2715 92.197 81.3284 92.6435 81.3503C92.9389 81.3634 93.2475 81.4181 93.5254 81.3525C94.2039 81.1971 94.8911 81.2715 95.5717 81.2168C95.9854 81.184 96.399 81.2168 96.806 81.0723C97.0205 80.9958 97.2744 81.0286 97.5107 81.0154C97.6267 81.0089 97.7449 81.0023 97.8631 81.0023C98.1301 81.0045 98.3971 81.022 98.6619 81.0176C98.8348 81.0154 99.0252 81.0308 99.174 80.9629C100.073 80.5449 101.012 80.3523 101.999 80.4202C102.678 80.4683 103.299 80.3129 103.897 80.0044C104.214 79.8402 104.534 79.6651 104.873 79.5601C105.512 79.3609 106.168 79.2143 106.814 79.0349C107.011 78.9801 107.212 78.9079 107.387 78.8051C107.705 78.619 108.037 78.4812 108.405 78.514C108.747 78.5446 108.9 78.3323 109.011 78.085C109.127 77.8268 109.217 77.5467 108.968 77.295C108.55 76.8704 108.138 76.4415 107.718 76.0191C107.657 75.9578 107.563 75.9337 107.486 75.89C107.23 75.739 106.978 75.5814 106.722 75.4326C106.584 75.3516 106.44 75.2816 106.352 75.2334C106.007 75.461 105.731 75.7105 105.409 75.8353C104.998 75.9928 104.547 76.0607 104.109 76.146C103.77 76.2117 103.435 76.1679 103.091 76.1022C102.717 76.03 102.312 76.006 101.938 76.0672C101.494 76.1395 101.08 76.1198 100.658 75.9928C100.546 75.96 100.424 75.9447 100.308 75.9491C99.7386 75.9797 98.7188 75.8134 98.176 75.577C97.9637 75.4851 97.7755 75.4851 97.5829 75.612C96.8367 76.1022 96.0247 76.1482 95.1734 75.9819C94.8561 75.9206 94.5256 75.8856 94.2039 75.8987C93.775 75.9162 93.3482 75.9994 92.9192 76.0366C92.7726 76.0497 92.6106 76.0453 92.4771 75.9928C91.9716 75.8002 91.4464 75.7039 90.9124 75.6317C90.4703 75.5726 90.0348 75.4501 89.5927 75.4238C89.1944 75.3997 88.8333 75.3188 88.4809 75.1305C88.2883 75.0277 88.0673 74.9423 87.8528 74.9183C87.4108 74.8657 86.9643 74.8526 86.52 74.8373C85.8569 74.8132 85.22 74.7038 84.6029 74.4434C84.0076 74.1917 83.4408 73.8109 82.7427 73.9006C82.7142 73.905 82.6836 73.894 82.6551 73.8853C82.1255 73.6883 81.5718 73.6993 81.0181 73.7015C80.4929 73.7015 79.9742 73.6752 79.4949 73.4126C79.3768 73.3491 79.2016 73.336 79.0681 73.3644C78.718 73.4366 78.3963 73.36 78.0549 73.2922C77.5515 73.1915 77.0285 73.2244 76.512 73.1368C76.1137 73.0668 75.6716 73.2725 75.2448 73.3316C74.5226 73.4301 73.8026 73.5439 73.0738 73.3119C72.6952 73.1915 72.2882 73.1171 71.8921 73.0974C71.3428 73.0712 70.789 73.1565 70.2397 73.1237C69.5416 73.0821 68.861 73.0558 68.1541 73.1237C67.2874 73.209 66.4076 73.0493 65.5804 72.675C64.8582 72.349 64.0878 72.1323 63.2781 72.1848C62.7594 72.2176 62.2429 72.3074 61.7264 72.3599C61.4003 72.3927 61.0655 72.4606 60.7481 72.419C60.2886 72.3599 59.8333 72.3293 59.3716 72.3708C58.831 72.419 58.3036 72.3139 57.7718 72.2527C57.0474 72.1695 56.3165 72.1476 55.5899 72.0885C55.3229 72.0666 55.058 72.0185 54.7932 71.9725C54.4562 71.9134 54.1192 71.8565 53.7865 71.7821C53.235 71.6552 52.6945 71.4757 52.1364 71.386C50.7708 71.165 49.4664 70.7776 48.2321 70.1517C47.9147 69.9897 47.5887 69.8431 47.2604 69.703C47.0459 69.6111 46.8249 69.517 46.5973 69.4711C46.0852 69.3704 45.5665 69.3135 45.0544 69.2106C44.8705 69.1734 44.6933 69.0706 44.5248 68.9787C44.0958 68.7423 43.6231 68.5825 43.2686 68.2214C43.2204 68.1733 43.1307 68.1711 43.0628 68.1383C42.8637 68.0398 42.6689 67.9282 42.4675 67.8363C42.0123 67.624 41.6053 67.3154 41.1041 67.1928C40.7167 67.0965 40.3162 66.9849 39.9748 66.7836C39.5546 66.5363 39.1673 66.2168 38.8083 65.8819C38.4013 65.5033 37.9767 65.1597 37.4996 64.8774C37.0991 64.641 36.8321 64.2974 36.6658 63.8575C36.5016 63.422 36.2237 63.0609 35.867 62.7523C35.565 62.4897 35.2564 62.2205 35.0157 61.9054C34.7947 61.6165 34.5758 61.3517 34.2694 61.1504C33.8601 60.8834 33.6369 60.4982 33.5603 60.0079C33.4771 59.4783 33.3568 58.9531 33.2408 58.43C33.2189 58.3359 33.1511 58.244 33.0854 58.1674C32.8337 57.8785 32.6674 57.5546 32.6018 57.1738C32.5843 57.0754 32.5405 56.9725 32.4836 56.8893C32.3019 56.6223 32.21 56.3269 32.1881 56.0074C32.1684 55.7163 32.0459 55.4734 31.9036 55.2195C31.6542 54.7796 31.4134 54.3375 31.1223 53.9239C31.0304 53.7948 30.9866 53.6241 30.956 53.4643C30.8685 52.9982 30.8006 52.5276 30.724 52.0593C30.7153 52.0002 30.7043 51.9411 30.6868 51.8864C30.5314 51.4049 30.387 50.9213 30.2163 50.4464C30.074 50.0502 29.9405 49.6607 29.993 49.2274C30.0083 49.1092 29.9252 48.9735 29.8727 48.8531C29.702 48.4482 29.5838 48.039 29.6998 47.5904C29.7282 47.4809 29.7173 47.3496 29.691 47.238C29.5597 46.6559 29.4087 46.0803 29.2796 45.4981C29.2249 45.253 29.168 44.997 29.1811 44.7497C29.2139 44.1588 29.1089 43.5854 28.9798 43.0207C28.7368 41.9593 28.82 40.922 29.122 39.889C29.1636 39.7489 29.2096 39.5979 29.1964 39.4557C29.1352 38.7991 29.1395 38.1447 29.2468 37.4926C29.3299 36.9936 29.435 36.4968 29.3037 35.9891C29.2796 35.8928 29.3081 35.7812 29.3146 35.6761C29.365 34.8729 29.424 34.0719 29.4656 33.2687C29.4897 32.8114 29.6232 32.4065 29.853 32.0038C30.1222 31.5311 30.3957 31.054 30.5423 30.5134C30.8137 29.5176 31.1333 28.5416 31.8752 27.7646C32.0743 27.5546 32.199 27.2744 32.3544 27.0227C32.6171 26.6004 32.9169 26.2174 33.3436 25.9438C33.4903 25.8497 33.6216 25.7228 33.7398 25.5915C34.1534 25.1253 34.613 24.7358 35.2498 24.6088C35.5256 24.5541 35.797 24.4797 36.0946 24.4075L36.1121 24.4053ZM2.97808 18.4197C3.17724 18.4832 3.28668 18.5401 3.40048 18.5488C4.38968 18.6232 5.33074 19.0719 6.34839 18.9165C6.42061 18.9056 6.49722 18.9362 6.57163 18.934C6.71826 18.9274 6.87145 18.9362 7.00714 18.8924C7.52144 18.7217 8.0029 18.783 8.47781 19.0347C8.91332 19.2645 9.37511 19.3433 9.86315 19.2163C9.99227 19.1835 10.1258 19.1332 10.2571 19.131C10.7889 19.1244 11.3229 19.1332 11.8547 19.1397C12.1961 19.1419 12.5375 19.1551 12.8767 19.1485C13.1744 19.1419 13.4698 19.1069 13.7674 19.0982C14.0147 19.0894 14.2642 19.0982 14.5531 19.0982C14.505 18.5554 14.4328 18.0674 14.4262 17.5793C14.4196 17.0803 14.4809 16.5792 14.5137 16.0517C14.1067 16.0167 13.7499 15.997 13.3976 15.9555C13.1043 15.9204 12.8133 15.8635 12.5222 15.8088C12.0407 15.7169 11.5789 15.5462 11.0734 15.5747C10.4321 15.6097 9.79093 15.6053 9.14969 15.6075C8.92647 15.6075 8.68791 15.6206 8.48657 15.5462C8.14079 15.4193 7.8147 15.439 7.47986 15.5374C7.14064 15.6381 6.81017 15.6119 6.46439 15.544C6.21052 15.4937 5.90633 15.4652 5.68091 15.5593C5.28042 15.7257 4.88428 15.7935 4.45971 15.7804C4.36123 15.7782 4.22993 15.7826 4.16865 15.8416C3.80754 16.1809 3.44206 16.5376 3.39829 17.0606C3.35889 17.5268 3.29542 17.9754 2.98027 18.4241L2.97808 18.4197ZM66.8432 63.0172C66.8235 63.039 66.8016 63.0609 66.7819 63.0828C67.5063 63.7591 67.6157 64.5119 67.0795 65.3457C67.1539 65.4136 67.2108 65.5142 67.2831 65.5252C67.8521 65.6149 68.3642 65.9104 68.9726 65.8863C69.4584 65.8688 69.9508 65.9301 70.4389 65.8556C70.5242 65.8425 70.6183 65.8666 70.7037 65.8863C71.2552 66.0067 71.8023 66.1774 72.3604 66.243C73.1264 66.3327 73.8989 66.359 74.6715 66.3853C75.177 66.4028 75.6913 66.3152 76.1859 66.3853C76.8074 66.4706 77.383 66.3634 78.0089 66.2365C77.8995 66.0045 77.7616 65.8753 77.5647 65.836C77.1095 65.744 76.7418 65.5033 76.3916 65.2144C76.2734 65.1181 76.1005 65.0831 75.9495 65.035C75.2317 64.8074 74.4986 64.6148 73.7961 64.3456C73.3562 64.1771 72.9601 63.8904 72.5399 63.6628C72.4239 63.5993 72.3035 63.5314 72.1765 63.4964C71.3033 63.2513 70.5045 62.8661 69.7976 62.2949C69.7123 62.2271 69.6007 62.1899 69.5591 62.1702C69.2658 62.4591 69.0404 62.7436 68.7559 62.9427C68.3379 63.2316 67.8455 63.1879 67.3662 63.1113C67.1911 63.085 67.0182 63.05 66.8432 63.0193V63.0172ZM41.6622 43.5635C41.6337 43.5766 41.6053 43.5919 41.5768 43.6051C41.66 43.9727 41.7191 44.3492 41.8307 44.7081C41.9926 45.2311 42.2399 45.7323 42.3647 46.2641C42.4632 46.6931 42.6273 47.0826 42.8155 47.47C42.8943 47.6297 42.9994 47.7786 43.065 47.9449C43.2598 48.4329 43.6296 48.6496 44.133 48.689C44.9778 48.7524 45.8247 48.8115 46.6695 48.8838C47.2013 48.9297 47.7309 48.9998 48.2627 49.0545C48.3787 49.0654 48.4991 49.0545 48.6895 49.0479C48.4969 48.8903 48.3809 48.7962 48.2671 48.7021C47.6915 48.225 47.0787 47.8223 46.3587 47.575C45.8838 47.4131 45.3958 47.1942 45.155 46.7018C44.9011 46.1853 44.4547 45.8571 44.0433 45.4981C43.4808 45.0101 42.8943 44.5527 42.3165 44.0822C42.0999 43.9071 41.881 43.7342 41.6622 43.5591V43.5635ZM34.5846 53.5103C34.7968 54.2237 34.9807 54.8496 35.1689 55.4712C35.2192 55.6419 35.2739 55.8104 35.344 55.9745C35.4775 56.2875 35.6197 56.5961 35.762 56.9046C35.8364 57.0666 35.8933 57.2461 36.0027 57.3817C36.32 57.7735 36.4557 58.2134 36.4579 58.7102C36.4579 59.0603 36.6198 59.3383 36.8846 59.5637C37.5718 60.1502 38.3904 60.31 39.2592 60.2968C39.4583 60.2946 39.6553 60.2509 39.9551 60.2159C39.7253 60.0255 39.5918 59.881 39.4299 59.7913C38.909 59.5046 38.3729 59.2398 37.8454 58.964C37.7404 58.9093 37.6375 58.8437 37.5434 58.7714C36.7927 58.1871 36.7074 57.2942 37.3311 56.5786C37.388 56.5129 37.4405 56.4451 37.5062 56.3663C37.3289 56.2962 37.1757 56.2393 37.0247 56.1781C36.6177 56.0139 36.2806 55.7404 36.1449 55.3311C35.9064 54.6111 35.3834 54.1427 34.8406 53.6788C34.7903 53.635 34.7268 53.6044 34.5846 53.5125V53.5103ZM57.6996 69.0005C57.4457 68.983 57.2378 68.9808 57.0299 68.9546C56.3208 68.8627 55.6117 68.751 54.9005 68.6701C54.1367 68.5825 53.4079 68.3921 52.7163 68.0507C52.5172 67.9522 52.3071 67.8713 52.1013 67.7881C51.6746 67.613 51.2106 67.5102 50.8692 67.1731C50.6548 66.963 50.4075 66.8602 50.1098 66.8427C49.7597 66.823 49.4379 66.7157 49.149 66.51C49.0768 66.4597 48.9959 66.4159 48.9127 66.3853C48.2036 66.138 47.5296 65.7681 46.7461 65.7966C46.676 65.7987 46.6038 65.755 46.5294 65.7397C45.9604 65.6215 45.3936 65.5033 44.8246 65.3895C44.7523 65.3742 44.6735 65.3895 44.551 65.3895C44.621 65.4792 44.6407 65.5252 44.6736 65.5449C45.2929 65.8972 45.9035 66.2671 46.6323 66.3743C46.8336 66.405 47.0612 66.4575 47.2166 66.5779C47.8032 67.0265 48.5188 67.1731 49.1819 67.4204C49.961 67.7115 50.7795 67.9041 51.5893 68.1032C52.6879 68.3746 53.7931 68.6088 54.8939 68.8692C55.8131 69.0881 56.7301 69.2413 57.6996 69.0027V69.0005ZM97.003 72.5043C96.4756 72.4628 95.9525 72.4343 95.4229 72.4846C95.1297 72.5109 94.8298 72.5218 94.5387 72.4846C93.7837 72.3927 93.0374 72.2308 92.2802 72.1739C91.6455 72.1257 91.0087 72.1826 90.3652 72.0951C89.4505 71.9703 88.5313 71.9069 87.6624 71.5501C87.2357 71.3751 86.8002 71.2241 86.3603 71.0862C86.0364 70.9855 85.6993 70.9264 85.3667 70.8498C85.2069 70.8126 85.0472 70.7776 84.8874 70.7513C84.6664 70.7141 84.4388 70.7119 84.2243 70.6507C83.8063 70.5325 83.4058 70.5631 83.0359 70.6966C83.327 70.8082 83.6334 70.9199 83.9333 71.0468C84.1915 71.1562 84.4322 71.3247 84.6992 71.3948C85.3273 71.5611 85.9401 71.7624 86.6229 71.7405C87.1897 71.7209 87.7741 71.8544 88.3015 72.1454C88.5007 72.2549 88.7523 72.2811 88.9821 72.3271C89.3148 72.3927 89.6518 72.4431 89.9866 72.5C90.0873 72.5175 90.1967 72.5569 90.2908 72.535C90.8576 72.3993 91.3851 72.605 91.9191 72.721C92.6041 72.872 93.276 73.0143 93.9916 72.8917C94.4578 72.8107 94.9699 72.7385 95.412 72.8523C96.0357 73.0121 96.4931 72.7407 97.0008 72.5087L97.003 72.5043ZM33.766 34.1879C33.6785 34.5293 33.6807 34.9889 33.4596 35.2734C33.1423 35.6827 32.9322 36.1007 32.8381 36.5953C32.8271 36.6522 32.7878 36.7025 32.7703 36.7594C32.6171 37.2212 32.5011 37.6873 32.5777 38.1929C32.7856 38.0419 32.9606 37.8777 33.1664 37.7749C33.3852 37.6655 33.6326 37.6151 33.8711 37.5363C33.7726 37.0177 33.8536 36.5603 34.1753 36.162C34.5036 35.7549 34.9719 35.6126 35.4337 35.5317C35.6088 35.2209 35.5606 34.9955 35.3023 34.8007C35.2104 34.7307 35.1404 34.6256 35.077 34.525C34.996 34.4024 34.8997 34.3564 34.7487 34.3411C34.4139 34.3083 34.0833 34.2383 33.766 34.1857V34.1879ZM53.27 64.9912C53.3904 65.0459 53.4779 65.1028 53.5764 65.1312C54.6072 65.4267 55.6424 65.7025 56.7104 65.825C57.774 65.9476 58.8376 66.0657 59.9012 66.1796C60.0522 66.1949 60.2076 66.1642 60.3608 66.1533C60.3673 66.1183 60.3739 66.0811 60.3805 66.046C60.2579 65.9826 60.1157 65.8425 60.015 65.8688C59.5248 65.9891 59.0696 65.8141 58.6013 65.755C58.157 65.7003 57.774 65.5274 57.4238 65.256C57.31 65.1663 57.1765 65.0919 57.0386 65.0481C56.6841 64.9387 56.323 64.8489 55.9663 64.7526C55.406 64.6016 54.8479 64.4375 54.2833 64.3018C53.9638 64.2252 53.6377 64.2362 53.3116 64.3631C53.2985 64.5644 53.2853 64.757 53.2722 64.9934L53.27 64.9912ZM90.002 65.6237C90.0654 66.0789 90.1595 66.3503 90.5666 66.4925C91.3347 66.7573 92.0745 67.1009 92.8251 67.4117C92.8383 67.4182 92.8514 67.4248 92.8645 67.4336C93.4204 67.7903 93.7421 68.2718 93.6918 68.959C93.6852 69.0596 93.6743 69.1625 93.6655 69.261C94.0026 69.4142 94.3046 69.5126 94.67 69.4273C94.9064 69.3704 95.1712 69.4448 95.4229 69.4492C95.8387 69.4557 96.2545 69.4492 96.6506 69.4492C96.0007 69.0356 95.3463 68.6285 94.6985 68.2061C94.5125 68.0857 94.368 67.8669 94.171 67.8012C93.6633 67.6371 93.2562 67.311 92.8032 67.0571C92.4531 66.8624 92.0942 66.6763 91.7374 66.4947C91.1838 66.2124 90.6257 65.9366 90.002 65.6237ZM46.1202 38.7138C45.9976 38.5803 45.9341 38.508 45.8663 38.4402C45.6562 38.2345 45.4417 38.0309 45.2294 37.8252C45.155 37.753 45.0872 37.6742 45.0106 37.6042C44.5379 37.1599 43.8748 36.9367 43.5399 36.3305C43.5268 36.3064 43.4961 36.2911 43.4699 36.2758C43.135 36.0876 42.798 35.8993 42.4632 35.7089C42.3341 35.6345 42.1786 35.5798 42.0889 35.4726C41.7431 35.0655 41.3536 34.7044 40.9553 34.3543C40.9225 34.3258 40.9072 34.2777 40.8743 34.247C40.5767 33.9734 40.279 33.7021 39.9792 33.4307C40.2024 33.9713 40.4191 34.4965 40.9093 34.8292C40.9925 34.8861 41.0428 34.9867 41.1063 35.0699C41.4761 35.5492 41.776 36.0897 42.3165 36.4202C42.426 36.488 42.496 36.6172 42.5901 36.7135C42.682 36.8098 42.7696 36.9148 42.8746 36.9936C43.3276 37.3219 43.7019 37.7618 44.2665 37.9259C44.3344 37.9456 44.3847 38.0178 44.4503 38.0506C44.6867 38.1732 44.9187 38.3045 45.166 38.403C45.4417 38.5124 45.7284 38.589 46.1202 38.7159V38.7138ZM48.5034 52.2672C48.4881 52.311 48.4728 52.3569 48.4575 52.4007C48.7551 52.6174 49.0769 52.8078 49.3439 53.0573C49.5627 53.2608 49.8078 53.3593 50.077 53.4512C50.4009 53.5606 50.7292 53.67 51.0224 53.8385C51.3244 54.0114 51.6418 54.0486 51.9635 54.0333C52.364 54.0136 52.7645 53.9567 53.1628 53.8976C53.4911 53.8495 53.8106 53.7598 54.0666 53.4753C53.9156 53.4315 53.8018 53.3921 53.6858 53.3658C52.817 53.1732 51.9372 53.0222 51.0837 52.7793C50.46 52.602 49.8581 52.3526 49.1972 52.3263C48.9652 52.3175 48.7332 52.2869 48.5013 52.2672H48.5034ZM36.749 46.6099C36.7183 46.6187 36.6877 46.6274 36.6571 46.634C36.6811 46.8091 36.7008 46.9841 36.7293 47.1592C36.8037 47.5969 36.8125 48.0631 36.9766 48.4658C37.2326 49.0982 37.3552 49.746 37.469 50.4092C37.5128 50.6608 37.6309 50.8994 37.7316 51.1948C38.2175 50.7703 38.7318 50.7856 39.3205 50.8972C39.1476 50.5536 38.9966 50.2822 38.8718 49.9977C38.5698 49.3105 38.0752 48.7437 37.6922 48.109C37.388 47.6035 37.0641 47.1089 36.749 46.6099ZM48.2758 42.7559C47.9147 42.5064 47.5624 42.2898 47.1225 42.2898C47.0349 42.2898 46.9452 42.257 46.8643 42.2219C46.3281 42.0031 45.7219 41.9921 45.2207 41.6682C45.1616 41.631 45.0762 41.6289 45.004 41.6223C44.6539 41.5895 44.3431 41.4581 44.052 41.2634C43.9207 41.1758 43.7631 41.1277 43.6165 41.062C43.6034 41.0905 43.5881 41.1189 43.5749 41.1474C44.3409 41.7799 45.1069 42.4145 45.8641 43.0404C46.652 42.675 47.453 42.6049 48.278 42.7559H48.2758ZM77.0373 59.3689L77.0832 59.3164C76.8819 59.0844 76.6083 58.8831 76.4966 58.6139C76.28 58.0996 75.9123 57.7385 75.5184 57.3839C75.4965 57.3642 75.4856 57.3314 75.4615 57.3161C75.3761 57.2614 75.293 57.1716 75.2011 57.1629C74.7809 57.1191 74.4635 56.8893 74.12 56.6661C73.7895 56.4516 73.3715 56.375 73.0235 56.1824C72.6361 55.968 72.2838 55.6856 71.9117 55.4405C71.8308 55.388 71.7279 55.3705 71.6338 55.3377C71.6207 55.3596 71.6075 55.3836 71.5966 55.4055C73.4109 56.7274 75.2252 58.0471 77.0394 59.3689H77.0373ZM103.256 73.3207C103.223 73.2506 103.218 73.2112 103.199 73.2025C102.402 72.8414 101.715 72.3205 101.069 71.7405C100.929 71.6158 100.791 71.5786 100.675 71.6421C100.52 71.9178 100.419 72.1739 100.251 72.373C100.087 72.5678 99.8546 72.7057 99.6051 72.907C100.012 72.9946 100.358 73.1302 100.737 73.0055C101.076 72.8917 101.437 72.8786 101.745 73.0318C102.218 73.2659 102.722 73.2462 103.253 73.3207H103.256ZM58.575 69.1428C58.9777 69.2697 59.3541 69.3988 59.7371 69.5017C59.9187 69.5499 60.1135 69.5717 60.3017 69.5695C60.5227 69.5674 60.746 69.5367 60.9648 69.4973C61.3368 69.4295 61.7395 69.4536 62.1094 69.1143C61.4156 69.0618 60.7897 68.9743 60.1616 68.9765C59.632 68.9765 59.1024 69.0837 58.575 69.1428ZM46.687 56.8959C45.8925 57.0535 45.1922 56.6967 44.4044 56.8193C44.6364 57.0797 44.8377 57.2307 45.0959 57.338C45.4723 57.4955 45.8225 57.7188 46.1683 57.9026C46.3347 57.5787 46.4813 57.292 46.6848 56.8937L46.687 56.8959ZM57.7105 46.8944C58.5334 48.1309 61.1903 49.6344 62.3086 49.7592C62.0766 49.606 61.8271 49.4812 61.5842 49.3455C61.1705 49.1157 60.7569 48.8838 60.3477 48.6452C60.0544 48.4745 59.7874 48.2403 59.4745 48.1222C58.9996 47.9427 58.5925 47.7085 58.2905 47.2905C58.1635 47.1154 58.03 46.925 57.7127 46.8944H57.7105ZM69.651 70.1451C69.6642 70.0948 69.6773 70.0445 69.6904 69.9941C69.5197 69.9241 69.3446 69.7862 69.1805 69.7971C68.5721 69.8431 68.0052 69.6374 67.4187 69.563C66.9701 69.5061 66.5302 69.3616 66.029 69.3967C66.6965 69.8431 67.3552 70.0423 68.0184 70.0335C68.2241 70.0313 68.432 70.0751 68.6377 70.0882C68.9748 70.1101 69.3118 70.1232 69.6488 70.1407L69.651 70.1451ZM76.6039 70.3399C77.2671 69.9985 77.9564 70.388 78.7049 70.2874C77.6369 69.7052 77.5975 69.6046 76.6039 70.3399ZM87.5224 64.0567C87.0715 63.4767 86.4653 63.0916 86.0583 63.0828C86.3866 63.5708 86.9402 63.7415 87.5224 64.0567ZM81.3005 70.6441C80.889 70.5062 79.8582 70.4012 79.3877 70.4778C79.5409 70.55 79.6437 70.6354 79.7466 70.6375C80.274 70.6507 80.8037 70.6441 81.3005 70.6441ZM36.6767 28.1717C36.6986 28.1542 36.7183 28.1389 36.7402 28.1214C36.622 27.9178 36.506 27.7143 36.3572 27.4561C36.215 27.583 36.1165 27.6705 35.9939 27.78C36.2566 27.931 36.4666 28.0513 36.6767 28.1717ZM33.7004 30.8526C34.1031 30.776 34.125 30.7323 34.0724 30.0845C33.9324 30.3755 33.8208 30.6031 33.7004 30.8526ZM36.8496 41.5326C36.8803 41.2787 36.7336 41.1386 36.5192 41.0445C36.6286 41.2065 36.7402 41.3706 36.8496 41.5326ZM77.267 59.4586C77.2429 59.4849 77.2211 59.509 77.197 59.5352C77.2933 59.6009 77.3918 59.6644 77.488 59.73C77.5034 59.7081 77.5187 59.6862 77.534 59.6665C77.4443 59.5987 77.3545 59.5287 77.267 59.4608V59.4586Z" fill="black"/>
<path d="M24.7386 18.3126C24.6095 18.2994 24.4716 18.3038 24.3425 18.2688C23.6706 18.0872 22.9987 17.9033 22.3356 17.6998C22.1408 17.6407 21.9329 17.54 21.7972 17.3956C21.5258 17.1067 21.1976 16.9097 20.8737 16.6996C20.4097 16.402 20.0618 16.0081 19.8451 15.4938C19.6722 15.0823 19.4599 14.6884 19.2695 14.2835C18.7968 13.2746 19.403 12.3795 20.0836 12.1191C20.9306 11.7952 21.8541 12.2263 22.189 13.1127C22.2371 13.2374 22.2853 13.3687 22.2962 13.5C22.3312 13.9224 22.6573 14.1741 22.8587 14.498C22.8981 14.5615 23.0119 14.5768 23.0906 14.6162C23.3161 14.73 23.5502 14.8285 23.7647 14.9598C24.0908 15.1567 24.2265 15.1567 24.5219 14.9204C24.7189 14.7628 24.9334 14.6249 25.1238 14.4608C25.2179 14.3798 25.3054 14.2682 25.3426 14.1522C25.4389 13.8458 25.5965 13.5854 25.8197 13.3556C25.9313 13.2418 26.0123 13.0952 26.0933 12.9551C26.3866 12.4452 26.8111 12.1629 27.4108 12.1891C28.0104 12.2176 28.4218 12.5415 28.6429 13.082C28.9405 13.8108 28.9405 14.5089 28.3387 15.113C28.2577 15.194 28.2074 15.3099 28.157 15.415C27.971 15.8045 27.7981 16.1985 27.6055 16.5837C27.402 16.9907 27.0672 17.249 26.6339 17.3934C26.5025 17.4372 26.3603 17.5203 26.2771 17.6276C25.8832 18.1353 25.3492 18.2994 24.7364 18.3126H24.7386Z" fill="black"/>
</svg>
