<?xml version="1.0" ?>
<svg version="1.1" id="Layer_1" xmlns="http://www.w3.org/2000/svg" xmlns:xlink="http://www.w3.org/1999/xlink" x="0px" y="0px" viewBox="0 0 1080 1080" style="enable-background:new 0 0 1080 1080;" xml:space="preserve">
	<g id="1">
		<animate attributeName="display" fill="freeze" begin="0s" repeatCount="indefinite" dur="0.45" values="inline;none;none;"/>
		<path d="M623.9,550c4.6,2,7.5,5.2,11.7,6c1.6,0.3,2.2,1.2,2.4,2.8c0.9,0.2,1.8,0.2,2.7,0.6c0.8,0.4,1.5,1.1,2.3,1.7
			c5.7,3.9,11.7,7.4,16.2,12.8c3.2,3.8,7.8,5.2,12,7.2c3.2,1.6,6.6,2.6,9.6,4.5c5,3.2,10,6.2,15.5,8.5c0.4,0.2,0.7,0.6,1.5,1.3
			c-0.2-3.1,1-5.9-0.7-8.7c-0.4-0.7-0.2-1.9-0.2-2.9c0-5.5-0.1-11,0-16.5c0.1-2.4,0.7-4.7,0.9-7.1c0.3-2.4-0.6-4.9,1-7.1
			c-0.7-3.3,0.9-6.3,1-9.6c0.1-4.2,2.4-7.7,4.4-11.2c2.5-4.5,5.7-8.7,8.6-13c0.5-0.8,0.9-1.7,1.6-2.2c1.2-1,2.6-1.8,4.2-2.9
			c5,0,10.4,0,15.7,0c0.5,0.5,0.8,0.8,1.4,1.4c0.1,3.2,0.1,6.5,0.9,9.8c1.1,4.5-0.7,9-1,13.6c-0.1,2-1.4,4.1-2.3,6
			c-1.3,2.7-1.7,5.4-1.6,8.4c0.1,3-0.1,6,0,9c0.3,7.1-1.8,14-1,21.1c-1.9,5.6-1,11.4-0.9,17.1c0.1,4.8-1.7,9.3-1,14.2
			c5.6,3.9,11.2,8,16.9,11.8c2.7,1.8,5.7,3.1,8.6,4.6c5.3,2.9,10.6,5.9,15.8,8.8c2.4,1.4,5.1,2.5,7.2,4.3c2,1.7,4.3,2.5,6.5,3.7
			c9.9,5.6,19.9,10.9,29.4,17.1c3.9,2.6,7.2,5.9,10.9,8.8c2,1.5,4.2,2.7,6.2,4.3c4.1,3.3,8.7,6.1,10.6,11.5c0.6,1.8,1.4,3.5,1.8,5.3
			c0.3,1.7-0.3,3.6,1.1,5.1c-0.6,4.9,2.4,9.1,3.2,13.7c0.1,0.4,0.8,0.8,0.8,1.2c0,6.9,1.8,13.7,1,20.6c-0.1,1.2-0.5,2.4-1,3.6
			c-1.6,3.8-3.2,7.7-5,11.4c-1.3,2.8-2.8,5.5-4.2,8.2c-3.2,6-6.4,12-9.7,18.3c2.5,0,5,0.2,7.4,0c6.3-0.6,12.3,1.3,18.6,1.1
			c6.2-0.2,12.3,0,18.5,0c6.3,0,12.7-0.1,19,0c1.5,0,3,0.8,4.6,0.9c1.6,0.2,3.3,0,5,0c7.4,0.3,14.7-1.7,22.1-1.1
			c1,0.1,2-0.7,3.1-0.9c3.3-0.7,6.6-1.2,10.1-1.1c4,0.2,8,0,11.8,0c1.1,0.9,2.1,1.8,3.2,2.7c-1.7,3.2-1.4,6.5-1.3,9.7
			c0.1,2-0.6,3.7-1.5,5.6c-3.8-0.1-7.4,0.3-11.1,1.8c-1.7,0.7-3.9,0.1-5.9,0.1c-2.5,2.3-5.9,2.9-8.8,2.9c-7.6,0-15,1.6-22.6,1.2
			c-7.6-0.4-15.3,0-23-0.1c-2.2,0-4.4-0.6-6.6-1c-2-0.4-4.3,1-6.1-0.9c-0.2-0.3-1-0.1-1.5-0.1c-5,0-10.1-0.7-14.9,0.2
			c-6.9,1.3-13.7,0.6-20.6,0.8c-7,0.2-14.1,0.7-20.9-0.2c-6.4-0.8-12.7-0.6-19.1-0.8c-6.3-0.1-12.7,0.1-19-0.1
			c-2.6-0.1-5.1,0.6-7.6,1c-2.5,0.4-5.1-0.6-7.6,0.9c-0.8,0.5-2.3,0.2-3.4,0.1c-5.8-0.7-11.3,1.3-17.1,1.1
			c-5.8-0.2-11.7-0.7-17.4,0.1c-5.1,0.8-10.1,0.7-15.1,0.8c-5.2,0.1-10.3,0.3-15.5,0c-9.2-0.6-18.3,1.2-27.6,1.1
			c-9.3-0.1-18.6,0-28,0c-9.3,0-18.6,0.1-28,0c-5.2-0.1-10.3-1.5-15.6-1c-5.9-2.1-12.1-0.5-18.1-1c-9.3,2.1-18.7,0.7-28.1,0.9
			c-11.4,0.3-22.7-1.7-34-0.9c-6.4-1.9-13.1-0.1-19.5-1.2c-6.6-1.1-13.1-0.7-19.6-0.8c-6.7-0.1-13.4,0.5-20-0.2
			c-5.7-0.6-11.5,0-17-1c-6.4-1.1-12.7-0.8-19.1-0.7c-6.6,0-13-1.8-19.6-1.1c-0.7,0.1-1.4-0.6-1.7-0.8c-1.7,0.3-3.1,0.8-4.4,0.8
			c-8,0.1-16-0.1-24,0.1c-5,0.1-10,0.8-15.1,0.9c-5.2,0.2-10.3,0.1-15.5,0c-2.7-0.1-5.4-0.7-8.1-0.9c-2.7-0.2-5.5,0.6-7.9-0.2
			c-3.1-1-6.1-0.6-9.1-0.9c-0.9-0.1-1.7-0.7-2.6-0.8c-4.5-0.8-9.1-1.4-13.6-2.1c-1.5-0.2-3.2,0.5-4.7-0.9c-0.6-0.6-2.5-0.5-3.4,0
			c-2.5,1.5-5.1,0.9-7.6,0.9c-14.6,0.1-29.3,0-43.9,0.1c-4.7,0-9.5,0-14,1.1c-4.3,1.1-8.4,0.7-12.6,0.7c-4.6,0-9,1.8-13.6,1.1
			c-2.9,1.8-6,0.9-9.1,1c-8.5,0.1-17-0.1-25.5,0.1c-2.8,0.1-5.4-0.8-8.1-1c-2.6-0.2-5.3,0.2-8-0.1c-2.1-0.2-4.1-1.2-6.3-1.8
			c0-4.8,0-9.2,0-13.6c0.4-0.7,0.7-1.4,1.1-2.2c1.3-0.4,2.8-1.3,4.2-1.3c2.4,0,4.9-0.9,7.1,0.8c0.6,0.5,1.9,0.1,2.9,0.1
			c10.2,0,20.3,0.1,30.5,0c2.9,0,5.7-0.8,8.6-0.9c3-0.2,6.2,0.6,8.9-0.2c3.1-0.9,6.1-0.6,9.1-0.9c2-0.2,4-0.7,6.1-1
			c2-0.2,4.2,0.4,6.1-0.9c0.7-0.5,1.9-0.1,2.9-0.1c4.6,0,9.2,0,13.9,0c-4-7.8-7.8-15.3-11.9-22.7c-3-5.4-5.2-11.2-7.2-17
			c-0.3-0.9-0.7-1.8-0.7-2.7c-0.1-1.8,0.2-3.7-0.1-5.5c-0.6-4.3,1.2-8.3,1.1-12.6c0-3.9,2.4-7.3,3.1-11.2c0.1-0.7,0.8-1.5,0.7-2.2
			c-0.1-4.2,1.6-8.1,2.2-12.2c0.3-2,1.7-4,3.1-5.6c2.5-2.9,5.3-5.6,8.9-7.4c2.1-1.1,3.9-2.8,5.7-4.3c7.8-6.3,16.1-12.1,24.9-17.1
			c9.2-5.3,18.8-9.7,27.4-16c4.8-3.5,10.7-5.6,15.9-8.6c7.1-4,14.1-8,20.6-13.1c3.4-2.7,7.3-4.8,10.2-8.5c0.6-7.8-0.9-16,1.4-24.3
			c-4.4,0-8.4,0-12.4,0c-9.9-5.3-16.3-13.7-20.6-23.6c-1.6-3.7-2.9-7.8-2.2-12.1c-1.4-2.4-1-5-1-7.6c0-2.5,0-5,0-7.6
			c1.6-0.7,3-1.9,4.6-2.1c4-0.6,8-0.7,12-1c0.9,1.8,1.1,3.6,1.5,5.5c1.1,5,0.5,10.4,3.7,15c1.8,2.6,3.2,5.4,6.3,7.8
			c-0.6-6.4-2.8-12-4.1-18.2c0.3-0.7,0.8-1.8,1.3-3.1c5.1-0.5,9.7-3.6,15.6-3.1c2.2,6.9,4.4,13.9,6.7,20.9c0.4-0.4,0.9-0.9,1.4-1.4
			c0.2-1.9-0.1-3.7,0.9-5.6c0.8-1.4-0.5-3.5,0.7-5.2c1.1-1.5-0.1-3.7,1.2-5.5c0.9-1.2,0.4-3.3,0.9-5.1c0.5-1.8,1.5-2.8,2.8-4.3
			c4.6,0.8,9.4,1.6,14.3,2.4c1.5,1.1,1.4,2.7,1,4.4c-0.1,0.6-0.8,1.1-0.8,1.7c0.2,5.2-0.8,10.2-2,15.2c-0.4,1.7,0.3,3.4-0.9,5.2
			c-0.8,1.3-0.5,3.3-0.9,5c-1.2,4.8-2.5,9.6-4.2,14.3c-0.2,0.4,0,1,0,1.5c-0.8,0.8-1.7,1.7-2.7,2.7c-1-0.4-2.2-0.8-3.8-1.4
			c-0.3,0.5-0.6,1.3-1.3,2.7c0,4.4,0,9.8,0,15.4c5.4-2.7,10.6-5.3,15.8-7.9c1.9-1,3.9-1.9,5.7-3.2c5.3-3.9,11.5-6,17.3-8.8
			c2.6-1.3,5.4-2.5,7.7-4.3c3.8-3.1,8.4-4.7,12.8-6.5c2.7-1.1,5.4-2.5,8.4-2.6c0.6,0,1.2-0.6,1.7-0.5c4.9,0.6,9.3-1.5,13.9-3.2
			c0.8-3.8,4.9-3.4,7.6-5.6c-1.7-0.8-3.2-2.2-4.7-2.1c-4.2,0.1-7.4-2.3-11.1-3.5c-4.3-1.3-8.6-2.6-12.9-3.7c-2-0.5-3.9-1.9-5.8-2.8
			c-11.4-5.4-22.1-11.9-32.8-18.6c-5.6-3.5-10.3-7.6-14.9-12.2c-2.2-2.1-4.2-4.2-7.2-5.5c-2.8-1.2-5.3-3.4-7.7-5.5
			c-4.6-4-9-8.2-13.4-12.4c-0.7-0.6-1.1-1.5-1.5-2.4c-3.2-5.9-6.3-11.7-9.4-17.6c-1.4-2.6-2.2-5.4-2.7-8.4
			c-0.8-4.6-1.4-9.3-3.4-13.5c-0.9-1.8-0.2-3.6-1.1-5.6c-1.2-2.6-1.2-5.9-1.3-8.9c-0.2-5.8-0.1-11.7,0-17.5c0-1.5-0.7-3.2,0.9-4.7
			c0.5-0.5,0.4-2,0-2.9c-1.8-5-0.7-10.1-0.9-15.1c-0.2-3.2,0.2-6.3-0.1-9.5c-0.4-5.2,1.5-10,2.6-15c1.9-9,6.1-17.2,8.6-26
			c1-3.7,3-7.1,4.9-10.4c4.1-6.8,6.2-14.4,8.9-21.8c1.2-3.2,2.5-6.3,3.3-9.6c1.9-8,6.8-14.3,11.1-20.9c1.9-3,5-5.2,8.1-8.3
			c-1.8,0-3.1,0-4.4,0c-13.6,0-27.3-0.2-40.9,0.1c-9.4,0.2-18.1-2.5-26.9-5.1c-1.2-0.3-2.1-1.4-2.9-2c1.4-5.1,1.7-10.3,3.9-14.9
			c2.7,0,5,0,7.3,0c1.5,2.3,4.5-0.2,6.2,1.9c0.3,0.4,1.6,0.1,2.4,0.1c15.1,0,30.3,0,45.4,0c2.2,0,4.4-0.7,6.6-0.9
			c2.2-0.2,4.5,0.5,6.4-0.2c2.9-1,5.7-0.7,9.1-0.9c2-2.7,4.5-5.4,6.2-8.6c4.5-8.1,10.1-15.5,15.4-23c3.8-5.3,8.8-9.7,13.3-14.5
			c8.9-9.5,17.1-19.5,24.3-30.4c1.3-2,2.4-4.1,4-5.8c4.6-5.2,8.8-10.8,12-17c0.6-1.1,1.8-1.9,2.8-2.9c0.7,0.6,1.2,0.9,1.8,1.3
			c1.2-1.7,2.4-3.3,3.3-4.6c4.4-1.6,7.7,0.7,10.9,2.1c9.9,4.2,20.1,7.6,29.9,12.3c8.4,4.1,16.2,8.9,24.5,13c0.3,0.1,0.6,0.1,1.1,0.2
			c1.9,0,3.4-1.3,4.7-2.7c3.1-3.5,7.2-5.7,11.2-8.1c4.8-2.9,9.4-5.8,13.6-9.5c2.5-2.3,5.7-3.9,8.2-5.6c6.4-0.7,11.4,1.4,16.4,4.6
			c3.9,2.5,8,4.8,10.9,8.4c3.6,4.5,7.9,8.3,11.6,12.7c3,3.4,5.1,7.6,7.9,11.2c3.8,5,6.6,10.7,10.3,15.7c3.2,4.3,7.1,8.1,10.9,12
			c3.7,3.8,6.7,8.2,9.7,12.5c0.3,0.4,0.5,0.8,0.8,1.1c3.3,3.6,6.6,7.2,9.9,10.9c1.9,2.2,3.7,4.5,5.7,6.6c1.9,2,3.5,4.1,4.6,6.6
			c0.4,1,1.6,1.7,2.5,2.5c15.6,0,31.2,0,46.8,0.1c1.8,0,3.4-1,5.1-1c3,0,6.2,0.2,9,1.1c2.7,0.9,5.6,0.8,8.5,2.4
			c-0.3,2.5-0.6,5.3-1.1,8.1c-0.5,2.7-1.4,5.4-2.1,8.3c-2.5,0-5,0-7.5,0c-1.8,0-3.7,0.3-5.5,0.5c-10.8,1.2-21.6,0.1-32.4,0.6
			c-0.1,0-0.2,0.2-0.6,0.5c4.1,3.7,8.3,7.3,12.3,11.1c3.6,3.4,6.2,7.7,8.8,11.8c6,9.4,10.5,19.6,15.6,29.5c0.6,1.1,1.4,2.1,2.1,3.1
			c0.8,1.2,1.8,2.3,2.2,3.6c1.4,4.6,3.8,8.8,5.1,13.4c0.1,0.4,0.5,0.8,0.9,1.4c0.7,5.6,0.9,11.6,2.3,17.3c0.6,2.8,0.3,5.5,0.9,8.1
			c1.3,6,0.3,12.1,1.1,18.1c0.6,4.1,0.6,8.1,0.8,12.1c0.1,1.7,0.7,3.4,0.9,5.1c0.3,2.3-0.1,4.5-2,6.2c0,3.5,0.7,7.2-0.2,10.4
			c-1.1,3.6,0.2,7.4-1,10.6c-1.2,3.1,0.4,6.9-2.5,9.5c-0.3,0.1-0.8,0.2-1.2,0.3c-0.1,5.5-1.7,11.9-4,17.4c0.6,0.6,1.2,1.2,1.6,1.6
			c-1.4,4.4-3.9,8-6,12.3c-2.5,1-4.3,3.2-5.5,5.8c-1.8,4.2-4.1,8-6.6,11.8c-2.1,3.1-4.9,5.3-7.2,8c-0.9,1.1-1.8,2.2-2.5,3.5
			c-2.1,3.8-5.4,6.6-8.6,9.3c-1.1,0.9-2.2,1.9-3.3,2.7c-2.3,1.6-3.8,4.1-5.9,6c-7.2,6.5-15.3,11.6-23.9,15.8
			c-0.3,0.1-0.5,0.4-0.8,0.6c-1.2-0.4-2.3-0.8-3.7-1.3c-1.7,2.6-4.4,3.8-6.9,5c-2,1-3.8,2.2-5.6,3.5c-3.1,2.3-6.5,4.2-10.5,4.8
			c-0.5,0.1-1.1,0-1.4,0.3C630.2,548.6,627.3,548.4,623.9,550z M346.3,455.3c3.1,5.9,5.9,11.6,8.9,17.1c1.5,2.8,3,5.6,5.6,7.7
			c2.9,2.4,5.6,5,8.4,7.4c1.5,1.2,2.9,2.6,4.6,3.4c5.1,2.4,9.6,5.6,12.7,10.1c2.5,3.7,5.8,5.8,9.3,7.8c4.9,2.9,9.6,6.2,15,8.3
			c0.3,0.1,0.5,0.5,0.7,0.7c2,1.5,4.3,2.3,6.6,3.2c3.1,1.2,6.3,1.7,9.4,2.6c3.6,1,6.9,2.8,10.5,3.7c2.4,0.6,4.9,1.1,7.1,2.2
			c5.8,2.8,12.1,4.1,18.3,5.2c3.9,0.7,7.8,1.2,11.6,2c5.4,1.1,10.8,2.1,16.2,2.9c4.4,0.6,8.9,2,13.5,1.2c1.1-0.2,2.7-0.5,3.4,0.1
			c2.3,1.7,5.1,0,7.1,1.1c2.5,1.3,4.8,0.7,7.2,0.8c5,0.2,10,0.2,15,0c3-0.1,6.2-0.1,9-1.1c2.6-0.9,5.3-0.7,7.7-1.9
			c2.9-1.3,6-0.9,9.1-1c1.8,0,3.7-0.1,5.5,0c3.9,0.3,7.8-0.9,11.6,1c4.8-0.4,9.7-0.4,14.4-1.4c4.2-1,8-3.3,12.3-4.1
			c3.4-0.7,6.4-2.2,9.9-2.7c3.9-0.5,8-1.7,10.9-5.1c0.7-0.9,2.1-1.4,3.3-1.7c1.7-0.4,3.2-1,4.6-2.2c2.6-2.2,5.2-4.3,8.2-6.8
			c5.4-0.7,10.4-4.8,16.7-4c2.4-1.8,4.6-3.7,7-5.1c2.8-1.6,4.4-4.4,7.1-5.9c3.8-2.2,6.3-5.5,8.2-9.2c3.1-6.2,7.6-11.4,12.2-16.4
			c3.9-4.3,8-8.4,11.4-13.3c3.1-4.6,4.7-9.6,5.3-14.8c0.6-4.8,1.9-9.1,3.7-13.5c2.3-5.4,4-11,3.4-17.1c-0.1-1.2-0.9-2.4-0.9-3.6
			c0-1.4,0.8-2.7,0.9-4.1c0.2-4.2,0.3-8.4,0.8-12.6c0.5-4.3,0.8-8.7-0.7-13.1c-0.7-1.9-0.4-4.3,0-6.4c0.4-2.4-1.1-4.3-1.1-6.6
			c0.1-3.6-0.3-7.1-0.8-10.6c-0.6-4.5-1.2-8.7-4.1-12.4c-0.3-0.4,0-1.3,0-1.3c-1.5-2.3-2.7-4.1-4-5.9c-1.9-2.5-2.5-5.7-4-8.3
			c-1.1-2-2.7-3.9-3.5-6c-1-2.6-2.1-5.1-3.4-7.6c-1.4-2.6-2.7-5.2-4-7.8c-0.2-0.4-0.2-0.9-0.4-1.3c-2.7-4.4-5.4-8.7-8.1-13.1
			c-1.6-2.6-3-5.2-5.3-7.3c-3.2-3-6.4-6-9.7-9c-4.9-4.4-9.7-9.1-15.4-12.7c-10.7,0-21.6,0.1-32.4,0c-10.7-0.2-21.3,0-32.1-0.7
			c-14.1-1-28.3-0.2-42.4-0.2s-28.3,0-42.4,0c-14.3,0-28.6-0.2-42.9,0.1c-14,0.3-28-0.7-42-1c-2.7-0.1-5.3,0-8,0c-2.5,0-5,0.1-7.5,0
			c-2.6-0.1-4.9,1.5-7.6,1.1c-2.6-0.3-5.3-0.1-7.9-0.1c-0.9,0.9-2.1,1.5-2.5,2.5c-2.3,6.4-7.1,11.1-10.7,16.6
			c-0.8,1.2-1.5,2.5-2.5,3.4c-3,2.7-5.5,5.8-6.7,9.7c-1.2,4-3,7.8-4.3,11.7c-1.9,5.7-3.8,11.4-6.8,16.7c-2.2,3.9-4.1,7.9-5.6,12.2
			c-2.7,7.7-5.8,15.3-8,23.2c-1.4,4.9-3,9.7-2.6,15c0.4,5.8,0.1,11.7,0.1,17.5c0,1.1-0.1,2.4,0.4,3.3c1.1,2.2,1,4.7,0.3,6.7
			c-0.5,1.4-0.7,2.8-0.7,4.2c-0.1,5.7-0.2,11.3,0,17c0.1,3,0.6,6,1.2,9c0.3,1.8,1,3.6,1.8,5.2c1,1.8,0.4,3.9,1.1,5.6
			C345.5,448.8,346.1,452.2,346.3,455.3z M693.4,762.5c-1.2-4.8-1.1-8.8-2.5-12.6c-1.4-3.6-2.8-7.2-4.2-10.9c-1.2,0-2.3,0-3.6,0
			c-0.8-1.4-1.6-2.8-2.1-3.6c0.4-1.6,0.8-2.7,0.8-3.7c0-3.9,1-7.6,2.2-11.1c1.1-3.2,0.4-6.1,0.8-9.1c-1.9-1.6-0.6-3.7-1-5.6
			c-0.4-1.9-1-3.7-0.9-5.6c0.1-1.8-1.1-3.3-0.2-5.2c0.7-1.7,0.1-3.9,0.1-5.7c4.5-3.1,4.5-3.1,7.8-8.7c6.2-2.5,12.2-4.9,18-7.2
			c0.9-6-1.2-11.8-1-17.7c0.3-10.5,0.1-21,0.1-31.5c-2.3-1.8-4.5-3.6-6.9-5.3c-1.8-1.3-3.5-2.7-5.4-3.8c-2.8-1.6-5.8-2.8-8.7-4.3
			c-6.6-3.4-13.4-6.4-19.5-10.9c-2.6-1.9-6-2.8-9.4-4.4c0.6,1.7,1,3,1.4,4.3c2.1,6.1,3.8,12.4,5.6,18.7c1.2,4.2,2.4,8.3,3.5,12.5
			c1.9,7.4,5.9,13.9,8.4,21c-2.4,4.9-7,7.7-10.4,11.8c-1.7,0-3.3,0-5,0c-1.7,0-3.5,0.4-5-0.1c-1.6-0.6-2.8,2-4.2,0.1
			c-1.4,1.8-2.7-0.3-4.2-0.2c-6.4,0.5-12.9-0.7-19.4,1.7c0.8,0.5,1.4,1,2.1,1.5c2.2,1.4,4.8,2.5,6.7,4.3c4.2,3.8,8,8,12.1,12
			c1.8,1.8,2.7,3.9,2.1,6.5c-1.7,2-3,4.4-5.1,5.8c-1.8,1.2-3.3,2.6-4.8,4.1c-2.3,2.3-4.9,4-7.8,5.4c-6.7,3.1-12.6,7.3-18.8,11.3
			c-8.4,5.4-16.7,11-25.5,15.7c-5.3,2.9-10,6.6-14.6,10.4c-6.3,5.3-12,11.2-18,16.9c-2.4,2.2-4.8,4.4-7.2,6.5
			c-6.2,5.3-11.8,11.3-17.9,17.2c0.9,0,1.9,0,2.9,0c5.2,0,10.3,0.1,15.5,0c5.2-0.1,10.5,0.8,15.6-1c6.5,0.5,13-0.1,19.6,0.7
			c6.7,0.9,13.6,1.7,20.5,1.4c8.8-0.4,17.6-0.1,26.5-0.1c4,0,8.1,0.5,11.7-1.9c0.4-0.2,1-0.1,1.4-0.1c3.8,0,7.7,0.1,11.5,0
			c3.9-0.2,7.7-0.9,11.6-0.9c10.5-0.1,21,0,31.5,0c2.8,0,5.6,0,8.5,0c0-0.9,0.1-1.6,0.1-2.5c-1.3-1.1-2.8-2.1-4-3.5
			c-1.3-1.5-2-4-3.7-4.8c-1.8-1-3-2.5-4.4-3.8C695.3,765,694.1,763.3,693.4,762.5z M418.2,585c-1.9,1.1-3.4,2.2-5.1,3
			c-3.3,1.6-6.7,3-10.1,4.6c-5.1,2.4-9.8,5.3-14.6,8.3c-4.5,2.8-9.7,4.8-14.5,7.1c-2.9,1.4-5.9,2.7-8.6,4.4c-3.2,2.1-6,4.7-9.2,7.1
			c0,1.2,0,2.5,0,3.8c0,5.3,0.1,10.7,0,16c-0.2,5.2-0.6,10.4-1,15.6c0,0.3,0.1,0.7,0,1c-2.1,4.6-0.5,9.3-0.9,13.6
			c6.3,2.5,12.1,4.8,18.5,7.4c0.8,3.7,3.7,6.4,7.3,8.3c0.6,2.6-0.5,5.2,0.9,7.6c-1.9,5.1-1.3,10.6-2.6,15.9c-0.6,2.3,0,5-0.1,7.5
			c-0.2,2.4-0.9,4.7-0.9,7.1c0.1,6.1-0.7,12.1-3.2,17.7c-1.4,3.1-2.2,6.4-4.4,9.2c-5,6.5-8.8,13.9-11.7,21.6c-2.3,1.1-4.5,2-3.7,5.1
			c16.7,0.9,33.2-0.9,49.7,1.1c3.3,0.4,6.6,0.1,10,0.1c1.3,0,2.7-0.1,4,0c1.1,0.1,2.2,0.4,3.1,1c1.6,1.2,3.4,0.9,5.1,0.9
			c15.8,0,31.6,0,47.4,0c1.4,0,2.9,0,3.9,0c1.8-8.6,3.5-16.6,5.2-24.9c-0.5-0.3-1.2-1.1-1.8-1c-2.6,0.3-4.7-1.2-6.5-2.4
			c-3.6-2.5-7.7-4.2-11.1-7c-3.5-2.7-6.9-5.5-11.1-7.1c-4.9-4.9-11.8-6.1-17.6-9.5c-2-1.1-4.4-1.3-6.6-2.2c-3.7-1.5-7.3-3.3-10.9-5
			c-1.7-0.8-4.7-5.6-4-6.9c1.4-2.5,0.5-5.1,0.9-7.6c0.5-2.7,1-5.3,2.7-7.9c3.4-5.2,6.1-10.9,9-16.2c-4.9-0.5-9.5-1-14.9-1.5
			c-1-1-2.5-2.5-3.8-3.8c0-4,0-7.5,0-11c0.1-3.3-0.2-6.7,0.5-9.8c0.8-3.5,0.2-6.9,0.5-10.3c0-0.3-0.1-0.8,0-1c1.8-2.5,0.1-5.7,1.1-8
			c1.3-3,0.5-5.8,0.8-8.7c0.4-4.4,0.2-8.8,1.1-13.1c1-4.6,1.7-9.2,2.9-13.8c1.1-4.2,2.4-8.3,3.6-12.5C418,587.7,418,586.4,418.2,585
			z M505.6,782c4.7-4.7,8.7-9.4,13.5-13.2c4.6-3.6,8.6-7.9,13.1-11.5c5.5-4.4,10-10,15.4-14.5c6.3-5.3,11.6-11.7,18-16.9
			c2.9-2.3,5.6-5,8.4-7.4c1.4-1.2,2.9-2.4,4.6-3.4c5-3.1,10.2-6,15.2-9c2.4-1.4,4.7-3.1,7.1-4.5c5.3-2.9,9.9-7.1,15.5-9.7
			c2.7-1.2,5-3.5,7.3-5.3c-3.9-2.6-7.9-4.9-11.4-7.8c-3.8-3.1-7.8-5.9-12.2-8.1c-1.3-0.6-2.8-1.4-3.4-2.5c-1.7-3.1-4.5-5.1-6.8-7.7
			c-0.7-0.8-1-1.9-1.4-2.7c3.1-3.1,5.9-6,8.8-8.8c1-1,2.2-1.8,3.5-2.5c1.6-0.8,3.4-1.5,5.1-2.1c1.6-0.6,3.2-1.2,4.9-1.4
			c1.9-0.2,3.8-1,5.6-0.9c9.2,0.4,18.3-1.2,27.5-1.1c1.6,0,3.2,0,5.4,0c-2.2-3.8-3.1-7.4-4-11c-0.8-3.2-1.8-6.3-2.5-9.5
			c-0.9-4-2.4-7.7-3.2-11.7c-0.7-3.9-3.1-7.4-3.9-11.4c-3.6-4.4-5.6-9.8-9.1-14.2c-1-1.3-1.5-3-2.2-4.4c1-1,1.6-1.7,2.5-2.7
			c-1.9-1.2-3.7-2.4-5.4-3.5c-1.1,1.7-1.9,3.1-2.7,4.4c-5.2,8.5-11.5,16.2-18.1,23.4c-7.6,8.3-15.7,16.2-23,24.9
			c-8.4,10-17.9,19-27.1,28.3c-3.7,3.7-6.9,7.6-9.8,11.9c-2.3,3.5-4.9,6.9-6.5,10.8c-0.8,1.9-2.4,3.9-2.2,6c0.3,2.7-1.7,4.3-2.3,6.6
			c-1,4.2-2.6,8.2-4.4,12.1c-1.3,2.8-2.4,5.7-3.2,8.6c-0.6,2.1-1.9,4-2.1,6.1c-0.3,2.3-2,3.9-2.6,6c-0.3,1-1.2,1.9-1.5,2.9
			c-1.9,6.7-5.3,12.8-7.7,19.3c-1.8,4.7-4.4,14.6-5.4,19.3c-0.5,2.3-1,4.6-1.4,6.8c-0.7,3.8-2.4,7.7-1.1,11.8
			C502.2,782,503.8,782,505.6,782z M323.8,770c-3,0.3-5.4-0.6-7.9-2.5c-1.7-1.3-2.8-2.8-4.2-4.2c-3.7-4-6.7-8.6-9.7-13
			c-1.4-2-3.1-4-2.8-6.4c2.8-2.2,5.4-4.3,8-6.3c-1.7-1.7-3.3-3.1-5.7-3.6c-2.9-0.6-5.6-2-7.4-4.7c0.1-1.7-0.1-3.5,0.5-4.9
			c2-4.9,2.7-10.2,4.7-15.1c2.1-5.2,3.3-10.7,7-15.1c2.9-3.5,5.4-7.3,9.3-10.2c4.7-3.6,9.4-7.1,14.1-10.8c1.7-1.3,3.7-2.3,5.6-3.4
			c0.2-4.3-0.1-8.5,0.9-12.7c0.9-3.7,0.1-7.7,0.9-11.6c0.9-3.9,0.2-8.2,0.2-12.2c-5.9,3.3-11.5,6.6-17.2,9.7
			c-3.8,2.1-7.8,3.8-11.4,6.2c-7.7,5-15.6,9.6-23.8,13.8c-8.3,4.2-16,9.2-23.2,15.1c-2.1,1.7-4.4,3.1-6.4,4.9
			c-3.8,3.4-8.8,5.3-11.7,9.4c-0.8,3-1.6,5.7-2.2,8.4c-0.5,2-0.1,4.4-1.2,6c-1.3,1.9,0.1,4.3-1.9,5.8c-0.4,4.1-2.6,7.9-2,12.2
			c0.1,0.7-0.3,1.5-0.5,2.3c-0.7,2.7-0.9,5.3,0.5,7.9c2.8,5.2,5.5,10.4,8,15.7c1.3,2.8,3,5.5,5.5,7.1c1.4,0.9,2.5,2,3.7,3
			c1.9,1.5,3.7,3.1,5,4.3c1.4,3,2.6,5.5,3.6,7.7c0.8,0.1,1.1,0.3,1.4,0.2c4-0.3,8,0.2,12.1-0.8c3.3-0.7,7-0.9,10.6,0.6
			c1.7,0.7,4,0,5.9,0.2c2,0.2,4,0.8,6.1,0.9c2.9,0.1,5.8,0.8,8.5,1.3c4.1,0.9,8,1.8,12.2,1.8c1.5,0,3.3-0.7,4.6,0.8
			c4.2,0.1,8.4,0.4,12.8-0.2c-0.3-0.8-0.4-1.3-0.5-1.7c-2.4,0-4.8,0-7.3,0C327.3,773.9,324.6,772.8,323.8,770z M726.9,673.7
			c0.5,0.5,0.9,1.2,1.2,1.2c3.4,0.2,5.9,2.3,8.2,4.4c3.7,3.4,8.3,5.6,11.7,9.3c1.4,1.5,3.7,2.4,4.6,4.6c0.9,2.2,3.8,2.7,4,5.3
			c2.7,2.4,3.6,5.8,4.8,9c1.6,4.3,3.2,8.7,4.3,13.2c0.8,3.6,1.7,7.5,6,8.9c0.4,0.1,0.7,0.7,1.1,1.2c-0.8,2.1-1.1,4.4-2.7,6.4
			c-2.4,3.2-5.1,6.6-6.3,10.3c-1.6,5.3-4.9,9.4-8,13.7c-1.6,2.2-4,4-5.1,6.4c-1.6,3.5-5,4.2-7.5,6.2c-0.7,0.6-2.2,0.2-3.1,0.3
			c-1.1-1.1-2.1-2.1-3-3c-1,0-2,0-2.2,0c-3.2,1.6-5.8,3-8,4.1c0,2.7,0,4.8,0,6.9c6.6,0.6,12.9-1.7,19.2-0.9c0.3,0,0.8,0.1,1,0
			c1.4-1.8,3.4-0.7,5.1-1c1.7-0.3,3.4-0.8,5.1-1c3.2-0.4,6.6-0.1,9.5-1.2c2.5-1,4.8-0.5,7.1-0.8c2.4-0.3,4.7-0.9,7.1-0.9
			c2.9,0,5.7-0.1,8.6,0.7c3.4,0.9,7.2,0.2,11,0.2c1.2-2.7,2.4-5.2,3.5-7.8c1.9-1.6,3.8-3.3,5.7-5c0.6-0.6,1.1-1.4,1.8-1.7
			c4.2-2,6-5.9,7.9-9.7c2.7-5.2,5.3-10.5,8.2-16c-0.4-3.2-1-6.7-1.1-10.2c-0.1-2.6-0.7-5.1-1.5-7.4c-2-5.9-3.4-12-4.5-18.1
			c-0.7-3.9-2.5-7.1-5.8-9c-6.6-3.9-12-9.4-18.3-13.6c-4.4-2.9-8.5-6.3-13.4-8.6c-5.8-2.6-10.9-6.4-16.8-8.9
			c-0.4-0.2-0.7-0.6-1.1-0.9c-4.2-2.7-8.2-5.8-12.7-8c-8.6-4.4-17.1-9.1-25.7-14.2C726.9,649.9,726.9,661.7,726.9,673.7z
			 M438.3,579.3c-0.2,3.3-1.3,6.3-1.4,9.6c-0.1,1.7-0.3,3.8-0.9,5.5c-0.8,2.3-0.6,4.6-1.5,6.9c-1.3,3.3-2.2,6.8-3.2,10.2
			c-1.1,3.6-1.5,7.4-2,11.1c-0.7,5,0.2,10.1-1.1,15.1c-0.6,2.4,0.5,5.2-1.1,7.6c0,5.3,0,10.5,0,15.8c2.5,0,4.5-0.1,6.4,0
			c2,0.2,4.1,1,6.1,0.9c3.9-0.2,7.5,1.1,11.1,2.1c1.5,0.4,2.8,1.3,4.1,1.9c0.1,0.7,0.2,1.2,0.2,1.7c-0.3,4.4-0.5,8.9-1.1,13.2
			c-0.2,1.3-1.2,2.5-2,3.6c-0.9,1.3-2,2.5-2.9,3.8c-3.8,5.4-7.5,10.9-11.2,16.4c-0.6,0.8-0.7,1.9-1,2.7c2,0.8,3.6,1.5,5.1,2.1
			c1.3,0.5,2.6,1,3.9,1.5c5.1,2.2,10.3,4.1,15.2,6.7c5.4,2.8,10.6,6,15.6,9.4c4.1,2.8,7.8,6.3,12.9,8c1.3-2.5,3.5-4.5,3.4-7.6
			c4-7.2,6.6-14.9,9.4-22.6c1.2-3.3,2.5-6.7,3.7-10c2.8-7.5,4.2-15.5,8.7-22.4c0.3-0.5,0.1-1.3,0.2-1.6c-1.8-1.7-3.3-3.5-5.2-4.6
			c-5.8-3.4-9-9.3-13.7-13.8c-1.6-4.5-5.3-7.6-8.3-11c-5.2-5.9-10.3-11.7-15.5-17.6c-4.3-4.9-8-10.1-10.9-16
			c-1.8-3.6-4.2-7-5.4-10.8c-1.2-4-2.9-7.9-4.4-11.7c-1.4-3.5-2-7.4-4.2-10.3C444.5,576.6,441.4,577.9,438.3,579.3z M612.5,553.7
			c-4.5,2.7-8.8,2.2-12.8,3.2c-2.6,0.7-5.3,0.4-8.1,0.9c-4.6,1-9.3,0.9-14,1.1c-3.8,0.2-7.7,0-11.5,0c-1,0-2,0-2.9,0.3
			c-4.8,1.5-9.7,2.8-14.8,2.8c-0.8,0-1.6,0.1-2.3,0.4c-2,1.1-4.5,1-6.2,0.4c-2.4-1-4.8-0.8-7.1-0.8c-10.3-0.1-20.6,0-31-0.1
			c-1.7,0-3.4-0.4-4.7-0.6c-1.3,0.3-2.5,0.8-3.4,0.6c-3.7-0.8-7.4-1.5-11.1-2.2c-2.7-0.5-5.5-1.4-8.2-1.7c-2.9-0.3-5.6-1.7-8.6-1.1
			c-0.7,0.1-1.6-0.4-2.4-0.7c-0.4,0.4-0.7,0.7-1,1c1.3,3.1,2.6,6.2,3.7,9c-0.5,0.8-0.8,1.3-1.1,1.8c0.8,1.3,1.8,2.3,2,3.4
			c0.4,3.3,2.2,6.1,3.2,9.2c1,3.1,1.8,6.3,4,8.9c0.8,5.8,4.8,9.8,8.2,14.1c3.4,4.3,7.3,8.2,10.6,12.6c1.4,1.9,3.2,3.7,5.5,5.2
			c1.7-2.6,3.1-5,4.7-7.3c2.9-4.3,5.6-8.7,9-12.8c2.9-3.5,5.6-7.3,8.4-10.9c2.8-3.7,6-7.4,10.7-9.5c1.6,1,3.5,1.9,5,3.1
			c2.9,2.3,6.5,3.5,8.8,6.5c3.2,4.1,6.1,8.4,9,12.7c2.4,3.6,4.5,7.3,7,11.3c2.4-2.4,4.8-4.2,6.5-6.6c3.3-4.6,7.3-8.6,11.1-12.9
			c5.3-6.1,11.8-11,16.6-17.6c4.7-6.4,9.9-12.6,14.8-18.9C610.8,557.3,611.3,555.9,612.5,553.7z M625.7,231.1
			c-7.7-0.6-14.9,0-22,1.9c-2.3,0.6-4.6,1.2-7.1,1c-0.5,0-1.1,0-1.4,0.2c-1.4,1.5-3.2,0.3-4.7,0.8c-1.7,0.5-3.3,1-5.1,1
			c-10.3-0.1-20.6,0-30.9,0c-1,0-2.4,0.4-2.9-0.1c-1.5-1.5-3.1-0.6-4.7-0.9c-1.7-0.3-3.4-0.8-5.1-1c-4.2-0.4-8.4-0.7-12.6-1
			c-1.8-2-4.8,0-6.7-1.9c-4.9-0.3-9.5-2.4-14.6-2.2c-6.8,0.3-13.6,0-20.5,0.1c-6.7,0.1-13.4-0.4-20.1,0.8c-4.3,0.8-9,0.1-13.4,0.1
			c-2.3,1.8-5,0.7-7.6,1c-2.7,0.4-5.3,1.1-8.1,1c-9.3-0.2-18.6-0.1-27.9-0.1c-2.8,4.2-6.1,8-8.8,13c3.5,0,6.4,0,9.4,0
			c3.2,0,6.3-0.1,9.5,0c2.9,0.2,5.7,0.9,8.6,0.9c13.3,0.1,26.6,0,39.9,0c13.5,0,26.9,0,40.4,0c13.3,0,26.6-0.2,39.9,0.1
			c13.3,0.2,26.7-0.2,40,0.7c15.7,1,31.6,0.2,47.4,0.2c0.7,0,1.4-0.2,3.1-0.5c-2.2-2.2-3.8-3.8-5.4-5.4c-1.5-1.5-3.6-2.8-4.4-4.7
			C629,234.2,626.9,233.2,625.7,231.1z M572,164c-6,3.6-11.4,7.8-16.2,12.7c2.2,2.9,0.5,6.3,1.7,9.7c5.8-7.1,11.2-13.8,16.9-20.8
			C573.6,165.1,572.9,164.6,572,164z M488,169.7c0.2,2.4-0.2,4.5,0.5,6.1c0.9,1.8,0.1,3.5,0.6,5.2c0.4,1.7,1,3.4,1.7,6
			c3.8-4.2,6.3-8.2,8.6-12.5C495.5,172.8,492,171.4,488,169.7z M583.5,211.2c1.3-3.1,2.5-6.1,3.8-9c0.3-0.6,0.5-1.3,0.8-2.3
			c-4.7,2.3-8.2,5.2-11.3,8.9c0.9,2.9,2.5,5.3,4.3,6.9c2.7,0,4.8,0,7.7,0C586.7,213.9,585.2,212.7,583.5,211.2z M522.7,199.4
			c-2.4,3.6-4.4,6.5-6.4,9.5c-1.2,0-2.5,0-3.6,0c-1.3-1.2-2.5-2.2-3.8-3.3c-1.2,1.4-2.9,2.1-2.8,4c3.2,0.5,6.1,1.1,9.1,1.3
			c3.2,0.2,6.5,0.1,9.6,0.1C524,207.2,523.4,203.7,522.7,199.4z M485.7,206c-7-0.1-7-0.1-11.4-4c0,1.9,0,3.7,0,5.5
			c-0.1,0-0.3-0.1-0.4-0.1c-0.3,0.8-0.5,1.6-0.9,2.6c5-0.1,9.5,0.2,13.9-0.2C486.4,208.5,486.1,207.5,485.7,206z M465.7,162
			c-1.5,2.7-3,5.4-4.7,8.4c0.5,0.3,1.2,0.7,2,1.1c1.7,0.7,3.9-0.1,5.9,1.3c0-3.6,0-7.1,0-10.5c0-0.1-0.2-0.2-0.3-0.3
			C467.6,162,466.6,162,465.7,162z M466.8,195.5c3.5,2.3,3.5,2.3,5.9,2.2c-1.9-6.4-2.4-13-3.2-19.6c-0.6,2.8-1.1,5.6-1.5,8.4
			C467.7,189.5,467.3,192.5,466.8,195.5z M355.9,732.2c-4.2,6.4-8.4,12.8-14,18.8c1.5,0.5,2.6,0.9,4.5,1.5
			C348.2,744.8,353.6,739.3,355.9,732.2z M436.6,212.8c-0.8-1.2-1.4-1.9-1.9-2.6c-0.5-0.7-0.8-1.5-1.3-2.3c-1.7,1.9-3.2,3.6-4.4,5
			C431,212.8,433.5,212.8,436.6,212.8z M605.7,207.3c-1.1,2.2-1.9,3.9-3,6.3c2.5-1.2,4.5,0.1,6.6-1.2
			C608.1,210.8,607.2,209.4,605.7,207.3z M543.5,624.6c-1.4,2.7,1.1,4.3,0.7,6.3c2.9,0.2,2.4-2.6,3.7-3.5
			C546.6,626.7,545.3,625.8,543.5,624.6z M447.4,195c-0.4-3.1,2.6-5.8,1.4-9c-1,1.4-1.8,2.6-2.9,4.2
			C446.3,191.6,446.9,193.3,447.4,195z M357,708.2c0.3-0.1,0.7-0.1,1-0.2c0.1-0.9,0-1.9,0.2-2.8c0.1-0.7,0.5-1.4,1-2.9
			c-2.3,1.3-3.7,2.1-4.6,2.6C355.5,706.1,356.3,707.2,357,708.2z M532,608.7c0-0.1,0-0.2,0-0.3c-0.3,0-0.7,0-1,0c0,0.1,0,0.2,0,0.3
			C531.3,608.7,531.7,608.7,532,608.7z"/>
		<path d="M629.2,825c0.6-0.9,1.2-1.8,1.7-2.8c2.2-0.5,4,0.1,6.1,0.6c2.4,0.5,5,0.5,7.6,1.1c6.8,1.5,13.4,3.9,19.9,6.2
			c4.2,1.5,8.3,3.2,12.4,4.9c5.4,2.3,10.3,5.5,15.7,8c3.5,1.6,6.1,4.5,9.3,6.5c2.3,1.4,8.1,9.3,9.9,12.8c1.1,2.1,2.7,3.7,3.4,6.1
			c0.6,2,1,4.1,0.5,5.7c-0.7,2.2-1,4.5-1.8,6.7c-0.8,2.2-1.3,4.5-2.2,6.6c-1.7,3.8-4.1,7.4-6.6,10.7c-3.1,4-6.7,7.6-10.2,11.3
			c-3.2,3.4-6.9,6-11.1,8.2c-1.9,1-3.7,2.3-5.6,3.3c-5.3,2.5-10.9,4.3-16.5,6c-4.9,1.5-9.6,3.4-14.6,4.5c-2.8,0.6-5.5,1.2-8.4,1.5
			c-2.8,0.3-5.7,0.2-8.5,0c-2.5-0.2-5.1-0.9-7.6-0.9c-3.4,0-6.7,0.7-10.1,0.9c-3.7,0.2-7.3,0-11,0c-3.5,0-7.1-0.5-10.5,0.1
			c-4.4,0.9-9.1,0.9-13.4,2.7c-0.9,0.3-1.9,0.2-2.9,0.2c-4,0-8,0-12,0c-1.9,0-3.7-0.1-5.6,0.9c-1.6,0.9-3.6-0.3-5.6,0.9
			c-1.6,0.9-4,0.9-6,1.1c-4.8,0.5-9.2,2.7-14.1,2.1c-3.2,1.7-6.8,0.3-10,1.1c-5.7,1.4-11.4,0.7-17.1,0.9c-5.7,0.1-11.3,0.1-17,0
			c-2.4-0.1-4.7-0.6-7.1-1c-2.2-0.4-4.6,1-6.6-0.9c-0.4-0.4-1.6-0.1-2.4-0.1c-3.3,0-6.7-0.2-10,0c-8.1,0.6-16-1.4-24.1-1
			c-3.6-1.4-7.5-0.4-11-1.1c-4.4-0.9-9.1-0.8-13.3-2.8c-0.3-0.1-0.6,0-1-0.1c-4.2-0.3-8.5-0.3-12.5-1.1c-6.1-1.3-12.5-1.3-18.4-3.7
			c-2.1-0.9-4.6-0.3-7-1.1c-5.3-1.7-10.7-2.8-15.9-5.1c-4.1-1.8-8.3-3.3-12.4-5.1c-2.5-1.1-5-2.4-7.4-3.7c-2.3-1.3-4.5-2.8-6.7-4.2
			c-0.8-0.5-1.6-1.1-2.3-1.7c-1.6-1.5-3-3.1-4.6-4.6c-4.8-4.6-8.5-9.7-10.2-16.3c-4.4-5.6-4.2-12.3-3.9-18.9c0.1-2.2,0.5-4.4,1-6.6
			c0.5-1.9,1.3-3.8,1.9-5.7c2.2-7,5.6-13.2,10.7-18.6c3-3.2,6.9-4.4,10.7-5.5c5.3-1.7,10.9-2.6,16.3-3.9c4.8-1.2,9.8-2,14.7-3.1
			c1.2-0.3,2.4-0.7,3.6-1.1c2.9-1,5.8-2.1,8.8-3c2-0.6,4.4-0.1,6-1.2c1.9-1.3,3.9-0.7,5.9-1.6c1.9-0.9,4.6-0.4,7-1.2
			c1.3-0.4,2.7-0.2,4.1-0.9c1.3-0.7,3.5,0.3,4.8-0.4c1.2-0.7,2.2,0.3,3.5-0.5c1.2-0.8,3.2-0.2,4.9-0.2c1.5,0,3,0,4.5,0
			c1.7,0,3.3,0,5,0c1.5,0,3,0.1,4.5,0c2.4-0.2,4.7-0.6,7.1-1c2.2-0.3,4.6,0.9,6.6-1c0.3-0.2,1,0,1.5,0c4-0.3,8-0.8,12.1-1
			c4-0.2,8.1,0.6,12-0.2c6.9-1.3,13.7-0.7,20.6-0.8c7-0.1,14,0,21,0c5.7,0,11.3,1.4,17.1,1.1c5.6-0.3,11.4-0.8,16.9,0.1
			c6.1,1,12.1,0.6,18.1,0.8c6,0.2,12-0.1,18,0.1c3.7,0.1,7.3-0.3,11.1,0.7c3.4,1,7.1,1.7,10.6,2c5.9,0.5,11.4,2.6,17.2,3.3
			C621.8,821.7,625.4,823.7,629.2,825z M619.3,843.1c-1.9-2.6-4.7-2.6-7.2-3.5c-5.2-1.7-10.7-3-16-3.4c-7.3-0.6-14.6-1.7-22-1.3
			c-8.6,0.4-17.3,0.1-26,0.1c-1,0-2,0.2-3,0c-1.3-0.3-2.4-1.8-4-0.6c-1,0.7-2.2-0.2-3.2,0.2c-1.1,0.4-2.2,0-3.2,0
			c-1.7,0-3.6,1.2-5,0.4c-1.6-1-3.1-0.9-4.6-0.9c-8.8,0-17.6-0.2-26.5,0c-8.7,0.2-17.4-0.9-26.1,0.9c-3,0.6-6.3,0.1-9.5,0.1
			c-2.9,0-5.7,0.1-8.6,0.8c-2.9,0.7-6.1-0.3-9,1.1c-6.2-0.3-12.3,1.6-18.6,1.1c-4-0.3-8-0.1-12-0.1c-1,0-2.1-0.3-3,0.1
			c-3,1.1-6.1,1.4-9.2,2c-3.1,0.5-6.2,1-9.1,2.1c-3.2,1.1-6.6,1.5-9.9,2.6c-6.6,2.2-13.2,4.8-20.3,5.3c-1.8,2-4.8,0-6.7,1.9
			c-3.9-0.1-7.4,1.5-11.1,2.3c-4.7,1-9.7,2.4-12.4,7.2c-0.6,1.1-1.4,2.1-2.1,3.2c0,2.9,0,5.9,0,8.9c0.3,0.4,0.8,0.7,1,1.2
			c2.1,4.1,3.6,8.5,5.9,12.6c2.7,4.7,6.6,8.2,10.5,11.5c3.2,2.8,7.4,4.6,11.3,6.4c3.9,1.9,8.2,2.9,11.9,5c2.6,1.5,5.2,0.5,7.9,1.6
			c3.1,1.3,6.7,1.7,10.1,2.2c4.1,0.7,8.4,0.7,12.6,1.1c0.3,0,0.8-0.1,1,0c1.3,1.3,3,0.8,4.6,1c1.7,0.2,3.4,0.7,5.1,1
			c2,0.4,4,0.7,6.1,1c2.7,0.3,5.3-0.2,8.1,0.8c2.3,0.9,5.3,0.3,7.9,0.1c2.6-0.1,4.9,1.1,7.6,1.1c6.4,0.1,12.7-0.4,19.1,0.6
			c5,0.8,10.3,0.9,15.5,1.2c6.5,0.3,13,0.2,19.5,0c6.5-0.2,13.1,0.7,19.6-0.9c3.1-0.8,6.5,0.6,9.7-0.6c3-1.2,6.4-1.5,9.5-2.2
			c3.7-0.8,7.4-1.7,11.1-2.1c3.4-0.4,7,0,10.5-0.1c3.4-0.2,6.7-0.8,10.1-0.9c3.1-0.1,5.9-1.7,9.1-1.1c1.8-2,4.4-0.1,6-1.1
			c2.1-1.5,4.1-0.7,6.2-0.8c8.2-0.6,16.4,1,24.6-1c1.3-0.3,3-0.5,3.9,0.1c2.2,1.4,4.4,0.8,6.6,0.9c3,0.1,6,0,9,0c1,0,2,0,2.9-0.2
			c6.7-1.8,13.3-4.1,19.9-6.2c6.3-2,12.7-4,18.2-7.9c2.6-1.8,5.4-3.3,7.6-5.7c4.2-4.5,8.5-9,12.6-13.4c-0.2-1.1-0.1-1.8-0.4-2.3
			c-2.2-4.7-5.5-8.5-9.1-12.3c-4.3-4.5-9.2-7.9-14.7-10.5c-6-2.8-12-5.6-18.1-8.1c-3.2-1.2-6.6-1.7-10-2.4c-2.1-0.5-4.3-0.8-6.3-1.1
			c-0.6,1.6-1.1,2.9-1.6,4.3c-2.7-0.4-5.5-0.2-7.3-1.3C624.2,843.4,622.2,842.8,619.3,843.1z"/>
		<path d="M639.5,286c0.9,0,2,0,3.2,0c0.3,0,0.6,0.1,1.1,0.3c2.7,4.3,4.8,8.9,6.4,14c-3.4,3-7.2,5.1-11.2,6.6
			c-3.3,1.3-6.4,2.9-9.8,4.1c-0.8,0.3-1.6,0.9-2.2,1.6c-1.1,1.3-2.1,2.8-2.6,3.6c-3.7,1.2-6.6,2.1-9.9,3.1c0.7,1.1,1.1,1.7,1.5,2.4
			c2.9,5.7,4.6,11.8,6,18c1.4,6.2,0.8,6.1-0.8,14.8c-1,5.6-4.8,9.7-6.2,15c-2.8,2.5-5.3,5.5-8.5,7.3c-5.8,3.4-12,6.3-18.1,9.3
			c-1.6,0.8-3.4,1.5-5.2,1.9c-3.1,0.6-6.4,0.8-10,1.3c-2.2,1.1-1.3,4.1-2,6.1c-1.6,5-2.4,10.3-4.2,15.3c-0.7,1.9-1.8,3.6-2.5,5.4
			c-1.8,4.4-3.6,8.9-5.4,13.2c-1.4,3.3-2.7,6.6-4.5,9.6c-2.2,3.7-4.4,7.5-6.5,11.3c-2.7,4.7-4.7,9.9-8.5,14c-0.9,1-1.2,2.5-1.8,3.8
			c-2.8,0-5.8-0.6-8.4,0.2c-2.2,0.6-4.4,0.7-6.6,0.9c-1.4-1.4-1.9-3.1-2.6-4.9c-0.8-2.3-2.3-4.4-3.8-6.4
			c-5.6-7.9-9.3-16.8-14.1-25.1c0.2-3.1-2.2-5.1-3.1-7.7c-0.8-2.6-2-5.2-2.9-7.8c-1.4-4.1-2.8-8.2-4-12.3c-1.4-4.9-2.8-9.8-4.5-14.6
			c-0.5-1.4-0.3-3.3-2.1-4.1c-1.4-0.7-2.7-1.7-4.2-1.9c-7.9-0.9-14-5.6-20.7-9.1c-4.9-5.3-11.7-8.7-14.8-15.7
			c-1.4-3.2-2.8-6.3-2.7-9.9c0.1-4.5,0.1-9,0-13.5c-0.1-4.1,0.7-7.8,2.9-11.3c0.8-1.3,1.2-2.8,1.8-4.3c-11.3-2.9-22.6-6.5-32.6-13.3
			c-0.9-0.6-1.5-1.8-2.2-2.7c2.2-4.4,4.3-8.7,6.6-13.2c1.3,0,2.7,0,3.9,0c5.1,2.5,10.2,4.3,15.3,5.9c3.8,1.2,7.6,2,11.6,2.1
			c2.7,0,5.4,0.6,8.1,0.9c2.5,0.3,5.1-0.4,7.6,0.9c1.3,0.7,3.3,0,4.9,0.2c1.5,0.2,3,0.8,4.6,0.9c7,0.4,14.1,0.1,21,1.2
			c7.1,1.1,14.1-0.1,21.1,1c10.7,1.6,21.4,0.4,32,0.8c6.5,0.3,13-1.7,19.5-1c2.7-1.3,5.9-0.3,8.5-1.2c2.9-1,5.9-0.1,8.6-1
			c2.6-0.8,5.2-0.6,7.7-1.8c1.8-0.8,3.9-1.1,6-1.2c3.4-0.2,6.8-1.2,10.2-1.9c1.2-2,3.6-0.3,5.3-1.9c1.1-1,3.3-0.8,5-1.1
			c0.3-0.1,0.7,0,0.9-0.1c5.1-3.5,11.1-4.6,16.6-6.9C638.6,286.8,638.9,286.4,639.5,286z M528.9,376.7c-2.4,3.8-6.2,4.8-9.8,6.3
			c-3.9,1.6-7.9,2.6-12,3.3c0,1.2-0.3,2.3,0,3.2c0.8,2.3,2.1,4.5,2.7,6.9c0.7,3.2,1.7,6.3,2.4,9.6c0.8,3.7,2.7,7.2,4.1,10.8
			c2.3,6.1,5.5,11.8,8.8,17.3c1.3,2.1,2.8,4.1,4.3,6.2c1.9-3.3,3.6-6.2,5.2-9.2c3.5-6.9,8.1-13.1,10.7-20.5c1.9-5.5,4-11,6.6-16.2
			c0.9-1.7,0.9-3.9,1.3-5.9C543.4,387.5,535.8,383.1,528.9,376.7z M518.8,326.2c-7.2-0.8-14,0.6-20.9-1.1c-3-0.7-6.3-0.1-9.4-0.1
			c-1.7,0-3.6,0.5-4.9-0.1c-3.6-1.8-7.3-1.9-11.2-1.9c-0.7,0-1.3-0.5-2.3-0.9c-1,1.5-2.1,3.1-3,4.7c-1.1,2-2,4.2-3.3,6.1
			c-1.1,1.7-2,4.4-1.5,6.2c0.5,1.9,0.6,3.7,0.8,5.6c0.1,0.8,0.2,1.6,0.5,2.3c1.2,3,2.4,6,3.7,9c3.5,2.5,7.4,3.9,11.4,5
			c0.6-2,1.1-3.8,1.7-6c4.3-2.3,5.1-8.1,9.2-11c3-0.3,5.8-0.1,8.7-0.8c2.6-0.6,5.6,0.5,7.8,0.8c2.6,1.9,4.4,3.8,6.7,5
			c3.1,1.6,4.3,4,4.3,7.3c0,1.3,0.1,2.5,0.2,4.2c1.3-1.8,4-1.4,3.8-3.9c3.9-3.8,2.7-9.2,4-13.8c-0.9-2.1-0.9-4.5-2-6.7
			C521.5,332.9,520.3,329.6,518.8,326.2z M594.7,322.6c-3.9,1.8-7.7,1.3-11.4,1.4c-0.5,0-1-0.1-1.5,0c-4.3,1.4-8.7,2-13.1,2
			c-0.5,0-1,0-1.4,0.1c-4.5,1.2-5.1,1.2-9.7,0c-0.6-0.2-1.6-0.4-1.9-0.1c-1.9,1.8-4.1,0.8-6.1,0.9c-2.1,0.2-4.2,0-6.5,0
			c3.9,10.5,4.1,10.1,3.9,19.5c-3.4,4-3.2,9.3-5.2,14.2c3.3,0.8,5.6,3.7,9.4,4c-0.5-1-0.9-1.8-1.3-2.7c0.6-1.4,1.7-2.9,2-4.6
			c0.4-2.1,2.5-2.5,3.2-4.6c0-0.6,0-1.6,0-2.5c1.2-1.2,2.2-2.2,3-3c6.3-1.3,12.1-3.1,17.3-2.4c4.5,1.1,5.6,4.1,6.6,7.1
			c0.2,0.7,0.3,1.6,0.8,2.1c2.9,2.9,4.7,6.3,4.1,10.7c3.4,0.5,4.8-2.2,6.9-3.3c2.8-6.6,6.5-12.7,6.3-20.4c-0.2-4.3-1.4-8.1-2.5-12
			C596.9,327,595.8,324.9,594.7,322.6z"/>
		<path d="M470.6,868c-3.4,2.6-6.6,4.9-9.3,8.1c-4.7,5.7-10,10.9-15.1,16.2c-1.2,1.2-2.8,2-4.1,2.9c-3.6-3.3-6.9-6.4-11-10.2
			c-0.3-1.5,0.2-3.6,2-5.5c3.6-3.8,7.4-7.5,10.5-11.6c4.4-5.8,9.9-10.5,14.9-15.7c2-2.1,4.3-4,6.7-5.6c1.2-0.8,2.9-1.3,4.4-1.4
			c6-0.3,11.4,1.3,16.4,5.1c2.6,2,4.6,4.6,7.3,6.4c3.6,2.3,5.3,6.7,10.2,8.4c1.2,0,3.2,0,5.1,0c1-1.3,3.7-1,3.5-3.5
			c3.4-3.9,7.3-7.2,12.2-9.2c0.7-0.3,1.6-0.3,2.4-0.3c3.3,0,6.6,0,10.2,0c6.2,5.5,12.6,11.1,18.9,16.8c1.7-1.4,2.1-3.6,2.2-5.8
			c0.1-2.2,0.9-3.9,2.2-5.6c0.6-0.8,0.9-2,1.3-3.1c4.4-1.3,8.9-2.7,14.1-4.2c0.4,0.4,1.3,1.2,2.2,2.1c0.5-0.2,1-0.5,1.8-0.8
			c-0.1,0,0.2,0,0.4,0.1c1.5,1.4,2.7,3,3.2,5.2c0.4,1.9,1.7,3.6,2.5,5.4c0.5,1.1,1.2,2.2,1.4,3.4c0.2,1.5,1,2.2,2.4,2.5
			c1.2,0.3,2.3,0.8,3.9,1.4c-0.4,1.7-0.6,3.5-1.3,4.9c-2.3,4.3-4.6,8.4-5.2,13.4c0,0.4-0.7,0.7-1.2,1.2c-3.3,0-6.7,0-10.3,0
			c-1.3,1.7-2.5,3.4-3.7,5.1c-0.7,0-1.5,0.2-2,0c-1.4-0.6-2.8-1.4-4.2-1.9c-1.3-0.5-2.6,0.4-4.1,0.3c-4.9-0.2-9.2-1.7-13-4.5
			c-5-3.8-9.2-8.4-13.8-12.8c-1.7,0-3.6,0.1-5.4,0c-2.4-0.2-4.3,0.7-6,2.4c-2.1,2.1-4.2,4.3-6.4,6.4c-1.6,1.5-3.4,3-4.9,4.3
			c-3.4-0.1-6.4-0.1-9.5-0.9c-2.7-0.7-4.9-2-7.1-3.4c-4.8-3.2-8.5-7.6-12.7-11.6c-0.9-0.9-1.7-1.7-3.1-2.2
			C475.8,868.2,475.9,868,470.6,868z"/>
	</g>
	<g id="2">
		<animate attributeName="display" fill="freeze" begin="0s" repeatCount="indefinite" dur="0.45" values="none;inline;none;"/>
		<path d="M410.3,533.9c-7.6,1.5-13.5-3.4-20.1-6.2c-3-3.4-7.1-5.3-10.7-7.9c-3.4-2.5-7.3-4.2-10.9-6.5c-3.3-2.2-7-4.1-9.5-7
			c-3.4-4.1-7.7-7.4-10.5-12.1c-0.8-1.4-2.3-2.4-3.5-3.6c-2.4-2.4-5.5-7.8-7.2-12c-1.3-3-2.7-5.9-4.5-8.6c-2.4-3.6-4.3-7.2-4.5-11.7
			c-0.2-2.6-1.1-5.2-1.9-7.7c-1.6-4.8-3.1-9.6-3-14.8c0-1.8-0.7-3.7-1-5.5c-0.9-0.9-1.9-1.9-2.9-2.9c0-2.6-0.1-5.2,0-7.9
			c0.2-2.4-0.8-4.8,0.9-7.2c0.6-0.8,0.1-2.3,0.1-3.4c0-8.3-0.1-16.7,0-25c0.1-5.5,0.2-11.1,1.1-16.6c0.6-3.4,0.4-6.9,2.3-10.3
			c0.8,0,1.9,0,3.5,0c0.7-2.1,1.9-4.1,2-6.2c0.3-4.2,2.7-7.6,4-11.4c0.9-2.7,2.3-5.1,2.2-8.1c0-1.8,0.9-3.6,1.3-5.4
			c0.2-0.8,0.6-1.5,0.5-2.3c-0.2-3.1,1-5.9,2.3-8.6c3.1-6.4,6.8-12.5,9.6-19c2.6-6.1,5-12.3,8.1-18.2c2-3.8,4.4-7.2,7.1-10.9
			c-1.3-0.1-2.6-0.4-3.8-0.1c-2.4,0.5-4.4-0.9-6.6-1.1c-2-0.2-4.3,1-6.1-0.9c-0.1-0.1-0.3,0-0.5,0c-6.2-0.2-12.5-2.2-18.5-0.8
			c-4.1,1-8.2,0.2-12.3,1.6c-3.4,1.2-7.3,1-11,1.1c-3.8,0.2-7.7,0-11.5,0c-1.3-0.7-1.8-1.7-1.7-3.2c0.1-2.7,0.1-5.3,0-8
			c-0.1-1.4-0.5-2.7-0.8-4.4c1.2-1.7,3.2-2.5,5.6-2.4c2.4,0.1,4.7-0.2,7.1-0.9c2.2-0.7,4.9,0.6,7.1-1.1c0.1-0.1,0.3,0,0.5,0
			c5.2,0.3,10.3-1.5,15.6-1c5,0.5,10-1.7,15.1-1c2.4,0.3,4.7,0.8,7.1,1c2.3,0.2,4.9-0.6,6.9,0.2c2.5,1,5.1,0,7.1,1
			c2.5,1.2,4.8,0.6,7.2,0.8c2.5,0.2,4.9,0,7.4,0c0.5-0.8,1-1.5,1.2-2.2c1.5-4.1,3.6-7.9,6-11.5c1.8-2.7,3.5-5.6,5.5-8.2
			c1.2-1.5,1.8-3.3,2.8-4.8c3-4.2,6.2-8.3,10.8-10.9c5.3-3.1,8.7-7.9,11.8-13c2.7-4.4,6-8.3,9.3-12.2c4.9-5.8,10.7-10.8,15.5-16.6
			c5-6,10.4-11.7,14.7-18.3c1.8-2.7,4.6-4.8,6.9-7c6-1,11.4,0.9,16.7,3.3c1.8,0.8,3.9,1.1,5.9,1.5c1.8,0.4,3.9,0.4,5.6,1.1
			c5.7,2.4,11.2,5.1,16.8,7.7c2.2,1.1,4.7,2,6.5,3.6c2.2,2.1,5,2.5,7.6,3.6c3.4,1.4,6.9,2.5,10.3,3.7c7.1-5.8,14.4-11.4,22.8-15.8
			c5.3-2.8,10.9-5.1,16.2-7.9c2.2-1.2,4.2-2.7,6.7-4.2c4.3,3,8.8,6,13,9.2c4.2,3.2,8.3,6.4,12.5,9.6c4.2,3.2,7.1,7.6,9.8,11.9
			c3.7,5.6,7.6,11.2,10.9,17c2.7,4.7,6.1,8.7,8.7,13.4c0.4,0.7,1.2,1.2,1.7,1.8c2.3,2.6,4.7,5,6.7,7.7c3.1,4.4,6.8,8.2,11.3,11.3
			c1.4,1,2.1,2.8,3.2,4.1c3,3.4,6,6.9,9.2,10.2c3.1,3.3,6.3,6.4,9.6,9.6c0,1,0.1,2.2,0.1,3.3c7.8,0.4,15.4,0.9,23.1,1.3
			c2.5,0.1,5,0.1,7.5,0c1.2,0,2.4,0.1,3.7-0.7c1.2-0.6,3.1,0.1,4.6,0.2c1.8,0.1,3.9,1,5.2,0.3c2-1.1,3.8-0.8,5.7-0.8
			c5.7-0.1,11.3-1.6,17.1-1.1c2.5,0.2,4.5,1.3,7,1.7c0,1.8,0.4,3.2-0.1,4.3c-0.5,1.2-0.4,2.1,0,3.2c0.4,1,0.1,2.3,0.1,3.5
			c0,1.3,0,2.6,0,4.4c-2,0.6-4.1,1.9-6.1,1.8c-10.2-0.3-20.4,1.8-30.6,1.1c-6-0.4-12,0.2-18,1.3c5.2,7.3,10.5,14.7,15.6,22.2
			c4.2,6.1,8.1,12.3,12,18.5c0.9,1.4,1.7,2.7,3.6,3.2c1.9,3.5,4.1,7,5.8,10.8c2.7,6,5,12.2,7.4,18.4c0.3,0.9,0.1,2,0.1,2.9
			c0,5.5,0.1,11,0,16.5c-0.1,3.3,0.7,6.3,1.7,9.3c0.1,0.3,0.4,0.6,0.3,0.9c-0.7,3,1.2,5.6,1.1,8.6c-0.2,3,0.1,6-0.1,9
			c-0.1,1.7-0.6,3.4-1,5.1c-0.3,1.5,0.7,3.3-0.8,4.7c-0.3,0.2-0.3,1-0.2,1.4c2,5.6,0.5,11.4,1,17.1c0.3,3.3-0.5,6.4-1.7,9.3
			c-0.7,1.7,0.7,3.7-1,5.1c-0.5,4.9-3,9.1-4.4,13.7c-1.3,4.5-3.8,8.8-5.9,13c-1.5,2.9-3.2,5.7-4.9,8.6c0.2,0.3,0.6,0.6,1.1,1.2
			c-0.4,0.6-0.8,1.2-1.2,1.9c-2.5,3.9-3.6,8.5-6,12.5c-2.6,4.3-4.6,9-8.1,12.7c-0.7,0.8-1.1,1.9-1.7,2.8c0.2,0.3,0.6,0.6,0.9,1
			c-0.6,2.8-2.5,4.8-4.7,6.4c-2.9,2.2-6.3,3.5-8.1,7.1c-0.6,1.3-2.1,2.2-3.6,3.1c-2.2,1.3-4,3.5-5.7,5.5c-8,9-17.8,15.4-28.6,20.4
			c-1.7,0.8-3.4,1.5-5.2,2.3c-0.1,1-0.1,2.2-0.2,3.3c-2.8,1.4-6,1.8-8.8,2.9c-2.9,1.2-5.7,2.4-9.2,2.7c1.8,2.3,4.2,3.4,6.4,4.8
			c6.7,4.3,13.6,8.1,19.3,13.9c2.8,2.9,6.6,4.8,10,7.2c4.2,3,8.3,6.1,13.1,8.1c2,0.8,4,1.7,6.5,2.8c3.4-0.4,7,0.8,10.5,2.9
			c1-2.4-0.7-5,1.1-7.2c-1.3-2-0.7-4.3-0.7-6.5c-0.1-2.5-0.1-5,0-7.5c0.1-2.9-0.1-6,0.6-8.7c0.7-2.6-0.7-5.6,1.3-7.9
			c-0.4-3.8,1.8-7,2-10.7c0.1-0.7,0.7-1.4,0.9-2.1c0.8-2.8,2.5-5.3,3.5-8.1c1.1-3.3,3.2-6.4,5.2-9.3c0.8-1.1,0.9-2.4,1.5-3.4
			c1.3-2.4,3.3-4.4,4.9-6.5c5.1,0,9.9,0,15.1,0c1,3.3,1.9,6.6,1.9,10.1c0,3.8-0.3,7.7,0.1,11.5c0.3,3.7-1.4,7-1.1,10.9
			c-0.6,0.5-1.4,1.1-1.6,1.2c-0.6,2.9-1,5.1-1.4,7.3c-0.4,2.2,0.8,4.6-1,6.6c-0.1,0.1,0,0.3,0,0.5c-0.3,4.5-0.8,9.1-1,13.6
			c-0.2,5.7-0.1,11.3,0,17c0.1,6.2,0.4,12.4,0.6,18.7c4.7,3.3,9.2,6.6,13.8,9.9c-0.5,1-0.8,1.5-1.3,2.3c4.9,3.7,10.2,7.2,16.3,9.1
			c5.7,1.8,10.8,4.7,15.7,7.9c5.4,3.5,10.5,7.6,16.1,10.8c2.9,1.7,5.6,3.9,9.1,4.5c1.3,0.2,2,1.5,3.1,2.1c3.5,2.2,6.6,5,10,7.8
			c1.3,0,2.8,0,4.2,0c4.2,5.7,8.2,11.3,13,16.4c4.1,4.4,8.2,9,11.5,14.1c1.2,1.8,2,3.5,2,5.7c0,1.1,0.1,2.1,0.6,3.2
			c0.6,1.1-0.1,2.9-0.3,5.3c-0.2-0.2,0.5,0.2,0.5,0.7c-0.1,3.7,1.5,7.3,1.2,11.1c-0.2,2.5,0.9,4.9,1,7.6c0.3,6.6-1.3,12.5-4.8,18.1
			c-0.2,0.4-0.3,0.9-0.6,1.6c-1.3,0.4-2.9,1-4.9,1.7c-0.3,0.6-0.6,1.5-1.1,2.2c-2.8,4.1-4.1,9.1-7.6,12.9c-2.4,2.6-3.5,6.5-5.2,9.8
			c-0.2,0.4-0.6,0.7-1.3,1.5c3.1-0.2,5.9,1,8.7-0.7c0.7-0.4,1.9-0.2,2.9-0.2c10.2,0,20.3-0.1,30.5,0c2.4,0,4.7,0.8,7.1,0.9
			c2.5,0.2,5.1-0.5,7.5,0.2c2.7,0.7,5.4,0.9,8.1,0.8c1.9-2.4,5.3,0.4,7.2-2c2.3,0.6,4.4-0.9,6.6-1c3-0.1,6.1-0.6,9,0.1
			c3.4,0.8,6.8,0.6,10.1,0.9c1.9,0.2,4,0.4,5.5,1.1c3.2,1.5,5.4,0.5,7.8-1.2c0.5-0.3,1.1-0.5,1.7-1.3c5.1,0.5,10.3,1,15.4,1.4
			c1,5.6-0.4,11-1,16.9c-3.7,1.9-7.6,3.8-12.1,3.9c-3.3,0.1-6.7,0.1-10,0c-2.5-0.1-5.1-0.9-7.6-0.9c-2.6,0-4.9-1-7.3-1.7
			c-1.4-0.4-3.1-0.1-4.7,0.2c-2.8,0.4-5.5,1.4-8.4,1.6c-3.2,0.3-6.3,1.1-9.6,0.9c-6.2-0.3-12.3-1.6-18.6-1c-4.9-1.9-10.1-0.8-15.1-1
			c-5-0.2-10.1-0.6-15,0.1c-4.4,0.6-8.9,0-13.1,1c-5.1,1.2-10.2,1-15.1,0.6c-3.5-0.3-7.1-0.7-10.9-0.8c-0.5,0.7-1,1.5-1.4,2
			c-12,0-23.5,0.1-35,0c-8.4-0.1-16.7,1.7-25.1,1c-7.6,2.1-15.5,1.4-23.1,0.8c-13.4-1.1-26.7-0.6-40.1-0.8c-13.3-0.2-26.7,0-40,0
			c-5.6-1.6-11.4-0.9-17.3-1c-0.5,0.7-1,1.5-1.4,2c-4.2,0-8,0.7-11.5-0.1c-6.7-1.6-13.5-1.3-20.1-0.6c-6.7,0.7-13.4,0.6-20.1,0.7
			c-6.7,0.2-13.3,0.1-20,0c-2.5-0.1-5.1,0.6-7.7-0.7c-2.2-1.1-5,0.3-7.5-1.1c-1.3-0.8-3.4-0.5-6-0.7c-0.2,0.1-1.4,0.6-2.6,0.6
			c-7.2,0.1-14.4,0.8-21.5-0.1c-10.1-1.3-20.1-0.6-30.1-0.8c-10.3-0.2-20.7,0-31,0c-10.2,0-20.3,0-30.5,0c-18.2,0-36.3-0.1-54.5,0.1
			c-3.3,0-6.3-1.2-9.6-1.1c-3.1,0.1-6-0.6-8.7-1.9c-0.5-0.3-1.3-0.1-1.9-0.1c-1,0-2-0.1-3,0c-9.4,0.7-18.7-1.3-28.1-1
			c-1.7,0.1-3.5-0.6-5.2,0.9c-0.6,0.6-2.4,0.5-3.4,0c-4.3-2-8.9-1.4-13.1-0.7c-6.1,1-12.1,0.4-18.1,0.8c-2.2,0.2-4.4,0.7-6.6,1
			c-2.1,0.2-4,0.3-6.1,0.8c-2.8,0.8-6,0.4-8.9,0.1c-2.9-0.2-5.7,0.7-8.7-0.7c-2.1-1-4.9-0.1-7.4-0.3c-1.9-0.2-3.9,0.9-5.7-0.9
			c-0.4-0.4-1.8-0.4-2.4,0c-2.3,1.5-4.8,0.6-7.1,1c-12.2,1.9-24.4,0.6-36.6,1c-0.9,0-1.7,0.6-2.7,0.8c-1,0.2-2,0.3-2.9,0.1
			c-5.9-1.2-5.8-0.8-11.2-0.1c-3.5,0.4-7.2,1-10.7-0.5c-0.3-0.1-0.6-0.3-0.9-0.3c-3.8-0.4-7.7-0.7-11.6-1.1c-1.4-1-2.8-2-4.2-2.9
			c1.5-5,0.3-10.3,3-15c10.7,0,21.4,0,32,0c5.7,0,11.3,0.1,17,0c3.5-0.1,7.1-0.8,10.6-0.9c3.5-0.2,7.2,0.7,10.5-0.2
			c5.1-1.3,10.2-1.3,15.1-0.6c4.8,0.7,9.4,0.5,14.1,0.7c0.5,0,0.9-0.1,1.2-0.2c-2-3.9-4-7.7-5.9-11.5c-2-4-3.8-8.1-5.8-12.1
			c-2-3.9-3-8.1-4.4-12.2c-1.4-4.1-2.7-8.3-4.3-13.3c-0.3-0.4-1.2-1.8-2.1-3.1c-0.5-1.7-0.3-3.6-1-5.5c-1.1-3.2,0.2-6.7,1.2-9.9
			c2.3-7.2,5.6-14,11.2-19.3c1.6-1.5,2.4-3.3,2.5-5.4c4.4-4.7,8.7-9.5,13.1-14.1c1.2-1.3,2.7-2.3,4.2-3.2
			c7.4-4.1,14.6-8.2,21.8-12.6c4.5-2.8,8.7-5.9,13.7-8c2.7-1.1,5.3-2.7,7.6-4.6c5.2-4.5,11.3-7.1,17.3-10.2c4.4-2.3,8.7-5,12.7-7.9
			c3-2.2,6.5-3,9.6-4.7c3.2-1.8,6.5-3.4,9-6.9c0-1.5,0-3.5,0-5.5c-0.1-7.9,1.7-15.7,1-23.6c-0.1-1,0-1.9,0-3.3
			c-5.3,1.1-9.8-1.3-14.3-3c-2.9-1.1-5.2-3.5-7.7-5.4c-0.9-0.7-1.6-1.8-2.5-2.4c-2.8-1.8-3.3-5-4.3-7.7c-0.9-2.5-0.8-5.3-1.1-8
			c-0.2-1.7-0.7-3.4-1-5.1c-0.3-1.5,0.5-3.2-0.9-4.7c-0.5-0.5-0.1-1.9-0.1-2.9c0-3.3,0-6.7,0-10.4c5.2-0.8,10.4-1.6,15.5-2.4
			c2.7,3.4,2.1,7.3,3.3,10.7c1.1,3.4,1,7.3,1.4,11.1c2.3,2.1,3.8,5.5,7.5,6.5c-1.6-7.7-3.1-15.1-4.7-22.6c4.3-4,10.4-3,15.5-5.9
			c0.7,1.2,1.6,2.2,2,3.3c1.9,5.4,4.1,10.8,4.7,16.6c0.3,2.9,1.4,5.7,2.3,9.3c1.7-4.1,2.4-7.6,2.6-11.2c0.2-2.8-0.2-5.7,0.1-8.5
			c0.2-1.3,1-2.6,0.9-4.1c-0.1-1.5,0-3,0-4.5c0.8-0.8,1.7-1.6,2.5-2.5c1.6,0,3.3-0.1,5,0c1.4,0.1,3-0.6,4.1,0.9
			c1-1.4,2.9,0.7,3.6-1.7c1.2,1.7,1.9,2.9,2.9,4.3c0,7.2,0.5,14.8-0.2,22.2c-0.4,4.7-0.7,9.5-1.9,14.2c-0.5,2-1.8,4-3.1,5.7
			c-1.2,1.6-2.8,2.9-3.4,3.5c-3.7,1.7-6.6,3-9.6,4.4c0.5,6.4,1,12.9,1.5,19.4c6.4-2.5,12.2-5.9,18.1-9.4c6.2-3.6,12.7-7,19.5-9.5
			c2.9-1.1,5.5-2.8,8.1-4.5c5.5-3.5,11-7.2,16.9-9.8c4.1-1.8,7.5-4.6,11-7.2c3.4-2.5,7.2-4.3,10.9-6.4c2.4-1.4,4.9-2.8,7.5-4.3
			c-4.1-1.2-7.8-2.3-11.4-3.3c-0.6-0.2-1.2-0.4-1.8-0.4c-5.9,0.2-10.8-2.9-15.8-5.4C416.2,538.1,413.4,535.9,410.3,533.9z M554,176
			c0.8-0.2,1.9,0.5,1.9-1.6c3,0.3,3.5,2.9,3.9,4.6c0.4,1.9,1.1,3.5,1.8,5.2c1.3,3,2.4,6.4,1.1,9.3c-1.4,3-0.4,5.1,0.8,7.9
			c0.9-2.5,1.7-4.6,2.5-6.7c-0.5-0.6-0.9-1-1.4-1.7c1.2-1.6,2.4-3.1,3.5-4.6c0.4-0.6,0.6-1.2,1.2-2.4c-2.5,0-4.4,0-6.3,0
			c-0.4-4.9,0.3-9.4-0.4-14.5c-2.5,1.1-4.6,2-6.7,3.5c-0.8,0.2-1.9-0.5-1.9,1.1c-0.1-0.1-0.1-0.1-0.2-0.2c-0.3,0.2-0.5,0.5-0.8,0.7
			c0.1,0.1,0.2,0.2,0.3,0.3C553.6,176.6,553.9,176.4,554,176z M488.2,169.1c1.2,0.9,1.2,0.9,2.8,0c-1.1,0-2,0-3-0.1
			c-0.4-0.3-0.7-0.9-1.2-1c-0.9-0.1-1.9,0-2.7-0.5c-2-0.5-4-1-6.3-1.5c1,1.7,1.8,2.8,2.5,4c1.3-0.8,1.9-2.6,3.7-2
			c0.4,0.3,0.7,0.9,1.2,1C486.1,169.1,487.1,169,488.2,169.1z M330.9,738.1c0.1-0.1,0.1-0.1,0.2-0.2c-0.2-0.3-0.5-0.5-0.7-0.8
			c-0.1,0.1-0.2,0.2-0.3,0.3c0.3,0.2,0.5,0.5,0.9,0.6c2.6,1.9,2.6,1.9,6.8,2.8C336.5,739.4,333.6,738.2,330.9,738.1z M359,477.7
			c2.8,3.4,5.4,7.1,8.6,10.2c2.6,2.5,5.6,4.6,9,6c6.2,2.8,11.7,6.7,17,11c2.1,1.7,4.5,3.2,7.2,4.2c4.8,1.6,9.5,3.7,14,5.9
			c3.2,1.6,6.1,3.8,9.2,5.5c2.5,1.3,5,2.6,8,2.5c1.3,0,2.4,0.1,3.7,0.9c1.2,0.8,3,0.7,4.5,1.1c4.2,1.1,8.3,2.5,12.7,2
			c0.2,0,0.4-0.1,0.5,0c5.4,2.3,11.5,2.8,16.2,6.9c0.7,0.7,2,0.7,3,1.1c3.2,1.4,6.6,1.8,9.9,2.7c5.1,1.5,10.4,2.2,15.7,3.3
			c1.2,0.2,2.4,0.7,3.6,1c1.2,0.3,2.5,0.4,3.7,0.6c4.3,0.9,8.5,2.6,13,2.3c2.5-0.1,5.2,0.6,7.6-0.9c0.9-0.5,2.7-0.6,3.4,0
			c1.7,1.5,3.5,0.8,5.2,0.9c2.7,0.1,5.3,0.2,8,0c2.7-0.2,5.4-0.7,8.1-0.9c4.4-0.3,8.8,0.5,13.1-0.9c2.2-0.8,4.7-0.9,7.1-1
			c2.5-0.2,5,0,7.5,0c1.6,0,3.1-0.3,4.6-0.8c1.8-0.6,3.9-2.2,6.2-0.3c0.9,0.7,3.1,0.5,4.3,0c4.3-1.8,8.9-1.8,13.3-2.7
			c3.6-0.7,7.4-0.6,11.1-0.9c5.5-0.5,10.4-2.3,15.3-4.3c6.4-2.7,12.5-6.1,18.6-9.3c2.1-1.1,4.2-2.3,5.9-3.9
			c7.1-6.6,14.1-13.4,21.2-20.1c1.5-1.4,2.9-2.9,4.8-4c2.4-1.5,4.7-3.6,6.6-5.7c2.8-3.2,4.8-7.2,6.6-11.2c1.4-3,2.5-6,4.5-8.7
			c2-2.8,4.8-5.4,5.5-8.7c1.5-6.9,5.6-12.7,7.8-19.3c2-6.1,3.6-12.3,4.6-19c2-3.4,3.6-7.5,2.6-9.3c-1.1-1.9-0.9-3.8-0.8-5.7
			c0.2-4.5-0.5-9,0.8-13.6c0.9-3.1,0.4-6.6,0.1-9.9c-0.2-2.3-1.2-4.5-1.6-6c0.5-4.1,1-7.5,1.3-10.5c-0.3-1.4-0.6-2.4-0.6-3.5
			c-0.1-3.9,0.1-7.7-0.9-11.6c-0.5-1.9-1.6-3.3-2.1-5.1c-2.1-6.9-5.6-13-9-19.7c0-1.3,0-3,0-4.4c-1.1-1.6-2.2-3-3.2-4.5
			c-3.2-5.2-6.7-10.2-10-15.4c-3.8-6-7.5-12.2-12.7-17.3c-0.9-0.9-1.5-2-2.3-3.1c-2.2-2.9-4.1-6.2-6.7-8.7c-3-2.8-6.6-4.8-9.8-7
			c-20.4,0-40.6,0-60.8,0c-2.2,0-4.4,0.4-6.6-0.9c-1.1-0.6-3.3-0.7-4.4,0c-1.9,1.2-3.8,0.8-5.7,0.9c-5.8,0.1-11.7,0.1-17.5,0
			c-5.7-0.1-11.5,0.7-17.1-1c-11.5,0-23,0-34.5,0c-9.7,0-19.3-0.2-29,0c-9.5,0.2-19.1-1-28.6,0.9c-1.8,0.4-3.7,0-5.5,0.1
			c-1.6,0.1-3.7-0.3-4.7,0.5c-1.7,1.5-3.2-1-4.6,0.3c-0.7-1.5-2,0.6-2.9-0.5c-0.4-0.4-1.6,0.7-2.4-0.2c-1,1.4-2.4,0.8-3.7,0.8
			c-12.2,0-24.3,0-36.5,0c-1.1,0-2.2-0.4-3.3-0.5c-3.2-0.5-6.5-1-9.4-1.5c-3,4.6-5.8,8.8-8.5,13c-1.8,2.7-3.1,5.7-4.4,8.7
			c-1.4,3.3-2.1,6.8-3.7,10c-1.8,3.6-3.8,7.1-5.6,10.7c-1.4,2.7-3.1,5.4-4.2,8.3c-1,2.9-1.6,6.1-2,9.1c-0.8,5.4-2.4,10.6-4.7,15.6
			c-2.4,5.1-3.3,10.7-4.5,16c-2.9,4.2-5.8,8.4-8.5,12.1c-0.5,3.1-1.2,5.7-1.3,8.4c-0.2,6.7,0.1,13.3-0.1,20
			c-0.2,6.5,0.9,13.1-0.8,19.7c0.6,0.5,1.3,1.2,1.9,1.8c-0.4,2.9,0.5,5.3,0.8,7.8c0.4,2.8,1.1,5.5,1.9,8.2c0.9,3.3,2.1,6.6,2.3,10.1
			c0.2,2.1,0.8,4.5,2.1,6.1c2.2,2.6,3.2,5.7,4.8,8.6c2,3.5,2.8,7.7,6,10.4C359,473.6,359,475.5,359,477.7z M716.5,780.8
			c-1.9,0.4-4,1.6-4.8,1c-2.1-1.5-4.2-0.4-7.2-1.2c-1.4-1.3-4.2-3-5.4-5.4c-3.4-7.1-8.2-13.5-10.7-21.1c-0.8-2.6-1.8-5.2-2.8-7.8
			c-1-2.5-1.8-5-1.8-7.8c0-2.9-0.8-5.7-0.9-8.6c-0.1-6.5-0.1-13,0-19.5c0-1.2-0.6-2.7,0.7-3.7c-0.4-3.2,2.4-5.4,2.5-8.5
			c1.8-1.2-0.3-3.7,1.8-4.8c0.4-2.8,2.8-4.5,3.9-6.9c1.8-4,5.3-5.4,9.2-6.7c2.8-0.9,5.3-2.6,8.1-4c-0.7-6.1,1-12.2-1.1-18.2
			c-0.3-1-0.2-2.4,0.2-3.4c1.5-3.8,1.1-7.5-0.2-10.3c-1.4-1.2-2.9-1.9-3-2.6c-0.1-2.1-1.4-3.5-2.1-5.2c-0.7-1.7-1.3-3.5-1.6-5.3
			c-0.9-4.5-2.5-8.8-2.4-13.5c0-0.7,0-1.3,0-1.7c-1-1.1-1.7-1.9-2.3-2.6c-6-1.1-11.3-3.1-16.5-5.6c-3.1-1.4-6-3.3-9-4.9
			c-4-2.2-7.8-4.6-11.4-7.4c-0.4-0.3-1.1-0.1-2-0.2c0.5,1.4,1,2.4,1.2,3.5c0.8,3,1.3,6.2,2.3,9.1c1.8,5.2,2.9,10.4,2.7,15.9
			c-0.1,3.1,1.7,5.9,1,9.1c1.6,2,1.1,4.5,2,6.7c0.9,2.3,1.7,4.6,2.6,6.9c0.8,2.2,1.6,4.3,2.5,6.5c0.7,1.9,1.5,3.7,2.4,5.9
			c-1.2,0.7-2.6,0.9-3,1.7c-0.6,1.1-1.2,2.1-2.5,2.3c-4,0.7-7.8,2.6-12,2.5c-4.3,0-8.7,0.3-13-0.1c-4.5-0.4-8.6,1.6-13.8,1
			c2.1,2,3.4,3.5,5,4.7c3.8,2.9,8.5,4.8,11,8.9c1.5,0.6,2.8,1.1,3.9,1.6c-0.4,5.6,2.3,10.6,0.5,15.8c-4-0.2-6.5,1.9-8.6,5.1
			c-1.8,2.9-4.1,5.3-7.7,6c-0.7,0.1-1.3,0.8-2,1.2c-3.1,2.1-6,4.7-9.4,6.2c-3.4,1.5-6.5,3.6-9.9,5.1c-5.1,2.2-9.7,5.1-13.9,8.8
			c-1.6,1.4-3.7,2.3-5.5,3.7c-4.6,3.5-9.8,6-13.5,11c-5,6.8-12.2,11.3-19.4,15.7c-2.6,1.6-5.7,2.9-7.7,5.1
			c-3.7,4.1-7.2,8.3-11.9,11.5c-2.2,1.5-4.2,3.4-6.4,5.3c2.7,0.5,5.2,1.1,7.7,1.4c2.6,0.2,5.3,0.1,8,0c3.6,0,7.1-0.4,10.6-0.8
			c7.1-0.9,14.4,0.4,21.6-1c3-0.6,6.4,0.7,9.6,0.8c4.5,0.2,9,0,13.5,0c1,0,2.1-0.2,2.9,0.2c3.8,1.9,7.1,0.7,10.2-1.2
			c2.8,0,5.5,0.3,8.1-0.1c2.9-0.4,5.3,1.1,8.1,1.1c12.3,0,24.7-0.2,37,0c12.4,0.2,24.8-1,37.1,0.9c2.6,0.4,5.3,0.1,8,0
			c0.3,0,0.5-0.3,0.4-0.2C717.2,782.2,716.8,781.4,716.5,780.8z M420.8,586.8c-6.4,4.3-13,7.9-19.7,11.2c-5.1,2.5-10.4,4.9-15.2,8
			c-5.6,3.6-11.3,6.9-17.6,9.4c-5.2,2.1-10.4,4.5-14.3,9.2c0.3,3,0.8,6.2,1,9.4c0.2,3.3,0,6.7,0,10c0,3.3-0.3,6.7,0.1,10
			c0.4,3.3-1,6.4-1.1,9.6c-0.1,3.1-0.6,6.2-0.9,9.3c2.8,0.5,5.2-2.6,7.5,0.1c2.4-0.3,4.7,0.3,7.1,1c2.7,0.7,4.3,2.7,6.1,4.4
			c0.1,0.8,0.1,1.7,0.4,2.4c2.4,4.2,4.1,8.6,5.2,13.3c0.4,1.5,0.3,3.2,0.8,4.7c0.9,2.5,1.2,5.2,1.6,7.8c0.3,1.9,0.1,4,0.1,6s0,4,0,6
			s-0.1,4,0,6c0.1,1.8,0.5,3.6,0.5,5.4c-0.1,1.9-0.5,3.8-0.9,6.2c-0.9,1.1-2,2.6-3.3,4c-1.7,1.8-2.8,3.6-3.4,6.1
			c-1,4-2.1,8.2-5.7,11.2c-0.9,0.8-1,2.5-1.5,4.1c-5,7.5-11.5,13.4-20.9,16c1.6,1.1,3.7-0.3,4.7,1.5c3.1-0.2,5.9,1.1,9.1,1.1
			c40.2-0.1,80.3-0.1,120.5-0.1c1.3,0,2.6,0,3.4,0c0.8-2.5,1.5-4.6,2.2-6.8c-0.1-0.1-0.4-0.5-0.8-0.9c2-4.6,0.6-9.4,1-13.8
			c-2.3-1.2-4.2-2.7-6.4-3.3c-5.6-1.5-10-5-14.8-7.8c-3.1-1.8-6-3.9-9.1-5.6c-6.1-3.3-12.8-5.6-18.4-9.8c-1.4-1-2.8-2.1-4.4-2.6
			c-1.7-0.6-3.3-1-4.5-2.4c-3.9,0.2-6.6-2.7-9.9-3.9c-4.1-1.5-6.5-4.3-8.3-7.7c0-5.2,0-10.1,0-14.9c5.1-5.8,11.6-10.1,15.1-18.1
			c-1.9,0.7-3.1,1.5-4.2,1.5c-1.4,0-2.7-0.6-4.1-0.9c-3.7-0.8-7.3-1.5-10.9-2.2c0-4.5-0.6-8.7,0.1-12.8c0.8-4.4,1.4-8.8,2-13.2
			c0.4-2.7,0.2-5.6,1-8.1c1.8-5.5,2.5-11.3,3.7-16.9c1.1-5.7,3.3-11.3,3.2-17.2c1.9-1.5,0.2-3.8,1.3-5.4c1.3-1.8,0.4-3.8,0.6-5.7
			c0.1-0.7-0.3-1.6,0.1-1.9c1.9-1.9,0.3-4.2,1-6.1C420.8,591.4,421.3,589.5,420.8,586.8z M622.7,568.8c-0.5,0.7-1.1,1.4-1.7,2.2
			c-2.8,4-5.3,8.3-8.6,11.9c-3.2,3.5-5.6,7.4-8.3,11.1c-3,4.1-6.1,8.1-10,11.2c-2.1,1.7-4.6,3.2-6.1,5.5c-2.3,3.5-5.4,6.1-8.2,9
			c-2.6,2.7-4.7,5.6-6.8,8.7c-2.1,3.1-4.5,6.2-7.4,8.4c-5,3.8-9,8.6-13.6,12.8c-0.8,0.8-1.6,1.8-2.5,2.3c-3.8,2-6.3,5.3-8.9,8.4
			c-2.2,2.6-4,5.3-7.1,6.9c-1.8,0.9-2.5,2.9-3.3,4.6c-0.6,1.3-0.9,2.6-1.4,3.9c-1.2,3.5-3.5,6.6-3.8,10.5c-0.1,1.1-0.7,2.3-0.9,3.6
			c-0.2,1.4-0.4,2.9-1,4.1c-1.4,2.4-1.4,5.2-1.8,7.7c-0.7,5.5-2.2,10.7-4.8,15.6c-0.7,1.3-1.7,2.6-1.4,4.4c0.6,4.4-1.1,8.5-3.1,12.2
			c-2,3.8-2.5,7.9-2.7,11.8c-0.2,5-1.5,9.7-2.8,14.4c-0.7,2.5,0.1,5.1-1.4,7.4c-0.2,0.2-0.1,0.7,0,1c0.3,1,0.9,2.1,0.9,3.1
			c0,1-0.7,2-0.9,3.1c-0.4,2-0.7,4-1.1,6.2c2.3,0,4.5,0,6.7,0c2.7-3,5.9-5.9,8.3-9.4c3.2-4.8,7.4-8.5,11.6-12.1
			c3.3-2.8,6.9-5.2,10-8.3c2.1-2.1,3.7-4.5,6.2-6.4c3.4-2.6,6.8-5.2,10.6-7.2c6.3-3.5,11.8-8.1,16.3-13.6c2.5-3,5.6-5.1,8.4-7.7
			c3-2.7,6.9-4.3,10.1-6.7c5.9-4.5,11.9-8.6,18.7-11.6c3.8-1.7,7.4-3.9,11-6c0.6-0.4,1-1.1,1.6-1.7c-3.4-2.8-6.7-5.3-9.8-8.1
			c-2.7-2.5-5.8-4.3-9-6.1c-4.8-2.7-10.1-4.8-13.5-9.5c0-1.8,0.6-4-0.1-5.4c-1.6-3.2-0.4-6.4-1-10c3.2-1,6.3-2.6,9.4-2.8
			c4.7-0.3,9.3-1.6,14.1-1.2c5,0.4,10,0.2,15,0c6.8-0.3,13.6-0.8,20.2-1.2c-0.6-2.5-0.9-5.2-1.9-7.5c-3.1-7.2-3.1-15-4.6-22.6
			c-0.3-1.6,0.6-4-0.2-4.8c-1.5-1.6,0-3.6-1.5-5c-1.2-1.1,0.5-3.4-1.4-4.4c-0.3-3.6-1.9-6.9-3-10.3c-1.7-5-3.3-9.9-5.2-14.8
			c-0.6-1.6-1.9-3-3.2-4.2C626.3,571,624.7,570.2,622.7,568.8z M730.2,637.4c0,13.3,0,25.9,0,38.6c0.8,0,1.5,0,2.1,0
			c5.4-0.1,9.7,2.4,12.6,6.7c1.6,2.3,3.3,4.1,5.7,5.6c2.4,1.5,4.5,3.6,5.7,6.5c2,4.5,4.6,8.7,6.3,13.4c1.7,4.4,3.8,8.7,3.4,13.6
			c0,0.5-0.2,1.1,0,1.5c1.6,4.3,2.2,8.7,2,13.2c-0.3,5.2-1.7,9.8-5.5,13.8c-2.1,2.2-4,4.7-5.1,7.8c-1.1,3.3-2.7,6.4-5.5,8.7
			c-1.7,1.4-3.5,2.9-4.4,5.2c-0.2,0.5-1.4,0.7-2,1.1c-2.3,1.7-5,2.5-7.5,3.6c-2.6,1.1-5,2.3-7.8,2.9c-2.8,0.6-5.4,2-8.7,3.3
			c1.1,0.1,1.7,0.3,2.4,0.2c4.2,0,8.5,0.4,12.6-1c16.7,0.7,33.4-1.9,50.6-0.8c0.4-0.7,1-1.5,1.6-2.4c3.2,0,6.3,0,9.3,0
			c0.2-1,0.2-1.9,0.5-2.6c0.7-1.6,8.3-11.4,9.7-12.1c2.8-1.6,3.8-4.5,5.4-7c2.5-4.1,5-8.3,7.4-12.4c0.3-0.5,1-1,1.1-1.5
			c0.1-4.7,3.6-7.8,5.1-12.5c-0.3-6.1,0.4-12.8-0.9-19.5c-0.6-3.1-1.2-5.8-3.6-8.1c-2.8-2.7-5.3-5.7-7.8-8.8
			c-1.9-2.4-3.5-5.1-5.5-8.1c-1.2-0.8-3-1.8-4.6-3c-4.7-3.5-9.5-6.6-14.5-9.6c-4.4-2.6-9.1-5-13.1-8.2c-6.2-5-13.3-8.1-20.5-11.1
			c-1.8-0.8-3.9-1.3-5.5-2.3c-5-3.2-10.5-5.8-14.8-10.1C734.7,640.2,732.6,639.2,730.2,637.4z M232.7,726.4c1.2,2.9,2.5,5.2,3.2,7.7
			c2,7,4.9,13.6,8.1,20.1c1.4,2.8,3.5,5.1,6.4,6.8c4.5,2.7,8.5,6.1,12.7,9.2c-0.2,0.1-0.4,0.3-0.6,0.4c0.9,1.8,1.7,3.6,2.5,5.2
			c7.1,0,13.8,0.3,20.4-0.1c6.8-0.4,13.4,1.2,20.1,1.1c5.5-0.1,11,0,16.5,0c1.6,0,3.2,0,5.3,0c-4.8-3.8-10.6-5-13.6-9.9
			c-3.1-0.5-3.3-0.7-4.8-3c-2.2-3.3-4-6.9-6.9-9.6c-1.3-1.2-1.8-2.8-2.1-4.6c-0.8-3.9-1.5-7.9-3.9-11.6c0-1.7-0.1-3.7,0-5.7
			c0.2-2,0.3-4.2,1-6.1c1.3-3.5,1.8-7.3,2.6-10.9c1.3-5.8,3.5-11.3,4.5-17.2c0.6-3.8,2.5-7.3,4.7-10.5c1.6-2.3,3.8-4.2,5.9-6
			c2.1-1.9,3.6-4.2,5.8-6.1c4-3.3,8.3-5.5,13.4-6.1c0.6-5.2,0-10.2,0.9-15.3c1-5.6,0.2-11.5,0.2-18c-2.5,1.4-4.6,2.4-6.5,3.6
			c-2.7,1.6-5.2,3.4-7.9,4.9c-3.1,1.8-6.2,3.6-9.4,5c-3.6,1.5-6.4,4-9.4,6.2c-4,2.8-8.5,4.7-12.4,7.4c-8.8,6-18.1,11.1-27.2,16.4
			c-3.9,2.3-7.1,5.3-9.8,8.6c-2.7,3.4-5.3,6.8-9.5,8.5c-0.7,0.3-1.4,0.9-1.8,1.6c-2.1,3.1-4.3,6.1-5.7,9.6c-1.5,3.9-1.5,8-1.1,12
			c0.2,1.4,1,2.9,0.5,5.3C234.4,725.6,233.5,726,232.7,726.4z M512.9,663.4c-9.4-9.4-18.8-18.7-28-28.1c-1.1-1.1-2.1-2.2-3-3.7
			c-1.7-2.9-4.1-5.5-6.6-7.7c-1.7-1.6-3-3.2-4.3-5.2c-2.3-3.7-4.6-7.7-7.7-10.7c-5-4.8-7.5-10.8-10.2-16.8c-0.8-1.8-1.5-3.7-2-5.7
			c-1.2-4.8-2.3-9.6-3.5-14.8c-2.3,1.7-4.3,3.2-6.5,4.9c0.3,6-0.5,12-2,18c-0.6,2.6,0.4,5.3-0.8,8.2c-1,2.3-0.2,5.3-1.1,8
			c-0.8,2.5-0.3,5.6-1.3,8c-0.8,2.1-0.4,4.1-1.1,6.1c-2,5.7-2.6,11.6-3.8,17.4c-0.2,1.2-0.7,2.4-1,3.6c-0.3,1.2-0.2,2.4-0.7,3.7
			c-0.9,2.5-1,5.3-1.3,8c-0.2,1.9,0.2,3.8-1,5.6c-0.4,0.7-0.1,1.9-0.1,2.9c4.9,0.6,9.2-1.3,13.8-1c4.7,0.3,9.4,0.4,14,1.4
			c0.4,0.4,0.7,0.7,1.2,1.2c-0.6,4.1,1.5,8,1.1,12.3c-0.2,2.9-1.3,5.3-2.9,7.3c-2.7,3.5-5.8,6.6-8.8,9.9c-2.4,2.7-4.8,5.3-7,8.1
			c-0.7,0.9-1,2.2-1.7,3.5c6.1,1.1,11.2,4.2,16.3,7c3.1,1.7,6.2,3.6,9.3,5.4c6.6,3.7,13.9,6.4,19.8,11.4c2.4,2,5.5,3.2,8.4,4.7
			c1.5-3.6,3-6.8,2.5-10.4c-0.1-1.1,0.5-2.2,0.6-3.2c0.7-4.4,3.8-7.8,4.4-12.2c1.9-1.7,0.4-4.1,1.1-6.1c1.3-3.7,2.4-7.4,2.9-11.3
			c2.1-1.7,0.9-4.2,1.5-6.3c1.5-5.2,4.2-9.9,5.6-15.2C509.8,668.7,511.5,666.2,512.9,663.4z M487.9,605.8c-0.3,3.8,1.4,7,4.2,9.9
			c2.8,2.8,5.5,5.5,8.3,8.3c0.5-0.5,0.9-0.8,1.2-1.2c2.3-3.1,4.4-6.3,6.9-9.2c1.4-1.7,3.5-3.1,4.3-5.2c1.8-4.7,5.1-8.5,7.2-13
			c2.5-5.3,6.8-9.2,10.2-13.4c3.6-0.3,5.2,2.2,7.2,4c0.6,0,1.1,0,1.6,0c1.6,1.2,3.2,2.5,4.6,3.6c1.1,5.1,4.7,8.6,7.1,12.8
			c2.5,4.2,5,8.4,7.6,12.7c1.6-1.6,3.3-2.8,4.3-4.5c2.2-3.6,4.8-6.8,7.8-9.7c2.5-2.4,5.2-4.7,7.3-7.5c1.6-2.1,3-4.4,5.1-5.8
			c4.3-2.8,7.3-6.8,10.5-10.6c0.9-1.1,1.6-2.3,2.5-3.5c1-1.3,2.1-2.4,2.9-3.8c2.6-4.1,5.2-8.3,7.8-12.6c-2-0.1-3.8-0.2-5.7,0.8
			c-1.9,1-4,1.8-6.1,2c-4.8,0.6-9.7,0.7-14.6,1.1c-1.7,0.1-3.4,0.3-5.1,0.8c-3,0.9-6.2,1.5-9.5,1.3c-3.1-0.3-6.3-0.1-9.5-0.1
			c-1,0-2.1-0.2-2.9,0.3c-2.5,1.4-5.5,1.3-7.6,0.5c-2.7-1-5-0.4-7.6-0.8c-0.7,0.9-1.2,1.5-1.4,1.9c-2.7,0.6-5.1-0.4-7.5,1
			c-1.2,0.7-3.4-0.2-5.2-0.4c-0.8-0.1-1.5-0.5-2.3-0.5c-4.9,0.3-9.3-2.3-14.2-2c-5.2-2.5-11-2.1-16.4-3.9c-3.2-1.1-6.8-1.3-10-2.5
			c-4.5-1.6-9-3.2-12.9-2.7c-2.6-0.8-3.9-2.5-6.3-1.6c0.3,0.4,0.8,0.7,0.8,1.1c1,5.7,2.8,11.2,4.1,16.8c1.9,8.3,5.3,15.7,11.5,21.8
			c1.1,1.1,2.1,2.3,2.9,3.8C483.2,599.1,485.6,602.3,487.9,605.8z M638,235c-1,0-2.7-0.5-3.3,0.1c-1.8,1.9-4,0.4-6,1.4
			c-1.7,0.9-4.2,0.5-6.3,0.5c-5.7,0-11.3,0-17,0.1c-1.7,0-3.4-0.4-5.2,0.8c-1.1,0.8-3.6,0.7-4.8-0.1c-1.5-1-2.8-0.7-4.2-0.8
			c-9.2-0.5-18.4,0.8-27.6-0.9c-3.9-0.7-8-0.6-12.1-0.9c-9-0.8-18.1,0.6-27.1-1.2c-26.8,0-53.6,0-80.5,0c-1.1,0-2.2,0.2-3.2,0.6
			c-3.3,1.1-6.8,1-10,2.3c-1,0.4-2.3,0.1-3.5,0.1c-6.3-0.2-12.7,0.7-18.7-1.2c-0.9,0.9-1.6,1.4-2,2.1c-1.7,3-3.3,6.1-5.6,8.7
			c-0.4,0.4-0.1,1.5-0.1,2.1c4.7,0.8,9,1.5,13.4,1.4c8.2-0.2,16.3,0.1,24.5-0.1c8.2-0.2,16.5,1,24.6-1c15.5-0.5,31.1,0.8,46.6-0.9
			c6.6-0.7,13.3-0.2,20-0.1c6.5,0.1,13-0.3,19.6,0.8c4.5,0.8,9.3,0.2,14,0.2s9.3,0,14,0c4.7,0,9.3,0,14,0c4.7,0,9.4,0.3,14-0.1
			c4.6-0.4,9,1.1,13.6,1.1c8.7-0.1,17.3-0.1,26,0c2.1,0,4.1-0.4,5.7-1.5C646.7,244.2,642.5,239.8,638,235z M498.1,174.2
			c-1,5.4-2.1,10.9-3.2,16.7c1.5,0,2.6,0,3.6,0c0.8-1.5,1.9-2.8,2.2-4.2c0.3-1.4-0.3-2.9-0.5-4.6c1.9-1.1,4-2.3,6-3.5
			C503.4,177.2,500.8,175.7,498.1,174.2z M315.9,726.3c0.7,4,3.7,6.8,3.1,10.7c1.2,0.6,0.2,3.4,3.2,2.8c-0.4-2.9-0.7-5.7-1.2-8.5
			c-0.5-2.8,2.4-5.4,0.6-8.2c-1.6,0-3,0-4.3,0C316.8,724.3,316.3,725.3,315.9,726.3z M593.7,185.2c-3.3,0-6.5,0-10.4,0
			c1.9,1.2,3.1,2.1,3.7,2.4c4.8,0.7,8.8,1.3,13,2c0-0.7,0.2-1.6-0.2-2.2c-1.2-1.7-2.5-3.3-3.8-4.9c-0.1-0.2-0.4-0.2-0.6-0.3
			C594.9,183.1,594.4,183.9,593.7,185.2z M588.8,217.9c0-3.6,0-7.2,0-10.7c-0.7-0.5-1.3-1-2.2-1.6c-0.7,0.8-1.2,1.4-1.7,2
			c0.8,3.4-2.2,6.7-0.5,10.2C585.8,217.9,587.3,217.9,588.8,217.9z M535.8,216.1c0.2-0.3,0.3-0.7,0.5-1c-0.6-0.7-1.2-1.4-1.6-2
			c-5.1-0.5-10.1,0.9-15-1.4c-0.7,0.9-1.3,1.8-2.4,3.3c2.7,0,4.8-0.6,6.5,0.1C527.8,216.7,531.8,215.6,535.8,216.1z M456.1,214.2
			c0,0.2,0.1,0.3,0.1,0.5c5.9,0,11.8,0,17.6,0c0-0.1,0-0.2-0.1-0.5c-4.1-0.8-7.5-3.6-11.3-4.9c-0.5,1.7-1,3.3-1.5,4.9
			C459,214.2,457.6,214.2,456.1,214.2z M726.4,742.1c-0.6-1.2-1.1-2.1-1.6-3.1c-4,2.8-7.8-0.4-12.1,0.2c3.5,2.4,6.7,4.6,9.9,6.7
			C723.7,744.8,724.8,743.7,726.4,742.1z M512.6,214.8c-3.3-2.3-6.1-4.2-9-6.2c-0.5,1.4-0.7,2.7-1.5,3.5c-0.8,0.9-2.1,1.5-3.9,2.6
			C503.4,214.8,507.6,214.8,512.6,214.8z M743.2,725c-0.4,1.5-0.9,2.9-1.1,4.4c-0.2,1.6,1.2,2.8,1.1,4.6c-0.1,1.3,0.9,2.6,1.5,4.2
			c0.9-4.7,3.6-8.8,0.8-13.2C744.7,725,744.1,725,743.2,725z M519.8,199c0.1-3,3.9-3,4-5.5c-0.5-1-0.9-1.8-1.4-2.8
			c-1.9,1.1-3.9,1.9-5.6,3.2c-0.6,0.5-0.5,1.9-0.8,2.8C517.4,197.6,518.4,198.2,519.8,199z M531,187.5c0-0.3,0.1-0.8,0-1
			c-0.4-0.5-0.9-1-1.5-1.6c-3.1,1-6.1-2.2-9.3-0.6c1.2,1.6,2.2,3.2,3.7,5.2c0.7-1.1,1.2-1.9,1.7-2.8
			C527.4,187.7,529.1,188.9,531,187.5z M352.5,725c2-1.7,4.2-0.7,5.9-0.9c0.9,1.3,1.5,2.1,2.5,3.5c0-2.5,0-4.4,0-6.5
			c-3.6-0.3-6.8,0.6-10,2.2C351.4,723.9,351.8,724.3,352.5,725z M343.9,756.9c0.7-1.2,1.3-2.4,2-3.7c-2.5,0-4.7,0-7.4,0
			c0.6,1.5,1,2.6,1.4,3.7C341.4,756.9,342.5,756.9,343.9,756.9z M544.8,189.9c0.6-2.4,0-4.3-1.8-6.2c-1.4,0.9-2.7,1.7-4.5,2.9
			C540.9,187.9,542.8,188.9,544.8,189.9z M349.5,698.6c-1.6,2.1-3.1,4-4.5,5.9c2.2-1.5,5.5,0.6,7-2.1
			C351.1,701.3,350.4,700.1,349.5,698.6z M530.2,641.9c-2.7,1.4-5,2.5-7.1,3.5c0.5,1.2,0.9,2.2,1.8,4.2
			C526.6,646,529.5,645.3,530.2,641.9z M705.2,741.4c2.1-1,3.8-2.5,3.6-3.2c-1.2-0.6-1.5-2.7-3.6-2.1
			C705.2,737.9,705.2,739.7,705.2,741.4z M737.7,707.8c-2-1.7-2-5.4-5.9-5.9C733.4,704.7,734.6,707.1,737.7,707.8z M455.6,183.8
			c-2.3,3.1-2.2,3.9,1.2,6.8C456.4,188.5,456.1,186.4,455.6,183.8z M501.4,208.1c0.5-0.1,1-0.2,1.3-0.3c0-1.4,0-2.6,0-4
			c-1.1,0.2-2,0.3-3.3,0.5c0.7,0.9,1.1,1.4,1.3,1.9C501.1,206.9,501.2,207.5,501.4,208.1z M462.8,178.6c0-0.9,0-1.7,0-2.8
			c-1.1,1.1-2,1.9-2.8,2.8c-0.2,0.2,0.1,0.8,0.2,1.3C461.1,179.5,461.9,179.1,462.8,178.6z M603.2,193.7c0,1.7,0,3,0,4.2
			c1,0,1.8,0,2.7,0C605,196.5,604.3,195.2,603.2,193.7z M569,217.2c0,0.2,0,0.3,0,0.5c1.3,0,2.7,0,4,0c0-0.2,0-0.3,0-0.5
			C571.7,217.2,570.3,217.2,569,217.2z M322.3,705.6c2.6,0.2,2.6,0.2,2.3-1.2C324.2,704.7,323.5,705,322.3,705.6z M559.8,216.8
			c0-0.3-0.1-0.6-0.1-0.9c-0.5,0.1-1.1,0.3-1.6,0.4c0,0.2,0.1,0.3,0.1,0.5C558.7,216.8,559.3,216.8,559.8,216.8z M483.7,214
			c-0.1,0-0.2,0-0.3,0c0,0.3,0,0.7,0,1c0.1,0,0.2,0,0.3,0C483.7,214.7,483.7,214.3,483.7,214z"/>
		<path d="M657,931c-2,0-4.2,0-6.4,0.9c-1.8,0.8-4.1-0.7-6.1,1c-0.7,0.6-2.2,0.1-3.4,0.1c-2.3,0.1-4.9-0.4-6.8,0.5
			c-2,1-4.4-0.7-5.9,1.5c-3.2,0.3-6.4,0.6-9.6,1c-2.5,0.3-5-0.4-7.7,0.8c-2,0.9-4.6,0.2-7.1,1c-3.5,1-7.3,1.2-11,1.1
			c-7.4-0.1-14.7,1.8-22.1,1.1c-3.2-0.3-6.5-1.4-9.6-0.9c-10.7,1.7-21.4,0.3-32,1c-0.2,0.6-0.5,1.1-0.7,1.6
			c-5.7,0.4-11.4,1-17.1,1.1c-3.5,0.1-7-0.7-10.6-0.9c-3.5-0.2-7.2,0.6-10.5-0.2c-3.6-0.9-7.2-0.1-10.6-1c-5.2-1.3-10.5,0-15.6-1
			c-8.2-1.5-16.4-0.3-24.6-1c-3.7-0.3-7.2-1.7-11.3-2.6c-3,1.4-6.7,1-10.4,0.3c-3.8-0.7-7.5-2.2-11.4-2.6c-1.5-0.1-3.1-0.6-4.6-1
			c-1.7-0.3-3.4-0.8-5.1-1c-1.6-0.2-3.5,0.4-5-0.1c-4.3-1.7-8.9-1.8-13.3-2.7c-3.4-0.7-6.8-1.2-10.1-2.2c-1-0.3-2.3-0.4-3-1.1
			c-1.3-1.1-2.3-1.2-3.9-0.2c-2.2,1.4-4.6-0.2-6.3-1c-4.8-2.5-9.9-4.3-14.8-6.6c-4.5-2.1-8.5-4.8-12.2-8.1
			c-6.4-5.7-10-12.9-12.7-20.8c-0.2-0.6-0.8-1.2-0.7-1.7c0.5-4.8-0.7-9.4-1.1-14.1c-0.4-4.1,1.1-7.9,2.6-11.4
			c1.3-3.1,2.8-6.2,4.7-9.1c2-3,4.9-5,7.7-6.9c6.4-4.3,13.4-7.6,20.7-10.4c4-1.6,7.9-3.4,11.9-5c4.6-1.8,9.4-3.1,13.6-5.7
			c0.4-0.2,0.8-0.5,1.4-1c4,0,8.3-0.2,12.6,0.1c3.5,0.2,6.6-1,9.5-2.4c3.3-1.7,6.6-2.9,10.4-2.6c3.3,0.2,6.8,0.7,10-0.1
			c6.1-1.6,12.1-0.2,18.6-1.1c0.3-0.4,0.9-1.2,1.5-1.9c17.4,1.1,34.6-1.5,51.8-0.9c4.3,0.1,8.7-0.8,13.1-0.9c2.7,0,5.4,0.6,8.1,0.9
			c2.5,0.3,5.2-0.8,7.6,1c0.2,0.2,0.7,0,1,0c4.5,0.3,9.1,0.8,13.6,1c4.7,0.2,9.3,0.1,14,0c5.1,0,10,1.7,15.1,1
			c5.6,2.1,11.4,0.6,17.1,1c2.8,0.2,5.7-0.1,8.5,0.1c2.4,0.1,4.7,0.8,7.1,0.9c2.5,0.2,5.2-0.5,7.5,0.2c2.7,0.9,5.5,0.3,8.1,1
			c3.5,1,7.2,0.4,10.5,2.4c1.9,1.2,4.6,1.5,6.9,1.4c6-0.2,11.6,1.2,17.3,2.8c3.3,0.9,6.6,1.8,9.8,2.9c1.2,0.4,2.6,0.1,3.9,0.4
			c1.2,0.2,2.4,0.8,3.6,0.9c5.9,0.7,11.7,2.2,17.3,4.1c2.7,0.9,5.3,2.6,7.7,4.2c5.1,3.2,9.9,6.9,14.6,10.6c2,1.6,3.7,3.5,4.7,6
			c2,4.7,4,9.3,6.4,13.9c0.8,1.5,0.9,3.1,0.4,4.2c-0.6,1.4-0.4,2.9-0.9,4.1c-2.1,4.8-4.3,9.6-6.8,14.2c-1.8,3.3-4.6,6.1-6,9.5
			c-2.2,5.2-6.5,7.6-10.9,10.2c-3.8,2.2-7.6,4.2-11.3,6.5c-1.9,1.2-4.3,1.7-6.4,2.5c-1,0.4-2.3,0.4-3,1.1
			C666.1,926.6,661.8,928.6,657,931z M381.3,842.3c-0.6,0.3-1.4,0.7-2.3,1.2c-5,2.5-9.8,5.4-15.1,7c-6.5,2.1-12.6,5-18.5,8.4
			c-1.9,1.1-3.4,2.3-4.4,4.2c-1.2,2.3-2.6,4.6-3.5,7c-0.8,2-1.7,4-1.5,6.4c0.2,3.7,0.1,7.3,0.1,10.9c3.4,4.1,7.5,7.2,12.2,9.3
			c2.5,1.1,5.2,1.9,7.8,2.9c2.7,1,5.1,3,8,3.6c1.3,0.3,2.9,1.1,3.5,2.2c1.1,2.1,2.8,2.3,4.8,2.9c2.4,0.7,5.2,0,7,1.1
			c1.9,1.1,3.9,0,5.5,1.2c1.8,1.3,3.8,0.3,5.7,0.6c0.5,0.1,1.2-0.2,1.5,0c1.9,1.5,4.4,0.2,6,1.1c2.1,1.1,4.1,0.6,6.2,0.9
			c0.6,0.1,1.2,0.3,1.8,0.6c5,2.2,10.4,2,15.6,3.4c0.6,0.2,1.5,0.2,1.9-0.1c1.4-1.3,2.4-0.4,3.8-0.1c3.9,0.6,7.7,2.3,11.6,2.2
			c10.9-0.2,21.7,0.8,32.6,1.2c3.2,0.1,6.5-0.8,9.6,1c5.6-0.4,11.1,0.7,16.6,0.9c7,0.3,14,0,21,0.1c1,0,2,0.4,3.1,0.7
			c0.5-0.5,1.1-1.1,1.7-1.7c4.3,0,8.7,0,13,0c4.2-0.1,8.4-0.3,12.6-0.8c5.3-0.6,10.7-0.1,16.1,0.6c6.2,0.7,12.7-0.4,19.1-0.8
			c3.4-0.2,7,0,10-1.2c2.3-0.9,4.6,0,6.6-0.9c2.2-1,4.4-0.7,6.6-0.9c3.7-0.3,7.4-0.6,11.1-1.1c0.5-0.1,1-0.7,1.3-1
			c1,0.5,1.7,1,2.4,1.1c3.1,0,6.4,0.4,9.4-0.2c4.2-0.8,8.4-1.9,12.8-1.7c1.2-0.9,2.5-1.9,3.8-2.8c2.6-1.7,5.1-4,8-4.8
			c4.9-1.4,9.1-3.9,13.3-6.5c3.5-2.1,7.2-3.9,10.2-6.5c2.4-2.1,5.1-3,8-3.8c1.8-3.9,3.6-7.9,5.3-11.7c-2-4.2-4.4-8.1-5.8-12.3
			c-1.3-4.1-4.1-6.4-7.5-8.3c-3.7-2-8-2.4-12.1-3.4c-3.5-0.9-7.2-0.9-10.7-2c-4.9-1.6-9.9-2.8-14.8-4c-2.4-0.6-5.1-1-7-2.4
			c-2.6-2-5.4-2.5-8.5-2.6c-4.2-0.2-8.4-0.6-12.6-1c-0.4,0-0.8-0.4-1.3-0.5c-3.2-0.8-6.3-2.1-9.5-2.4c-6.3-0.6-12.7-0.7-19.1-1.1
			c-6-0.4-12,0.3-18.1-0.8c-6.9-1.2-14-0.8-21-1.2c-6.7-0.4-13.4,0.8-20.1-0.9c-3.7-0.9-7.7-0.8-11.6-1.1c-0.5,0-1.1,0-1.3-0.3
			c-1.3-1.4-3.2-1-4.2-0.6c-2.9,1.3-5.8,0.8-8.6,0.8c-6.5,0.1-13,0-19.5,0c-1,0-2.3-0.4-3,0.1c-2.1,1.4-4.4,1-6.6,0.8
			c-2.4-0.2-4.4,0.7-6.6,1.1c-3.2,0.6-6-1.1-9.1-1c-3.5,0.1-7.2-0.6-10.3,0.4c-3.5,1.2-7.2-0.8-10.3,1.6c-4.1-0.7-8,1-12.1,1
			c-2.5,0-5,0-7,0c-4.6,3.1-9.5,4.4-14.4,4.9c-5.4,0.5-11,0.2-16.5,0.1C383.1,843,382.3,842.6,381.3,842.3z"/>
		<path d="M446.6,360.4c-2.2-5.1-1.4-9.5-1.6-13.9c-0.2-3.2,0.2-6.4-0.8-9.6c-0.7-2.3,0.5-5.3,1.3-7.8c0.7-2.2,0.6-4.6,2.3-6.6
			c0.6-0.6,0.1-2.2,0.1-3.2c-12.8-2.5-24.4-7.5-35-15.1c1-5.1,4.4-9.3,6.1-13.9c3.7-0.9,6.6,0.1,9.1,1.8c4.4,2.8,9.3,4.4,14.2,5.5
			c4.7,1,9.4,3,14.5,2.5c2.5-0.2,5,0,7.5-0.1c2.3-0.1,3.7,2.6,6.2,2c0.9,1.4,2.3,1,3.6,1c4,0,8,0.2,12,0c5.3-0.3,10.3,1.8,15.6,1
			c3.6,1.8,7.4,0.5,11.1,1.1c4,0.6,8,1.2,12.1,0.9c0.3,0,0.7,0.1,0.9,0.2c5,2.9,10.6,2.3,15.7,1.5c4.4-0.6,8.8-0.4,13.1-0.8
			c1.9-0.2,3.7-0.7,5.6-1c1.9-0.3,3.7-0.2,5.6-0.8c3.3-1,7-1.3,10.5-1.1c5.3,0.3,10.4-0.9,15.6-1.3c1.8-0.1,4.1-0.2,5.5-1
			c1.8-1.1,3.5-0.4,5.2-0.9c2.4-2.1,5.5-2.3,8.3-2.8c3.3-0.6,6.3-1.5,9.1-3.4c2.4-1.6,5.3-2.5,7.9-3.7c2.8-1.3,5.6-2.6,8.4-3.8
			c0.9-0.4,1.9-0.2,3-0.3c4.1,3.4,6.1,8.5,9.7,12.4c-1.4,0.5-0.7,2-2.1,2.8c-3.7,2.2-6.9,5.1-10.4,7.8c-1.3-0.1-2.9,0.7-3.9-0.8
			c-2.9,1.2-6.1,1.9-8,4.7c-2.5-0.2-4.2,1.9-6.7,2.4c0.5,2.2,0.6,4.5,1.5,6.4c1,2.2,0.2,4.8,1.7,6.8c1.8,2.2,0.5,4.8,0.9,7.1
			c0.2,0.9,0.6,1.8,0.8,2.7c0.2,1,0.5,2.2,0.1,2.9c-1.8,2.9-0.7,6.1-0.9,9.1c-0.1,1.2,0.7,2.4,1,3.4c-1.5,3-3.4,5.4-4.1,8.5
			c-0.2,1-0.8,2.1-1.6,2.8c-4.4,4.2-8,9-13.5,12c-3.4,1.8-6.7,4-10,6c-0.5,0.3-1.2,0.7-1.5,1.2c-1.9,4.1-5.8,4.2-9.5,4.8
			c-1.6,0.3-3.1-0.2-4.7,0.9c-0.8,0.6-2.3,0.3-3.4,0c-1-0.2-2-0.8-3.2-1.3c-0.9,3.1-1.9,5.8-2.5,8.6c-1.1,5-2.7,9.8-5,14.4
			c-1.7,3.5-2.6,7.3-4.1,10.8c-3.3,7.7-4.8,15.9-8.9,23.3c-1.1,2-2.2,3.8-3.9,5.4c-2.6,2.5-4.6,5.2-5.3,8.8
			c-0.3,1.6-1.4,3.1-2.3,4.8c-5.3,1.7-11.4,1.2-16.8,3.4c-4-3.2-6.1-7.5-8.6-11.6c-1.8-3-3.3-6.3-5.1-9.4c-2-3.2-3.1-7.1-4.1-10.8
			c-3.1-11.5-8.2-22.4-11.1-33.9c-2.6-3-2.4-7-3.9-10.4c-1.1-2.3-0.8-2.4-2.6-4.2c-5.2,0.7-9.9-1.8-14.9-3.1c-2.2-0.6-4.5-2.1-6.3-4
			c-2.9-3.2-6.3-6-9.1-9.3c-2.2-2.5-4.4-5-6.2-7.9C449.7,362.7,447.6,361.4,446.6,360.4z M467.5,322.1c-1.6,5-3.4,9.6-4.4,14.4
			c-1.1,5.3,1.1,10.6,1,16c2.5,2.5,5.1,4.8,7.4,7.5c2.5,2.9,5.8,4.1,9.9,5.2c-0.8-2.6,0.4-4.8-1.2-7c-0.5-0.6,0.3-2.1,0.4-3.2
			c0.5-3.2,1.6-6.1,4.2-8.3c0.9-0.8,1.2-2.5,1.8-3.8c1.8-0.3,3.5-0.6,5.2-0.8c1.7-0.2,3.6,0.6,5.1-1c3.3,0.2,6.9-0.8,9.8,2
			c3.6-0.3,7,0.2,8.5,5.5c-0.5,2.9,0.4,6.6,1.3,10c1.9-0.3,3.7-0.5,5.4-0.8c0.4-1.1,0.9-2,1.1-3.1c0.5-2,1.1-4,1.1-6
			c0-2,0.4-3.9,1.4-5.4c1-1.4,0.8-2.7,0.3-4.1c-1.7-4.5-1.6-9.3-2.9-13.9c-1.7-1.3-3.7-1.3-5.8-1.3c-4,0.1-8.2,0.7-11.9-0.2
			c-3-0.8-5.9,0.1-8.6-0.9c-3.1-1.1-6.1-0.7-9.1-0.9c-3.9-0.3-7.8,0.8-11.6-0.9c-0.9-0.4-2.6-0.4-3.3,0.2
			C470.8,322.6,469.2,321.6,467.5,322.1z M542.9,326.2c0.2,2.7-0.2,5.3,0.6,7.5c0.5,1.5,0,3,0.6,4.2c0.7,1.4,0.9,2.7,0.9,4.1
			c0,6.1-1.3,11.9-4.1,17.3c3,2.9,5.6,6.3,9.9,7.3c2.4-4.2,0.7-8.8,1.4-13.8c1.9-2.7,4.1-5.8,6.6-9.1c6.4-1.5,13.1-1.1,20,0.5
			c1.8,3.3,7,3.8,8.3,9.8c0.2,2.9-0.4,7.5,0.4,12.7c3.4-3.2,6.4-5.9,9.8-9c0.4-1,1.1-2.7,1.7-4.5c1-2.8,2.5-5.5,2-8.7
			c1.8-1.6,0.7-3.1,0-4.7c-0.8-2-1-4.4-2.1-6.1c-1.5-2.2,0.1-4.8-1.2-6.5c-1.9-2.3,0.6-4.2,0.2-6.5c-5.4,0.4-10.5,0.7-15.7,1.1
			c-0.3,0-0.7,0.1-0.9,0.3c-1.2,1.4-2.8,0.4-4.2,0.7c-1.5,0.3-3,0.8-4.6,1c-3.7,0.3-7.4,0.2-11.1,0.8c-5.7,1.1-11.7,0.9-17.5,1.2
			C543.7,326,543.6,326.1,542.9,326.2z M530.5,377c-0.9,0.9-1.8,2-2.8,2.8c-2,1.5-4,3.3-6.3,4.1c-2.7,0.9-5.7,0.9-8.5,1.1
			c-1.6,0.1-3.2,0-5.4,0c1,2.6,1.8,4.6,2.5,6.6c1.9,5.5,3.7,11.1,5.8,16.6c1.9,5.1,3.9,10.2,5,15.4c1.3,6.2,5,11,7.5,16.8
			c1.3-1.8,2.1-3.4,3.4-4.5c4.5-3.9,6.6-9.1,8.3-14.6c2.9-9.1,6.2-18.1,10.1-26.8c0.7-1.7,0.9-2.9,0.7-4.4
			c-7.5-2.7-13.3-7.4-18.1-13.1C532,377,531.5,377,530.5,377z"/>
		<path d="M551.3,876.6c-5.5,3.8-11.2,6.4-14.9,12.3c-4.5,2.7-9.9,3.6-16.4,3c-0.2,0.3-0.5,1.2-1.1,1.7c-1.2,0.9-2.6,2.2-4,2.3
			c-1.6,0.1-3.5-0.5-4.8-1.4c-2.5-1.7-4.9-3.7-7-6c-2.5-2.7-4.6-5.7-6.8-8.7c-1.1-1.5-2-3.2-3.4-5.4c-1.1-1.2-3.3-1.3-5.6-1.5
			c-6.1-0.5-11.6,1.7-17.1,3.4c-2.4,0.8-5,0.6-7.3,1.6c-1.8,0.8-3.6,1.7-5.3,2.4c-4.6,3.5-9.2,7-14.1,10.8c-3.5-4-6.9-7.8-10.4-11.8
			c0-0.4,0-1.1,0-1.9c3.2-3.2,6.2-6.8,9.8-9.7c4.4-3.5,8.4-7.7,13.8-10c3.9-1.7,8-2.5,11.9-3.7c1.6-0.5,3.5-0.5,5-1.2
			c5.2-2.3,10.7-3,16.3-2.8c2,0.1,8.2,2.7,9.7,4.2c5.3,5.3,10.9,10.3,14.3,17.1c0.2,0.4,0.5,0.9,0.9,1.1c1.1,0.6,2.2,1.2,3.5,1.8
			c4.2-5,9.5-8.6,14.9-12.1c3.7-2.4,7.6-3.4,11.8-4.2c4.7-1,9.4-0.6,14.1-1c2.2-0.2,4.3-0.8,6.5-1.2c3.4-0.7,3.4-0.8,7.8,0.2
			c0.7,0.2,1.8,0.1,2.3-0.3c2.1-1.8,3.8,0,5.1,0.9c1.5,1,2.3,3,3.6,4.4c3.7,3.8,4.9,9,7.3,13.5c0.4,0.8,0.2,1.9,0.2,3.4
			c-0.3,0.2-1,0.5-1.4,1c-4.2,5.5-10.6,8.2-16.1,11.9c-3.1,2.1-7.2,1.5-10.5-1.2c-3.4-2.8-6.6-5.8-9.8-8.8
			C553.2,879.7,552.5,878.2,551.3,876.6z"/>
	</g>
	<g id="3">
		<animate attributeName="display" fill="freeze" begin="0s" repeatCount="indefinite" dur="0.45" values="none;none;inline;"/>
		<path d="M334,468.3c-1.6-3.8-2.7-7.1-4.4-10c-1.7-2.9-2.6-6-3.5-9.1c-0.7-2.4-3-4.2-2.4-7c-1.5-1.6-1.1-3.8-0.5-5.1
			c1.3-2.9,0.6-5.8,0.8-8.7c0.1-2.2,0.1-4.3,0-6.5c-0.3-4.3-0.8-8.5-0.9-12.8c-0.1-3,0-6.1,0.9-9.1c0.8-2.9-0.5-6.1,1-9.1
			c0.5-1,0.1-2.7-0.4-4.2c-0.7-2-0.5-4.5,0.1-6.6c1.4-5.1,3.4-9.9,4.8-15c1.3-4.4,3.1-8.7,2.6-13.4c-0.4-4,0.9-7.7,2.3-11.1
			c1.6-3.9,3.1-7.7,4.4-11.7c1.4-4.4,3.2-8.7,4.9-13c1.9-4.7,3.9-9.4,6.5-13.8c0.8-1.3,1.6-2.7,2.4-4c1.7-3.2,3-6.4,3.8-10
			c1-5,2.2-10,5.4-14.2c0.6-0.7,0.9-1.6,1.4-2.8c-1.6-0.1-3.2,0-4.7-0.2c-1.4-0.2-2.7-0.8-4.1-0.9c-2.1-0.3-3.9,1.2-6.1,1.1
			c-1.8-0.1-4-1-5.6,0.9c-3.2-0.4-6.6,0.9-9.7-0.7c-0.4-0.2-0.9-0.3-1.4-0.3c-5.3,0-10.7-0.4-16,0.2c-2.3,0.3-4.7,0.9-7.1,0.8
			c-1.9-0.1-3.7-0.7-5.6-0.9c-1.9-0.2-3.8,0.2-5.6-0.9c-0.8-0.5-2.3-0.1-3.7-0.1c-0.6-0.8-1.3-1.7-2.4-3.2c0,0.2-0.1-0.5,0-1.1
			c0.8-4.1,1-8.3,1.3-12.5c0-0.4,0.7-0.7,1.2-1.2c11,0,22.1,0,33.3,0c5.4,0,10.7,0,16.1-0.9c6.8-1.1,13.7,1.4,20.6,0.9
			c3.7,1.5,7.4,1.3,11.2,0.1c1.2-0.4,2.6-0.1,3.8-0.1c4-6,6.8-12.6,11.7-17.8c2.5-2.7,3.9-6.4,5.9-9.5c1-1.6,2.3-3.1,3.4-4.6
			c0.1-0.1,0.2-0.2,0.4-0.4c2.6-2.6,5.4-5,7.7-7.8c2.1-2.7,3.7-5.8,5.5-8.7c2.1-3.4,4.2-6.7,7.9-8.7c1.7-0.9,2.7-3.2,4.1-4.7
			c3.8-4,7.3-8.3,11.6-11.6c2.5-1.9,5-3.9,6.7-6.3c2.6-3.6,5.7-6.5,9.2-9.1c2-1.4,3.8-3,5.6-4.6c2.3-2,4.3-4.4,7-6.1
			c1.7-1.1,2.7-3.1,4.3-5c3.6-0.6,7.1,0.8,10.8,1.6c8.2,1.8,16.1,4.5,24,7.3c4.1,1.5,7.9,3.6,12.1,4.6c4.1,1,8,2.5,11.7,4.4
			c2.4,1.2,4.6,2.7,7.2,4.2c2.6-2.6,5.2-5.3,8-7.9c1-1,2.2-1.8,3.5-2.5c5.3-2.6,10.2-6.1,15.1-9.3c2.9-1.9,5.8-3.5,9.1-4.7
			c1.9-0.7,3.5-2.2,5.1-3.4c1-0.8,1.8-1.8,2.7-2.7c2.9,1.9,5.5,3.6,8,5.5c1.2,0.9,2.4,1.4,3.7,1.9c2.8,1,5.3,2.7,7.5,4.8
			c3,3,7.5,4.4,9.3,8.7c4.2,3.5,6.6,8.4,10.2,12.3c0.6,0.7,0.9,1.6,1.5,2.4c1.8,2.3,3.7,4.5,5.6,6.7c2,2.3,4.1,4.6,6,7
			c4.9,6.4,9.2,13.3,14.4,19.6c4.5,5.4,8.6,11.2,12.1,17.4c1.9,3.4,4,6.9,7.1,9.6c3.1,2.8,6,5.8,8.8,8.8c2.2,2.4,4.3,4.9,6.3,7.2
			c2.8,0.4,5.5,1,8.2,1.2c2.7,0.2,5.5-0.6,8,0.2c5.4,1.6,10.8,0.8,16.1,0.8c13.7,0.2,27.3,0.1,41.2,0.1c0,5.4,0,10.9,0,16.6
			c-1.3,1.4-3.3,1.5-5.4,1.4c-7.5-0.1-15,1.7-22.6,1c-1.4-0.1-2.9,0.5-4.2-0.8c-0.4-0.4-1.7-0.4-2.4-0.1c-3.3,1.8-6.7,0.7-10.1,0.9
			c-3.6,0.2-7.3,0-11.6,0c1.4,1.4,2.2,2.3,3.1,3.1c4.9,4.7,7.8,10.5,10.4,16.7c1.4,3.4,3.8,6.4,5.8,9.6c0.9,1.3,1.9,2.6,2.8,3.8
			s1.8,2.6,2.8,3.8c5.5,6.6,7.6,13.4,9.5,21.1c0.6,2.2,0.6,4.7,1.9,6.7c0.8,1.2,0.7,1.2,2.7,2.3c1.6,4,2.7,8.2,3.5,12.5
			c0.5,2.7,0.4,5.5,0.9,8.1c0.5,2.7,1.1,5.3,0.9,8.1c-0.2,2.7,1.7,5.3,1,8.1c1.8,2.5,0.7,5.4,1,8.1c0.4,3.2,1.4,6.3,1,9.6
			c-0.3,2-0.6,4.1-1,6.1c-0.3,1.9,0.7,3.9-0.8,5.7c-0.5,0.6-0.2,1.9-0.2,2.9c0.2,2.3-0.3,4.5-2,6.2c0,4.3-0.2,8.7,0.1,13
			c0.2,3.3-0.9,6.3-2.3,9.1c-1.7,3.3-3,6.6-2.8,10.4c0,1-0.7,2-0.9,3.1c-0.8,3-1.6,6-2.4,9.3c-0.5-1-0.8-1.6-1.1-2.3
			c-0.4,0-0.7,0-1.1,0.1c-0.1,0.3-0.4,0.5-0.4,0.8c0,5.3-1.6,10.2-3.5,15.1c-0.5,1.3-1.4,2.5-1.5,3.9c-0.4,4.3-2.7,7.5-5.2,10.9
			c-1.9,2.6-3.1,5.6-5.7,7.6c-2.1,1.6-4,3.4-5.7,5.6c-1.7,2.2-4.2,3.8-5.9,6.1c-2.4,3.3-5.4,6.1-8.2,9.1c-4.3,4.7-9.7,8.2-14.4,12.4
			c-0.2,0.2-0.5,0.4-0.8,0.6c-5.9,3-11.8,6-17.8,9c-2.8,1.4-5.5,2.8-8.3,4.2c-2.6,1.3-5.2,2.7-7.9,3.7c-2.5,1-4.8,2.3-7.7,2.1
			c-0.7,0-1.4,0.6-2.1,0.9c-1.5,0.5-2.9,1-4.7,1.5c0.4,0.7,0.6,1.5,1.1,1.9c2.7,2.2,5.5,4.3,8.3,6.4c1.1,0.9,2.4,1.5,3.4,2.5
			c3,2.9,6.3,5.3,10.1,7.1c0.8,0.4,1.7,0.8,2.4,1.4c3.3,2.9,6.7,5.8,9.8,8.8c5.8,5.6,11.1,8.7,20.3,12.5c4,1.7,7.4,4.6,11.1,6.9
			c2.2,1.4,4.4,2.8,7.2,4.6c0.1-1.5,0.3-2.4,0.3-3.3c0-10-0.1-20,0.1-30c0-3-0.3-6,0.7-9.2c0.9-2.7,1.5-5.8,1.9-8.7
			c0.5-3.3,2.1-5.9,3.3-8.7c1.2-2.7,2.7-5.3,4.4-7.7c2.1-3.1,2.7-6.6,3.6-10c0.7-2.9,1.3-5.8,3.5-8.2c5,1.1,10,2.2,15.2,3.4
			c0.4,0.8,0.9,1.8,1.4,2.8c-0.4,0.7-0.7,1.3-1.3,2.4c0.8,0.5,1.7,1,2.2,1.3c0,2,0.7,3.5-0.8,4.6c1.2,0.9,0.9,2.3,0.9,3.6
			c0,1.5,0.1,3,0,4.5c-0.2,2-0.6,4.1-1,6.1c-0.3,2,0.9,4.3-1,6.1c-0.1,0.1,0,0.3,0,0.5c-0.3,6.2-0.8,12.4-0.9,18.6
			c-0.1,1.9,0.5,3.7,1,5.6c1.3,5.5,1.3,7,0,13.2c-0.2,0.8,0.1,1.7,0,2.5c-0.3,2.2,0.5,4.4-0.9,6.7c-1,1.6,0.7,4.2-1.1,6
			c-0.2,0.2,0,0.6,0,1c-0.1,3.9,0.3,7.8-1,11.6c-0.2,0.7,0,1.6,0,2.2c3.3,2.3,6.3,4.7,9.6,6.5c2.1,1.1,4.1,2.6,5.7,4.1
			c4,3.7,8.4,6.5,13.5,8.5c6.5,2.5,12.7,5.7,18.9,8.8c6.2,3.1,12,6.7,17.4,11.2c3.6,3,7.9,5,11.8,7.5c6.3,4.2,11.7,9.3,15.9,15.6
			c1.3,2,3,3.6,4.1,5.8c1.1,2.1,3,3.8,4.5,5.7c1.2,1.5,2.3,3.1,3.1,4.1c0.9,3.5,1.4,6.6,2.7,9.5c1.2,2.7,2,5.3,1.8,8.3
			c0,0.6,0,1.4,0.3,1.9c2.5,3.9,2.4,8.6,4.4,12.7c0.7,1.4,0.9,3.3,1.2,5c0.5,2.7-0.5,5.3-1.6,7.8c-1.1,2.4-1.9,4.9-2.8,7.5
			c-1.2,0.6-2.7,1.4-3.8,2c-4.3,11.1-9.3,21.4-15.9,31.3c5.4,0,10.3-0.1,15.3,0c1.9,0,3.7-0.4,5.7,0.8c1.3,0.7,3.5-0.1,5.2-0.3
			c0.8-0.1,1.5-0.5,2.3-0.5c11.5-0.4,23.1-0.8,34.6-1c11.2-0.2,22.3,0.1,33.5-0.1c4.9-0.1,9.9,0,14.5-1.2c3.3-0.8,6.4-0.4,9.6-0.9
			c0.5,0.5,0.9,1,1.4,1.5c0,5.1,0,10.2,0,15.7c-1,0.3-2.1,0.4-3.1,0.8c-3.3,1.4-6.6,2-10.2,2c-12.8-0.1-25.7,0-38.5,0
			c-3.3,0-6.9-0.7-9.9,0.2c-3.3,1-6.4,0.6-9.6,0.8c-3.3,0.2-6.8-0.5-10,0.1c-9,1.7-18.1,0.6-27.1,0.9c-9,0.2-18,0-27,0.1
			c-3,0-6.1,0.7-9.1,0.9c-3,0.2-6.1-0.5-9,0.1c-7.4,1.6-14.7,0.7-22.1,0.9c-7.3,0.2-14.7-0.1-22,0.1c-7.5,0.2-15.1,1.9-22.6,0.8
			c-9.9-1.4-19.7-0.5-29.6-0.9c-2.2-0.1-4.3-1.2-6.6-1c-2.2,0.2-4.5,0.4-6.6-0.9c-0.5-0.3-1.3,0-2,0c-20.5,0-41,0-61.4,0
			c-0.6,0.6-1.2,1.2-2,2c-13.6,0-27.4,0-41.3,0c-5.1-1.6-10.4-0.9-15.6-0.9c-2.5,0-5.2-0.7-7.6,0.9c-0.6,0.4-1.7,0.3-2.5,0
			c-5.6-1.9-11.4-0.7-17.1-0.9c-4.3-0.2-8.8,0.7-13-0.2c-4.6-1.1-9.1-0.6-13.6-0.8c-4.7-0.2-9.5-0.7-14,0.1
			c-7.9,1.5-15.8,0.7-23.6,0.7c-5,0-10-1.3-15.1-0.9c-3.4-1.8-7.1-0.9-10.6-1c-13.7-0.1-27.3,0.1-41-0.1c-5.7-0.1-11.4-0.8-16.9-1.2
			c-0.8,0.9-1.3,1.5-2,2.3c-2.4,0-4.9-0.1-7.3,0c-1.2,0-2.6-0.6-3.7,0.7c-0.3,0.4-1.4,0.5-1.8,0.2c-2.2-1.6-4.7-0.9-7.1-0.9
			c-6.3-0.1-12.7,0.1-19-0.1c-6.9-0.2-13.7,1.5-20.6,1.1c-6.8-0.4-13.7,0-20.5-0.1c-3.4,0-6.7,0.2-10.1-0.9c-3-0.9-6.3,0-9.6-0.9
			c-4-1.1-8.3-1-12.5-1.1c-5.7-0.2-11.4,0.7-17-0.2c-10.6-1.6-21.1-0.3-31.6-0.9c-2.4-0.1-4.4,0.5-6.5,2c-13.4,0-27,0-40.7,0.1
			c-2,0-4.1-0.7-6.2,0.8c-1.6,1.1-4.2-0.8-6,1.2c-4.6-0.4-9.2,0.8-13.7-0.7c-2.4-0.8-5-1-7.5-1.3c-3-0.4-5.7-1.6-8.2-3.1
			c1-5.3,2-10.4,3-15.8c2.1,0.3,4.3-1.1,6.3,0.8c4,0,8,0,12,0.1c1.8-2.1,4.5-0.1,6.4-1.4c2-1.3,4.2-0.6,6.2-0.6
			c11.7-0.1,23.3-0.1,35,0c1.9,0,3.9-0.6,5.6,0.9c0.5,0.4,1.8,0.4,2.4,0c2.1-1.5,4.4-0.8,6.6-0.9c7.3-0.6,14.6-1.5,22.6-0.9
			c-3.6-4.4-6.7-8.4-9.9-12.3c-1.6-2-2.3-3.5-2.5-6.9c-0.9,0-1.9,0-2.8,0c-0.8,0-1.7,0-2.6,0c-1.2-2.2-2.4-4.6-3.8-6.8
			c-1.9-2.9-2.3-6.3-2.5-9.4c-0.8-9.7-1.7-19.3-0.9-29.5c0.9-0.8,2-1.8,3.4-3c-0.4-1-0.9-2.6-1.5-4.3c0.2-0.8,0.6-1.8,0.9-2.8
			c0.3-1,0.9-2,1-3.1c0.2-2.9,2.3-5.2,2.1-8.2c0-1,1-2.3,1.8-3.2c3.8-4.3,7.7-8.5,11.7-12.7c2.1-2.2,4.4-4.3,6.9-6.1
			c2.3-1.7,4.6-3.3,7-4.9c4.5-3.2,8.8-6.8,13.3-10.2c5.4-4,10.9-7.9,16.9-11c3.7-1.9,7.2-4.4,10.9-6.7c1.5,0,3.1,0,4.8,0
			c5.2-5.5,11.9-8.8,18.5-12c3.2-1.5,6.5-2.8,9.8-4c3.2-1.2,5.9-3.3,9.3-4.1c1.1-0.3,2-1.5,2.9-2.3c0-3.3-0.2-6.5,0-9.7
			c0.6-7.9-1.8-15.7-0.9-24.1c-3.7,1.6-7.2,1-10.3,1.2c-1.1-0.6-1.9-1.1-2.8-1.4c-4.7-1.6-7.2-5.2-8.7-9.7
			c-1.5-4.5-2.8-9.2-4.7-13.6c-0.9-2.2-0.2-4.8-1.7-6.8c0.7-5.4-2-10.6-0.7-16.1c0.4-0.7,0.8-1.5,1.1-2.1c5.2-0.5,10.2-1,15.4-1.5
			c0.8,2.8,2.1,5.5,2.1,8.2c-0.1,3.7,1,7,2.3,10.1c1.5,3.5,2.4,7.3,4.5,11.3c0.6-4.9,0.1-9.2-0.5-13.6c-0.7-4.6-0.1-9.3-0.1-14.4
			c0.7-0.5,1.6-1.1,3.2-2.2c3.8,0,8.6,0,13.4,0c0.3,0.3,0.7,0.7,1.4,1.4c-0.8,3.6,1.5,7.2,1,11.1c-0.5,3.9,0.2,7.7,1.5,11.5
			c1-2,1.9-4,2.8-5.9c0.9-2.2,1.8-4.3,1.7-6.8c-0.1-3.6,0-7.3,0-11c2.7-0.4,5.4-1.1,8-1.3c2.8-0.2,5.7,0,8.5,0
			c1.5,3.2,1.1,6.6,1.7,9.9c0.7,3.9,0.6,7.7,0.9,11.6c0.4,4.8-1.6,9-3.3,13.2c-1.1,2.7-2.8,5.1-2.9,8.3c-0.1,2-1.6,4-3.9,5
			c-2.7,1.2-5.2,2.7-8.3,3c-1.2,0.1-2.3,0.8-3.5,1.1c1.7,3.8-0.2,7.9,1.1,11.5c1.3,3.7,0,7.5,1,11.5c0.7-0.3,1.5-0.5,1.9-1
			c3.6-4,7.9-6.9,12.7-9.2c2.3-1.2,4.5-2.6,7-3.5c2-0.8,3.9-2,5.5-3.5c5.5-5.1,12.2-8.3,18.7-11.6c7.3-3.6,14.3-7.6,21-12
			c2.4-1.6,5.2-2.7,7.9-3.9c0.8-0.4,1.9-0.3,2.7-0.8c3.1-1.9,6.1-3.9,9.4-6.1c-2.3-1.3-5.1,0.5-6.9-1.5c-5.4-0.4-9.5-3.6-14-6.2
			c-2.6-1.5-5-3.2-7.5-4.8c-3.2-2.1-6.9-2.7-10.3-4c-4.3-1.7-9-2.4-13-4.9c-3.7-2.3-7.7-4.2-11.1-7c-1.6-1.4-3.7-2.4-5.7-3
			c-3.5-1.1-6.6-2.9-9.3-5.3c-4.6-4.1-8.7-8.7-12.1-13.9c-5.4-8.2-10.9-16.4-15.2-25.2c-0.9-1.8-1.2-3.9-2.2-5.6
			C333.8,471.2,334.1,469.3,334,468.3z M511.9,180.1c0.1-0.1,0.1-0.1,0.2-0.2c-0.2-0.3-0.5-0.5-0.7-0.8c-0.1,0.1-0.2,0.2-0.3,0.3
			c0.3,0.2,0.5,0.5,1,0.2c-0.3,2.6-0.2,4.6,1.5,6.1c1.5-1.1,3-2.1,4.6-3.2C516.1,181.5,514.3,180.7,511.9,180.1z M497.1,203.9
			c-0.1,0.1-0.1,0.1-0.2,0.2c0.2,0.3,0.5,0.5,0.7,0.8c0.1-0.1,0.2-0.2,0.3-0.3c-0.3-0.2-0.5-0.5-1.4-0.6c0.3,0,0.6-0.1,0.8-0.1
			c-0.4-1.8-1.2-3.6-1.3-5.4c-0.1-2-0.3-3.8-1.9-5.5c-0.5,2.6-1,5-1.4,7.2C494.2,201.7,495.3,202.8,497.1,203.9z M604.1,539.2
			c1.8-2.6,5.5-3.2,9.5-3.3c2.7-0.1,5.5-0.5,8-1.2c5.9-1.7,11.6-4.1,17.4-6.2c5-1.9,8.8-5.5,12.8-8.8c1.3-1.1,2.2-2.7,3.6-3.5
			c4.8-2.6,9.5-5.2,14.5-7.1c3.4-1.3,6.3-2.9,8.8-5.4c4.3-4.5,8.3-9.3,12.8-13.6c3.3-3.2,5.5-7,7.8-10.8c2.4-3.9,4.6-8,8.1-11.2
			c1.4-1.3,2.2-2.9,2.8-4.9c1.3-4.4,2.8-8.8,4.9-13c1.5-3,4.6-15.2,5-18.4c0.2-1.2,0.7-2.4,1-3.6c0.3-1.2,0.2-2.4,0.7-3.7
			c0.9-2.6,1.2-5.6,1.3-8.5c0.1-3.5,0-7-0.7-10.6c-0.7-3.3-0.9-7.1,0.7-10.6c0.7-1.5,0-3.6,0.2-5.4c0.2-1.9,0.7-3.7,0.9-5.6
			c0.1-1,0.4-2.2,0-3c-2.1-3.4-0.5-7.2-1.7-10.8c-1.5-4.4-1.5-9.3-2.2-14c-2.1-1.8-4.4-3.7-4.9-6c-1-5.1-3.2-9.7-5.2-14.4
			c-1-2.2-1.4-4.5-1.8-6.7c-0.7-4.3-3.1-10.9-5.7-14.2c-1.5-1.9-3.3-3.6-4.5-5.6c-2.6-4.3-6-8-7.9-12.7c-1.2-3-2.7-6-4.6-8.6
			c-2.6-3.5-5.8-6.7-8.8-9.9c-2.6-2.8-5.4-5.4-8-8.1c-5.4,0-10.7,0-16.4,0c-0.4,0.6-1,1.4-1.5,2c-10.5-0.2-20.8,0.7-31-1.9
			c-2.8-0.7-6,0-9-0.1c-3.1-0.1-5.9,1.7-9.1,1c-1.8,2-4.4,0.1-6,1.1c-2.1,1.5-4.1,0.7-6.2,0.8c-3,0.2-6.1,0.2-9.1-0.9
			c-1.9-0.7-4,0.2-6.1-0.9c-1.7-0.9-4.1,0.3-6-1.1c-0.3-0.2-1.2-0.2-1.4,0c-1.7,1.6-3.8,1-5.6,0.9c-5.2-0.2-10.4,0.8-15.6-0.8
			c-2.4-0.8-5.1,0.7-7.6,0.8c-9.8,0.6-19.7-0.5-29.6,1c-2.9,0.5-6-0.8-9.1-0.8c-5.8-0.2-11.7,0-17.5,0c-1,0-2.3-0.4-2.9,0.1
			c-2.3,1.7-4.8,0.8-7.1,0.9c-2.6,0.1-4.9,1.5-7.6,1.1c-3.7-0.6-7.4-0.9-11.1-1c-3.8-0.2-7.7,0.1-11.5-0.1
			c-5.4-0.3-10.7,0.8-16.1-0.8c-2.3-0.7-5.3,0.6-7.4-0.3c-2.5-1.1-4.7-0.6-7-0.3c-0.8,0.1-2,0.7-2.3,0.4c-1.7-1.7-3.8-0.8-5.7-0.9
			c-2.7-0.2-5.3-0.2-8,0c-2.5,0.2-5,0.8-7.8,1.2c-4.1,3.7-6.6,8.7-8.2,14.2c-1.3,4.6-2.4,9.3-5,13.4c-1.1,1.7-2.1,3.5-3,5.3
			c-1.3,2.6-2.6,5.3-3.7,8c-1.8,4.6-3.8,9.1-5.4,13.8c-1.5,4.5-3.1,9.1-5,13.4c-1.1,2.5-2,4.9-1.9,7.7c0,2.4,0.1,4.7-0.9,7.1
			c-1.1,2.9-1.6,6-2,9.1c-0.3,2-0.8,3.6-2,5.2c-1.8,2.4-3.5,4.9-3.1,8.2c0.1,0.6,0.1,1.3-0.2,1.9c-2.1,5.2-2.2,10.9-2.6,16.3
			c-0.4,6.1-0.5,12.3,0.6,18.6c0.8,4.6,1.1,9.7-0.7,14.6c-1.3,3.5,1.8,7,0.2,10.6c1.3,4.1,2.2,8.4,3.9,12.4c1.3,3,2.2,6.1,2.9,9.3
			c1,4.2,2,8.4,4.2,12.3c1.1,1.9,2.9,3.6,3.4,5.6c0.5,2.4,2.2,4.1,2.8,6.4c0.9,3.2,10.3,13.4,12.9,15.1c0.8,0.5,1.6,1,2.5,1.2
			c1.8,0.5,3.6,0.9,5.2,1.3c3.1,5.1,7.1,8.8,12.1,11.1c3.3,1.6,7,2.4,10.5,3.6c2.9,1,6.1,1.5,8.7,3.1c4.5,2.7,9.3,5.2,13.5,8.3
			c2.1,1.6,4.5,2.2,6.7,3.3c1.4,0.6,3.4-0.2,4.9,0.3c4.3,1.5,8.7,2.1,12.4,1.9c2.1,0.8,3.6,1.4,5,2c6.2,2.4,12.9,2.9,19.4,3.8
			c4.8,0.7,9.6,1.7,14.6,1.3c4.3-0.4,8.4,1.2,12.5,2.4c1.6,0.5,3.1,1.1,4.8,1.6c0.2-1.3,0.4-2.2,0.5-3.2c3.7,1.3,7.1,2.6,11.3,4.1
			c5.9,0,12.6,0.1,19.2,0c6.5-0.1,13.1,0.6,19.6-0.9c2.6-0.6,5.5,0.3,8.1-1.1c5.8,0.8,11.3-1.4,17.1-1c2.5,0.2,5.2,0.6,7.5-0.1
			C594.4,541.6,599,541.8,604.1,539.2z M657.2,598.9c0.3,3.5,0.1,6.7,0.9,9.5c0.7,2.4,0.5,4.8,1,7.1c0.4,1.8,1.4,3.4,1.8,5.2
			c0.5,1.8,0.3,3.9,1.1,5.5c1.2,2.4,1.4,5.1,2.4,7.5c2.2,5.2,4.2,10.4,4.6,16.1c1.7,2.3,0.1,5.4,1.2,7.5c1.4,2.8,0.3,5.5,0.9,8
			c-0.6,0.6-1.1,1.1-1.6,1.6c-4.3-0.3-8.5,0.6-12.4,1.9c-1.1-0.3-2-0.8-2.8-0.9c-2.2-0.1-4.5-0.4-6.6,1c-6.4-0.5-12.8,1.1-19.1-1
			c-0.7-0.2-1.7,0.1-2.7,0.3c3.4,2,6.6,3.7,9.5,5.7c1.6,1.1,3.3,2,4.4,3.9c1,1.7,3.5,2.5,5.3,3.7c2.4,1.5,4.7,3.1,6.8,4.4
			c0,1.5,0,2.5,0,4c-0.6,0.4-1.4,0.9-2.1,1.4c0,1.7,0,3,0,4.2c-1.2,1.2-2.6,2-3.2,3.3c-0.7,1.6-2.6,1.8-3.2,3.1
			c-1.4,3.2-4.2,4.5-7,6c-1.4,0.8-2.6,1.8-3.9,2.8c-5.1,4-10.5,7.6-15.9,11.2c-7.2,4.8-14.8,9.2-20.4,16c-0.7,0.8-1.8,1.3-2.6,2
			c-5.7,4.8-12.6,7.4-19,10.9c-8.9,4.9-15.7,12.1-22.4,19.4c-3.8,4.1-6.6,9.2-10.8,13.7c2.8,0,5.3-0.5,7.4,0.1
			c4,1.2,7.8,1.4,11.7-0.1c0.8-0.3,1.9,0,2.9,0.2c0.9,0.2,1.8,0.7,2.7,0.7c6.7,0.1,13.3,0,20,0.1c6.7,0.1,13.3,1.6,20.1,1
			c2-0.2,4,0,6,0c1.5-0.9,3.1-1.9,4.7-1.9c5.7-0.2,11.3-0.4,17,0c5.8,0.4,11.3-1.3,17.1-1.1c7.2,0.2,14.3,0.2,21.5,0
			c7.2-0.2,14.4,0.5,21.6,1c1.9,0.1,3.8-0.3,5.6,0.9c0.7,0.5,2.1-0.1,3.4-0.2c-0.4-0.8-0.5-1.3-0.8-1.6c-5.8-5.5-10-12.3-13.3-19.5
			c-3.6-7.9-4.5-10.6-2.3-19.2c0.3-1.2,0.3-2.7-0.1-3.9c-1.2-3.7-1.5-7.5-1.8-11.2c-0.3-5,1.7-10,0.9-15.1
			c-0.6-3.5,1.2-6.7,1.1-10.1c0-0.8,0.5-1.8,1-2.5c3.5-5,7.8-9.4,12.4-13.3c4.2-3.6,9-6.3,13.8-9.6c-2.2-8.7-1.5-17.4-0.1-25.8
			c-0.7-0.7-1.2-1.2-1.7-1.7c-1.3,0-2.7,0-4,0c-0.6-0.6-1.4-1.1-1.7-1.8c-1.1-2.5-3.8-4.2-3.8-7.4c0-6.2,0.5-12.4-1.5-18.8
			c-4.2-2.5-8.5-5.5-13.7-7c-0.6-0.2-1.3-0.2-1.8-0.5c-3.8-2.4-7.6-5.1-11.5-7.4c-3.7-2.2-7.5-4.5-11.5-6
			C660.9,601.4,659.1,600.5,657.2,598.9z M515.8,784c0.5-0.5,1.4-1.2,1.8-2c1.3-3.7,5.6-5,6.8-8.7c5.1-2.1,7.3-7.3,10.7-11
			c2.6-2.9,5.3-5.7,7.9-8.6c2.6-2.9,5-6,7.8-8.7c3.8-3.7,7.4-7.6,12.1-10.5c4.9-3.1,9.7-6.5,14.8-9.1c6.2-3.2,12-6.6,16.5-11.9
			c3-3.5,6.8-6,10.6-8.2c7.1-4,13.7-8.8,20.2-13.5c-2.1-1.9-4.2-3.7-6.3-5.5c-0.4-0.3-0.6-0.9-1.1-1c-4.4-1.8-8-4.8-12.1-7.1
			c-4.4-2.5-8.5-5.3-12.5-8.3c0-2.7,0.1-5.2,0-7.6c-0.2-2.5-0.7-5-1.1-7.8c1.5-1.1,3.1-2.2,4.6-3.3c2.4,0.1,4.8-0.4,7.1-0.8
			c3.2-0.5,6.7-0.4,10-0.1c3.5,0.3,6.7-1.1,10.1-1.1c5.7,0,11.3,0,17,0c1.2,0,2.4-0.1,3.7,0.7c1.2,0.7,3,0.1,4.9,0.1
			c-1.7-5.6-3.4-10.8-4.9-16c-1.2-4-2.7-8-3.3-12.1c-0.8-5.5-2.2-11-2.1-16.6c0-0.5,0.2-1.2,0-1.5c-1.8-2-0.6-4.4-1-6.6
			c-0.3-2.2-0.8-4.4-1-6.6c-0.2-2.3,0-4.7,0-6.6c-0.6-1.2-1-2-1.4-2.6c-6.2-2.3-10.2-7.9-16-10.3c-1.7,3.4-3,6.5-4.7,9.5
			c-1.2,2-3.2,3.6-4.4,5.7c-1.9,3.4-4.3,6.4-7.1,9c-0.6,0.5-1,1.3-1.4,1.9c-2.8,3.6-4.4,7.9-7.6,11.4c-4.5,4.9-11.8,12.9-16.3,16.1
			c-1.2,0.8-2.4,1.6-3.5,2.5c-3,2.4-4,5.9-5.5,9.2c-1,2.3-2.4,4.4-4.5,5.5c-1.6,0.9-2.8,2.1-4.1,3.3c-5.2,5.1-10.4,10.3-15.5,15.5
			c-4.1,4.2-8.1,8.6-12,13c-0.8,0.9-1.3,2.1-2,3.2c-0.5,0.8-0.9,1.6-1.3,2.2c-1.1,0.1-1.9,0.1-2.6,0.1c-0.7,3-0.9,6-2.2,8.4
			c-1.1,1.9,0,4.3-1.8,5.8c0.7,4.6-3,8.5-2,13.2c-1.3,2.6-1.7,5.6-3.1,8.2c-1.3,2.6-2.4,5.3-3.9,8.5c-0.7,6.9,0.5,14.4-0.9,22
			c-0.8,4.5-1.4,8.9-3,13.3c-2.1,6-4,12.1-3.3,18.7c0.2,1.8,0,3.7,0,5.5c0.5,0.5,1,1,1.5,1.5C510.8,784,513.1,784,515.8,784z
			 M409.9,682.2c0.5-1,1.1-1.6,1.1-2.3c0.1-4,0.6-8.1,0.8-12.1c0.3-5.6,1.7-11.1,2.4-16.6c0.2-1.8,0.2-4.1,1-5.5
			c2.5-4.6,1.4-9.7,2.7-14.4c0.9-3-0.5-6.5,1.1-9.5c-0.7-5.3,1.4-10.4,0.9-15.6c-0.4-4.5,1-8.7,1.2-13.1c0.1-1.6,1.4-3.1,0.5-5
			c-5.5,3-10.8,6.2-16.3,9c-2.9,1.4-5.6,2.7-7.9,5.1c-1.4,1.5-3,3.1-4.9,3.8c-5.2,2.2-9.3,6.2-14.6,8.2c-1.8,0.7-3.4,1.7-4.7,3.2
			c-0.7,0.8-1.6,1.4-2.7,1.9c-2.5,1.3-4.6,3.3-7,4.8c-2.6,1.6-5.5,2.9-8.4,4.4c-2,3.3-0.9,7.1-1.1,10.8c-0.2,3.8,0.2,7.7-0.1,11.5
			c-0.3,3.6-1.5,6.9-0.3,10.8c1.1,3.4,0.2,7.5,0.2,11.3c8.7,3.7,16.1,8.9,23.1,14.6c-0.2,3.8,0.7,7.2,2.3,10.3
			c1.6,3.2,3.9,6,5.7,8.6c0,1.6,0,2.6,0,3.6c0,1-0.2,2.5,0.3,2.8c1.4,0.9-0.8,1.6,0.1,2.2c1.3,0.9-0.4,1.2-0.4,1.8c0,1,0,2,0,3
			c0,4-0.2,8,0,12c0.2,3.8-0.8,7.2-2.7,10.4c-1.9,3.3-1.6,7.2-3.2,10.5c2.4,3.2,0,6.1-0.4,9.3c-3,2-5.1,5.2-8.3,7.4
			c-3.1,2.2-5.3,5.7-7.9,8.6c-0.7,0-1.3,0-2.5,0c-0.7,0.9-1.7,2.1-1.9,2.4c-2.4,0.9-3.8,1.4-5.2,2c0,0.2,0,0.4,0.1,0.7
			c4.6,0,9.2,0,13.8,0c1.2,0,2.7-0.5,3.4,0.1c2.5,1.8,5,0.5,7.5,1c0.7-0.9,1.2-1.5,1.6-2c18.1,0,35.9-0.1,53.7,0.1
			c5.9,0.1,11.7-0.7,17.6,0.8c3.3,0.8,7,0,10.5,0.2c3.5,0.2,7.1,0.8,10.6,0.9c4.7,0.2,9.3,0,14,0c0.3,0,0.6-0.1,0.9-0.2
			c0.4-0.4,0.7-0.7,1.2-1.2c0.7-5.9-1-12,1.4-18c-0.9-0.6-1.6-1.2-2.4-1.6c-0.5-0.3-1.7-0.2-1.7-0.5c-0.5-2.3-2.4-2-3.9-2.6
			c-1.3-0.5-2.6-1.2-3.7-2c-2.2-1.7-4.2-3.5-6.3-5.3c-3.3-2.8-13.8-7.1-18.3-7.8c-2.7-0.4-5.4-1.3-7.7-3.2
			c-3.1-2.6-6.3-5.1-10.6-5.9c-1.6-0.3-3.2-1.3-4.5-2.3c-5.4-4-11.3-7.2-17.4-10.2c-1.1-1.7-2.6-3.7-1.6-5.6
			c0.9-1.8,0.5-3.5,0.9-5.2c0.6-3,0.7-6.3,2.8-8.9c1.2-1.5,2.4-3,3.5-4.5c2.4-3.5,4.6-7,6.9-10.6c-1.8-1-3.4-1.4-5.1-1.7
			C416.4,686.3,412.4,686,409.9,682.2z M335.2,638.5c-5.4,3.9-11.3,4.8-16.4,7.5c-5.2,2.8-10.3,5.8-15.8,9c-1.1,0-2.8,0-4,0
			c-1.6,1.1-2.8,2.1-4.2,3c-5.2,3.5-10.5,6.9-15.6,10.5c-4.1,2.8-8.3,5.3-11.9,8.8c-1.6,1.5-3.7,2.5-5.4,3.8c-2.5,2-5.4,3.7-7.3,6.2
			c-1.4,1.8-2.9,3.5-4.4,5.1c-2,2.2-4.2,4.2-6.1,6.1c0,1,0.2,1.7,0,2.3c-1.2,3.5-2.8,6.9-3.1,10.7c-0.1,1.1-1.1,2.6-2.1,3
			c-2.1,0.9-3.2,2.6-4.8,3.9c-0.5,4.4,1.6,8.4,1,12.7c-0.7,5,1.4,9.2,4,13.6c0,1.7,0,3.7,0,5.6c3,2.7,6.3,5,8.7,8
			c2.8,3.5,5.9,6.6,8.9,9.7c0.3,0.4,0.8,0.7,1,1.1c2.8,4.4,6.7,7.8,9.6,11.8c0.5,0,0.6,0,0.8,0c3.7,0,7.4,0.3,11-0.1
			c3.8-0.4,7.4,1,11.1,1.1c2,0.1,3.9,1.1,6.1,1c2.2-0.1,4.4,0.8,6.6,0.9c9.2,0.1,18.3,0.1,27.5,0c0.2,0,0.5-0.4,0.7-0.5
			c0-0.3,0-0.7-0.1-1.1c-3.3-0.8-6.6-1.6-9.2-2.3c-0.9-1.3-1.6-2-2-2.9c-0.5-1-0.7-2-1.1-3c-0.2-0.2-0.4-0.6-0.7-0.7
			c-4.3-1.5-6.1-4.6-7.1-8.9c-0.6-2.8-2.2-5.5-4.4-7.6c-1.8-1.7-2.8-3.9-3.3-6.1c-0.6-2.6-1.4-5.2-1.2-8.1c0.1-2.8-0.8-5.6-1-8.6
			c-0.4-8.1,1.3-16,1-24.1c-0.1-3.1,1.3-5.5,2.5-8c0.6-1.3,1.6-2.3,2.6-3.7c-0.7-4.3,1.7-7.8,4.2-10.9c2.6-3.2,6.2-5.8,9.4-8.5
			c1.2-0.9,2.7-1.6,4.1-2c3.3-1,6.6-1.7,10.2-2.6c0-4.2,0-8.6,0-13.1c0-0.6,0.1-1.4-0.2-1.9c-1.8-4.1-0.4-8.4-0.8-12.7
			C336,644.4,334.6,641.7,335.2,638.5z M826.8,723.4c-0.8-1.4-1.4-3.1-3.6-3.8c-1.8-0.6-2.6-2.8-3.2-4.6c-0.8-2.3-1.1-4.9-2.1-7.1
			c-1.1-2.7-2-5.5-4.2-7.8c-3-3.2-5.4-7-7.8-10.7c-2.6-4-5.5-7.7-9.5-10.4c-1.9-1.3-4.1-2.4-5.8-3.9c-4.6-4.1-10-7.1-15.4-9.9
			c-6.5-3.4-13.5-6-20.2-9.1c-8.1-3.7-15.7-8.1-22.8-14c0,12.5,0,24.7,0,37c5.5-0.3,10.1,1.4,14.1,4.8c1.9,1.6,4.1,2.9,6.2,4.2
			c2.5,1.5,4.8,3.1,5.5,6.1c0.2,0.7,0.9,1.3,1.5,1.9c2.8,2.5,4.7,5.6,6.5,8.8c0,1.2,0.4,2.5-0.1,3.4c-0.7,1.3,1.8,1.6,0.5,2.9
			c-0.5,0.5,0.6,1.6-0.3,2.6c-0.5,0.5-0.1,1.9-0.1,2.9c0,1.2-0.1,2.4,0,3.5c0.5,3.2,0.9,6.5,3,9.5c0,2.1,0,4.4,0,6.7
			c0,1.1,0,2.3-0.3,3.4c-1.8,5.2-3.6,10.5-6.4,15.3c-3,5.3-6.8,10.2-10.1,15.3c-1.5,2.2-3.8,4-3,7.6c-4,2.5-8,5.1-12.7,8.1
			c2,0,3.3,0,4.6,0c5,0,10.2,0.8,14.9-0.2c4.8-1.1,9.4-0.5,14.1-0.7c5-0.3,10-0.1,15-0.1c4.5,0,9,0,13.9,0c1-1.6,2-3.4,3.1-5.1
			c3.2-5.1,6-10.4,10.3-14.7c1.6-1.6,2.8-3.3,3.8-5.4c2.7-6,5.9-11.9,9-17.8c-0.4-0.7-0.8-1.4-1-1.8c1.3-3.9,2.6-7.5,3.7-10.6
			C827.3,727.2,827.1,725.4,826.8,723.4z M443.2,576.1c-0.2,2.1,0,3.9-0.5,5.6c-1.3,4.6-1.9,9.3-2.6,13.9c-0.6,4,0.1,8-0.9,12.1
			c-0.9,3.5,0,7.4-1.1,11.1c-0.9,2.9,0.2,6-0.9,9.1c-1,2.9,0.2,6.4-1.1,9.5c-0.6,1.6,0.3,3.4-0.9,5.1c-0.9,1.3,0,3.3-1,5.1
			c-0.8,1.3-0.1,3.3-1,5.1c-0.9,1.9-0.9,4.3-1.1,6.5c-0.2,1.9,0.2,3.8-1,5.6c-0.4,0.7-0.1,1.9-0.1,3c4.1,0,7.9,0.2,11.7,0
			c3.9-0.2,7.7,0.7,11.6,1c2.4,0.2,4.3,0.8,5.6,2.6c-0.3,2.5-0.6,4.7-0.9,6.9c-0.4,2.4-0.8,4.7-1.2,7c-3.6,4.1-7.2,8.4-11.1,12.4
			c-4,4-7.6,8.2-10.1,13.8c2.9,1.9,5.7,3.7,8.4,5.5c1,0.7,2,1.6,3.2,2c5.8,1.8,10.7,5.1,15.1,8.7c2.6,0.5,5,0.7,7.2,1.4
			c2.2,0.7,4.1,2.4,6.3,2.8c2.3,0.4,4,1.7,6,2.5c2.2,0.8,4.2,1.9,6.2,3.2c2,1.3,3,3.9,6.1,4.8c0-1.9,0.1-3.6,0-5.2
			c-0.3-6.8,0.4-13.5,1.9-20.2c0.4-1.8,1.8-3.1,2-4.7c0.6-4.9,2.2-9.5,2.9-14.3c0.7-5,2.2-9.8,3.6-14.6c1.9-6.6,5-13,8.4-18.7
			c-1-1.5-1.7-3.5-3-4.3c-4.8-2.8-7.2-7.6-10.5-11.6c-1.2-1.4-2.4-2.9-4-3.7c-4-2-6.2-5.7-8.1-9.2c-2.4-4.5-6.9-6.9-9.7-10.8
			c-4.9-2.6-7.9-7-10.4-11.6c-3-5.7-5.4-11.8-8.1-17.6c-0.6-1.3-1.6-2.4-1.9-3.7c-0.6-2.6-2.3-4.8-2.8-7.3c-0.5-2.7-1.9-4.9-3.2-7.2
			c-0.7-1.3-1-2.9-1.5-4.5C447.4,572.7,446,576.2,443.2,576.1z M535.3,583c1.6,2.3,2.9,4.1,4.2,5.9c1.2,1.7,2.4,3.3,3.6,5
			c1.3,1.8,2.7,3.5,3.8,5.4c1.1,1.8,2.1,3.5,3.8,4.9c1.6,1.3,2.7,3.2,3.9,4.8c1.3,1.7,1.2,4.3,3.9,5.2c2.2-4.5,5.2-8.2,9.4-10.5
			c2.2-1.2,3.8-2.9,5.6-4.6c2.1-2.1,4.2-4.2,6.4-6.4c3.2-3.2,5.8-6.7,7.8-10.8c0.4-0.8,0.8-1.7,1.4-2.4c4.9-5.3,8.9-11.3,13.1-17.7
			c-6.1,0.8-11.8-0.6-17.5,1c-3.5,1-7.5-0.6-11,1.1c-5.7-0.5-11.3,1.3-17.1,1.1c-9.8-0.4-19.6-0.1-29.5-0.1c-2.2,0-4.3,0.1-6.5,0
			c-2-0.2-4.1-0.9-6.1-0.9c-2.1,0-4.1-0.3-6.1-1.1c-1-0.4-2.5-1.1-2.9-0.7c-1.1,0.9-2.4,1.1-3.2,0.7c-2.8-1.5-5.7-0.7-8.6-0.9
			c-4.4-0.3-8.8-0.3-13-1.2c-2.4-0.5-5.1,0-7-1.1c-2.4-1.3-4.4-0.3-6.6-0.8c0,0.9-0.1,1.5,0,1.9c2.8,7,5.2,14.2,8.5,21
			c3,6.2,5.1,13,9.3,18.7c0.8,1.1,1.5,2.7,2.6,3.3c4.2,2.1,6.2,6.7,10.4,8.6c0.4,0.2,1,0.7,1,1c0.2,1.8,1.7,2.4,2.8,3.8
			c3.2-4.5,7-8,9.4-12.6c0.8-1.5,2-2.9,3.1-4.2c2.5-3.1,5.2-6.1,6.6-9.8c0.9-2.4,2.7-3.9,4.7-4.3c2.2-0.5,4.1-1.5,6-2.5
			C532.8,583.1,534.1,583.1,535.3,583z M402.1,251c0.9,0,1.7,0,2.5,0c3.5,0,7.2-0.7,10.4,0.2c2.6,0.7,5.1,0.5,7.6,0.8
			c2.5,0.3,5.1,0.9,7.6,0.9c11.5,0.1,23,0.1,34.5,0c1.1,0,2.2-0.3,3.3-0.5c2.8-0.5,5.6-1.1,8.4-1.4c1.6-0.2,2.9,1.1,4.6,1
			c8.2-0.2,16.3,0.1,24.5-0.1c8.2-0.2,16.5,1.1,24.6-0.9c5.3,0.5,10.8-1.1,16.1,1c5.8-0.6,11.8,1.2,17.6-1c0.7-0.3,1.9-0.4,2.4,0
			c1.8,1.5,3.7,0.8,5.6,0.9c1,0.1,2-0.1,2.9,0.3c3.8,1.7,7.8,0.2,11.7,0.7c2.1-1.8,4.8-1,7.2-1.9c1.9-0.7,4.3-0.1,6.4-0.1
			c2,0,4.5,0.8,5.9-0.2c2.3-1.5,3.9,0.2,5.8,0.1c7.2-0.3,14.3,1.8,21.6,1.1c1.7-0.2,3.3,0,5,0c0.8,0,1.9-0.2,2.4,0.3
			c1.5,1.4,3.4,1,4.7,0.6c2.8-1,5.7-0.8,9.4-0.9c-4-3.4-7.2-6.2-10.2-8.8c-4.9-0.7-9.4,0.3-14-1c-3.3-0.9-7-0.4-10.6-1
			c-4-0.7-8.3,0.1-12.5-0.2c-4.3-0.4-8.3,1.3-12.6,1.1c-0.3,0-0.6,0.2-0.8,0.4c-1.6,1.4-3.9,1.1-5.2,0.5c-2.6-1.2-5.1-0.6-7.7-0.8
			c-1.2-0.1-2.6,0.4-3.4-0.1c-2.3-1.4-5.1-0.1-7.1-1.1c-2.7-1.4-4.8-0.3-7.3,0c-3.6,0.4-7.3,0.3-11,0.1c-3.5-0.2-7.2,0.9-10.6-0.9
			c-0.6-0.3-2-0.4-2.4,0c-1.4,1.6-3.1,0.9-4.7,0.9c-16.2,0.1-32.3-0.1-48.5,0.1c-5.7,0.1-11.4-0.6-17.1,0.8c-3.3,0.8-7,0-10.5,0.2
			c-3.4,0.2-6.7,0.8-10.1,0.9c-4,0.1-8-0.1-12.1-0.8c-5.3-0.9-10.7-0.8-16.1-1.1c-0.2,0-0.4,0.1-0.5,0c-3.9-1.9-8-0.6-11.4-1
			C406.3,243.9,404.3,247.3,402.1,251z M579.7,197.3c0.9-2.8,1.8-5.2,2.6-7.7c-2.1-1.1-3.8-2.1-5.8-3.1c-2,3.3-3.7,6.2-5.6,9.2
			C574,196.3,576.7,196.8,579.7,197.3z M328.4,753.3c2-3.1,6.3-3.2,8-7.7c-4.3,1.4-7.5-1.8-11.3-0.3
			C326.2,747.8,327.2,750.2,328.4,753.3z M483,217.7c-3,0.4-6.5,0.9-9.6,1.4c-0.5,1.1-0.8,1.9-1.2,2.7c4.6,0,9.1,0,13.5,0
			c0.1,0,0.2-0.2,0.2-0.2C485.1,220.6,484.3,219.5,483,217.7z M458.2,206.8c-0.3-1.9-0.3-2.9-0.6-3.7c-1.4-3.8-3.2-7.4-3.6-11.5
			c0-0.2-0.4-0.4-0.6-0.6c-0.5,0.5-1,1-1.5,1.5C451.9,197.8,453.9,202.2,458.2,206.8z M742.8,747.6c5-8.8,5.3-10.9,2.5-15.3
			C744.4,737.4,743.6,742.5,742.8,747.6z M573.1,217.9c-1.1,0.1-2.5,0.2-3.9,0.5c-1.2,0.3-2.3,1-3.4,1.3c-1.1,0.3-2.3,0.4-3.5,0.6
			c4.2,0.8,8.4,1.2,12.6,1.6c0.4,0,0.8-0.2,1.1-0.3C575.1,220.5,574.3,219.5,573.1,217.9z M530.3,616.5c0.9,3.4,3.3,4.5,6.2,4.5
			c1.8-2.8-1.4-3.4-1.7-5.3c-0.1-0.9-1.4-1.7-2.2-2.5c-0.1-0.1-0.2,0-0.1,0C531.8,614.3,531.1,615.3,530.3,616.5z M710.1,719.7
			c-0.5,0.9-1.2,2.5-2,4c0.5,0.5,0.9,0.9,1.1,1.1c2.3-1.4,4.5-2.7,6.7-4.1c-0.8-1.3-1.5-2.5-2.2-3.7
			C712.6,717.8,711.7,718.5,710.1,719.7z M325.7,710.8c-2.5,4.3-2.5,4.3-2.5,6.1c1.4,0,2.9,0,4.1,0c2.4-1.2,1.5-3.1,1.6-5
			C327.7,711.5,326.7,711.1,325.7,710.8z M539.2,193c2.8-2.3,5.4-4.5,7.9-6.6c-0.1-1-0.2-1.7-0.3-2.4c-2.5,2.2-4.8,4.2-7.1,6.1
			c-1-0.8-1.5-1.8-3.3-2.1C537.6,190.2,538.4,191.6,539.2,193z M578.5,163.7c3.4,4.3,7.9,5.3,11.4,8.4c0-1.2,0-2,0-3.3
			C586.1,168.1,583.4,164.5,578.5,163.7z M599,200.7c0.4,0.1,0.7,0.2,1.1,0.3c1.7-4.2,3.3-8.4,5.1-12.8c-0.7-0.1-1.2-0.2-1.9-0.4
			C602.1,192.3,599.4,196.1,599,200.7z M479,168.1c-1.8,1.8-3.2,3.2-4.7,4.7c1.7,0,3.6,0,5.2,0c0.5-1.4,1-2.5,1.4-3.7
			c0.1-0.2-0.1-0.6-0.3-1C480,168.1,479.2,168.1,479,168.1z M712.5,766.4c4,1.7,7.1-0.7,9.5-0.6c-0.4-0.8-1-2-1.5-2.9
			C717.6,764.1,715.2,765.2,712.5,766.4z M725.5,733.5c0.5-2.3,0.8-3.7,1.1-5.3c-0.3-0.3-0.7-0.7-1-0.9c-1.4,0.4-2.5,0.8-3.7,1.2
			C723.1,730,724.2,731.6,725.5,733.5z M610.7,221.9c1,0,2.5,0,4.2,0c-0.6-1.1-1.1-2.1-1.8-3.3C612.1,219.9,611.4,221,610.7,221.9z
			 M528.8,645.9c0-1,0-1.9,0-2.8c-0.6,0-1.1,0-1.7,0c0,1,0,1.9,0,2.8C527.8,645.9,528.2,645.9,528.8,645.9z M514.1,221.2
			c1.6,0.2,3.2,1.8,4.9,0C517.3,221.2,515.7,221.2,514.1,221.2z M502.5,219.8c-1.2,0.7-1.2,0.7-2.3,2.2c1-0.1,1.9-0.2,3.1-0.3
			C502.9,220.9,502.7,220.4,502.5,219.8z M709.2,743.3c0,1.8,0,2.7,0,3.8c0.8-0.2,1.3-0.3,1.8-0.4C710.4,745.8,710,745,709.2,743.3z
			 M730.8,785.8c0-0.3,0-0.6-0.1-0.9c-1.2,0.1-2.4,0.2-3.6,0.2c0,0.2,0,0.4,0,0.6C728.4,785.8,729.6,785.8,730.8,785.8z
			 M425.8,218.2c-0.8,1.8-1.2,2.7-1.7,3.7c0.7,0,1.1,0,1.7,0C425.8,220.9,425.8,220,425.8,218.2z M727.1,697.1
			c0.9-0.2,1.3-0.2,1.9-0.4c-0.8-0.5-1.4-0.9-1.9-1.3C727.1,695.8,727.1,696.2,727.1,697.1z M743.2,713c0.2,0,0.3,0,0.5,0
			c0-1,0-2,0-3c-0.2,0-0.3,0-0.5,0C743.2,711,743.2,712,743.2,713z M356.8,752.2c-0.3,0-0.6,0.1-0.9,0.1c0.1,0.5,0.3,1.1,0.4,1.6
			c0.2,0,0.3-0.1,0.5-0.1C356.8,753.3,356.8,752.7,356.8,752.2z M349.7,782c-0.1,0-0.2,0-0.3,0c0,0.3,0,0.7,0,1c0.1,0,0.2,0,0.3,0
			C349.7,782.7,349.7,782.3,349.7,782z"/>
		<path d="M704.9,856c0.1,1.3,0,2.1,0.3,2.6c4,5.6,6.8,11.8,9.2,18.2c0.1,0.3,0.6,0.5,0.6,0.7c0.4,2.2-0.2,4.4,0.6,6.8
			c0.5,1.5-1,3.6-1.5,5.5c-0.7,2.5-1.5,5.1-1.9,7.7c-0.2,1.3-0.8,2.4-1.9,2.5c-2.7,0.2-4.3,2-6,3.6c-3.8,3.4-7.4,7.2-11,10.9
			c-0.7,0.7-1,1.9-1.4,2.9c-1.6,2.8-4.2,4.2-7,5.4c-2.7,1.1-5.5,1.9-9.5,3.2c-2.4,0.5-6.2,1-9.7,2.3c-1.4,0.6-3.1,0.1-4.1,1
			c-1.2,1.1-2.5,0.5-3.7,0.9c-4.8,1.4-9.7,2.1-13.8,5.3c-1.9,1.4-4.5,1.9-6.9,2.6c-2.1,0.6-4.4,0.7-6.5,1.2c-6.5,1.4-13.2,0-19.6,1
			c-5.6,0.9-11.2,0-16.6,1c-6.7,1.3-13.5-0.1-20.1,1c-9.6,1.5-19.1,0.5-28.6,0.8c-3.3,0.1-6.7-0.7-10.2-1.1
			c-0.6,0.8-1.2,1.6-1.9,2.4c-2.3-0.3-4.5-1.1-6.5-0.7c-2.1,0.5-4.2,0.3-6.3,0.4c-2.3,0.1-4.7,0-7,0c-2.2,0-4.3,0-6.5,0
			c-2.3,0-4.7,0.1-7,0c-3.7-0.2-7.4-0.8-11.1-0.9c-3.8-0.2-7.8,0.6-11.5-0.2c-4.3-1-8.4-0.5-12.6-0.9c-1.5-0.1-3.1-0.6-4.6-1
			s-3-0.7-4.6-1c-1.5-0.3-3.2,0.5-4.7-0.9c-0.5-0.5-1.9-0.1-2.9-0.1c-4.5,0-9,0-13.5,0c-3.5,0-6.9-0.8-10.3-1.8
			c-0.9-0.3-1.9-0.2-2.9-0.2c-3.2,0-6.3-0.1-9.5,0c-4,0.1-7.9-0.4-11.7-1.9c-0.4-0.2-1-0.1-1.5-0.1c-5.5,0.3-10.5-1.9-15.7-3.2
			c-3.8-1-7.3-2.4-11.3-3c-3.8-0.6-7.7-0.8-11.4-2.4c-3.5-1.5-7.4-2.1-10.9-3.9c-0.7-0.4-1.8-0.2-2.7,0c-0.7,0.1-1.4,0.5-2.3,0.9
			c-9.5-7.7-17.9-16.4-25.8-25.7c0.1-1.4-0.6-3,1-4c-0.2-0.2-0.6-0.4-0.7-0.7c-0.8-4.3-1.7-8.7-2.3-13c-0.5-3.1,0.5-5.8,1.8-8.7
			c1.9-4,2.9-8.4,4.3-12.7c2-1,3.6-2.6,4.8-3.8c1.4-1.3,2.5-2.8,4.4-3.7c2-1,3.3-3.2,5-4.8c2.3-2.1,4.4-4.4,7.1-5.9
			c2.4-1.3,4.9-3.1,7.5-2.2c5.8-2.7,10.7-6,16.6-7.1c0.9-0.2,1.8-0.8,2.7-0.8c4,0.4,7.4-1.8,11.2-2.1c1-1.6,3-0.4,4-1.2
			c1.2-1,2.5-0.6,3.7-0.9c1.2-0.2,2.4-0.7,3.6-1c1.2-0.2,2.5,0.3,3.7-0.8c0.5-0.5,1.9-0.2,2.9-0.2c3.2,0,6.3,0,9.5,0
			c2.9,0,5.6-1.7,8.6-1c5.3-2,10.7-0.7,16.1-1c3.2-0.2,6.3,0,9.5,0c2.5,0,5,0,7.5,0c1.5-2.3,4.6,0.2,6.2-2c3.4-0.3,6.7-0.8,10.1-1
			c4-0.2,7.9-1.5,12.1-1.1c4.1,0.4,8.4,0.7,12.5-0.1c3.6-0.7,7.2-1.3,10.6-0.7c7.7,1.4,15.4,0.7,23.1,0.8c1.9,0,3.5,1.5,5.6,1.1
			c1.7-0.3,3.5-0.5,5.1,0.8c0.7,0.6,2.4,0.4,3.4,0c1.2-0.5,2.2-1,3.6-1c5.3,0.1,10.8-0.7,15.9,0.3c4.4,0.9,8.8,0.5,13.1,0.7
			c4.5,0.2,9.1,0.8,13.5-0.1c6.9-1.4,13.8-0.3,20.6-0.9c1.7-0.1,3,1,4.6,1c2.4,0,4.5,1.6,7.1,1.1c2.2-0.4,4.2,1.2,6.6,1.1
			c2.1-0.1,4.2,1.1,6.5,1c0.5,0,1.1,0.8,1.6,0.8c5.3-0.8,10,1.6,14.7,3.2c4.3,1.4,8.7,2.4,12.9,3.6c5.3,1.5,10.3,3.3,15.1,5.8
			c2.7,1.5,5.6,2.5,8.6,3.4c4,1.2,10.1,5.8,12.4,9.1c0.9,1.3,2,2.6,3.3,3.6C701.7,854,703.4,854.9,704.9,856z M635.4,847
			c-2-1.3-3.7-2.7-5.7-3.6c-1.5-0.7-3.3-1.5-4.9-1.3c-5.6,0.7-10.6-2.7-16.2-2.1c-2-1.9-4.6-0.2-6.5-1.1c-2.2-1-4.4-1-6.6-0.8
			c-2,0.1-4.1,0.9-6.1,0.9c-10.3,0.1-20.7,0.1-31,0c-1.2,0-2.7,0.6-3.7-0.7c-4.9,0.1-9.8,0.1-14.7,0.3c-0.4,0-0.8,0.4-1,0.5
			c-0.9-0.4-1.6-1-2.3-1c-3.7-0.1-7.3,0.1-11-0.1c-3.5-0.2-7.1-0.7-10.6-0.9c-8.4-0.6-16.7,0.7-25.1,1c-4.8,0.2-9.7,0.2-14.5,0
			c-4.9-0.2-9.6,1.7-14.6,1.1c-1.1-0.1-2.4,0.7-3.6,0.9c-1.3,0.2-2.7-0.2-3.9,0.2c-3.7,1.2-7.4,1.7-11.2,1.9
			c-9.4,0.4-18.7-0.9-28.1,0.8c-4.1,0.7-8.3,1.9-12.6,1.2c-0.6-0.1-1.4,0.8-2,0.8c-0.7,0-1.4-0.8-2.1-0.8c-4.6,0.1-9,1.6-13.4,2.5
			c-3.2,0.7-6.2,1.5-8.2,4.3c-2.1,0.2-3,2.6-5.6,2.3c-1.9-0.2-4.4,0.7-6.1,1.9c-3.6,2.6-7.8,3.8-11.8,5.3c-1.2,0.4-2.4,0.6-3.5,0.8
			c-2.2,1.8-4.3,3.5-6.5,5.3c0.1,5.5-1.4,10.7-3.7,15.8c-1.3,2.9-2.5,6.3,0.1,9.2c4.8,3.7,8.7,8.4,12.8,12.1
			c1.6,0.3,2.8,0.4,3.7,0.8c4.3,1.9,9,2.9,13.6,3.3c4.2,0.3,7.9,1.8,11.8,3c4,1.2,7.9,2.8,12.2,3.2c1.7,0.2,3.4,0.3,5.1,0.8
			c3.2,1,6.7,0.9,10,1.2c1.5,0.1,3,0.2,4.5,0c2.6-0.3,5,0.7,7.5,1.3c2.1,0.5,4.2,1.6,6.3,1.7c8,0.5,16.1,0.7,24.1,1.1
			c0.8,0,2-0.3,2.4,0.1c1.4,1.5,3.1,0.6,4.7,0.9c1.7,0.3,3.4,0.6,5.1,1c1.5,0.3,3,0.9,4.6,1c3.8,0.1,7.7-0.1,11.5,0.1
			c3.7,0.2,7.4,0.9,11.1,0.9c8.7,0.1,17.3,0,26,0.1c4.7,0,9.5-0.7,14.2,1.2c0.7-0.8,1.3-1.6,1.8-2.3c4.1,0.1,8,0.5,11.9,0.8
			c4.9,0.4,10.2,1.3,15.1-0.8c5.3,0.6,10.4-0.7,15.6-1c5.2-0.3,10.4,0.6,15.6-0.8c2.9-0.8,6.3,0,9.5-0.2c3-0.2,6.1-0.8,9.1-0.9
			c3.2-0.2,6.3-0.2,9.5,0c3,0.2,5.7-0.6,8.4-1.5c2.1-0.7,4.2-1,6.4-1.6c3.1,2.2,5.5,0.2,8.3-0.9c4.4-1.8,8.8-3.6,13.4-5.2
			c4-1.4,8.2-1.8,12.3-2.7c3.3-0.7,5.9-2.2,7.5-4.7c2.2-3.6,5.7-5.9,8.3-9.1c2.9-0.5,3.2-3.1,4.1-5.1c2.3-1.3,4.9-1.7,5.9-5
			c1.7-5.5,1.3-10.3-2.1-14.9c-1.8-0.5-3.6-1.1-6-1.8c-1.2-1.2-2.8-2.9-4.4-4.5c-1.6-1.7-3.3-3.3-4.9-5c-1.6-1.6-3.4-2.6-5.7-3.3
			c-3.2-0.9-6.5-2.1-9.3-4c-2-1.4-4.1-2.3-6.4-2.8c-2.3-0.5-4.6-1.3-7.1-1.1C642.8,847.2,639.3,847,635.4,847z"/>
		<path d="M533.9,470.1c-4.2-0.3-7.1-4.1-10.7-0.7c-1.7-1.6-3.4-2.7-4.2-4.8c-0.6-1.4-1.8-2.6-2.7-3.9c-1.6-2.3-2.9-4.7-3.4-7.6
			c-0.6-3.1-1.8-6.3-3.4-9.1c-2.5-4.5-3.7-9.5-5.3-14.3c-0.5-1.5-1.5-2.4-2.2-3.6c-1.8-3.1-3.4-6.5-3.8-9.9
			c-0.6-4.8-3.2-8.9-3.2-13.7c-1.5-1.1-0.3-3.2-1.1-4c-1.5-1.4-0.4-3.1-1.2-4.6c-0.7-1.2-0.7-2.7-1.1-4.2c-0.6,0.2-1.2,0.5-2,0.8
			c-5.1-1.4-10.9-2-15.9-4.7c-5.2-2.8-10.8-5.4-15.1-9.3c-4.2-3.8-8.7-7.8-11.5-13.6c0-1.8,0.5-4.3-0.1-6.4
			c-0.6-2.1-1.1-4.2-1.6-6.3c-0.6-2.3-0.5-5,0.4-7.7c1-3.1,1.6-6.4,2.2-9.6c0.7-3.6,2.1-6.8,3.2-10.2c0.1-0.3,0-0.7,0-1.5
			c-0.7-0.4-1.5-1-2.5-1.4c-4.7-2.1-9.3-4-14.4-5.2c-6.6-1.6-13-4-19.1-8.1c0-0.9-0.3-2.1,0.1-3.1c1.6-4.3,3.4-8.5,5.2-12.9
			c3.7,1,6.9,2.2,10.2,3.1c2.1,0.5,4.2,1.2,6.5,1.3c2.7,0.2,5.4,1.4,8,2.3c1.9,0.7,3.6,2.2,5.5,2.3c2.8,0.2,4.6,2.7,7.6,2.4
			c2.5-0.3,5,0.5,7.6,0.9c2.2,0.3,4.4,0.8,6.6,1c2.2,0.2,4.5-0.5,6.5,0.2c3.9,1.4,8.2,0.6,11.9,2.8c0.7,0.4,2-0.3,4-0.6
			c0.2,0.1,1.4,0.5,2.6,0.7c0.8,0.1,1.7,0,2.5,0c7.2,0.3,14.5,0.1,21.6,1.2c5.1,0.8,10.1,0.3,15.1,0.9c3.4,0.4,6.7,0.8,10.1,1
			c4.6,0.3,8.9-0.9,13.1-2.3c1-0.3,2-0.9,3.1-0.8c4.5,0.2,8.9-0.4,13.2-2c0.7-0.3,1.7,0,2.5,0c3,0,6-0.2,9,0
			c5.5,0.4,10.7-1.1,15.9-2.7c0.6-0.2,1.3-0.3,1.9-0.3c3.3,0.2,6.2-1,8.9-2.6c7-3.9,14.6-6.7,22.2-9.1c2-0.6,4.2-0.3,6.4-0.5
			c2.2,5.2,4.2,10.2,4.5,15.5c-4.4,3-9.5,3.6-13.7,6.5c-4,2.7-8.8,4.4-13.5,6.6c0.9,2.8,2.4,5.5,2.2,8.6c-0.2,3.2,0.1,6.3-0.1,9.5
			c-0.1,3-0.6,6-0.9,9.1c0.6,0.6,1.2,1.2,1.5,1.5c-0.6,6-2.5,11.3-4.7,16.6c-0.8,1.9-1.9,3.6-2.4,5.5c-0.9,3.2-3.8,5-5,7.9
			c-0.2,0.4-0.4,0.8-0.6,1.4c-2.8,1.9-6,3.7-8.7,6c-3.3,2.7-7.3,3.4-11.2,4.5c-5.7,1.5-11.6,2.5-17.4,1.9c-0.7,0.7-1.4,1.2-1.5,1.7
			c-0.4,5.1-2.9,9.4-5,13.9c-1.4,3.1-2.8,6.2-4,9.3c-1.1,3-2,6.2-3,9.2c-0.1,0.3,0.1,0.7,0,1c-4.6,7.4-6.1,16.2-10.4,23.7
			c-1.6,2.9-3.7,5.5-5.6,8.2C540,462.1,536.9,466.2,533.9,470.1z M516.7,364.8c3.4-3.8,6.2-7.1,9-10.3c0.5-4.6,1-9.3,1.4-13.8
			c-2.2-2.2-2.9-4.9-1.9-7.2c0.9-2,0.6-3.6,0.6-5.1c-2.3-0.5-4.1-1.1-5.9-1.3c-2.7-0.3-5.5,0.6-8.1-1c-5.4,0.5-10.7-0.7-16.1-0.9
			c-1.8-0.1-3.7,0.9-5.6,0.9c-3.2,0-6.4,0.2-9.6-0.8c-3.2-0.9-6.7-0.6-10.5-0.8c-0.2,0.4-0.7,1.2-1.1,2c-1,1.9-0.9,4.2-1.9,6.2
			c-1.1,2.2-1.7,9.8-1,11c1.9,3.5,2.1,7.3,1.9,11.1c2.9,2.6,5.7,5.1,5.1,9c3.5,3.4,7.8,3.1,11.9,4.4c0-2.2,0-4.4,0-6.5
			c-0.1-2.2,0.2-4.4-0.9-6.6c-0.6-1.2-0.5-3.2,0.8-4.6c0.3-0.3,0-1.3,0-2.1c2.6-2.1,5.2-4.2,7.7-6.2c3.7-0.2,7.4,0.7,10-2.1
			c1.5,0.5,2.7,0.9,4,1.4c3.9,3.7,7.9,7.5,12.3,11.6c1.5,3.6-1.6,7.1-3.1,13.4c0.8-0.7,1.1-0.9,1.1-1c-0.1-0.5-0.3-0.9-0.4-1.4
			C516.4,364.6,516.2,365.2,516.7,364.8z M545.9,329.6c2.9,5,0.1,10.1,0,15.2c0,5.2-1.7,10.2-2.8,15.7c2.1,3.9,6.2,5.7,10.2,7.7
			c0.7-0.6,1.3-1.2,1.7-1.5c0-2.7-0.3-5.1,0.1-7.3c1-5.6,1.3-11.7,8.1-14c0.3-0.1,0.6-0.2,0.9-0.3c5.2,0,10.3,0,15.4,0
			c3.4,2.4,4.3,7,8.6,8.2c0,2.6,0.1,4.9,0,7.2c-0.2,2.1-0.7,4.2-1.2,6.8c4.1-2.5,7-6.2,12-5c0.6-2.1,0.8-4.2,1.6-6
			c2.2-5,2.9-10.1,2.6-15.4c-0.2-2.9,0.4-5.9-1.1-8.6c-1.6-2.8-2.3-5.8-1.9-9.2c-1.2,0.2-2,0.2-2.8,0.4c-4.4,1.3-8.7,2.9-13.4,2.8
			c-3.8-0.1-7.7,0-11.5,0c-1,0-2.1-0.2-3,0.1c-3.9,1.6-8,2-12.2,1.9C553.5,328,549.8,327.5,545.9,329.6z M510.8,388.6
			c1.5,5.9,3.5,11.3,4.4,17c0.2,1.2,0.6,2.5,1.4,3.4c2.4,2.5,3.1,5.7,4.3,8.7c0.9,2.4,1.7,4.9,2.7,7.4c1.7,4.1,3.1,8.4,4.6,12.5
			c0.6,1.5,1.4,2.9,2.5,5.3c0.7-3.9,1.7-6.6,3.1-9.3c1.7-3.2,3.5-6.5,4.3-10.2c0.8-3.7,1.9-7.2,3.6-10.5c3.8-7.5,7.4-15,8.5-23.6
			c-6.9-2.6-12.5-7.1-17.5-12.4c-3.8,3.2-7.3,6.1-10.7,9C515.8,386,513.6,386.5,510.8,388.6z"/>
		<path d="M495.8,874c-5.4,3.6-10.7,7.1-15.9,10.6c-4.4,3-9.1,5.4-14.1,7c-4.6,1.4-9.3,0.5-13.1-2.4c-3.5-2.7-7.2-5.3-9.6-9.4
			c-1.5-2.6-3.9-4.8-5.9-7c-1.6-1.8-2.4-3.7-2.2-5.8c4-3.3,7.8-6.5,11.4-9.6c6.2,1.7,7.1,9.3,13.9,11.7c-0.1,0,0.8-0.1,1.6,0
			c5,0.7,8.9-1.6,12.8-4.1c2.6-1.7,5.3-3.2,7.9-5c4.3-2.9,8.5-5.9,12.8-8.9c2.7,0,5.4-0.3,8,0.1c4.7,0.8,9.5,1.6,14,3.6
			c2.9,1.3,5,3.5,6.5,5.8c1.9,3.1,5.3,4.8,6.5,8.3c3.6,2.3,7.3,4.3,11.9,2.6c3.2-1.2,6.4-2.3,9.5-3.5c2.1-2.9,1.1-6.3,1.4-9.7
			c2.8,0,5.6,0,8.6,0c0.9-1.8,1.8-3.6,2.8-5.5c3.8,1.6,7.7,2.1,11.2,0.9c2.4-0.8,4.7-1,6.6-0.4c1.8,0.5,3.4,0.6,5.3,0.8
			c0.1,0.3,0.1,0.9,0.4,1.2c3.7,3,4.1,7.6,5.9,11.5c1,2.1,1.5,4.4,2.2,6.5c-0.2,0.3-0.3,0.4-0.4,0.6c-4.3,5.1-9.6,8.8-15.8,11.3
			c-2.7,1.1-5.1,3.1-8,4.9c-2.6-0.4-5.8-0.8-9.8-1.4c-0.6-0.3-2-1-3.5-1.8c-1.2,0.6-2.4,1.2-3.7,1.8c-4.5,2.1-9,4-13.6,5.8
			c-2.2,0.8-4.2,1-6.1,0.3c-2.2-0.8-4.6-0.6-6.6-2.3c-1.6-1.4-3.7-2.2-5.6-3.3c-0.5-0.3-1.2-0.6-1.6-1c-1.4-1.6-2.6-3.2-3.9-4.9
			c-1.2-1.5-2.8-2.5-3.7-4.4c-1-2.2-3.3-3.1-5.8-3.8C503.9,873.7,499.7,874.1,495.8,874z"/>
	</g>
</svg>
