<svg width="20" height="20" viewBox="0 0 20 20" fill="none" xmlns="http://www.w3.org/2000/svg">
<g clip-path="url(#clip0_473_1702)">
<path d="M14.6851 19.4578C13.8685 19.4948 13.0656 19.5813 12.266 19.5521C11.5461 19.5271 10.819 19.2791 10.1043 19.3077C9.35871 19.3415 8.69498 18.8636 8.00632 18.7755C6.97182 18.6415 6.04675 17.9138 4.98398 17.9081C4.53783 17.9052 3.95341 17.7355 3.4997 17.1903C2.94367 16.5189 2.22284 16.0974 1.68028 15.41C0.996116 14.5443 0.795942 13.3256 0.661497 12.1155C0.633334 11.8705 0.638494 11.6085 0.574172 11.3805C0.529997 11.2208 0.399852 11.1074 0.378438 11.0738C0.439888 10.4244 0.549266 9.89215 0.528229 9.36582C0.451956 7.62194 0.783921 6.10971 1.7149 4.9013C2.4366 3.9641 3.14006 3.00078 3.88334 2.10109C4.13376 1.79722 4.47739 1.48142 4.79191 1.46331C5.98763 1.39366 7.10727 0.711676 8.33595 0.867616C8.99041 0.953388 9.6575 0.753775 10.3138 0.816373C11.301 0.910142 12.3192 0.937074 13.2572 1.32174C14.5977 1.87672 15.8313 2.82914 16.8439 4.23419C17.1106 4.60311 17.394 4.96358 17.6925 5.28104C18.6057 6.24798 18.9725 7.57071 19.3107 9.01405C19.5541 10.0576 19.6256 11.0704 19.697 12.0794C19.3788 12.8944 19.0708 13.682 18.6916 14.6537L18.7299 15.4986C17.8126 17.5724 16.1296 18.1722 14.6879 19.4577L14.6851 19.4578Z" fill="black"/>
<path d="M7.88641 13.0269L7.8554 12.9639C7.64866 12.5401 7.76064 12.1527 7.85195 11.8398C7.8933 11.6958 7.93292 11.5584 7.93809 11.4342C7.88813 11.3647 7.83644 11.2968 7.78476 11.2273C7.41607 10.7356 7.00432 10.1859 7.07668 9.4492L7.08874 9.32998L7.99495 8.45915L8.19479 8.52041C8.44804 8.59822 8.70646 8.69757 8.93387 8.78697C9.47484 8.99557 10.0348 9.21244 10.6291 9.21244C10.7514 9.21244 10.8738 9.2025 10.9961 9.18429C11.5078 8.59822 11.9316 7.85323 12.2245 7.02545C12.3382 6.70427 12.302 6.34666 12.1263 6.04369C12.0315 5.87979 11.9729 5.8798 11.954 5.8798L11.8161 5.88974L10.195 4.76892L9.24915 4.64144L9.16301 4.88149H8.17928L7.59008 5.4477V6.19436H6.61497L6.51332 6.04701C6.09467 5.44273 6.11019 4.82189 6.56329 4.20437L6.61324 4.13648L8.815 3.07031H8.90114C10.3655 3.1117 11.4819 3.54712 12.3071 4.39973H12.6965L12.7999 4.52059C12.8533 4.5835 12.9101 4.64475 12.9687 4.70767C13.1169 4.86825 13.2702 5.0338 13.3942 5.23247C13.887 6.01886 13.8611 6.643 13.6337 7.58998C13.4873 8.19757 13.1875 8.67604 12.8671 9.15119C12.7379 9.34323 12.6259 9.54522 12.4967 9.78031C12.4346 9.89289 12.3692 10.0121 12.2985 10.1346L12.2589 10.2041L11.5526 10.6644L11.4699 10.6743C11.2338 10.7008 10.9961 10.714 10.767 10.714C10.2156 10.714 9.67641 10.6379 9.15785 10.4856C9.18541 10.5121 9.32496 10.6445 9.35769 10.676L9.42832 10.7455L9.449 10.8415C9.58166 11.4557 9.449 12.0285 9.32323 12.5798C9.30083 12.6759 9.27844 12.7719 9.25776 12.8696L9.22159 13.0351L8.34295 13.4126L7.88985 13.0285L7.88641 13.0269Z" fill="#FFF8E6"/>
<path d="M7.26562 15.3026L7.47343 15.0872C7.85168 14.6946 8.0805 14.459 8.44707 14.459C8.75294 14.459 8.97708 14.6295 9.31797 14.8898L9.49542 15.0244V16.2023L8.00111 16.9293L7.26562 15.3049V15.3026Z" fill="#FFF8E6"/>
</g>
<defs>
<clipPath id="clip0_473_1702">
<rect width="20" height="20" fill="white"/>
</clipPath>
</defs>
</svg>
