<svg width="20" height="20" viewBox="0 0 20 20" fill="none" xmlns="http://www.w3.org/2000/svg">
<path d="M7.88641 13.0269L7.8554 12.9639C7.64866 12.5401 7.76064 12.1527 7.85195 11.8398C7.8933 11.6958 7.93292 11.5584 7.93809 11.4342C7.88813 11.3647 7.83644 11.2968 7.78476 11.2273C7.41607 10.7356 7.00432 10.1859 7.07668 9.4492L7.08874 9.32998L7.99495 8.45915L8.19479 8.52041C8.44804 8.59822 8.70646 8.69757 8.93387 8.78697C9.47484 8.99557 10.0348 9.21244 10.6291 9.21244C10.7514 9.21244 10.8738 9.2025 10.9961 9.18429C11.5078 8.59822 11.9316 7.85323 12.2245 7.02545C12.3382 6.70427 12.302 6.34666 12.1263 6.04369C12.0315 5.87979 11.9729 5.8798 11.954 5.8798L11.8161 5.88974L10.195 4.76892L9.24915 4.64144L9.16301 4.88149H8.17928L7.59008 5.4477V6.19436H6.61497L6.51332 6.04701C6.09467 5.44273 6.11019 4.82189 6.56329 4.20437L6.61324 4.13648L8.815 3.07031H8.90114C10.3655 3.1117 11.4819 3.54712 12.3071 4.39973H12.6965L12.7999 4.52059C12.8533 4.5835 12.9101 4.64475 12.9687 4.70767C13.1169 4.86825 13.2702 5.0338 13.3942 5.23247C13.887 6.01886 13.8611 6.643 13.6337 7.58998C13.4873 8.19757 13.1875 8.67604 12.8671 9.15119C12.7379 9.34323 12.6259 9.54522 12.4967 9.78031C12.4346 9.89289 12.3692 10.0121 12.2985 10.1346L12.2589 10.2041L11.5526 10.6644L11.4699 10.6743C11.2338 10.7008 10.9961 10.714 10.767 10.714C10.2156 10.714 9.67641 10.6379 9.15785 10.4856C9.18541 10.5121 9.32496 10.6445 9.35769 10.676L9.42832 10.7455L9.449 10.8415C9.58166 11.4557 9.449 12.0285 9.32323 12.5798C9.30083 12.6759 9.27844 12.7719 9.25776 12.8696L9.22159 13.0351L8.34295 13.4126L7.88985 13.0285L7.88641 13.0269Z" fill="black"/>
<path d="M7.26562 15.3026L7.47343 15.0872C7.85168 14.6946 8.0805 14.459 8.44707 14.459C8.75294 14.459 8.97708 14.6295 9.31797 14.8898L9.49542 15.0244V16.2023L8.00111 16.9293L7.26562 15.3049V15.3026Z" fill="black"/>
</svg>
