<svg width="132" height="57" viewBox="0 0 132 57" fill="none" xmlns="http://www.w3.org/2000/svg">
<path d="M1 30C1 15.6406 12.6406 4 27 4H105C119.359 4 131 15.6406 131 30V30C131 44.3594 119.359 56 105 56H27C12.6406 56 1 44.3594 1 30V30Z" fill="black" stroke="black" stroke-width="1.5" stroke-linejoin="round"/>
<path d="M54.6604 31.808L55.6544 35H53.4844L52.6864 31.92C52.4484 31.01 52.0004 30.716 51.1604 30.716H49.3684V35H47.4644V25.2H51.9724C54.1144 25.2 55.5004 26.082 55.5004 28C55.5004 29.33 54.5764 29.974 53.0644 30.17V30.226C53.8064 30.422 54.3664 30.87 54.6604 31.808ZM49.3684 26.796V29.176H51.9724C52.9804 29.176 53.4844 28.882 53.4844 28C53.4844 27.118 52.9804 26.796 51.9724 26.796H49.3684ZM59.5878 33.362H65.3418V35H57.6838V25.2H65.0618V26.838H59.5878V29.008H63.1018V30.646H59.5878V33.362ZM73.7994 35L73.0854 32.97H68.7454L68.0314 35H66.1134L69.7394 25.2H72.0914L75.7174 35H73.7994ZM69.3194 31.29H72.5114L70.9574 26.838H70.8734L69.3194 31.29ZM79.1654 33.25H84.6394V35H77.2614V25.2H79.1654V33.25Z" fill="black"/>
<path d="M1 27C1 12.6406 12.6406 1 27 1H105C119.359 1 131 12.6406 131 27V27C131 41.3594 119.359 53 105 53H27C12.6406 53 1 41.3594 1 27V27Z" fill="#D6D3A3" stroke="black" stroke-width="1.5" stroke-linejoin="round"/>
</svg>
