<svg width="132" height="54" viewBox="0 0 132 54" fill="none" xmlns="http://www.w3.org/2000/svg">
<path d="M1 27C1 12.6406 12.6406 1 27 1H105C119.359 1 131 12.6406 131 27V27C131 41.3594 119.359 53 105 53H27C12.6406 53 1 41.3594 1 27V27Z" fill="black" stroke="black" stroke-width="1.5" stroke-linejoin="round"/>
<path d="M54.6604 28.808L55.6544 32L53.4844 32L52.6864 28.92C52.4484 28.01 52.0004 27.716 51.1604 27.716H49.3684V32H47.4644V22.2H51.9724C54.1144 22.2 55.5004 23.082 55.5004 25C55.5004 26.33 54.5764 26.974 53.0644 27.17V27.226C53.8064 27.422 54.3664 27.87 54.6604 28.808ZM49.3684 23.796V26.176H51.9724C52.9804 26.176 53.4844 25.882 53.4844 25C53.4844 24.118 52.9804 23.796 51.9724 23.796H49.3684ZM59.5878 30.362H65.3418V32H57.6838V22.2H65.0618V23.838H59.5878V26.008H63.1018V27.646H59.5878V30.362ZM73.7994 32L73.0854 29.97H68.7454L68.0314 32H66.1134L69.7394 22.2H72.0914L75.7174 32H73.7994ZM69.3194 28.29H72.5114L70.9574 23.838H70.8734L69.3194 28.29ZM79.1654 30.25H84.6394V32H77.2614V22.2H79.1654V30.25Z" fill="black"/>
</svg>
