<svg width="37" height="14" viewBox="0 0 37 14" fill="none" xmlns="http://www.w3.org/2000/svg">
<g clip-path="url(#clip0_302_39902)">
<path d="M20.28 12.62C20.25 12.77 20.28 12.92 20.37 13.04L20.76 12.73L20.27 12.62H20.28Z" fill="black"/>
<path d="M26.3701 2.76C26.1801 2.66 25.9801 2.64 25.8301 2.61C25.6601 2.59 25.4801 2.65 25.3701 2.79C24.9501 3.3 24.5201 3.82 24.0901 4.34C24.0601 4.34 24.0401 4.34 24.0101 4.34C23.5501 4.44 23.2401 4.73 23.0301 4.95C22.7901 5.2 22.6701 5.35 22.4801 5.46C22.1701 5.64 21.9201 5.88 21.7201 6.1C21.7001 5.96 21.6601 5.84 21.6401 5.75C21.6101 5.62 21.6001 5.56 21.6001 5.52C21.6101 5.11 21.5601 4.67 21.3701 4.29C21.3101 4.16 21.2701 4.01 21.2401 3.82C21.2201 3.68 21.1801 3.4 21.1401 3.22C21.0201 2.65 20.8801 2.11 20.7101 1.57L20.2401 1.72L20.7101 1.56C20.6301 1.31 20.5601 1.05 20.5101 0.8C20.4801 0.61 20.4201 0.42 20.2701 0.27C20.1201 0.11 19.9301 0.0499999 19.7801 0.00999992C19.6801 -0.0100001 19.5701 0.00999993 19.4801 0.0399999C19.2001 0.17 19.0001 0.38 18.9201 0.65C18.8501 0.9 18.8801 1.15 18.9601 1.34C19.1001 1.67 19.1701 2 19.2801 2.44L19.7501 2.32H19.7001L19.2801 2.44C19.3301 2.63 19.3901 2.83 19.4401 3.01C19.4901 3.19 19.5401 3.37 19.5801 3.54C19.6601 3.89 19.7001 4.19 19.6701 4.48C19.6601 4.6 19.6901 4.73 19.7701 4.83C20.0201 5.16 20.0901 5.54 20.1201 5.96C20.1701 6.7 20.1401 7.44 20.1201 8.23C20.1201 9 20.1201 9.81 20.2901 10.63C20.3101 10.76 20.2901 10.86 20.2901 11.12C20.2901 11.31 20.3101 11.57 20.4301 11.83C20.4301 11.85 20.4301 11.86 20.4101 11.89C20.4001 11.93 20.3801 11.99 20.3701 12.06C20.3301 12.3 20.2901 12.52 20.2701 12.62L20.7601 12.73L20.3701 13.04C20.5601 13.28 20.6601 13.4 20.7401 13.52C20.8301 13.65 20.9901 13.73 21.1501 13.73H21.5101C21.7601 13.73 21.9701 13.55 22.0001 13.31C22.1501 12.31 22.0501 11.38 21.8501 10.52C21.7701 10.18 21.7601 9.85 21.7601 9.47V9.45C21.7901 9.47 21.8101 9.49 21.8401 9.5C22.3401 9.75 22.5701 10.21 22.9501 10.84L23.3701 10.58L22.9501 10.85C23.0201 10.96 23.0801 11.07 23.1601 11.2C23.2301 11.33 23.3101 11.46 23.4101 11.6C23.4101 11.6 23.4201 11.62 23.4301 11.62C23.4901 11.7 23.5601 11.78 23.6101 11.84C23.6701 11.91 23.7101 11.96 23.7401 12.01C23.8101 12.11 23.8401 12.19 23.8401 12.27L24.3301 12.24L23.8301 12.27C23.8501 12.53 23.9901 12.72 24.0601 12.82C24.1701 12.96 24.2101 13 24.2801 13.1L24.7001 12.82L24.9101 13.27C25.0801 13.19 25.2901 13.1 25.4501 13.01C25.6101 12.92 25.7101 12.75 25.7101 12.57V12.04C25.7101 11.89 25.6401 11.75 25.5301 11.65C25.0701 11.27 24.7001 10.81 24.4601 10.28C24.2001 9.71 23.8601 9.2 23.4001 8.76C23.0801 8.45 22.7701 8.14 22.4601 7.82C22.5301 7.72 22.5901 7.65 22.6401 7.59C22.6401 7.59 22.6401 7.59 22.6501 7.58C22.7201 7.5 22.8001 7.43 22.9101 7.35C23.0001 7.27 23.1301 7.18 23.2401 7.08C23.2401 7.08 23.2401 7.08 23.2501 7.07C23.3701 6.96 23.4901 6.84 23.6001 6.73C23.8101 6.8 24.0501 6.83 24.3201 6.73C24.5001 6.66 24.6701 6.54 24.8301 6.41C24.9901 6.27 25.1701 6.1 25.3801 5.88C25.4401 5.81 25.4901 5.73 25.5101 5.64C25.5601 5.44 25.5701 5.38 25.6001 5.32C25.6001 5.32 25.6001 5.32 25.6001 5.31C25.7701 4.95 26.0401 4.68 26.4001 4.46C26.5601 4.37 26.7201 4.25 26.8301 4.06C26.9501 3.86 26.9701 3.64 26.9501 3.45C26.9401 3.34 26.8901 3.24 26.8201 3.16C26.6801 3.01 26.5401 2.85 26.3601 2.76H26.3701Z" fill="black"/>
<path d="M24.3 13.11C24.44 13.32 24.7 13.39 24.93 13.29L24.72 12.84L24.3 13.12V13.11Z" fill="black"/>
<path d="M21.6001 5.53V5.52L21.1001 5.5L21.6001 5.53Z" fill="black"/>
<path d="M10.7501 2.77C10.6101 2.74 10.4601 2.77 10.3401 2.86L10.6401 3.26L10.7501 2.77Z" fill="black"/>
<path d="M16.65 10.67C16.54 10.44 16.42 10.15 16.26 9.89C16.12 9.67 16.01 9.44 15.87 9.16C15.76 8.94 15.62 8.7 15.46 8.46V7.86C15.46 7.6 15.27 7.39 15.01 7.36L14.83 7.34C14.83 7.34 14.82 7.32 14.81 7.31C14.46 6.79 14.08 6.17 13.68 5.63C13.38 5.23 13.04 4.86 12.73 4.52C12.71 4.43 12.67 4.35 12.61 4.27C12.51 4.14 12.38 4.07 12.34 4.05C12.31 4.03 12.3 4.03 12.29 4.02C12.26 3.95 12.23 3.87 12.2 3.83C12.18 3.8 12.16 3.77 12.14 3.74C12.12 3.71 12.11 3.7 12.09 3.68C12.04 3.6 12.05 3.61 12.05 3.63C12.05 3.48 11.99 3.37 11.96 3.32C11.92 3.26 11.88 3.21 11.84 3.16C11.77 3.09 11.64 2.99 11.49 2.95C11.24 2.88 10.97 2.82 10.75 2.78L10.64 3.27L10.34 2.87C10.2 2.97 10.03 3.13 9.95002 3.36C9.85002 3.62 9.89002 3.91 10.07 4.14C10.25 4.37 10.21 4.61 10.2 5.14C10.2 5.14 10.2 5.14 10.2 5.15C10.2 5.18 10.2 5.24 10.16 5.34C10.15 5.39 10.13 5.43 10.11 5.49C10.09 5.54 10.07 5.61 10.05 5.67C10.05 5.67 10.05 5.69 10.05 5.7C9.96002 6.1 9.80002 6.49 9.65002 6.9L9.48002 6.73L9.13002 7.08L9.00002 6.6C8.79002 6.66 8.60002 6.71 8.40002 6.76C8.18002 6.82 8.02002 7.02 8.02002 7.24V7.83C8.02002 8.01 8.12002 8.18 8.28002 8.27L8.80002 8.56C8.92002 8.63 9.06002 8.63 9.18002 8.6C9.18002 8.77 9.13002 8.93 9.02002 9.12C8.92002 9.31 8.79002 9.57 8.76002 9.87C8.73002 10.21 8.83002 10.55 9.11002 10.85C9.20002 10.95 9.33002 11 9.47002 11C9.52002 11 9.52002 11 9.62002 11C9.69002 11 9.80002 11 9.91002 10.98C10.18 10.92 10.41 10.76 10.57 10.46C10.62 10.36 10.64 10.24 10.61 10.12C10.56 9.91 10.6 9.68 10.69 9.34C10.73 9.18 10.79 8.98 10.84 8.76C10.93 8.78 11.04 8.79 11.15 8.79H11.17C11.53 8.75 11.89 8.79 12.31 8.85C12.71 8.9 13.18 8.97 13.66 8.95C13.77 8.95 13.88 9 13.96 9.1C14.12 9.34 14.21 9.59 14.39 9.95C14.54 10.24 14.68 10.53 14.83 10.82C14.98 11.12 15.12 11.42 15.28 11.71V11.72L15.71 11.48L15.27 11.72C15.42 11.99 15.66 12.27 15.82 12.48C15.92 12.61 16.08 12.69 16.24 12.68C16.4 12.67 16.56 12.58 16.64 12.44L17 11.87C17.11 11.7 17.1 11.47 16.98 11.31C16.85 11.13 16.75 10.93 16.63 10.68L16.65 10.67ZM12.24 7.2C11.95 7.17 11.66 7.13 11.36 7.09C11.5 6.67 11.62 6.24 11.71 5.8C11.8 5.89 11.9 6 12.01 6.13C12.25 6.41 12.53 6.78 12.82 7.22C12.74 7.22 12.65 7.22 12.58 7.22C12.45 7.22 12.34 7.22 12.24 7.22V7.2Z" fill="black"/>
<path d="M9.45998 6.72C9.32998 6.59 9.14998 6.54 8.97998 6.59L9.10998 7.07L9.45998 6.72Z" fill="black"/>
<path d="M8.03991 3.83C8.03991 3.83 8.05991 3.81 8.06991 3.8C8.09991 3.77 8.12991 3.73 8.14991 3.69C8.17991 3.64 8.29991 3.44 8.36991 3.31C8.44991 3.17 8.44991 2.99 8.36991 2.85C8.30991 2.72 8.25991 2.64 8.18991 2.48C8.08991 2.25 7.82991 2.14 7.59991 2.21C7.30991 2.29 7.19991 2.35 7.04991 2.36C6.87991 2.37 6.70991 2.36 6.51991 2.36C6.32991 2.36 6.11991 2.36 5.90991 2.36C5.50991 2.39 5.08991 2.45 4.72991 2.5C4.62991 2.5 4.55991 2.5 4.38991 2.5C4.23991 2.5 4.04991 2.51 3.84991 2.58H3.82991C3.84991 2.58 3.82991 2.58 3.70991 2.56C3.64991 2.55 3.59991 2.54 3.50991 2.52C3.43991 2.51 3.34991 2.49 3.24991 2.48C3.12991 2.47 3.02991 2.5 2.99991 2.51C2.92991 2.54 2.86991 2.58 2.84991 2.59C2.84991 2.59 2.79991 2.63 2.77991 2.65C2.59991 2.83 2.48991 3.04 2.45991 3.26C2.42991 3.47 2.46991 3.66 2.50991 3.79C2.52991 3.86 2.54991 3.93 2.56991 3.98C2.58991 4.04 2.59991 4.08 2.60991 4.12C2.62991 4.2 2.62991 4.24 2.62991 4.26V4.27C2.57991 4.55 2.57991 4.83 2.58991 5.09C2.58991 5.37 2.60991 5.58 2.60991 5.82V6.78C2.37991 6.78 2.16991 6.78 1.99991 6.78C1.65991 6.78 1.39991 6.76 1.16991 6.65C0.979912 6.56 0.749912 6.61 0.609912 6.76L0.159912 7.22C0.0099121 7.37 -0.0200879 7.6 0.0699121 7.79L0.519912 7.57H0.499912L0.0499121 7.79C0.109912 7.92 0.169912 8.04 0.229912 8.17C0.309912 8.35 0.489912 8.46 0.689912 8.46H2.59991V10.19C2.59991 10.24 2.59991 10.29 2.59991 10.32C2.59991 10.34 2.59991 10.35 2.59991 10.36C2.59991 10.36 2.59991 10.36 2.59991 10.37C2.44991 10.7 2.42991 11.02 2.43991 11.28C2.43991 11.41 2.45991 11.56 2.45991 11.67C2.45991 11.79 2.45991 11.89 2.45991 11.98L2.94991 12.02L2.44991 11.98C2.42991 12.19 2.50991 12.37 2.54991 12.47C2.60991 12.61 2.61991 12.62 2.63991 12.67C2.69991 12.88 2.89991 13.02 3.11991 13.02H3.42991C3.60991 13.02 3.77991 12.92 3.86991 12.76C3.94991 12.62 4.02991 12.46 4.07991 12.33C4.10991 12.24 4.11991 12.15 4.09991 12.06C4.07991 11.95 4.04991 11.83 4.02991 11.76C4.00991 11.68 3.99991 11.64 3.99991 11.6C3.99991 11.27 4.02991 10.93 4.07991 10.54C4.12991 10.16 4.16991 9.73 4.13991 9.28C4.11991 9.01 4.11991 8.74 4.11991 8.45C4.36991 8.48 4.59991 8.52 4.81991 8.56C4.81991 8.56 4.82991 8.56 4.83991 8.56C5.21991 8.62 5.54991 8.72 6.00991 8.82C6.18991 8.86 6.37991 8.8 6.49991 8.66L6.71991 8.41C6.79991 8.32 6.83991 8.2 6.83991 8.09C6.83991 8.12 6.83991 8.11 6.83991 8.09C6.83991 8.07 6.83991 8.04 6.83991 8C6.83991 7.94 6.83991 7.83 6.78991 7.7C6.78991 7.7 6.77991 7.68 6.76991 7.67C6.76991 7.66 6.76991 7.65 6.75991 7.63C6.69991 7.51 6.61991 7.42 6.57991 7.38C6.54991 7.35 6.51991 7.33 6.50991 7.32C6.50991 7.32 6.51991 7.32 6.52991 7.34C6.45991 7.27 6.37991 7.23 6.28991 7.21C6.18991 7.19 6.09991 7.16 6.00991 7.14C5.91991 7.12 5.82991 7.09 5.73991 7.07C5.67991 7.06 5.61991 7.04 5.55991 7.02C5.49991 7 5.41991 6.98 5.34991 6.96C5.19991 6.92 5.01991 6.89 4.82991 6.89C4.57991 6.89 4.35991 6.86 4.15991 6.81V4.1C4.74991 4.06 5.33991 4.01 5.87991 3.97L5.83991 3.47L5.86991 3.97C5.88991 3.97 5.90991 3.97 5.92991 3.97C5.90991 3.97 5.90991 3.97 5.91991 3.97C5.91991 3.97 5.91991 3.97 5.93991 3.97C5.93991 3.97 5.95991 3.97 5.97991 3.97C6.00991 3.97 6.06991 3.97 6.12991 3.94C6.17991 3.92 6.23991 3.89 6.29991 3.85C6.29991 3.85 6.30991 3.85 6.33991 3.85C6.35991 3.85 6.37991 3.86 6.40991 3.87C6.42991 3.87 6.45991 3.89 6.48991 3.89C6.69991 3.95 6.91991 3.97 7.09991 3.97C7.18991 3.97 7.27991 3.97 7.36991 3.97C7.45991 3.97 7.52991 3.97 7.60991 3.97C7.70991 3.97 7.79991 3.94 7.87991 3.9C7.93991 3.86 7.97991 3.82 7.99991 3.81C8.01991 3.79 8.02991 3.77 8.03991 3.77V3.83ZM6.31991 3.9C6.31991 3.9 6.31991 3.9 6.32991 3.9C6.32991 3.9 6.32991 3.9 6.31991 3.9Z" fill="black"/>
<path d="M34.48 6.59C34.37 6.45 34.18 6.38 34 6.41L34.09 6.9L34.48 6.59Z" fill="black"/>
<path d="M32.8499 2.82H32.8399L32.6699 3.28L32.8499 2.82Z" fill="black"/>
<path d="M36.7499 11.44C36.7299 11.29 36.6299 11.15 36.4999 11.08C36.3499 11 36.18 10.92 36.08 10.87C35.86 10.76 35.5899 10.83 35.4499 11.03C35.3599 11.16 35.2099 11.21 34.8399 11.27C34.6599 11.3 34.47 11.3 34.24 11.3C34.03 11.3 33.7599 11.28 33.5099 11.3L33.5399 11.78V11.8L33.5099 11.3C33.2699 11.31 33.03 11.35 32.81 11.38C32.59 11.41 32.3899 11.44 32.1999 11.45C31.9299 11.47 31.6499 11.45 31.3599 11.45V11.43C31.3899 11.24 31.4199 11.03 31.4199 10.83C31.4299 9.96 31.4299 9.1 31.4299 8.23H33.99C34.17 8.23 34.3399 8.13 34.4299 7.98C34.5399 7.78 34.6499 7.6 34.7499 7.44C34.8599 7.27 34.8499 7.04 34.7199 6.88C34.6399 6.77 34.5399 6.66 34.5099 6.61L34.1199 6.92L34.0299 6.43C32.5599 6.68 31.8199 6.65 31.2899 6.41C31.2599 5.98 31.2399 5.53 31.1899 5.09C31.1599 4.8 31.1299 4.49 31.0899 4.19C31.3099 4.28 31.5899 4.38 31.8899 4.44C32.0199 4.46 32.1499 4.49 32.2899 4.52C32.4299 4.55 32.5799 4.58 32.7299 4.61C33.0299 4.66 33.3599 4.7 33.7199 4.66C33.8899 4.65 34.0599 4.7 34.3799 4.77C34.6599 4.83 35.0599 4.9 35.4799 4.73C35.5899 4.69 35.6799 4.61 35.7299 4.51C35.7999 4.38 35.8899 4.23 35.9299 4.04C35.9599 3.87 35.9499 3.68 35.9299 3.47C35.9199 3.2 35.6999 3 35.4299 3C35.1899 3 34.8799 3.02 34.6899 3.03C34.4599 3.03 34.2699 3.03 34.1099 2.99L33.99 3.47L34.1099 2.98C33.8299 2.91 33.5499 2.91 33.3499 2.9C33.1299 2.9 32.9899 2.87 32.8699 2.83C32.4099 2.66 31.9499 2.52 31.4899 2.43C31.4899 2.43 31.4799 2.43 31.4699 2.43C31.2999 2.4 31.1399 2.34 30.9399 2.25C30.7599 2.17 30.5099 2.06 30.2599 2.02C30.1099 1.99 29.9599 2.04 29.8499 2.14C29.7499 2.22 29.6699 2.3 29.5799 2.37C29.4899 2.44 29.3999 2.52 29.3099 2.6C29.1799 2.71 29.1099 2.89 29.1399 3.06C29.1699 3.26 29.1699 3.41 29.1999 3.68C29.2299 3.91 29.2699 4.19 29.3899 4.46C29.5299 4.76 29.5799 5.08 29.6199 5.46C29.6499 5.82 29.6699 6.27 29.7699 6.7L30.2599 6.6L29.7699 6.71C29.8299 7 29.8399 7.3 29.8499 7.66C29.8499 8.01 29.8499 8.41 29.9299 8.82L30.3699 8.74L29.9199 8.82C29.9799 9.16 29.9399 9.51 29.8699 9.95C29.8099 10.32 29.7399 10.77 29.7599 11.23C29.6099 11.52 29.5899 11.81 29.5999 12.04C29.5999 12.14 29.6199 12.33 29.6199 12.39C29.6199 12.49 29.6199 12.56 29.6199 12.62C29.5899 12.81 29.6599 13 29.8099 13.11C29.9099 13.19 30.0199 13.27 30.1299 13.33C30.2399 13.39 30.3999 13.46 30.5999 13.45C30.7899 13.43 30.9399 13.35 31.0399 13.28C31.0999 13.24 31.1599 13.19 31.2199 13.14C31.7299 13.14 32.2599 13.14 32.7899 13.13C33.0999 13.12 33.4199 13.07 33.6899 13.04C33.9699 13.01 34.2199 12.98 34.4699 12.99C34.8399 13.01 35.1899 12.92 35.4199 12.86C35.6899 12.8 35.8299 12.77 35.9599 12.8C36.0999 12.83 36.2499 12.8 36.3599 12.71C36.6099 12.52 36.7499 12.29 36.7999 12.03C36.8399 11.81 36.7999 11.59 36.7799 11.49L36.7499 11.44Z" fill="black"/>
</g>
<defs>
<clipPath id="clip0_302_39902">
<rect width="36.78" height="13.72" fill="white"/>
</clipPath>
</defs>
</svg>
