<svg width="150" height="150" viewBox="0 0 150 150" fill="none" xmlns="http://www.w3.org/2000/svg">
<path d="M98.6269 36.736C101.877 39.4758 103.052 43.0444 104.978 46.6131C105.926 48.3715 107.563 49.7155 107.792 51.8423C108.867 61.8201 105.339 70.4337 99.1829 78.0142L90.3558 83.7844C90.7713 84.2161 90.9863 84.8636 91.485 85.209C92.8148 86.1299 95.5747 87.0998 97.1022 87.9085C98.111 88.4409 99.0224 89.1978 100.057 89.687V82.9239C100.057 82.6908 100.45 80.9007 100.564 80.5554C101.304 78.3279 103.404 75.4729 106.087 76.5752C106.482 76.8515 106.439 79.7208 106.362 80.3424C106.236 81.3583 105.614 81.9022 105.488 82.9181C105.259 84.7859 105.554 87.2926 105.505 89.2697C105.477 90.4209 104.832 91.6929 105.353 92.8528C105.875 94.0126 115.616 99.0058 117.496 100.217C118.617 100.94 122.452 103.527 123.025 104.445C123.526 105.245 124.681 110.682 124.65 111.68C124.575 114.101 122.096 116.699 121.529 119.045C128.029 119.594 134.52 119.335 141 119.045V121.923C136.437 123.034 132.05 122.783 127.387 122.8C107.537 122.878 87.5414 123.221 67.5686 122.777C56.3312 122.527 45.2084 122.285 34.0656 121.629C25.6856 121.134 17.3428 122.887 9.03153 121.897L9 119.048L25.3216 118.472C23.7253 115.185 21.7707 113.053 22.2034 109.153C22.3037 108.25 23.2295 104.339 23.6421 103.694C23.9689 103.182 27.5628 100.551 28.3222 100.05C30.0934 98.8878 41.6804 92.7348 41.9327 91.7937L42.2164 87.6811C37.7254 88.3229 36.066 82.6591 36.4873 79.0473L39.3504 78.7595C39.5367 80.3654 39.66 82.3138 41.0671 83.3642L40.5283 79.9395L43.059 79.3466C43.1765 79.4301 43.7153 81.6634 43.9073 82.0951C44.0592 82.4375 43.7726 82.616 44.5063 82.5008L45.0995 78.4948L47.9425 78.7624C47.7763 81.5137 47.3751 84.265 46.3663 86.8293L45.3661 86.8177L45.0795 89.4079C45.5151 89.854 53.6057 85.0939 54.818 84.6651C56.4602 84.0837 57.9877 84.2535 59.3892 83.0707L59.2258 82.5037C54.9383 81.4936 50.8142 79.4013 47.3063 76.745C46.9624 76.486 46.8564 75.9881 46.5268 75.7262C43.4831 73.3116 41.7951 72.7389 40.2532 68.7846C38.7514 64.9369 38.6855 61.3366 38.7658 57.3276C38.8976 50.717 41.8897 46.3483 43.8786 40.2816L46.223 36.7418C42.3224 36.6065 38.3789 37.421 34.656 35.9101L35.0458 33.1156C39.4851 33.9588 44.0449 33.5617 48.5157 33.1444C50.605 29.3944 53.6372 26.5942 56.2366 23.3479C57.0907 22.2802 61.1775 16.1531 61.8883 16.0149C62.7767 15.8451 65.8175 17.169 66.8349 17.6036C67.9182 18.0698 71.7385 20.3434 72.4178 20.3549C74.0972 20.3865 77.694 16.3085 79.2903 16.2941C82.9129 16.2624 86.5956 23.1321 88.6104 25.6503C90.6309 28.1742 93.0211 30.4852 94.9012 33.1415C96.7039 33.6912 105.373 32.681 106.236 33.8466C106.374 35.2107 106.09 36.7389 104.491 36.7389H98.6212L98.6269 36.736ZM80.0125 20.0469C78.7315 20.6024 77.0778 21.5578 77.4389 23.2098C77.929 23.0687 80.2504 20.2858 80.0125 20.0469ZM67.987 21.4859L66.2732 20.9074L66.9868 23.4947L67.987 21.483V21.4859ZM90.3214 33.2825C90.6796 32.9631 88.4814 30.9715 88.1175 30.7384C84.257 31.3888 80.3622 31.8205 76.4215 31.5702C73.9195 31.409 71.4835 30.5686 69.0016 30.3931C65.5739 30.1542 62.1004 30.7989 58.6927 30.9946C57.0993 31.0867 55.4685 30.8996 53.8722 30.9773L52.5252 32.9947L90.3185 33.2825H90.3214ZM50.2812 36.4943C49.6249 38.5031 47.7276 39.9996 46.8334 41.8041C43.0876 49.3644 40.7949 58.6054 43.5634 66.8967C44.9677 71.1043 46.4351 71.4122 49.5217 73.8613C49.9029 74.1635 50.0605 74.7592 50.5391 75.142C54.7578 78.5092 63.1493 80.2474 68.4542 81.0216C75.9286 82.1123 85.349 82.6304 91.9664 78.5379C93.5886 77.5335 96.5864 75.4643 98.0279 74.27C99.759 72.8339 103.284 64.7296 103.872 62.3007C104.726 58.7752 103.88 55.7332 104.046 52.1531C100.751 47.3671 99.1944 40.9033 94.3022 37.4843C93.7519 37.0987 93.4969 36.8252 92.766 36.7245C90.3214 36.3907 86.7762 36.8252 84.151 36.7504C83.4746 36.7303 82.847 36.454 82.1706 36.4396C71.5523 36.2122 60.8938 36.595 50.2783 36.4972L50.2812 36.4943ZM84.8789 84.7974C82.0302 85.8594 79.1327 85.681 76.1378 85.6694L62.2608 83.6463C62.9114 84.4463 62.7108 85.3615 62.9745 86.2364C63.903 89.31 65.5108 91.5577 67.8495 93.7133L71.4319 88.9733L73.0397 87.4307L75.0115 88.5272L78.1497 92.5621C79.8779 90.6655 81.9528 88.7488 83.5979 86.812C83.8329 86.5328 85.0882 85.0075 84.8789 84.7946V84.7974ZM92.0409 97.1725C91.4878 95.0198 91.0465 92.5966 90.1752 90.559C89.7539 89.5748 88.6821 88.2999 88.4556 87.6523C88.3267 87.284 88.7365 85.7241 87.742 86.3745C87.4927 86.5357 84.8188 90.3979 84.1739 91.1346C81.6576 94.0126 78.2213 96.8732 75.8626 99.7598C73.8049 102.278 70.2311 111.559 69.2194 114.955C68.8812 116.092 68.3453 118.343 68.2765 119.479C68.2507 119.902 68.2364 120 68.7121 119.914C69.0589 119.851 71.2255 117.899 71.7185 117.468C74.4985 115.036 76.9632 112.095 79.8836 109.844C82.4601 107.861 85.4923 106.557 88.0315 104.511C86.1829 103 83.6953 102.14 82.5862 99.9066C82.5862 98.6834 86.0425 97.1725 87.0341 97.1725H92.0438H92.0409ZM70.5463 101.806C68.7923 101.133 67.9498 99.19 66.8378 97.8978C64.9491 95.7048 63.1407 94.1478 61.7736 91.4771C61.189 90.3374 60.4266 87.5401 59.8277 86.8062C59.4379 86.3285 58.7844 87.0566 58.3116 87.1573C57.6495 91.5577 56.2223 95.8141 56.5375 100.341C57.8129 100.459 61.1259 100.217 61.1345 101.904C61.146 104.534 58.7329 105.766 58.2571 108.106C61.2664 108.796 63.9775 110.604 66.4193 112.42L70.552 101.806H70.5463ZM53.4251 103.464L53.6745 94.1565L54.8122 88.2538C51.6712 90.0669 48.0027 91.3793 45.2256 93.7248L44.7814 101.584C44.9018 102.088 49.0717 102.572 49.1147 105.372C49.1291 106.399 48.6504 108.011 48.5186 109.122C48.3982 110.129 48.6046 111.067 48.3896 112.158C47.9397 114.446 45.7931 116.915 44.7929 119.045L64.5106 119.583L65.4019 115.611C63.2381 115.004 61.6189 113.321 59.6872 112.279C58.7271 111.764 54.8982 110.411 54.5256 109.985C53.0497 108.29 56.3598 104.163 55.9586 103.795L53.4223 103.464H53.4251ZM95.0473 100.914C93.772 101.279 90.9404 100.646 89.4645 100.914L92.5855 104.275L92.8033 104.799C92.5912 105.608 91.8919 106.117 91.2757 106.621C86.054 110.874 78.5624 113.534 74.1431 119.333C73.9224 119.62 73.5871 119.698 73.7161 120.196C74.6188 120.15 75.5445 120.262 76.4473 120.21C83.188 119.839 92.4279 119.54 99.0568 119.905C99.9596 119.954 100.871 119.882 101.774 119.905C102.347 119.399 99.6501 117.367 99.5125 117.145C99.0167 116.34 99.2546 114.993 98.6842 113.951C98.2801 113.208 97.5121 113.122 97.4519 112.575C97.3114 111.3 98.0423 110.215 98.0509 109.119C98.0623 107.864 97.1366 106.261 97.6697 105.012C97.7098 104.917 98.9823 103.619 99.0969 103.544C99.7933 103.075 101.51 102.81 101.731 102.163L101.716 94.7867L99.5784 92.9074L93.7605 89.9806L96.8128 99.0489C96.7956 99.1928 95.1734 100.876 95.0502 100.914H95.0473ZM35.1088 111.804C35.1203 107.012 37.8458 104.071 41.6002 101.587L41.9298 96.0214C38.74 97.9755 35.0544 99.6274 31.9333 101.656C31.042 102.235 27.3048 104.934 26.9781 105.599C26.5167 106.54 25.4878 111.266 25.6684 112.213C26.1728 114.86 28.841 116.138 29.8957 118.337C33.8679 118.282 37.7025 119.033 41.6432 119.33L38.055 117.33C37.691 116.984 36.0145 114.621 35.9543 114.23C35.811 113.3 36.8485 113.252 36.7768 112.428L35.1088 111.804ZM104.926 96.8847V102.209C107.05 103.74 109.3 105.133 110.42 107.622C110.847 108.569 111.111 110.477 111.495 111.076C111.678 111.361 112.286 111.43 112.361 111.723C112.512 112.325 108.649 118.417 107.583 118.72C106.783 118.947 106.078 117.784 104.975 118.806L104.923 119.905C105.31 120.323 111.168 119.148 112.232 119.048C113.295 118.947 116.055 119.289 116.671 118.907C117.035 118.679 117.035 117.989 117.324 117.689C118.938 116.017 120.887 114.837 120.987 111.997C121.019 111.125 120.259 107.901 119.975 106.94C119.408 105.021 115.459 103.141 113.891 101.832L104.926 96.8847Z" fill="black"/>
<path d="M65.0717 130.538C65.1793 128.937 66.3406 127.758 68.0004 127.822C69.9463 127.898 69.1787 130.459 71 130.846L69.8614 134.152C67.7314 134.211 66.5106 135.19 64.3126 134.23C63.3836 133.824 61.5226 131.8 61.2649 131.767C59.4918 131.529 59.166 133.41 58.0132 133.774C55.059 134.709 54.0535 130.877 51.9065 130.798C50.0597 130.731 48.5302 134.054 47.0658 135L45.0067 133.427C44.8424 132.786 47.7655 129.575 48.3688 128.993C52.3569 125.132 53.1669 127.624 56.7896 130.224C57.9368 130.387 58.693 127.761 61.2564 127.993C62.4687 128.102 64.644 130.843 65.0689 130.538H65.0717Z" fill="black"/>
<path d="M91.4758 39.3911L92 41.9321C90.6807 42.8505 88.8722 42.526 87.7655 43.8124C93.2814 48.2423 87.6606 56.7632 81.638 56.5459C80.6711 59.0752 79.6255 61.5813 78.3121 63.9542C77.8112 64.861 75.6852 68.5087 74.9833 68.7434C74.4183 68.9317 72.6971 69.2417 72.3185 68.6796C70.7226 64.3279 68.3607 60.3905 68.2267 55.5869C64.3883 54.257 59.2713 51.8523 59.8217 46.9907C59.9441 45.91 60.7333 45.3219 60.6925 44.2586L54 41.4801L55.0659 39.0058C56.2891 38.9189 57.2676 39.8315 58.3044 40.1155C66.9773 42.4709 79.2295 41.3874 88.0684 39.7707C89.2915 39.5476 90.2992 38.5654 91.4758 39.3882V39.3911ZM77.8665 44.8293L78.2859 47.4542C79.6343 47.7121 81.1341 48.1061 81.7224 49.5374C82.2059 50.7166 81.6729 51.4728 81.935 52.5129C85.5113 52.8895 87.2325 49.914 85.6715 46.7647C84.0028 43.3952 81.0264 44.5599 77.8665 44.8293ZM74.3105 49.4012C74.6018 48.9029 74.5202 46.0722 73.5999 45.742C70.4954 45.7043 67.3734 45.5971 64.3795 44.8032L63.6078 47.434C67.2103 47.0747 70.5245 47.1529 70.012 51.7799C70.5216 52.2956 74.0979 49.7663 74.3105 49.4012ZM77.5782 55.8389L73.9407 54.3903L71.5118 55.5869C71.3778 58.3654 72.8631 60.8715 73.798 63.3689C74.296 63.7427 78.0238 56.3228 77.5782 55.8389Z" fill="black"/>
</svg>
