<svg width="150" height="150" viewBox="0 0 150 150" fill="none" xmlns="http://www.w3.org/2000/svg">
<path d="M58.2015 12.1498C58.6566 12.6113 58.133 13.3287 57.8867 13.7757C56.7858 15.7724 55.1614 17.6882 53.8419 19.5522C54.9086 19.4842 56.1285 19.2607 57.1789 19.2234C60.3414 19.1101 66.8327 19.374 69.4178 21.1716C70.9101 22.2096 72.3144 23.6914 73.9176 24.7991C74.7054 25.3432 75.9547 25.795 76.6202 26.4072C77.2856 27.0193 77.8826 28.1805 78.473 28.8574C80.0958 30.7132 82.1215 32.0574 82.2585 34.731C85.2562 36.0751 88.6389 36.4282 90.8374 39.0857C92.6234 41.2427 93.8189 44.1544 94.6197 46.8233C95.582 50.0297 95.4238 52.1544 95.5967 55.403C95.7255 57.8208 96.3355 60.5803 95.7108 62.964C95.5836 63.4499 94.9801 64.2434 95.2525 64.6353C97.6484 66.6045 100.255 68.292 102.687 70.2174C107.34 73.9016 112.365 77.8028 117.298 81.1291C118.178 81.7218 119.375 82.0878 120.309 82.6724C121.431 83.3736 122.428 84.4943 123.535 85.1356C124.643 85.7769 125.907 85.9971 126.964 86.5898C128.021 87.1825 129.146 88.308 130.217 89.0254C130.837 89.44 134.544 91.508 134.66 91.7412C134.81 92.0424 134.745 92.2562 134.664 92.5558C134.505 93.1404 133.199 95.3509 132.778 95.8659C132.158 96.6221 131.194 97.1517 130.516 97.8286C128.259 100.073 126.432 102.311 124.385 104.693C123.663 105.534 120.467 108.416 120.732 109.435C122.094 110.591 123.612 111.539 125.029 112.627C126.032 113.398 126.871 114.619 128.215 114.886C128.009 113.927 127.59 112.552 127.624 111.595C127.673 110.156 128.864 108.301 128.903 106.75C129.115 106.366 131.284 105.772 131.534 105.842C131.865 105.934 132.454 107.953 132.444 108.316C132.41 109.667 131.314 111.535 131.155 112.718C131.077 113.307 131.361 113.82 131.314 114.402L135.985 107.144C136.466 107.422 138.314 108.128 138.322 108.651C138.332 109.258 136.11 112.156 136.37 112.46C136.833 112.031 140.044 109.709 140.367 109.707C140.801 109.705 142.354 111.497 141.923 112.225C141.571 112.821 139.522 113.999 138.896 114.564C137.265 116.042 135.944 117.804 133.975 119.067C133.669 119.263 133.475 119.506 133.062 119.398C132.599 119.275 132.524 118.491 132.212 118.612L130.906 120.086C130.392 120.122 129.21 119.456 128.701 119.181C125.561 117.488 123.261 115.205 120.334 113.241C119.857 112.922 119.399 112.551 119 112.139L111.742 119.182C113.029 121.189 115.356 121.913 117.126 123.383C118.926 124.879 120.476 126.653 122.178 128.243C122.456 128.502 123.092 128.76 123.23 128.978C123.274 129.048 123.646 130.123 123.645 130.186C123.64 130.567 123.088 130.73 123.018 131.022C122.938 131.356 123.392 131.845 122.997 132.126C122.692 132.343 120.549 132.807 119.972 133.007C118.841 133.399 117.223 133.911 116.196 134.441C115.438 134.832 114.899 135.511 114.188 135.848C113.852 136.007 111.769 136.62 111.575 136.505C111.28 136.016 110.716 134.107 110.959 133.694C111.031 133.571 112.699 132.653 112.932 132.337L115.818 131.075C112.957 130.779 110.235 132.453 107.41 131.731L107.659 129.045L112.231 127.995C111.897 127.223 109.241 127.2 108.984 126.849L109.641 124.135L112.066 124.274L109.375 121.53C108.189 122.544 106.702 123.315 105.541 124.355C103.531 126.154 102.422 128.726 100.41 130.431C98.627 131.939 96.3469 133.027 94.8562 134.954C94.362 135.594 93.6346 137.592 93.2415 137.883C92.7555 138.245 91.8747 137.696 91.4083 137.412C90.1655 136.656 89.531 134.819 88.7139 133.613C87.383 131.649 85.8401 129.832 84.7001 127.723C84.0102 126.447 83.6399 125.114 83.0169 123.89C80.0664 118.083 76.3527 112.13 72.8934 106.583C71.5119 104.369 69.8239 102.572 68.1929 100.554C66.2553 100.967 63.9964 101.304 62.2643 102.285C61.6086 102.658 61.1862 103.249 60.3153 103.587C57.7236 104.593 50.2847 104.688 47.8007 103.482C45.7506 102.486 42.867 99.2926 42.0923 97.1695C40.7516 93.495 41.7841 89.0967 41.6112 85.2667C39.2365 85.1534 36.7981 84.6093 34.5996 83.7267C31.8987 82.6433 31.6801 81.4287 29.9333 79.6182C29.0396 78.6903 27.8229 77.8644 26.8475 76.8538C23.8057 73.7024 22.9495 71.3948 21.2516 67.5162C20.2942 65.3316 19.04 63.3025 18.7758 60.828L18.1381 61.0839C15.3083 63.3511 13.6757 66.8733 11.5277 69.7429C10.9031 70.1672 9.56565 68.8555 9.00459 68.4895C8.92141 68.2126 9.99297 66.4134 10.2262 66.0199C11.3548 64.1106 13.0869 61.6102 14.4684 59.8709C15.3622 58.7438 16.4419 57.8418 17.6145 57.0062C16.2184 52.3827 15.7047 47.5682 15.1909 42.7779C15.1126 42.0557 15.2545 41.2686 15.1713 40.5302C15.0213 39.1877 13.3609 34.6905 14.47 33.8112C14.6723 33.6509 15.385 33.3626 15.6802 33.2314C18.2294 32.0978 21.038 31.0922 23.6345 30.0379C23.5203 28.8752 24.7974 28.4088 25.1073 27.8582C26.0744 26.14 24.7941 24.2274 24.7974 22.5481C24.799 21.6995 25.1904 20.7538 25.4612 19.957C25.7091 19.7935 25.9945 19.7174 26.2751 19.6315C29.3348 18.7052 33.1219 19.8825 36.3105 20.038C38.1519 20.1271 40.0161 19.9894 41.8607 20.0331C42.7235 20.0542 43.963 20.3716 44.7965 20.37C45.6299 20.3684 48.2476 19.8615 49.1235 19.6477C50.5114 19.3093 51.6433 16.7052 52.6154 15.8291C52.9008 15.5716 53.3396 15.5344 53.5956 15.183C53.8517 14.8316 53.8501 14.302 54.0784 13.8826C54.6117 12.9077 55.3669 11.9927 55.9605 11.0502L56.3324 11C56.7092 11.4259 57.903 11.847 58.2015 12.1498ZM78.7388 34.5011C78.4501 34.1626 77.7863 33.7432 77.4079 33.314C76.4375 32.2144 75.4377 30.5238 74.4722 29.591C73.7317 28.8752 72.5003 28.4703 71.6343 27.8744C70.2789 26.9416 67.8015 24.4266 66.6793 23.889C65.0728 23.1181 61.4439 22.7133 59.6286 22.6307C56.7108 22.4979 53.8011 22.7667 50.9029 23.0323C48.657 25.2995 47.2234 28.1513 45.1928 30.5918C43.1622 33.0323 40.7777 35.6298 38.5873 38.1642C36.118 41.0241 33.8183 44.1107 31.2512 46.9075C28.3611 50.0589 25.5558 52.4135 22.9495 55.9876C22.4961 56.6078 21.356 58.0799 21.4147 58.7552C21.6039 60.9333 23 63.1454 23.8579 65.0855C24.2787 66.0393 24.543 67.0612 24.9915 68.0069C26.8818 71.9972 30.3378 74.8992 33.2866 78.0652C38.2889 83.4368 47.424 81.9388 53.806 80.4538C54.6329 80.2611 55.8806 80.138 56.5983 79.8255C57.8035 79.3008 60.4066 77.0466 61.7163 76.164C63.4582 74.9899 64.8233 74.0603 66.5097 72.828C68.1962 71.5956 70.4388 70.9348 71.755 68.9689C72.5362 67.8013 72.7123 65.9729 73.5768 64.7891C74.3107 63.7851 76.1097 62.896 76.581 62.1057C77.1193 61.2005 77.2351 59.6523 77.894 58.5527C78.3148 57.8515 79.1335 57.2637 79.5152 56.6013C80.3502 55.1487 80.0208 53.3188 80.2801 51.6961C80.7368 48.8394 80.82 46.6986 80.5884 43.7512C80.4709 42.2662 79.476 35.3642 78.7388 34.4994V34.5011ZM46.3378 23.2785L43.7298 23.6817C42.8002 25.3529 41.011 26.1918 39.7274 27.4792C38.7879 28.4218 38.0034 29.8598 37.126 30.8865C35.1003 33.2606 32.6065 35.3302 30.6167 37.6978C29.4114 39.131 28.4165 41.2605 27.2536 42.7763C25.5183 45.0387 23.2023 47.8386 21.3071 49.9844C20.9727 50.3617 19.8066 51.3074 19.6712 51.6054C19.4168 52.1609 20.1817 53.6362 20.0838 54.352C21.8355 52.4961 23.1958 50.2581 24.892 48.3617C28.2143 44.6419 31.9036 41.1423 35.1737 37.3626C38.2693 33.7853 42.0336 29.6217 44.7753 25.8501C44.9694 25.5829 46.4699 23.4032 46.341 23.2785H46.3378ZM39.3262 23.4404L37.7213 23.4663L36.392 26.5141L39.3262 23.4404ZM35.9011 27.1635L34.761 26.676L35.1672 28.1286L35.9011 27.1635ZM29.8665 31.2072C29.1749 30.4266 27.999 29.7205 27.4151 30.9659L27.8277 31.5294L28.6693 30.7586L29.8665 31.2072ZM20.2437 35.0938C19.8963 35.1909 18.3485 35.578 18.2898 35.8306L19.4315 37.8436C19.7658 38.0735 20.1458 35.3318 20.2437 35.0938ZM67.8683 88.7469C67.7085 87.6554 67.9858 86.2368 67.8683 85.1048C66.8457 85.4449 63.1222 87.6036 62.3132 86.6092C62.1811 86.4473 61.5075 84.3858 61.5075 84.2157V80.8975C60.6203 81.2911 59.9728 82.0813 59.0578 82.4328C55.4794 83.8076 50.774 84.2676 47.0293 84.9008C46.2709 85.0287 45.4799 85.1242 44.7068 85.1048C44.6872 86.6967 44.7345 88.2934 44.7149 89.887C44.6921 91.7736 44.3268 92.6319 44.9889 94.6205C45.6788 96.6934 48.5379 99.895 50.5816 100.724C52.1799 101.372 56.1073 101.291 57.7563 100.724C58.5326 100.459 59.1263 99.7622 59.8243 99.3768C61.7864 98.2934 64.347 97.7881 66.5635 97.5679C67.1279 97.0723 62.5301 93.3444 62.1534 92.9622C61.987 92.7922 60.8975 91.5614 60.8731 91.4659C60.7344 90.9234 62.124 89.8076 62.491 89.3866L62.703 89.3364C63.0537 89.3655 65.9095 92.0003 66.4037 92.4667C68.811 94.7371 69.4912 95.5161 70.9917 98.4343C72.3894 101.152 75.0936 103.453 76.8077 106.258C80.3307 112.02 83.9417 117.804 86.9802 123.84C87.2933 124.462 87.4434 125.228 87.7386 125.84C88.908 128.266 90.6939 130.794 92.4162 132.85C94.0684 129.585 97.8865 128.306 100.167 125.652C101.437 124.173 102.334 122.41 103.828 121.032C105.126 119.835 106.828 118.991 108.157 117.882C110.51 115.916 112.392 113.354 114.573 111.22C115.046 110.756 115.86 110.355 116.374 109.851C117.599 108.653 117.917 107.435 118.727 106.037C120.344 103.252 124.511 99.1954 126.836 96.7663C127.967 95.5857 128.955 94.2205 130.34 93.2829L130.498 92.8764C128.937 92.3436 127.826 90.9444 126.471 90.1542C125.323 89.4853 123.963 89.1696 122.785 88.4716C121.591 87.7623 120.604 86.6546 119.461 85.942C118.46 85.3186 117.292 84.9412 116.258 84.2643C114.108 82.857 111.657 80.8943 109.473 79.3429C104.65 75.9194 100.038 72.3454 95.3553 68.7519C94.5952 68.1689 92.444 66.5916 91.9971 65.9308C91.591 65.3316 92.2564 65.1503 92.3347 64.7875C92.3575 64.6806 92.0036 64.8005 91.9889 64.4734C91.9596 63.8758 92.3118 62.9268 92.3412 62.2094C92.488 58.6774 92.046 51.7253 91.0723 48.4006C90.2976 45.7528 88.1757 40.5043 85.5955 39.2686C84.8729 38.9237 84.0281 38.7925 83.2844 38.4865C83.0707 40.0006 83.6742 41.4775 83.8324 42.9609C84.3396 47.7301 84.0705 51.8305 83.5094 56.5187C83.2305 58.8523 81.7659 59.4159 80.9178 61.3106L87.6293 61.4029C89.0613 61.8143 90.6042 61.3624 90.5455 63.3268C90.5194 64.1948 89.4576 69.1373 89.7251 69.4045C90.5634 69.3883 91.5698 69.0515 92.3901 69.0919C92.6919 69.1065 94.6132 69.4936 94.8268 69.6021C95.5901 69.9859 95.1693 71.6134 95.0601 72.3518C94.4338 76.5931 93.7732 80.8992 93.1029 85.1388C92.5125 88.8813 91.6807 91.623 91.3528 95.542C91.3055 96.1088 90.8586 97.3331 90.95 97.7509C91.0185 98.0602 93.0752 100.096 93.4715 100.565C97.8605 105.788 102.078 110.505 106.007 116.126C106.249 116.473 107.237 117.874 107.162 118.172C106.452 118.706 105.159 119.989 104.319 119.257C102.726 117.866 100.958 114.369 99.5077 112.541C97.2782 109.728 94.4827 106.803 92.0933 104.037C89.5098 101.046 84.4081 96.363 83.8748 92.4473C83.7313 91.3979 83.8422 90.2319 83.5274 89.1485C81.4854 89.8805 79.4809 89.4999 77.4047 89.6278C74.6092 89.7995 71.8479 90.3129 69.0916 90.7809L68.6822 90.687C68.4685 90.5817 67.9107 89.0222 67.87 88.7436L67.8683 88.7469ZM24.3211 41.2443C23.2496 41.0306 21.5468 40.6063 21.7116 42.2128C22.8859 42.2338 23.7666 42.4492 24.3211 41.2443ZM20.8961 45.2913C20.2029 45.5002 19.4934 45.4629 18.7758 45.4516C18.8818 45.803 18.8753 47.5552 19.1835 47.552L20.8961 45.2913ZM87.1139 64.713C85.7406 64.6482 84.3266 64.7989 82.9565 64.7098C82.2096 64.6612 80.5247 64.1997 80.0028 64.2337C79.7631 64.2499 79.6049 64.3778 79.6081 64.6272C79.6114 64.9025 81.5164 67.4304 81.8475 68.0766C84.3103 72.8895 84.5957 78.0376 85.6672 83.223C86.1891 85.7461 87.1775 88.6011 87.5592 91.0562C87.6945 91.9242 87.5869 92.8084 87.8152 93.7169C87.856 93.8805 87.8609 94.2043 88.0925 94.1655L91.6856 72.8846C90.7673 72.7729 86.7616 72.6239 86.3816 71.8304C85.8042 70.6255 87.0046 66.2029 87.1155 64.7098L87.1139 64.713ZM80.1007 72.964C79.3243 70.6806 78.6459 68.5494 77.0834 66.6563C76.1831 67.5438 76.0722 68.8247 75.6139 69.8887C74.9158 71.5049 72.8608 73.3381 71.3472 74.2336C70.6753 74.632 69.6298 74.7615 69.1748 75.5551C71.6375 76.2449 73.6844 77.6409 76.3511 77.6603L75.8862 73.1535C75.945 73.0595 77.7896 72.7891 78.0652 72.7907C78.7502 72.7939 79.2787 73.3186 80.1023 72.9656L80.1007 72.964ZM71.2934 84.0522C71.3766 84.8295 71.2934 85.8303 71.2934 86.6416C71.2934 86.742 71.4222 86.8862 71.2934 87.0449C73.549 86.891 75.7933 86.3696 78.0652 86.2384C78.7356 86.1995 82.2634 86.3858 82.4787 86.0862L81.717 81.8838C79.7125 82.1348 78.0995 81.4919 76.2271 81.1C73.4773 80.5234 71.9882 80.0635 69.3884 78.9834C68.3381 78.5478 67.3154 78.0166 66.2912 77.5275L64.3389 78.8668L65.0973 82.6773C65.8051 82.3081 66.5391 81.9728 67.2942 81.704C67.8618 81.5016 70.1827 80.6222 70.4795 81.1809C70.6899 81.5761 71.2445 83.589 71.2934 84.0538V84.0522Z" fill="black"/>
<path d="M115.821 18.5837C117.574 18.1854 119.293 15.0129 120.865 14.7684C122.63 14.4931 124.63 17.706 124.915 19.1894C125.328 21.3351 125.013 22.8898 123.883 24.7246C123.713 25.0015 123.281 25.2039 123.193 25.4954C122.738 27.0112 123.755 27.0274 124.529 27.8274C125.84 29.1829 126.911 31.28 126.052 33.1893C125.691 33.9893 123.649 35.3755 122.746 35.4241C121.717 35.4792 117.523 33.382 117.289 33.6363C117.328 34.1302 117.259 34.5869 116.892 34.9432L115.525 35.1261C114.578 37.6929 109.9 41.1682 107.168 40.3601C106.979 40.3034 105.042 39.0646 104.89 38.8994C103.606 37.5018 103.448 35.2104 104.21 33.5262C104.49 32.9043 105.71 31.5715 105.528 30.9934C105.444 30.7327 102.796 29.9489 102.173 29.6185C99.9692 28.4493 98.5486 27.1521 98.8569 24.4914C99.0085 23.1845 101.303 19.923 102.496 19.3611C103.688 18.7991 106.803 18.9141 108.036 19.4291C109.333 19.97 110.473 21.1554 111.577 21.9829L111.665 20.3683C111.314 19.9392 110.766 19.5797 110.435 19.1522C110.233 18.8931 110.228 18.5157 110.023 18.2663C109.652 17.8145 107.658 15.97 107.658 15.5894L109.538 13.6267L111.74 15.3465L110.944 12.3765C111.045 12.017 113.12 11.3984 113.594 11.4777C114.018 11.6218 115.922 17.6591 115.821 18.5837ZM122.506 31.3691C122.558 30.2177 121.425 29.9278 120.717 29.1796C119.549 27.944 118.756 26.4379 119.489 24.7327C119.702 24.2355 120.113 24.0606 120.36 23.6542C121.286 22.1254 121.506 20.4558 120.958 18.7457C119.724 20.3603 117.825 21.1732 116.22 22.3117C116.377 24.757 116.15 27.3027 117.202 29.5926L122.506 31.3675V31.3691ZM107.829 36.7116C109.447 36.3618 112.679 34.8492 113.143 33.1521C113.314 32.5254 112.542 30.459 112.414 29.6509C112.228 28.4898 112.327 27.293 112.03 26.1464L107.379 22.8315C105.066 22.838 102.065 22.0736 102.616 25.4533C102.838 26.8088 104.438 26.7602 105.464 27.1586C106.514 27.5667 109.036 29.1634 109.385 30.2274C109.954 31.9634 107.809 33.1067 107.539 34.4006C107.354 35.2832 107.68 35.8857 107.827 36.7116H107.829Z" fill="black"/>
<path d="M123.486 69.2425C124.308 68.9219 126.071 67.7187 126.844 67.6263C127.254 67.5778 129.286 67.7899 129.448 68.1122C129.498 68.2142 129.345 70.1365 129.286 70.3858C129.04 71.4498 127.849 72.8879 127.513 74.2903C127.401 74.7567 127.278 76.5299 127.166 76.6967C126.998 76.9445 124.413 76.6433 124.323 76.5024L124.463 73.2895C123.175 73.2522 121.614 73.5065 120.794 72.3178L120.316 75.5648C120.055 75.9437 118.115 75.6263 117.611 75.4741C116.803 74.9413 117.793 70.4328 118.098 69.479C118.327 68.7583 119.683 65.5745 120.143 65.1972C120.63 64.7972 122.451 65.079 123.088 65.3462L123.486 69.2409V69.2425Z" fill="black"/>
<path d="M23.9688 76.0684C24.8006 77.7575 25.5215 79.5081 26.1184 81.2975C26.5768 82.6756 27.557 85.5323 27.6614 86.8651C27.676 87.0594 27.6728 87.27 27.4656 87.372C27.1802 87.5129 24.9931 87.9809 24.8267 87.8384L23.5056 83.3218L21.5484 83.8092L21.6887 85.8886L18.9519 86.5477C18.841 85.8562 18.4643 85.155 18.3305 84.491C18.1805 83.7461 18.2212 82.9655 18.1038 82.2886C17.8738 80.9655 17.3731 79.6668 17.4791 78.3113C18.2636 78.3842 19.2749 77.6894 19.999 77.8109C20.3431 77.8692 20.6204 78.5575 21.0575 78.6287L21.219 76.6028C21.798 76.4733 23.5024 75.7769 23.9688 76.0668V76.0684Z" fill="black"/>
<path d="M52.8633 116.504V119.012C52.8633 119.344 50.9322 120.765 50.5 120.721C50.2374 120.695 49.0549 119.131 48.9832 118.816C48.6374 117.31 49.2653 115.516 48.6325 113.824C48.2525 112.805 47.2087 112.136 46.8499 111.103C46.8727 110.99 48.4662 109.752 48.6668 109.665C49.9096 109.126 50.7348 111.119 51.4639 111.824L52.374 113.589C52.6186 112.248 52.8144 110.833 53.545 109.65C53.6249 109.522 54.3442 108.604 54.4046 108.559C54.6737 108.356 56.8641 108.562 57.1104 108.81C57.3827 109.085 57.174 110.784 57.0728 111.208C56.9391 111.773 55.8366 112.781 55.587 113.78C55.45 114.332 55.4141 116.256 55.2412 116.512C54.9819 116.896 53.3836 116.305 52.8665 116.502L52.8633 116.504Z" fill="black"/>
<path d="M101.098 99.8594C101.926 99.7185 104.391 100.766 104.658 101.607C104.857 102.232 103.929 104.476 103.386 104.732C102.597 105.103 99.9089 103.837 99.5468 103.111C99.1847 102.386 100.295 99.997 101.1 99.8594H101.098Z" fill="black"/>
<path d="M107.128 94.0408C107.367 93.9857 107.663 93.9614 107.902 94.0068C108.436 94.1072 109.956 95.9549 109.956 96.5136C109.956 97.2262 107.985 99.1938 107.256 99.1938C106.524 99.1938 104.769 97.1711 104.732 96.5023C104.691 95.7979 106.46 94.1914 107.128 94.0408Z" fill="black"/>
<path d="M57.2506 27.8339C57.4512 28.1902 56.1203 30.0234 56.0225 30.5562C55.9589 30.9027 56.1399 31.1553 56.0893 31.4112C56.0469 31.625 55.6848 31.8436 55.799 32.1788C60.9268 31.5408 63.2542 35.097 63.6245 39.7091C63.8071 41.9958 63.052 43.1909 61.664 44.8864C63.6946 48.2111 65.5931 52.0475 66.645 55.8111C66.7511 56.19 67.0805 57.2038 67.0512 57.505C67.0397 57.6216 66.0416 59.3398 65.9209 59.4612C65.2799 60.1122 64.1252 59.2669 63.3733 59.058C62.261 58.7487 61.0361 58.577 59.9499 58.2467C57.2751 57.4321 54.8726 56.0313 52.4539 54.6839C49.1104 56.7357 43.079 59.1325 40.2329 55.1536C39.9997 54.8281 39.2755 53.0791 39.0831 53.0645C37.8925 53.926 36.6382 54.6775 35.3074 55.3026C34.7382 55.5714 32.9441 56.5074 32.4744 56.2191C32.2868 56.1042 31.3767 54.2256 31.4044 53.8694C31.6654 53.369 33.7221 52.6564 34.257 52.3163C40.3683 48.4297 46.1191 40.3877 50.0612 34.3343C50.9452 32.9772 52.4229 30.6533 53.0932 29.2509C53.3313 28.7521 53.6624 27.2493 53.9234 26.9999C54.8612 26.1027 56.396 27.395 57.2522 27.8355L57.2506 27.8339ZM57.1038 35.7415L54.0049 35.6573C53.5874 36.6063 50.7511 39.1974 50.606 39.9067C50.4788 40.5286 52.4979 41.6022 52.935 42.0638C53.2302 42.4217 54.5578 44.5447 54.7699 44.6176C55.7028 44.9366 57.8443 43.369 58.4102 42.6176C56.7156 42.0233 54.2969 40.752 54.6981 38.6095C54.7878 38.1334 55.8887 36.4168 56.2785 36.1334C56.639 35.8727 56.9994 36.0185 57.1054 35.7415H57.1038ZM51.2306 49.9827C50.5603 50.5091 50.2292 51.8321 49.2147 51.7593C48.4514 51.7042 46.2007 50.1317 45.7766 49.4888C45.2498 48.6921 45.4667 48.2532 45.4439 47.3933C44.5306 48.8702 42.8588 49.5471 41.7905 50.8394C43.1622 55.3657 50.0677 53.8726 51.2306 49.9811V49.9827ZM62.3229 55.1617C61.3525 52.5479 60.4049 49.8823 58.8163 47.5585C57.7953 48.4848 56.5003 49.05 55.1678 49.3577L54.6687 52.3957C57.1005 53.6572 59.5715 54.8005 62.3213 55.1617H62.3229Z" fill="black"/>
</svg>
