<svg width="80" height="80" viewBox="5 15 85 90" fill="currentColor" xmlns="http://www.w3.org/2000/svg">
<path d="M40.3675 85.7349C38.192 86.5968 36.7003 86.1011 35.49 84.8126C31.8991 80.6917 28.2412 76.6649 24.7845 72.3558C21.8523 68.7045 13.2619 62.4389 9.59372 61.811C8.57256 61.6507 7.57842 61.6517 6.74548 61.6256C5.18861 63.2123 3.86002 64.6779 4.68182 67.1087C5.99928 68.0479 6.88722 69.3905 9.03667 69.3615C11.0249 69.3596 13.0812 70.2578 15.0835 70.8335C15.7823 71.0478 16.8975 71.2752 17.1398 71.7317C18.0026 74.9013 21.2683 76.0939 23.0171 78.6179C26.0844 83.0751 29.6082 87.2901 34.904 90.2137C34.8109 91.1408 34.7718 92.3902 34.7457 93.2232L37.4747 95.1685C38.8713 94.6029 40.4291 94.0104 41.8928 93.3507C42.4527 88.7825 47.0181 86.36 48.1426 82.1943C49.3071 77.7733 52.7973 74.8682 55.1582 71.1581C57.6532 67.2598 60.78 63.6699 63.0868 59.6374C65.3536 55.8602 69.113 53.5728 71.6621 49.9969C74.2112 46.4209 76.451 42.4825 79.4706 39.242C82.262 36.1226 86.3578 34.3588 88.3693 30.5416C87.8577 29.4673 87.2791 28.4872 86.7676 27.4129L83.3827 27.9804C83.0874 28.1956 82.6038 28.2767 82.4026 28.559C79.2767 33.143 74.6853 36.3985 71.7747 41.2779C68.9983 45.9691 66.0877 50.8485 62.1551 54.5736C55.2158 61.1227 50.7232 69.4159 45.1014 76.9041C43.0619 79.566 41.8023 82.9258 40.3675 85.7349Z"/>
</svg>