<svg width="80" height="80" viewBox="0 0 72 83" xmlns="http://www.w3.org/2000/svg">
<path d="M41.8523 8.68154C43.0387 8.46211 44.4549 8.26772 45.986 8.08585C46.2272 19.7372 44.0156 24.0299 35.1145 39.5672C38.0019 47.2057 43.9618 53.3191 49.6021 59.1651C55.2424 65.0112 60.4129 71.9685 68.7788 75.2054L68.1902 80.605C67.336 80.9769 66.4942 81.2339 65.0655 81.5432C61.8737 80.9628 62.1073 76.687 59.1682 74.8554C56.4463 73.1637 54.1943 70.3607 51.7774 68.0047C49.3729 65.5339 46.956 63.178 44.679 60.6048C42.4145 57.9167 40.2774 55.1262 38.0254 52.3233C35.8758 49.6477 33.7387 46.8572 31.1671 43.7869C25.8056 49.2475 19.9574 53.8414 16.7559 60.8162C16.451 61.4804 16.1335 62.2596 15.7137 62.9113C12.865 67.7158 12.865 67.7158 15.1862 73.0838C14.6139 74.0677 14.0542 74.9367 13.4569 76.1504L9.32106 75.6996C8.91161 75.1899 8.3998 74.5529 8.00287 73.9284C7.63856 64.4724 12.9205 57.6081 18.215 50.6289C20.9385 46.9733 24.391 44.0946 27.6639 40.7313L28.002 37.6294C24.2249 31.754 20.5251 26.2357 17.195 20.5252C15.6198 17.9122 14.2995 15.0946 13.3488 12.0847C12.2958 8.9474 11.5999 5.73279 7.86692 2.65215C10.2773 1.86863 11.9483 1.46951 13.7593 0.85315C14.5156 2.44684 16.5378 5.22477 17.361 8.33701C19.2521 15.5181 23.2464 21.5335 27.3431 27.6763C28.841 29.9321 30.2114 32.2902 32.0812 35.4003C34.9822 31.1827 36.3646 27.0322 38.6285 23.3264C41.1973 18.9564 39.6303 14.1356 41.8523 8.68154Z"/>
</svg>